<?xml version="1.0" encoding="iso-8859-1"?>
<!-- Generator: Adobe Illustrator 17.1.0, SVG Export Plug-In . SVG Version: 6.00 Build 0)  -->
<!DOCTYPE svg PUBLIC "-//W3C//DTD SVG 1.1//EN" "http://www.w3.org/Graphics/SVG/1.1/DTD/svg11.dtd">
<svg version="1.1" id="Capa_1" xmlns="http://www.w3.org/2000/svg" xmlns:xlink="http://www.w3.org/1999/xlink" x="0px" y="0px"
	 viewBox="0 0 460.264 460.264" style="enable-background:new 0 0 460.264 460.264;" xml:space="preserve">
<path d="M266.24,60.664L211.632,6.062l0,0.001c-8.083-8.083-21.238-8.084-29.324-0.005c-3.918,3.917-6.077,9.125-6.078,14.666
	c-0.001,5.54,2.156,10.748,6.073,14.666l44.538,44.543c9.017,9.017,13.981,21.005,13.981,33.756v309.869c0,3.59,2.91,6.5,6.5,6.5
	h8.605v23.706c0,3.59,2.91,6.5,6.5,6.5s6.5-2.91,6.5-6.5v-23.706h8.606c3.59,0,6.5-2.91,6.5-6.5V103.617
	C284.034,87.39,277.715,72.136,266.24,60.664z M253.822,339.418h17.212v11.876h-17.212V339.418z M236.034,70.742l-44.538-44.543
	c-1.461-1.462-2.267-3.405-2.266-5.473s0.806-4.012,2.269-5.473c3.017-3.016,7.925-3.016,10.941,0.002c0,0,0,0,0,0l54.608,54.602
	c9.019,9.017,13.985,21.006,13.985,33.76v222.801h-17.212v-27.282h3.977c3.59,0,6.5-2.91,6.5-6.5s-2.91-6.5-6.5-6.5h-3.977V113.689
	C253.822,97.467,247.505,82.214,236.034,70.742z M253.822,417.058v-52.765h17.212v52.765H253.822z"/>
</svg>
