<?xml version="1.0" encoding="iso-8859-1"?>
<!-- Generator: Adobe Illustrator 17.1.0, SVG Export Plug-In . SVG Version: 6.00 Build 0)  -->
<!DOCTYPE svg PUBLIC "-//W3C//DTD SVG 1.1//EN" "http://www.w3.org/Graphics/SVG/1.1/DTD/svg11.dtd">
<svg version="1.1" id="Capa_1" xmlns="http://www.w3.org/2000/svg" xmlns:xlink="http://www.w3.org/1999/xlink" x="0px" y="0px"
	 viewBox="0 0 448.202 448.202" style="enable-background:new 0 0 448.202 448.202;" xml:space="preserve">
<path d="M283.834,264.542h-36.167v-97.975c0-1.127-0.293-2.235-0.851-3.215l-7.683-13.5v-67.02c0-5.901,2.142-11.597,6.031-16.035
	l8.291-9.465l0.326,0.307c1.255,1.18,2.855,1.764,4.451,1.764c1.73,0,3.458-0.688,4.737-2.048c2.458-2.616,2.331-6.729-0.284-9.188
	l-0.658-0.619l3.094-3.532l0.794,0.715c1.242,1.12,2.799,1.672,4.35,1.672c1.776,0,3.547-0.725,4.83-2.148
	c2.403-2.666,2.19-6.776-0.477-9.18l-0.93-0.838l9.974-11.386c2.251-2.57,2.128-6.445-0.281-8.867L271.376,1.915
	c-1.279-1.285-3.022-1.971-4.85-1.911c-1.813,0.066-3.514,0.889-4.694,2.266l-10.29,12.006l-1.281-1.155
	c-2.665-2.403-6.776-2.19-9.18,0.477c-2.403,2.666-2.19,6.776,0.477,9.18l1.522,1.372l-2.652,3.094l-1.439-1.353
	c-2.615-2.458-6.729-2.331-9.188,0.284c-2.458,2.616-2.331,6.729,0.284,9.188l1.874,1.761l-13.905,16.224
	c-5.795,6.763-8.986,15.391-8.986,24.296v72.209l-7.683,13.5c-0.558,0.979-0.851,2.088-0.851,3.215v97.975h-36.167
	c-3.59,0-6.5,2.91-6.5,6.5s2.91,6.5,6.5,6.5h36.167v87.361c0,1.009,0.235,2.005,0.687,2.907l7.847,15.69v29.191l-14.254,9.821
	c-1.761,1.213-2.813,3.215-2.813,5.353v13.837c0,3.59,2.91,6.5,6.5,6.5h51.199c3.59,0,6.5-2.91,6.5-6.5v-13.837
	c0-2.138-1.052-4.14-2.813-5.353l-14.254-9.821V383.51l7.848-15.701c0.451-0.902,0.686-1.897,0.686-2.906v-87.361h36.167
	c3.59,0,6.5-2.91,6.5-6.5S287.424,264.542,283.834,264.542z M267.123,16.072l2.762,2.777l-5.854,6.683l-2.83-2.551L267.123,16.072z
	 M252.739,32.855l2.725,2.457l-2.914,3.327l-2.64-2.482L252.739,32.855z M227.925,61.807l13.516-15.77l2.538,2.386l-8.592,9.808
	c-5.967,6.81-9.253,15.547-9.253,24.602v62.24h-4.066V77.644C222.068,71.84,224.148,66.215,227.925,61.807z M213.535,183.671h10.566
	c3.59,0,6.5-2.91,6.5-6.5s-2.91-6.5-6.5-6.5h-10.566v-2.384l5.813-10.214h9.508l5.813,10.214v96.255h-21.133V183.671z
	 M222.068,388.469l4.066,0.002v21.135h-4.066V388.469z M234.667,363.369l-6.046,12.097h-9.037l-6.05-12.098v-0.491h21.133V363.369z
	 M243.201,435.202h-38.199v-3.922l12.589-8.674h13.021l12.589,8.674V435.202z M234.667,349.877h-21.133v-72.335h21.133V349.877z"/>
<g>
</g>
<g>
</g>
<g>
</g>
<g>
</g>
<g>
</g>
<g>
</g>
<g>
</g>
<g>
</g>
<g>
</g>
<g>
</g>
<g>
</g>
<g>
</g>
<g>
</g>
<g>
</g>
<g>
</g>
</svg>
