<?xml version="1.0" encoding="iso-8859-1"?>
<!-- Generator: Adobe Illustrator 17.1.0, SVG Export Plug-In . SVG Version: 6.00 Build 0)  -->
<!DOCTYPE svg PUBLIC "-//W3C//DTD SVG 1.1//EN" "http://www.w3.org/Graphics/SVG/1.1/DTD/svg11.dtd">
<svg version="1.1" id="Capa_1" xmlns="http://www.w3.org/2000/svg" xmlns:xlink="http://www.w3.org/1999/xlink" x="0px" y="0px"
	 viewBox="0 0 362.859 362.859" style="enable-background:new 0 0 362.859 362.859;" xml:space="preserve">
<path d="M298.322,17.896C266.998,6.355,225.484,0,181.43,0S95.862,6.355,64.537,17.896C31.171,30.188,12.796,47.353,12.796,66.229
	v230.4c0,18.877,18.375,36.042,51.741,48.334c31.325,11.54,72.838,17.896,116.893,17.896s85.568-6.355,116.893-17.896
	c33.366-12.292,51.741-29.457,51.741-48.334v-230.4C350.063,47.353,331.688,30.188,298.322,17.896z M69.031,30.094
	C98.953,19.07,138.87,13,181.43,13s82.477,6.07,112.398,17.094c27.477,10.122,43.235,23.293,43.235,36.136
	c0,12.804-15.666,25.933-42.989,36.043c5.138-5.433,8.043-11.567,8.043-18.38c0-3.59-2.91-6.5-6.5-6.5s-6.5,2.91-6.5,6.5
	c0,8.073-10.913,16.913-29.192,23.646c-20.865,7.687-48.743,11.92-78.496,11.92s-57.631-4.233-78.496-11.92
	c-18.279-6.733-29.192-15.573-29.192-23.646c0-8.072,10.913-16.912,29.192-23.646c20.866-7.687,48.743-11.92,78.496-11.92
	c27.792,0,54.334,3.765,74.736,10.6c3.405,1.139,7.088-0.694,8.228-4.099c1.141-3.403-0.694-7.087-4.098-8.228
	c-21.698-7.27-49.707-11.273-78.866-11.273c-58.506,0-120.688,17.021-120.688,48.566c0,6.813,2.906,12.947,8.043,18.38
	c-27.323-10.11-42.989-23.239-42.989-36.043C25.796,53.387,41.555,40.216,69.031,30.094z M25.796,147.979
	c8.769,8.326,21.824,15.813,38.741,22.045c31.325,11.54,72.838,17.896,116.893,17.896s85.568-6.355,116.893-17.896
	c16.917-6.232,29.972-13.719,38.741-22.045v24.912c0,12.843-15.758,26.014-43.235,36.136
	c-29.921,11.023-69.839,17.094-112.398,17.094s-82.477-6.07-112.398-17.094c-27.477-10.122-43.235-23.293-43.235-36.136V147.979z
	 M293.828,157.826c-29.921,11.023-69.839,17.094-112.398,17.094s-82.477-6.07-112.398-17.094
	c-27.477-10.122-43.235-23.293-43.235-36.136V92.52c8.769,8.326,21.824,15.813,38.741,22.045
	c31.324,11.539,72.837,17.895,116.893,17.895s85.568-6.355,116.893-17.895c16.917-6.232,29.972-13.719,38.741-22.045v29.171
	C337.063,134.533,321.305,147.704,293.828,157.826z M293.828,332.766c-29.921,11.023-69.839,17.094-112.398,17.094
	s-82.477-6.07-112.398-17.094c-27.477-10.122-43.235-23.293-43.235-36.136v-97.449c8.769,8.326,21.824,15.813,38.741,22.045
	c31.325,11.54,72.838,17.896,116.893,17.896s85.568-6.355,116.893-17.896c16.917-6.232,29.972-13.719,38.741-22.045v97.449
	C337.063,309.473,321.305,322.644,293.828,332.766z M222.063,91.825c0,12.915-20.408,18.696-40.633,18.696
	s-40.633-5.781-40.633-18.696S161.204,73.13,181.43,73.13c6.616,0,13.129,0.644,18.835,1.86c3.511,0.75,5.75,4.203,5,7.714
	s-4.201,5.74-7.713,5.001c-4.829-1.03-10.403-1.575-16.123-1.575c-14.976,0-24.251,3.551-27.034,5.695
	c2.782,2.146,12.058,5.696,27.034,5.696c16.427,0,25.995-4.271,27.659-6.275c0.293-3.318,3.08-5.921,6.475-5.921
	C219.153,85.325,222.063,88.235,222.063,91.825z"/>
<g>
</g>
<g>
</g>
<g>
</g>
<g>
</g>
<g>
</g>
<g>
</g>
<g>
</g>
<g>
</g>
<g>
</g>
<g>
</g>
<g>
</g>
<g>
</g>
<g>
</g>
<g>
</g>
<g>
</g>
</svg>
