<?xml version="1.0" encoding="iso-8859-1"?>
<!-- Generator: Adobe Illustrator 17.1.0, SVG Export Plug-In . SVG Version: 6.00 Build 0)  -->
<!DOCTYPE svg PUBLIC "-//W3C//DTD SVG 1.1//EN" "http://www.w3.org/Graphics/SVG/1.1/DTD/svg11.dtd">
<svg version="1.1" id="Capa_1" xmlns="http://www.w3.org/2000/svg" xmlns:xlink="http://www.w3.org/1999/xlink" x="0px" y="0px"
	 viewBox="0 0 388.48 388.48" style="enable-background:new 0 0 388.48 388.48;" xml:space="preserve">
<path d="M283.74,68.271h-4.375l6.511-26.044c0.258-1.034,0.258-2.116,0-3.151C285.478,37.479,275.186,0,194.24,0
	c-80.86,0-90.948,36.087-91.661,39.181c-0.109,0.472-0.172,0.961-0.172,1.466c0,0.039,0.005,0.076,0.006,0.115
	c0.001,0.039,0.005,0.078,0.006,0.118c0.007,0.197,0.021,0.393,0.045,0.585c0.006,0.047,0.015,0.094,0.022,0.142
	c0.028,0.188,0.063,0.374,0.106,0.556c0.005,0.021,0.007,0.043,0.012,0.064l6.511,26.044h-4.375c-3.59,0-6.5,2.91-6.5,6.5V177.18
	c0,3.59,2.91,6.5,6.5,6.5h12.997l-0.015,36.24h-0.282c-3.59,0-6.5,2.91-6.5,6.5v85.351c0,3.59,2.91,6.5,6.5,6.5h6.345l0.299,4.539
	c1.183,17.869,9.033,34.449,22.104,46.686c13.078,12.243,30.143,18.985,48.052,18.985c36.902,0,67.718-28.847,70.156-65.673
	l0.299-4.537h6.345c3.59,0,6.5-2.91,6.5-6.5V226.42c0-3.59-2.91-6.5-6.5-6.5h-0.282l-0.015-36.24h12.997c3.59,0,6.5-2.91,6.5-6.5
	V74.771C290.24,71.181,287.33,68.271,283.74,68.271z M117.234,47.146h119.672c3.59,0,6.5-2.91,6.5-6.5s-2.91-6.5-6.5-6.5H120.146
	C127.86,25.57,147.196,13,194.24,13c61.253,0,75.831,22.423,78.526,28.066l-6.801,27.204H122.516L117.234,47.146z M222.74,170.68
	V81.271h24.733v89.409H222.74z M178.74,170.68V81.271h31v89.409H178.74z M141.007,170.68V81.271h24.733v89.409H141.007z
	 M111.24,81.271h6.2h10.566v89.409h-3.767h-13V81.271z M169.74,232.92v72.351h-17.873V232.92H169.74z M205.74,232.92v72.351h-23
	V232.92H205.74z M236.613,232.92v72.351H218.74V232.92H236.613z M264.26,232.92h0.28v72.351h-5.93h-8.997V232.92H264.26z
	 M138.867,305.271h-8.997h-5.93V232.92h0.28h14.647V305.271z M251.424,321.95c-1.987,30.018-27.105,53.53-57.184,53.53
	c-14.598,0-28.508-5.496-39.167-15.476c-10.654-9.974-17.053-23.488-18.017-38.053l-0.243-3.682h114.854L251.424,321.95z
	 M257.758,219.92H130.723l0.015-36.24h3.73c0.013,0,0.026,0.002,0.039,0.002s0.026-0.002,0.039-0.002h37.656
	c0.013,0,0.026,0.002,0.039,0.002s0.026-0.002,0.039-0.002h43.923c0.013,0,0.026,0.002,0.039,0.002s0.026-0.002,0.039-0.002h37.656
	c0.013,0,0.026,0.002,0.039,0.002s0.026-0.002,0.039-0.002h3.73L257.758,219.92z M277.24,170.68h-13h-3.767V81.271h10.566h6.2
	V170.68z"/>
<g>
</g>
<g>
</g>
<g>
</g>
<g>
</g>
<g>
</g>
<g>
</g>
<g>
</g>
<g>
</g>
<g>
</g>
<g>
</g>
<g>
</g>
<g>
</g>
<g>
</g>
<g>
</g>
<g>
</g>
</svg>
