<?xml version="1.0" encoding="iso-8859-1"?>
<!-- Generator: Adobe Illustrator 17.1.0, SVG Export Plug-In . SVG Version: 6.00 Build 0)  -->
<!DOCTYPE svg PUBLIC "-//W3C//DTD SVG 1.1//EN" "http://www.w3.org/Graphics/SVG/1.1/DTD/svg11.dtd">
<svg version="1.1" id="Capa_1" xmlns="http://www.w3.org/2000/svg" xmlns:xlink="http://www.w3.org/1999/xlink" x="0px" y="0px"
	 viewBox="0 0 405.535 405.535" style="enable-background:new 0 0 405.535 405.535;" xml:space="preserve">
<path d="M234.867,173.425V6.5c0-3.59-2.91-6.5-6.5-6.5h-51.2c-3.59,0-6.5,2.91-6.5,6.5v166.925
	c-10.612,6.845-17.066,18.51-17.066,31.361v6.522c0,3.59,2.91,6.5,6.5,6.5h2.033v181.227c0,3.59,2.91,6.5,6.5,6.5h68.267
	c3.59,0,6.5-2.91,6.5-6.5V217.809h2.033c3.59,0,6.5-2.91,6.5-6.5v-6.522C251.934,191.935,245.48,180.27,234.867,173.425z
	 M166.601,204.786c0-8.816,4.652-16.782,12.224-21.127h27.473c3.59,0,6.5-2.91,6.5-6.5s-2.91-6.5-6.5-6.5h-22.63V13h38.2v164.159
	c0,0.029,0.004,0.058,0.004,0.086c0.002,0.136,0.01,0.271,0.021,0.407c0.006,0.083,0.011,0.167,0.021,0.25
	c0.014,0.122,0.034,0.242,0.055,0.363c0.016,0.093,0.03,0.186,0.05,0.278c0.024,0.109,0.054,0.216,0.083,0.323
	c0.026,0.097,0.051,0.195,0.081,0.29c0.035,0.109,0.077,0.215,0.118,0.322c0.033,0.086,0.063,0.174,0.1,0.259
	c0.055,0.128,0.118,0.252,0.182,0.377c0.029,0.057,0.055,0.115,0.086,0.171c0.085,0.156,0.18,0.308,0.278,0.458
	c0.013,0.02,0.025,0.041,0.038,0.061c0.446,0.662,1.021,1.245,1.707,1.715c0.02,0.014,0.039,0.028,0.06,0.042
	c0.14,0.094,0.286,0.18,0.435,0.264c0.042,0.024,0.084,0.048,0.127,0.071c0.05,0.027,0.096,0.058,0.148,0.083
	c8.313,4.157,13.476,12.514,13.476,21.808v0.022h-2.033h-68.267h-2.033V204.786z M230.401,264.538h-55.267v-12.596h55.267V264.538z
	 M175.134,277.538h21.133v21.134h-21.133V277.538z M175.134,392.535v-80.863h21.133v53.229c0,3.59,2.91,6.5,6.5,6.5
	s6.5-2.91,6.5-6.5v-53.229h10.566c3.59,0,6.5-2.91,6.5-6.5s-2.91-6.5-6.5-6.5h-10.566v-21.134h21.134v114.997H175.134z
	 M230.401,238.942h-55.267v-21.134h55.267V238.942z"/>
<g>
</g>
<g>
</g>
<g>
</g>
<g>
</g>
<g>
</g>
<g>
</g>
<g>
</g>
<g>
</g>
<g>
</g>
<g>
</g>
<g>
</g>
<g>
</g>
<g>
</g>
<g>
</g>
<g>
</g>
</svg>
