<?xml version="1.0" encoding="iso-8859-1"?>
<!-- Generator: Adobe Illustrator 17.1.0, SVG Export Plug-In . SVG Version: 6.00 Build 0)  -->
<!DOCTYPE svg PUBLIC "-//W3C//DTD SVG 1.1//EN" "http://www.w3.org/Graphics/SVG/1.1/DTD/svg11.dtd">
<svg version="1.1" id="Capa_1" xmlns="http://www.w3.org/2000/svg" xmlns:xlink="http://www.w3.org/1999/xlink" x="0px" y="0px"
	 viewBox="0 0 436.326 436.326" style="enable-background:new 0 0 436.326 436.326;" xml:space="preserve">
<path d="M218.163,107.728c24.378,0,44.21-19.832,44.21-44.21s-19.832-44.21-44.21-44.21c-24.377,0-44.21,19.832-44.21,44.21
	S193.786,107.728,218.163,107.728z M218.163,32.308c17.209,0,31.21,14.001,31.21,31.21s-14.001,31.21-31.21,31.21
	s-31.21-14.001-31.21-31.21S200.954,32.308,218.163,32.308z M294.963,114.025h-38.344c15.218-11.615,25.062-29.93,25.062-50.508
	C281.681,28.494,253.187,0,218.163,0c-35.024,0-63.518,28.494-63.518,63.518c0,20.578,9.844,38.893,25.062,50.508h-38.344
	c-3.59,0-6.5,2.91-6.5,6.5s2.91,6.5,6.5,6.5h39.49c2.897,9.2,6.374,21.675,6.374,26.074c0,5.163-4.792,21.476-7.813,30.544
	c-0.66,1.982-0.327,4.161,0.895,5.855c1.222,1.695,3.184,2.699,5.272,2.699h7.538v164.506l-14.114,3.535
	c-3.482,0.873-5.598,4.402-4.726,7.885c0.739,2.952,3.389,4.923,6.3,4.923c0.523,0,1.054-0.063,1.584-0.196l10.956-2.744v27.999
	h-3.018c-3.59,0-6.5,2.91-6.5,6.5s2.91,6.5,6.5,6.5h9.518h3.018v18.721c0,3.59,2.91,6.5,6.5,6.5h19.035c3.59,0,6.5-2.91,6.5-6.5
	v-18.721h3.018h9.519c3.59,0,6.5-2.91,6.5-6.5s-2.91-6.5-6.5-6.5h-3.019V192.198h6.554c2.089,0,4.052-1.004,5.273-2.699
	s1.554-3.874,0.894-5.856c-3.021-9.062-7.813-25.364-7.813-30.53c0-4.396,3.478-16.88,6.375-26.087h39.489c3.59,0,6.5-2.91,6.5-6.5
	S298.553,114.025,294.963,114.025z M221.673,423.326h-6.035V412.18h6.035V423.326z M167.646,63.518
	c0-27.855,22.662-50.518,50.518-50.518s50.518,22.662,50.518,50.518c0,27.727-22.455,50.299-50.133,50.508h-0.77
	C190.1,113.817,167.646,91.244,167.646,63.518z M206.12,232.096c3.611,2.203,6.036,6.167,6.036,10.698v109.143l-6.036,1.512V232.096
	z M231.19,398.105H206.12v-10.939h15.043c3.59,0,6.5-2.91,6.5-6.5s-2.91-6.5-6.5-6.5H206.12v-7.315l14.115-3.535
	c2.893-0.725,4.921-3.324,4.921-6.306V242.794c0-11.834-8.094-21.812-19.036-24.694v-25.901h25.071V398.105z M241.861,179.198
	h-4.171H199.62h-5.156c2.53-8.345,5.764-20.171,5.764-26.099c0-5.923-3.232-17.735-5.762-26.074h23.312
	c0.129,0.001,0.256,0.01,0.385,0.01s0.256-0.009,0.385-0.01h23.313c-2.529,8.342-5.763,20.162-5.763,26.087
	S239.331,170.856,241.861,179.198z"/>
<g>
</g>
<g>
</g>
<g>
</g>
<g>
</g>
<g>
</g>
<g>
</g>
<g>
</g>
<g>
</g>
<g>
</g>
<g>
</g>
<g>
</g>
<g>
</g>
<g>
</g>
<g>
</g>
<g>
</g>
</svg>
