<?xml version="1.0" encoding="iso-8859-1"?>
<!-- Generator: Adobe Illustrator 17.1.0, SVG Export Plug-In . SVG Version: 6.00 Build 0)  -->
<!DOCTYPE svg PUBLIC "-//W3C//DTD SVG 1.1//EN" "http://www.w3.org/Graphics/SVG/1.1/DTD/svg11.dtd">
<svg version="1.1" id="Capa_1" xmlns="http://www.w3.org/2000/svg" xmlns:xlink="http://www.w3.org/1999/xlink" x="0px" y="0px"
	 viewBox="0 0 379.945 379.945" style="enable-background:new 0 0 379.945 379.945;" xml:space="preserve">
<path d="M241.173,64.211c3.59,0,6.5-2.91,6.5-6.5V6.5c0-3.59-2.91-6.5-6.5-6.5h-102.4c-3.59,0-6.5,2.91-6.5,6.5v51.211
	c0,3.59,2.91,6.5,6.5,6.5h2.034v18.223c-5.039,2.43-8.534,7.576-8.534,13.535v102.345v30.067v42.662v22.758v17.064v22.758v17.064
	v22.758c0,3.59,2.91,6.5,6.5,6.5h102.4c3.59,0,6.5-2.91,6.5-6.5v-22.758v-17.064v-22.758v-17.064v-22.758v-42.662v-30.067V95.969
	c0-5.959-3.494-11.104-8.534-13.535V64.211H241.173z M145.272,13h89.4v38.211h-2.034h-85.333h-2.034V13z M234.673,304.365h-24.067
	v-4.064h24.067V304.365z M234.673,264.543h-89.4v-29.662h89.4V264.543z M145.272,340.123h24.067v4.064h-24.067V340.123z
	 M145.272,300.301h24.067v4.064h-24.067V300.301z M234.673,221.881h-89.4v-17.067h89.4V221.881z M234.673,366.945h-89.4v-9.758
	h30.567c3.59,0,6.5-2.91,6.5-6.5v-17.064c0-3.59-2.91-6.5-6.5-6.5h-30.567v-9.758h30.567c3.59,0,6.5-2.91,6.5-6.5v-17.064
	c0-3.59-2.91-6.5-6.5-6.5h-30.567v-9.758h89.4v9.758h-30.567c-3.59,0-6.5,2.91-6.5,6.5v17.064c0,3.59,2.91,6.5,6.5,6.5h30.567v9.758
	h-30.567c-3.59,0-6.5,2.91-6.5,6.5v17.064c0,3.59,2.91,6.5,6.5,6.5h30.567V366.945z M234.673,340.123v4.064h-24.067v-4.064H234.673z
	 M232.639,93.936L232.639,93.936L232.639,93.936c1.122,0,2.034,0.912,2.034,2.033v95.845h-89.4V95.969
	c0-1.121,0.912-2.033,2.033-2.033h49.728c3.59,0,6.5-2.91,6.5-6.5s-2.91-6.5-6.5-6.5h-43.227V64.211h72.333v23.225
	C226.139,91.025,229.049,93.936,232.639,93.936z"/>
<g>
</g>
<g>
</g>
<g>
</g>
<g>
</g>
<g>
</g>
<g>
</g>
<g>
</g>
<g>
</g>
<g>
</g>
<g>
</g>
<g>
</g>
<g>
</g>
<g>
</g>
<g>
</g>
<g>
</g>
</svg>
