<?xml version="1.0" encoding="iso-8859-1"?>
<!-- Generator: Adobe Illustrator 17.1.0, SVG Export Plug-In . SVG Version: 6.00 Build 0)  -->
<!DOCTYPE svg PUBLIC "-//W3C//DTD SVG 1.1//EN" "http://www.w3.org/Graphics/SVG/1.1/DTD/svg11.dtd">
<svg version="1.1" id="Capa_1" xmlns="http://www.w3.org/2000/svg" xmlns:xlink="http://www.w3.org/1999/xlink" x="0px" y="0px"
	 viewBox="0 0 405.541 405.541" style="enable-background:new 0 0 405.541 405.541;" xml:space="preserve">
<path d="M241.499,257.897l-6.629-6.625V32.1c0-17.7-14.399-32.1-32.1-32.1s-32.1,14.399-32.1,32.1v219.173l-6.629,6.625
	c-1.22,1.219-1.905,2.873-1.905,4.598v25.605c0,3.59,2.91,6.5,6.5,6.5h2.034v87.373c0,0.045,0.006,0.088,0.007,0.133
	c0.003,0.124,0.009,0.248,0.019,0.373c0.008,0.106,0.019,0.211,0.032,0.316c0.013,0.099,0.028,0.197,0.045,0.296
	c0.023,0.13,0.049,0.258,0.079,0.385c0.01,0.04,0.014,0.08,0.025,0.12l4.399,17.067c0.74,2.871,3.329,4.878,6.294,4.878h42.4
	c2.965,0,5.554-2.007,6.294-4.878l4.399-17.067c0.01-0.04,0.015-0.08,0.025-0.12c0.03-0.127,0.056-0.255,0.079-0.385
	c0.017-0.099,0.032-0.197,0.045-0.296c0.013-0.104,0.024-0.209,0.032-0.316c0.01-0.125,0.016-0.249,0.019-0.373
	c0.001-0.044,0.007-0.088,0.007-0.133v-87.373h2.034c3.59,0,6.5-2.91,6.5-6.5v-25.605
	C243.404,260.771,242.719,259.117,241.499,257.897z M177.171,281.601h-2.034v-16.412l4.726-4.722h16.408v21.134H177.171z
	 M209.271,260.467h16.409l4.725,4.722v16.412h-2.034h-19.1V260.467z M183.671,32.1c0-10.531,8.568-19.1,19.1-19.1
	s19.1,8.568,19.1,19.1v215.367h-12.6V57.691c0-3.59-2.91-6.5-6.5-6.5s-6.5,2.91-6.5,6.5v189.775h-12.6V32.1z M221.87,381.151
	l-2.937,11.39h-32.326l-1.049-4.067h21.745c3.59,0,6.5-2.91,6.5-6.5s-2.91-6.5-6.5-6.5h-23.633v-80.873h38.199V381.151z"/>
<g>
</g>
<g>
</g>
<g>
</g>
<g>
</g>
<g>
</g>
<g>
</g>
<g>
</g>
<g>
</g>
<g>
</g>
<g>
</g>
<g>
</g>
<g>
</g>
<g>
</g>
<g>
</g>
<g>
</g>
</svg>
