<?xml version="1.0" encoding="iso-8859-1"?>
<!-- Generator: Adobe Illustrator 17.1.0, SVG Export Plug-In . SVG Version: 6.00 Build 0)  -->
<!DOCTYPE svg PUBLIC "-//W3C//DTD SVG 1.1//EN" "http://www.w3.org/Graphics/SVG/1.1/DTD/svg11.dtd">
<svg version="1.1" id="Capa_1" xmlns="http://www.w3.org/2000/svg" xmlns:xlink="http://www.w3.org/1999/xlink" x="0px" y="0px"
	 viewBox="0 0 469.172 469.172" style="enable-background:new 0 0 469.172 469.172;" xml:space="preserve">
<path d="M464.204,202.02l-12.285-22.472c-3.927-7.181-11.449-11.642-19.632-11.642h-27.8c-1.348-2.206-3-4.235-4.939-6.007
	c-5.738-5.243-13.478-7.854-21.122-7.153L245.2,164.991H130.905c-8.15,0-16.127,2.259-23.067,6.531l-74.088,45.6
	c-11.545,7.104-19.069,18.902-20.645,32.368l-4.486,38.378c-0.522,4.477-2.155,8.802-4.721,12.509l-2.742,3.962
	c-1.376,1.987-1.535,4.575-0.413,6.716c1.122,2.142,3.34,3.483,5.758,3.483h37.93c2.418,0,4.636-1.342,5.758-3.483
	c1.122-2.141,0.963-4.728-0.413-6.716c-3.96-5.722-5.607-12.667-4.64-19.558l3.23-22.995c1.314-9.354,6.722-17.491,14.836-22.325
	l59.126-35.228c4.799-2.858,10.287-4.369,15.872-4.369h107.244c0.214,0,0.426-0.012,0.635-0.032l132.26,10.171
	c0.83,0.075,1.658,0.112,2.486,0.112c6.888,0,13.601-2.578,18.724-7.259c1.668-1.524,3.122-3.24,4.356-5.093l24.022-0.006
	l3.724,7.13c-2.737,4.53-3.587,9.964-2.261,15.266l4.839,19.362c0.723,2.894,3.323,4.924,6.306,4.924c0.001,0,0.001,0,0.002,0
	l16.689-0.005c2.96-0.001,5.545-2.001,6.289-4.865l4.997-19.234C470.206,213.809,468.596,207.058,464.204,202.02z M238.944,186.864
	H138.2c-7.926,0-15.715,2.145-22.525,6.201l-59.127,35.228c-11.516,6.86-19.19,18.409-21.055,31.685l-3.23,22.995
	c-0.887,6.309-0.282,12.647,1.705,18.565H18.129c1.754-3.844,2.91-7.957,3.401-12.161l4.486-38.377
	c1.109-9.488,6.411-17.801,14.546-22.807l74.089-45.601c4.891-3.011,10.511-4.602,16.253-4.602h108.039V186.864z M379.422,197.048
	l-127.479-9.803v-9.735l127.566-9.809c4.182-0.378,8.177,0.972,11.271,3.797c3.093,2.826,4.797,6.689,4.797,10.88
	s-1.704,8.055-4.798,10.881C387.687,196.084,383.691,197.438,379.422,197.048z M455.929,217.065l-3.733,14.371l-6.587,0.001L442,217
	c-0.617-2.471,0.1-5.028,1.919-6.841c2.015-2.008,2.49-5.092,1.174-7.613l-5.645-10.809c-2.248-4.302-6.659-6.974-11.513-6.974
	h-19.471c0.069-0.791,0.112-1.587,0.112-2.387c0-0.492-0.014-0.982-0.04-1.471h23.75c3.429,0,6.58,1.869,8.226,4.878l12.072,22.083
	c0.314,0.856,0.812,1.653,1.479,2.328C455.874,212.026,456.571,214.593,455.929,217.065z M359.134,182.377c0,3.59-2.91,6.5-6.5,6.5
	h-45.517c-3.59,0-6.5-2.91-6.5-6.5s2.91-6.5,6.5-6.5h45.517C356.224,175.877,359.134,178.788,359.134,182.377z M388.467,182.377
	c0,3.59-2.91,6.5-6.5,6.5h-10.06c-3.59,0-6.5-2.91-6.5-6.5s2.91-6.5,6.5-6.5h10.06C385.557,175.877,388.467,178.788,388.467,182.377
	z"/>
<g>
</g>
<g>
</g>
<g>
</g>
<g>
</g>
<g>
</g>
<g>
</g>
<g>
</g>
<g>
</g>
<g>
</g>
<g>
</g>
<g>
</g>
<g>
</g>
<g>
</g>
<g>
</g>
<g>
</g>
</svg>
