<?xml version="1.0" encoding="iso-8859-1"?>
<!-- Generator: Adobe Illustrator 17.1.0, SVG Export Plug-In . SVG Version: 6.00 Build 0)  -->
<!DOCTYPE svg PUBLIC "-//W3C//DTD SVG 1.1//EN" "http://www.w3.org/Graphics/SVG/1.1/DTD/svg11.dtd">
<svg version="1.1" id="Capa_1" xmlns="http://www.w3.org/2000/svg" xmlns:xlink="http://www.w3.org/1999/xlink" x="0px" y="0px"
	 viewBox="0 0 458.424 458.424" style="enable-background:new 0 0 458.424 458.424;" xml:space="preserve">
<path d="M280.858,195.93v-42.673c0-0.365-0.031-0.729-0.092-1.089l-3.7-21.779c-0.099-26.317-6.64-49.192-18.944-66.177
	c-10.584-14.61-44.575-52.614-48.264-56.73C206.523,2.787,201.141,0,195.36,0c-6.577,0-12.588,3.604-15.688,9.403
	c-3.1,5.801-2.756,12.801,0.898,18.269c0.213,0.318,0.453,0.618,0.719,0.894c0.306,0.318,30.681,31.938,39.207,43.351
	c13.191,17.653,20.8,38.934,20.948,58.491l-4.381,21.513c-0.047,0.224-0.083,0.452-0.106,0.685
	c-0.022,0.217-0.033,0.435-0.033,0.653v298.667c0,3.59,2.91,6.5,6.5,6.5h30.934c3.59,0,6.5-2.91,6.5-6.5V247.129
	c0-0.74-0.141-1.514-0.388-2.211c-0.028-0.078-2.762-7.97-2.762-23.389c0-15.425,2.734-23.309,2.748-23.348
	C280.721,197.461,280.858,196.698,280.858,195.93z M267.858,153.805v41.114c-0.934,3.126-3.15,12.074-3.15,26.61
	c0,14.531,2.216,23.484,3.15,26.609v111.95h-17.934V159.757h6.966c3.59,0,6.5-2.91,6.5-6.5s-2.91-6.5-6.5-6.5h-5.509l1.886-9.265
	h11.819L267.858,153.805z M249.924,377.166v-4.077h17.934v4.077H249.924z M267.858,390.166v4.077h-17.934v-4.077H267.858z
	 M249.924,407.243h17.934v4.047h-17.934V407.243z M191.137,20.053c-1.102-2-0.382-3.808,0-4.521
	c0.407-0.761,1.632-2.531,4.223-2.531c1.603,0,3.091,0.796,3.982,2.128c0.171,0.256,0.36,0.5,0.566,0.729
	c0.37,0.413,37.125,41.402,47.687,55.982c9.788,13.511,15.387,31.614,16.336,52.653h-9.707
	c-1.468-20.589-9.782-42.248-23.314-60.357C222.411,52.76,195.235,24.325,191.137,20.053z M249.924,445.424V424.29h17.934v21.134
	H249.924z"/>
<g>
</g>
<g>
</g>
<g>
</g>
<g>
</g>
<g>
</g>
<g>
</g>
<g>
</g>
<g>
</g>
<g>
</g>
<g>
</g>
<g>
</g>
<g>
</g>
<g>
</g>
<g>
</g>
<g>
</g>
</svg>
