<?xml version="1.0" encoding="iso-8859-1"?>
<!-- Generator: Adobe Illustrator 17.1.0, SVG Export Plug-In . SVG Version: 6.00 Build 0)  -->
<!DOCTYPE svg PUBLIC "-//W3C//DTD SVG 1.1//EN" "http://www.w3.org/Graphics/SVG/1.1/DTD/svg11.dtd">
<svg version="1.1" id="Capa_1" xmlns="http://www.w3.org/2000/svg" xmlns:xlink="http://www.w3.org/1999/xlink" x="0px" y="0px"
	 viewBox="0 0 460.117 460.117" style="enable-background:new 0 0 460.117 460.117;" xml:space="preserve">
<path d="M271.306,189.139c-5.002,0-9.685,1.386-13.69,3.789v-61.936c0-23.424-6.456-46.37-18.672-66.356
	c-0.046-0.075-0.093-0.149-0.142-0.222L201.036,7.903C197.728,2.954,192.199,0,186.246,0c-6.577,0-12.59,3.604-15.689,9.404
	s-2.755,12.801,0.899,18.268l29.308,43.854c10.923,17.919,16.696,38.479,16.696,59.467v86.762v9.567
	c0,11.673-9.497,21.169-21.17,21.169s-21.17-9.496-21.17-21.169c0-3.59-2.91-6.5-6.5-6.5s-6.5,2.91-6.5,6.5
	c0,18.841,15.328,34.169,34.17,34.169c7.991,0,15.344-2.765,21.17-7.377v124.955h-3.098c-3.59,0-6.5,2.91-6.5,6.5s2.91,6.5,6.5,6.5
	h11.656l-14.044,5.547c-2.903,1.147-4.581,4.195-3.998,7.262c0.584,3.065,3.265,5.284,6.386,5.284h11.696l-14.087,5.57
	c-2.902,1.148-4.579,4.196-3.994,7.263c0.584,3.065,3.265,5.282,6.385,5.282c0,0,0.001,0,0.002,0l3.096-0.001v25.343
	c0,3.59,2.91,6.5,6.5,6.5h27.155c3.59,0,6.5-2.91,6.5-6.5v-25.352l2.554,0c3.59-0.001,6.499-2.912,6.498-6.502
	c-0.001-3.589-2.911-6.498-6.5-6.498c0,0-0.001,0-0.002,0l-11.673,0.003l14.065-5.563c2.902-1.147,4.579-4.195,3.994-7.261
	c-0.584-3.065-3.264-5.283-6.385-5.283h-11.656l14.044-5.547c2.903-1.147,4.581-4.195,3.998-7.262
	c-0.584-3.065-3.265-5.284-6.386-5.284h-2.552V238.732c4.006,2.404,8.689,3.789,13.69,3.789c14.718,0,26.691-11.974,26.691-26.691
	S286.023,189.139,271.306,189.139z M244.615,447.117H230.46v-18.842h14.155V447.117z M211.788,64.636
	c-0.046-0.075-0.093-0.149-0.142-0.222l-29.382-43.966c-1.439-2.153-0.649-4.155-0.242-4.917c0.406-0.761,1.632-2.531,4.224-2.531
	c1.603,0,3.091,0.796,3.981,2.127l37.691,56.399c10.923,17.919,16.696,38.479,16.696,59.466v84.799c0,0.013-0.001,0.026-0.001,0.039
	s0.001,0.026,0.001,0.039v163.188H230.46v-14.495h4.076c3.59,0,6.5-2.91,6.5-6.5s-2.91-6.5-6.5-6.5h-4.076v-124.24v-9.567v-86.762
	C230.46,107.568,224.004,84.622,211.788,64.636z M271.306,229.521c-7.543,0-13.68-6.131-13.69-13.672v-0.039
	c0.011-7.541,6.147-13.672,13.69-13.672c7.55,0,13.691,6.142,13.691,13.691S278.855,229.521,271.306,229.521z"/>
<g>
</g>
<g>
</g>
<g>
</g>
<g>
</g>
<g>
</g>
<g>
</g>
<g>
</g>
<g>
</g>
<g>
</g>
<g>
</g>
<g>
</g>
<g>
</g>
<g>
</g>
<g>
</g>
<g>
</g>
</svg>
