<?xml version="1.0" encoding="iso-8859-1"?>
<!-- Generator: Adobe Illustrator 17.1.0, SVG Export Plug-In . SVG Version: 6.00 Build 0)  -->
<!DOCTYPE svg PUBLIC "-//W3C//DTD SVG 1.1//EN" "http://www.w3.org/Graphics/SVG/1.1/DTD/svg11.dtd">
<svg version="1.1" id="Capa_1" xmlns="http://www.w3.org/2000/svg" xmlns:xlink="http://www.w3.org/1999/xlink" x="0px" y="0px"
	 viewBox="0 0 462.963 462.963" style="enable-background:new 0 0 462.963 462.963;" xml:space="preserve">
<path d="M276.349,349.594c0-5.769-3.8-10.729-9.938-13.936V74.927c0-11.945-4.652-23.176-13.1-31.622L214.835,4.833
	c-6.445-6.443-16.932-6.443-23.375-0.002c-3.124,3.122-4.845,7.273-4.846,11.69s1.719,8.569,4.841,11.691l31.381,31.384
	c5.99,5.991,9.289,13.956,9.289,22.427v253.413c-6.394,3.197-10.376,8.253-10.376,14.158l0,0.005c0,0,0,0.003,0,0.005v93.864
	c0,0.239,0.015,0.475,0.04,0.707c-0.025,0.33-0.04,0.662-0.04,0.997c0,10.143,11.736,17.791,27.3,17.791s27.3-7.648,27.3-17.791
	c0-0.29-0.025-0.573-0.062-0.853c0.037-0.279,0.062-0.562,0.062-0.852v-93.864c0-0.001,0-0.003,0-0.003L276.349,349.594z
	 M232.029,50.405L200.647,19.02c-0.666-0.666-1.033-1.554-1.033-2.497s0.367-1.83,1.035-2.497c1.377-1.377,3.617-1.377,4.994,0
	l38.477,38.472c5.991,5.99,9.291,13.956,9.291,22.429v257.083c-1.415-0.136-2.87-0.208-4.362-0.208c-1.339,0-2.647,0.061-3.924,0.17
	V82.023C245.125,70.08,240.474,58.851,232.029,50.405z M249.049,449.963c-9.192,0-14.025-3.669-14.304-4.747
	c0.278-1.166,5.11-4.836,14.304-4.836c1.307,0,2.606,0.079,3.861,0.235c3.565,0.449,6.81-2.086,7.253-5.647
	c0.443-3.563-2.085-6.81-5.647-7.253c-1.786-0.223-3.625-0.335-5.467-0.335c-5.319,0-10.19,0.895-14.3,2.476v-80.227
	c0.161-0.635,1.656-1.99,4.434-3.105c1.002-0.085,1.936-0.399,2.757-0.888c1.973-0.498,4.339-0.834,7.109-0.834
	c3.2,0,5.859,0.449,7.993,1.076c0.522,0.257,1.081,0.449,1.67,0.559c2.924,1.129,4.484,2.535,4.637,3.157l0,0.005
	c0,0,0,0.003,0,0.005v93.864c0,0.286,0.025,0.566,0.061,0.843c-0.034,0.268-0.057,0.54-0.057,0.817
	C263.074,446.294,258.241,449.963,249.049,449.963z"/>
<g>
</g>
<g>
</g>
<g>
</g>
<g>
</g>
<g>
</g>
<g>
</g>
<g>
</g>
<g>
</g>
<g>
</g>
<g>
</g>
<g>
</g>
<g>
</g>
<g>
</g>
<g>
</g>
<g>
</g>
</svg>
