<?xml version="1.0" encoding="iso-8859-1"?>
<!-- Generator: Adobe Illustrator 17.1.0, SVG Export Plug-In . SVG Version: 6.00 Build 0)  -->
<!DOCTYPE svg PUBLIC "-//W3C//DTD SVG 1.1//EN" "http://www.w3.org/Graphics/SVG/1.1/DTD/svg11.dtd">
<svg version="1.1" id="Capa_1" xmlns="http://www.w3.org/2000/svg" xmlns:xlink="http://www.w3.org/1999/xlink" x="0px" y="0px"
	 viewBox="0 0 474.934 474.934" style="enable-background:new 0 0 474.934 474.934;" xml:space="preserve">
<path d="M468.434,124.598h-19.667c-1.32,0-2.608,0.402-3.694,1.152l-9.465,6.539l-46.087-6.817
	c-1.149-7.889-7.94-13.974-16.143-13.974c-3.694,0-7.094,1.247-9.834,3.323c-2.739-2.076-6.139-3.323-9.833-3.323
	c-8.519,0-15.527,6.56-16.26,14.892l-7.177,2.395c-0.378-0.989-0.988-1.885-1.806-2.594c-1.424-1.235-3.319-1.792-5.179-1.523
	c-0.29,0.042-29.02,4.14-38.412,4.14s-38.124-4.098-38.413-4.14c-1.86-0.268-3.755,0.289-5.179,1.523s-2.242,3.026-2.242,4.911
	v2.886h-40.481c-13.707,0-26.679,5.972-35.59,16.384L2.695,337.611c-2.207,2.578-2.059,6.421,0.34,8.821l2.196,2.198l-3.562,3.956
	c-2.402,2.667-2.187,6.777,0.48,9.18c1.242,1.119,2.797,1.67,4.348,1.67c1.778,0,3.549-0.726,4.832-2.15l3.104-3.447l1.713,1.714
	c1.222,1.223,2.876,1.905,4.597,1.905c0.087,0,0.174-0.002,0.26-0.005c1.813-0.073,3.514-0.9,4.69-2.282L179.41,178.557
	c6.442-7.569,15.837-11.91,25.777-11.91h33.856v3.789c0,1.885,0.818,3.677,2.242,4.911c1.189,1.031,2.704,1.589,4.258,1.589
	c0.307,0,0.614-0.021,0.922-0.065c8.04-1.151,30.614-4.14,38.412-4.14c9.393,0,38.122,4.098,38.412,4.14
	c1.86,0.265,3.755-0.289,5.179-1.523c0.817-0.708,1.426-1.603,1.804-2.591l7.177,2.395c0.728,8.338,7.737,14.904,16.261,14.904
	c3.694,0,7.094-1.247,9.833-3.323c2.739,2.076,6.14,3.323,9.834,3.323c8.206,0,14.998-6.089,16.144-13.982l45.829-6.779l9.366,7.46
	c1.151,0.917,2.579,1.416,4.05,1.416h19.667c3.59,0,6.5-2.91,6.5-6.5v-40.572C474.934,127.508,472.023,124.598,468.434,124.598z
	 M330.711,142.345l6.667-2.225v21.302l-6.667-2.225V142.345z M205.187,153.646c-13.757,0-26.761,6.009-35.677,16.484L20.361,345.378
	l-3.879-3.882l156.366-182.672c6.439-7.522,15.811-11.837,25.714-11.837h40.481v6.659H205.187z M252.044,162.983v-2.837v-19.659
	v-1.934c9.531,1.265,25.649,3.253,32.834,3.253s23.303-1.988,32.833-3.253v24.43c-9.53-1.265-25.648-3.253-32.833-3.253
	S261.575,161.719,252.044,162.983z M353.711,177.055c-1.838,0-3.333-1.495-3.333-3.333v-3.141c0,0,0-0.014,0-0.021v-39.579
	c0,0,0-0.014,0-0.021v-3.129c0-1.838,1.495-3.333,3.333-3.333s3.333,1.495,3.333,3.333v45.891
	C357.044,175.56,355.549,177.055,353.711,177.055z M376.711,173.722c0,1.838-1.495,3.333-3.333,3.333s-3.334-1.495-3.334-3.333
	v-45.891c0-1.838,1.496-3.333,3.334-3.333s3.333,1.495,3.333,3.333v3.278v39.326V173.722z M389.711,138.642l40.981,6.062v12.139
	l-40.981,6.062V138.642z M461.934,165.17h-10.895l-7.347-5.852v-16.814l2.008-1.387v9.656c0,3.59,2.91,6.5,6.5,6.5s6.5-2.91,6.5-6.5
	v-13.175h3.233V165.17z"/>
<g>
</g>
<g>
</g>
<g>
</g>
<g>
</g>
<g>
</g>
<g>
</g>
<g>
</g>
<g>
</g>
<g>
</g>
<g>
</g>
<g>
</g>
<g>
</g>
<g>
</g>
<g>
</g>
<g>
</g>
</svg>
