<?xml version="1.0" encoding="iso-8859-1"?>
<!-- Generator: Adobe Illustrator 17.1.0, SVG Export Plug-In . SVG Version: 6.00 Build 0)  -->
<!DOCTYPE svg PUBLIC "-//W3C//DTD SVG 1.1//EN" "http://www.w3.org/Graphics/SVG/1.1/DTD/svg11.dtd">
<svg version="1.1" id="Capa_1" xmlns="http://www.w3.org/2000/svg" xmlns:xlink="http://www.w3.org/1999/xlink" x="0px" y="0px"
	 viewBox="0 0 351.659 351.659" style="enable-background:new 0 0 351.659 351.659;" xml:space="preserve">
<path d="M344.958,78.361c-5.559-6.717-13.748-10.569-22.467-10.569H282.02h-49.969H119.606H69.638H29.167
	c-8.719,0-16.909,3.853-22.467,10.57c-5.559,6.717-7.812,15.482-6.18,24.048l30.045,157.752
	c2.616,13.736,14.664,23.706,28.647,23.706h233.234c13.983,0,26.031-9.97,28.647-23.706l30.046-157.752
	C352.77,93.844,350.517,85.078,344.958,78.361z M282.02,80.791c4.833,0,9.371,2.135,12.452,5.857
	c3.06,3.698,4.313,8.516,3.443,13.232l-30.02,133.585c-0.016,0.069-0.03,0.139-0.043,0.209c-1.45,7.613-8.128,13.139-15.878,13.139
	h-11.75c-6.506,0-12.61,1.876-17.771,5.144l10.339-113.92c0.324-3.575-2.311-6.737-5.886-7.062
	c-3.575-0.309-6.736,2.311-7.062,5.886l-12.161,134.006h-63.712L126.722,80.791h98.212l-1.303,14.358
	c-0.324,3.575,2.311,6.737,5.886,7.062c3.578,0.318,6.736-2.311,7.062-5.886l1.409-15.534H282.02z M113.669,80.791l15.535,171.166
	c-5.16-3.267-11.266-5.144-17.771-5.144h-11.75c-7.75,0-14.427-5.525-15.877-13.139c-0.013-0.07-0.028-0.14-0.043-0.209
	L53.742,99.882c-0.869-4.718,0.383-9.535,3.443-13.232c3.081-3.724,7.62-5.858,12.452-5.858H113.669z M43.335,257.73L13.29,99.978
	c-0.904-4.748,0.344-9.605,3.425-13.328c3.081-3.724,7.619-5.858,12.452-5.858h16.2c-4.224,6.329-5.819,14.051-4.378,21.618
	c0.013,0.07,0.028,0.14,0.043,0.209l30.023,133.6c2.66,13.679,14.681,23.596,28.626,23.596h11.75
	c7.808,0,14.663,4.445,18.033,11.054H59.212C51.462,270.867,44.785,265.342,43.335,257.73z M338.369,99.978l-30.045,157.751
	c-1.45,7.613-8.128,13.139-15.878,13.139h-70.252c3.37-6.609,10.224-11.054,18.032-11.054h11.75
	c13.944,0,25.966-9.917,28.626-23.595l30.023-133.601c0.016-0.069,0.03-0.139,0.044-0.209c1.441-7.567-0.154-15.289-4.378-21.618
	h16.201c4.832,0,9.371,2.135,12.452,5.858C338.024,90.372,339.272,95.231,338.369,99.978z M175.829,114.229
	c-12.265,0-22.243,9.979-22.243,22.243s9.978,22.243,22.243,22.243c12.265,0,22.243-9.979,22.243-22.243
	S188.094,114.229,175.829,114.229z M175.829,145.715c-5.097,0-9.243-4.146-9.243-9.243s4.146-9.243,9.243-9.243
	s9.243,4.146,9.243,9.243S180.926,145.715,175.829,145.715z M175.829,198.109c-9.417,0-17.078,7.661-17.078,17.078
	s7.661,17.078,17.078,17.078s17.078-7.661,17.078-17.078S185.246,198.109,175.829,198.109z M175.829,219.265
	c-2.249,0-4.078-1.829-4.078-4.078s1.83-4.078,4.078-4.078c2.249,0,4.078,1.829,4.078,4.078S178.078,219.265,175.829,219.265z"/>
<g>
</g>
<g>
</g>
<g>
</g>
<g>
</g>
<g>
</g>
<g>
</g>
<g>
</g>
<g>
</g>
<g>
</g>
<g>
</g>
<g>
</g>
<g>
</g>
<g>
</g>
<g>
</g>
<g>
</g>
</svg>
