<?xml version="1.0" encoding="iso-8859-1"?>
<!-- Generator: Adobe Illustrator 17.1.0, SVG Export Plug-In . SVG Version: 6.00 Build 0)  -->
<!DOCTYPE svg PUBLIC "-//W3C//DTD SVG 1.1//EN" "http://www.w3.org/Graphics/SVG/1.1/DTD/svg11.dtd">
<svg version="1.1" id="Capa_1" xmlns="http://www.w3.org/2000/svg" xmlns:xlink="http://www.w3.org/1999/xlink" x="0px" y="0px"
	 viewBox="0 0 417.922 417.922" style="enable-background:new 0 0 417.922 417.922;" xml:space="preserve">
<path d="M362.838,111.012l-27.369,85.549c-0.02,35.479-7.524,89.37-24.102,125.199l-37.42,80.895
	c-3.386,9.826-12.91,16.053-23.311,15.183c-11.447-0.938-20.769-11.269-20.769-23.027c0-0.591,0.081-1.18,0.24-1.75
	c7.229-25.879,21.641-98.772,1.79-124.928c-4.884-6.435-11.566-9.563-20.431-9.563c-9.086,0-15.913,3.191-20.869,9.757
	c-19.894,26.352-5.121,99.277,2.25,125.152c0.165,0.579,0.249,1.179,0.249,1.782c0,6.091-2.382,11.807-6.708,16.094
	c-4.277,4.239-9.935,6.566-15.952,6.567c-0.069,0-0.138,0-0.208-0.001c-9.619-0.095-18.145-6.388-21.351-15.703l-37.249-80.404
	c-16.582-35.769-24.145-89.965-24.162-125.248l-28.991-90.604c-2.679-8.595-3.911-17.508-3.677-26.539
	c1.149-43.989,37.874-79.589,81.947-79.422c0.353,0.001,0.728,0.001,1.121,0.011c17.792,0.093,34.188,9.449,43.872,25.04
	c6.435,10.37,17.548,16.56,29.729,16.56s23.294-6.189,29.727-16.557c9.687-15.593,26.082-24.949,43.874-25.042
	C285.596-0.002,286.102,0,286.599,0c12.93,0,25.856,3.166,37.381,9.166c2.212,1.152,3.57,3.467,3.495,5.96s-1.569,4.723-3.847,5.74
	L301.383,30.8l19.616,13.691c2.561,1.788,3.488,5.145,2.208,7.994l-9.474,21.088l22.769-4.041c2.698-0.479,5.407,0.786,6.772,3.163
	L349.71,83.9c1.788,3.113,0.713,7.086-2.399,8.874c-3.114,1.788-7.086,0.713-8.874-2.4l-4.16-7.245l-30.373,5.392
	c-2.368,0.422-4.781-0.504-6.263-2.403c-1.48-1.9-1.789-4.463-0.802-6.66l12.304-27.388l-24.626-17.188
	c-1.921-1.341-2.972-3.612-2.75-5.944c0.222-2.333,1.681-4.365,3.82-5.32l18.565-8.291c-5.831-1.563-11.828-2.355-17.903-2.325
	c-0.036,0-0.073,0-0.107,0c-0.272,0-0.529,0-0.793,0.008c-0.052,0.001-0.104,0.002-0.156,0.002
	c-13.314,0.051-25.633,7.116-32.953,18.9c-8.819,14.213-24.062,22.7-40.771,22.7c-16.709,0-31.952-8.487-40.773-22.703
	c-7.318-11.781-19.638-18.847-32.952-18.897c-0.052,0-0.104-0.001-0.156-0.002c-0.299-0.009-0.588-0.008-0.869-0.008
	c-0.1,0-0.204-0.001-0.304-0.001c-36.918,0-67.656,29.884-68.619,66.761c-0.196,7.602,0.839,15.101,3.078,22.286l28.316,88.495
	c6.338,2.235,22.843,7.649,45.509,12.102l-14.119-35.826c-1.316-3.34,0.324-7.115,3.664-8.431c3.34-1.317,7.115,0.325,8.431,3.664
	l17.034,43.224c15.533,2.396,33.103,4.089,51.759,4.089c16.532,0,33.547-1.334,50.821-3.971l17.08-43.341
	c1.316-3.34,5.092-4.98,8.43-3.664c3.34,1.316,4.98,5.091,3.664,8.431l-14.176,35.972c3.178-0.618,6.362-1.28,9.551-1.984
	c3.504-0.775,6.975,1.44,7.749,4.944c0.774,3.505-1.438,6.975-4.944,7.75c-26.615,5.882-52.918,8.864-78.175,8.864
	c-50.855,0-93.06-11.757-110.86-17.586c1.05,33.648,8.286,80.225,22.818,111.571l37.401,80.731c0.109,0.235,0.204,0.477,0.284,0.724
	c1.349,4.151,5.149,7.078,9.242,7.119c2.581,0.031,5.042-0.971,6.886-2.799c1.658-1.643,2.646-3.778,2.829-6.079
	c-3.056-11.066-26.514-100.207,0.153-135.542c7.476-9.907,17.989-14.93,31.248-14.93c13.025,0,23.385,4.949,30.79,14.709
	c26.625,35.093,3.628,124.262,0.643,135.291c0.391,4.688,4.339,8.945,8.809,9.312c4.513,0.378,8.615-2.354,10.006-6.637
	c0.08-0.247,0.175-0.488,0.283-0.723l37.57-81.22c15.903-34.373,23.019-86.635,22.899-120.648c0-0.008,0-0.095,0-0.103
	c0-0.672,0.104-1.34,0.31-1.981l27.68-86.52c1.093-3.419,4.754-5.304,8.171-4.21C362.047,103.934,363.933,107.593,362.838,111.012z"
	/>
<g>
</g>
<g>
</g>
<g>
</g>
<g>
</g>
<g>
</g>
<g>
</g>
<g>
</g>
<g>
</g>
<g>
</g>
<g>
</g>
<g>
</g>
<g>
</g>
<g>
</g>
<g>
</g>
<g>
</g>
</svg>
