<?xml version="1.0" encoding="iso-8859-1"?>
<!-- Generator: Adobe Illustrator 17.1.0, SVG Export Plug-In . SVG Version: 6.00 Build 0)  -->
<!DOCTYPE svg PUBLIC "-//W3C//DTD SVG 1.1//EN" "http://www.w3.org/Graphics/SVG/1.1/DTD/svg11.dtd">
<svg version="1.1" id="Capa_1" xmlns="http://www.w3.org/2000/svg" xmlns:xlink="http://www.w3.org/1999/xlink" x="0px" y="0px"
	 viewBox="0 0 374.813 374.813" style="enable-background:new 0 0 374.813 374.813;" xml:space="preserve">
<path d="M199.886,0h-24.959c-43.704,0-79.261,35.557-79.261,79.261v96.846c0,3.453,2.695,6.27,6.096,6.479v106.582
	c0,47.225,38.42,85.645,85.645,85.645s85.645-38.42,85.645-85.645V182.586c3.401-0.21,6.096-3.026,6.096-6.479V79.261
	C279.146,35.557,243.59,0,199.886,0z M108.666,79.261c0-36.536,29.725-66.261,66.261-66.261h24.959
	c36.536,0,66.261,29.725,66.261,66.261v90.346h-157.48V79.261z M260.051,289.168c0,40.057-32.588,72.645-72.645,72.645
	s-72.645-32.588-72.645-72.645v-72.635h106.563c3.59,0,6.5-2.91,6.5-6.5s-2.91-6.5-6.5-6.5H114.762v-20.927h145.289V289.168z
	 M240.38,40.189c10.461,11.325,15.99,26.722,15.99,44.523v21.639c0,3.59-2.91,6.5-6.5,6.5s-6.5-2.91-6.5-6.5V84.713
	c0-24.282-13.195-50.229-50.229-50.229c-3.59,0-6.5-2.91-6.5-6.5s2.91-6.5,6.5-6.5C212.742,21.484,229.076,27.952,240.38,40.189z
	 M256.37,130.46v13.718c0,3.59-2.91,6.5-6.5,6.5s-6.5-2.91-6.5-6.5V130.46c0-3.59,2.91-6.5,6.5-6.5S256.37,126.87,256.37,130.46z"/>
<g>
</g>
<g>
</g>
<g>
</g>
<g>
</g>
<g>
</g>
<g>
</g>
<g>
</g>
<g>
</g>
<g>
</g>
<g>
</g>
<g>
</g>
<g>
</g>
<g>
</g>
<g>
</g>
<g>
</g>
</svg>
