<?xml version="1.0" encoding="iso-8859-1"?>
<!-- Generator: Adobe Illustrator 17.1.0, SVG Export Plug-In . SVG Version: 6.00 Build 0)  -->
<!DOCTYPE svg PUBLIC "-//W3C//DTD SVG 1.1//EN" "http://www.w3.org/Graphics/SVG/1.1/DTD/svg11.dtd">
<svg version="1.1" id="Capa_1" xmlns="http://www.w3.org/2000/svg" xmlns:xlink="http://www.w3.org/1999/xlink" x="0px" y="0px"
	 viewBox="0 0 456.746 456.746" style="enable-background:new 0 0 456.746 456.746;" xml:space="preserve">
<path d="M251.373,427.97h-2.75c-0.781,0-1.417-0.635-1.417-1.416v-4.191c2.73-0.77,4.733-3.274,4.733-6.25V202.775
	c0-2.977-2.003-5.48-4.733-6.25v-36.427c0-0.419-0.041-0.837-0.121-1.248l-1.879-9.604v-87.32c1.094-2.364,1.722-4.987,1.722-7.759
	V6.5c0-3.59-2.91-6.5-6.5-6.5h-24.111c-3.59,0-6.5,2.91-6.5,6.5v47.668c0,2.772,0.628,5.394,1.722,7.759v87.32l-1.879,9.604
	c-0.081,0.411-0.121,0.829-0.121,1.248v36.427c-2.73,0.77-4.733,3.274-4.733,6.25v213.337c0,2.977,2.003,5.48,4.733,6.25v4.191
	c0,0.781-0.635,1.416-1.417,1.416h-2.75c-3.59,0-6.5,2.91-6.5,6.5v15.776c0,3.59,2.91,6.5,6.5,6.5h46c3.59,0,6.5-2.91,6.5-6.5
	V434.47C257.873,430.88,254.963,427.97,251.373,427.97z M222.54,160.728l1.879-9.604c0.081-0.411,0.121-0.829,0.121-1.248V72.322
	c1.238,0.261,2.519,0.403,3.833,0.403s2.596-0.142,3.833-0.403v77.554c0,0.419,0.041,0.837,0.121,1.248l1.879,9.604v35.548H222.54
	V160.728z M217.806,234.865h10.567c3.59,0,6.5-2.91,6.5-6.5s-2.91-6.5-6.5-6.5h-10.567v-12.59h21.134v200.337h-21.134V234.865z
	 M222.817,13h11.111v41.168c0,0.735-0.147,1.435-0.407,2.078c-0.318,0.422-0.592,0.879-0.801,1.371
	c-1.019,1.282-2.587,2.108-4.348,2.108s-3.329-0.826-4.348-2.108c-0.209-0.493-0.483-0.95-0.801-1.371
	c-0.26-0.643-0.407-1.343-0.407-2.078V13z M244.873,443.746h-33v-3.271c6.137-1.655,10.667-7.27,10.667-13.922v-3.941h11.667v3.941
	c0,6.652,4.529,12.267,10.667,13.922V443.746z"/>
<g>
</g>
<g>
</g>
<g>
</g>
<g>
</g>
<g>
</g>
<g>
</g>
<g>
</g>
<g>
</g>
<g>
</g>
<g>
</g>
<g>
</g>
<g>
</g>
<g>
</g>
<g>
</g>
<g>
</g>
</svg>
