<?xml version="1.0" encoding="iso-8859-1"?>
<!-- Generator: Adobe Illustrator 17.1.0, SVG Export Plug-In . SVG Version: 6.00 Build 0)  -->
<!DOCTYPE svg PUBLIC "-//W3C//DTD SVG 1.1//EN" "http://www.w3.org/Graphics/SVG/1.1/DTD/svg11.dtd">
<svg version="1.1" id="Capa_1" xmlns="http://www.w3.org/2000/svg" xmlns:xlink="http://www.w3.org/1999/xlink" x="0px" y="0px"
	 viewBox="0 0 405.532 405.532" style="enable-background:new 0 0 405.532 405.532;" xml:space="preserve">
<path d="M254.493,6.529c-1.858-2.507-5.235-3.341-8.046-1.984l-23.701,11.431l4.331-5.414c1.949-2.436,1.893-5.914-0.136-8.286
	s-5.458-2.967-8.164-1.418l-59.733,34.134c-1.939,1.108-3.174,3.134-3.27,5.365c-0.062,1.44-6.18,144.538-6.01,192.154
	c0.012,3.353,0.061,7.253,0.141,11.576c-0.093,0.438-0.144,0.891-0.144,1.356c0,0.546,0.075,1.072,0.201,1.579
	c0.285,13.783,0.846,31.359,1.51,49.601c0,0.007-0.001,0.013-0.001,0.02c0,0.043,0.006,0.084,0.006,0.126
	c1.173,32.223,2.666,66.492,3.522,85.572c0.584,13.004,11.239,23.191,24.259,23.191c0.265,0,0.527-0.011,0.791-0.019
	c0.127,0.007,0.253,0.019,0.382,0.019c12.447,0,22.825-9.33,24.143-21.702c3.618-33.985,12.203-116.554,13.777-149.195
	c2.032-42.111,0.661-162.35,0.426-181.554l35.273-38.277C256.165,12.509,256.351,9.035,254.493,6.529z M193.84,234.863
	c0.02,1.294,0.036,2.653,0.047,4.08h-31.063c-0.019-1.426-0.034-2.784-0.044-4.08H193.84z M193.619,273.073h-29.946
	c-0.044-1.37-0.086-2.728-0.127-4.07h30.141C193.665,270.345,193.643,271.703,193.619,273.073z M193.853,256.003h-30.676
	c-0.036-1.381-0.069-2.734-0.101-4.06h30.809C193.876,253.269,193.866,254.622,193.853,256.003z M193.365,286.073
	c-0.029,1.35-0.059,2.706-0.089,4.07h-29.028c-0.048-1.364-0.095-2.719-0.142-4.07H193.365z M164.722,303.143h28.243
	c-0.034,1.352-0.069,2.706-0.104,4.06h-27.985C164.824,305.849,164.772,304.495,164.722,303.143z M195.631,29.057l-12.838,16.046
	c-1.038,1.297-1.54,2.944-1.402,4.6c0.106,1.276,9.902,119.266,12.057,172.161h-30.637c0.014-1.322,0.03-2.681,0.049-4.08h15.588
	c3.59,0,6.5-2.91,6.5-6.5s-2.91-6.5-6.5-6.5h-15.362c1.111-53.811,4.736-141.54,5.525-160.286L195.631,29.057z M167.986,381.758
	c-0.644-14.361-1.649-37.344-2.607-61.555h27.128c-0.682,24.167-1.463,47.111-1.973,61.448c-0.217,6.102-5.17,10.881-11.275,10.881
	C173.209,392.532,168.258,387.8,167.986,381.758z M207.465,46.173c-1.126,1.222-1.741,2.829-1.719,4.491
	c0.015,1.198,1.369,104.982,0.281,161.66c-2.542-51.629-10.099-144.469-11.468-161.118l9.385-11.731l17.447-8.414L207.465,46.173z"
	/>
<g>
</g>
<g>
</g>
<g>
</g>
<g>
</g>
<g>
</g>
<g>
</g>
<g>
</g>
<g>
</g>
<g>
</g>
<g>
</g>
<g>
</g>
<g>
</g>
<g>
</g>
<g>
</g>
<g>
</g>
</svg>
