<?xml version="1.0" encoding="iso-8859-1"?>
<!-- Generator: Adobe Illustrator 17.1.0, SVG Export Plug-In . SVG Version: 6.00 Build 0)  -->
<!DOCTYPE svg PUBLIC "-//W3C//DTD SVG 1.1//EN" "http://www.w3.org/Graphics/SVG/1.1/DTD/svg11.dtd">
<svg version="1.1" id="Capa_1" xmlns="http://www.w3.org/2000/svg" xmlns:xlink="http://www.w3.org/1999/xlink" x="0px" y="0px"
	 viewBox="0 0 417.921 417.921" style="enable-background:new 0 0 417.921 417.921;" xml:space="preserve">
<path d="M365.625,79.422L365.625,79.422C364.481,35.55,327.925,0,284.049,0c-0.121,0-0.247,0-0.368,0.001l-1.053,0.004
	c-17.821,0.079-34.245,9.443-43.936,25.05c-6.436,10.365-17.55,16.552-29.732,16.552s-23.296-6.188-29.732-16.552
	c-9.69-15.607-26.115-24.971-43.938-25.05l-1.05-0.004C134.117,0,133.996,0,133.873,0C90,0,53.439,35.553,52.295,79.422
	c-0.235,9.036,0.996,17.949,3.674,26.538l28.988,90.604c0.023,35.458,7.548,89.387,24.163,125.251l37.25,80.405
	c3.207,9.32,11.734,15.61,21.348,15.699c6.092,0.028,11.833-2.274,16.161-6.561c4.328-4.288,6.711-10.005,6.711-16.097
	c0-0.603-0.084-1.203-0.249-1.783c-7.377-25.865-22.161-98.769-2.251-125.151c4.956-6.567,11.783-9.76,20.87-9.76
	c8.862,0,15.544,3.127,20.427,9.561c19.852,26.156,5.44,99.052-1.788,124.933c-0.159,0.569-0.24,1.158-0.24,1.75
	c0,11.757,9.322,22.089,20.78,23.031c0.638,0.052,1.271,0.078,1.901,0.078c9.637-0.001,18.219-6.052,21.396-15.262l37.426-80.902
	c16.576-35.832,24.081-89.721,24.102-125.194l29.001-90.648C364.63,97.371,365.861,88.458,365.625,79.422z M349.569,101.998
	l-29.298,91.573c-0.207,0.647-0.312,1.4-0.309,2.08c0.119,34.01-6.997,86.272-22.899,120.647l-37.575,81.226
	c-0.108,0.234-0.203,0.475-0.283,0.721c-1.391,4.281-5.512,7.01-10,6.642c-4.472-0.368-8.423-4.627-8.815-9.316
	c2.983-11.02,25.983-100.201-0.645-135.296c-7.404-9.759-17.762-14.707-30.786-14.707c-13.258,0-23.771,5.023-31.247,14.929
	c-26.667,35.336-3.209,124.48-0.154,135.547c-0.183,2.301-1.172,4.437-2.831,6.08c-1.845,1.828-4.332,2.812-6.891,2.797
	c-4.09-0.038-7.889-2.964-9.237-7.115c-0.08-0.247-0.175-0.489-0.284-0.724l-37.401-80.73
	c-14.568-31.446-21.777-77.833-22.822-111.576c17.797,5.829,60.006,17.588,110.865,17.588c25.257,0,51.559-2.982,78.174-8.864
	c3.505-0.775,5.719-4.244,4.944-7.75c-0.774-3.505-4.244-5.719-7.749-4.944c-3.189,0.705-6.373,1.366-9.55,1.984l14.176-35.972
	c1.316-3.34-0.324-7.115-3.664-8.431c-3.343-1.318-7.115,0.325-8.431,3.664l-17.08,43.341c-17.274,2.636-34.289,3.971-50.821,3.971
	c-18.656,0-36.226-1.693-51.759-4.089l-17.034-43.224c-1.316-3.339-5.089-4.981-8.431-3.664c-3.34,1.316-4.98,5.091-3.664,8.431
	l14.119,35.826c-22.668-4.453-39.176-9.869-45.511-12.103l-28.314-88.496c-2.239-7.178-3.273-14.676-3.075-22.282
	C66.253,42.883,96.985,13,133.874,13c0.102,0,0.208,0,0.31,0.001l1.053,0.004c13.316,0.058,25.633,7.126,32.948,18.907
	c8.824,14.211,24.067,22.695,40.776,22.695s31.952-8.484,40.776-22.695c1.88-3.027,4.094-5.737,6.566-8.103l16.016,16.925
	L253.54,66.729c-1.981,2.743-1.527,6.547,1.045,8.747l25.049,21.418l-17.278,20.674c-2.302,2.754-1.936,6.854,0.819,9.156
	c1.216,1.017,2.695,1.513,4.165,1.513c1.859,0,3.706-0.794,4.991-2.332l21.4-25.605c2.284-2.732,1.944-6.794-0.763-9.108
	l-25.382-21.704l16.024-22.181l21.944,3.989l-3.917,16.496c-0.829,3.492,1.33,6.996,4.823,7.825c0.505,0.12,1.01,0.178,1.507,0.178
	c2.943,0,5.609-2.012,6.319-5l5.5-23.167c0.412-1.735,0.093-3.564-0.883-5.058s-2.523-2.52-4.278-2.839l-30.626-5.568l-16.79-17.744
	c4.816-2.189,10.06-3.391,15.476-3.415l1.057-0.004c37.048-0.184,67.926,29.781,68.891,66.76c0,0,0,0,0,0
	C352.828,87.368,351.794,94.865,349.569,101.998z M342.521,85.368c-1.101,2.368-3.448,3.76-5.898,3.76
	c-0.917,0-1.85-0.195-2.737-0.607l-9.859-4.586c-3.255-1.514-4.667-5.38-3.152-8.635c1.513-3.255,5.38-4.667,8.635-3.152
	l9.859,4.586C342.623,78.247,344.035,82.113,342.521,85.368z"/>
<g>
</g>
<g>
</g>
<g>
</g>
<g>
</g>
<g>
</g>
<g>
</g>
<g>
</g>
<g>
</g>
<g>
</g>
<g>
</g>
<g>
</g>
<g>
</g>
<g>
</g>
<g>
</g>
<g>
</g>
</svg>
