<?xml version="1.0" encoding="iso-8859-1"?>
<!-- Generator: Adobe Illustrator 17.1.0, SVG Export Plug-In . SVG Version: 6.00 Build 0)  -->
<!DOCTYPE svg PUBLIC "-//W3C//DTD SVG 1.1//EN" "http://www.w3.org/Graphics/SVG/1.1/DTD/svg11.dtd">
<svg version="1.1" id="Capa_1" xmlns="http://www.w3.org/2000/svg" xmlns:xlink="http://www.w3.org/1999/xlink" x="0px" y="0px"
	 viewBox="0 0 422.088 422.088" style="enable-background:new 0 0 422.088 422.088;" xml:space="preserve">
<path d="M251.671,201.969c-0.151-3.477-3.014-6.218-6.494-6.218h-2.033v-27.635c0-3.59-2.91-6.5-6.5-6.5h-10.567v-19.11
	c0-1.009-0.235-2.004-0.686-2.907l-7.847-15.695V82.026c0-12.21-2.038-24.798-4.724-36.088c-0.487-5.662,0.269-7.422,3.643-12.516
	c4.074-6.148,16.637-22.846,16.763-23.014c1.55-2.059,1.737-4.838,0.479-7.085c-1.259-2.248-3.729-3.539-6.292-3.295l-33.978,3.256
	c-2.081,0.2-3.938,1.389-4.993,3.194c-1.054,1.805-1.175,4.009-0.326,5.919c0.165,0.369,16.428,37.331,16.428,69.628v41.877
	l-7.847,15.695c-0.451,0.903-0.686,1.898-0.686,2.907v19.11h-10.567c-3.59,0-6.5,2.91-6.5,6.5v27.635h-2.033
	c-3.48,0-6.343,2.741-6.494,6.218l-8.533,196.26c-0.048,1.103,0.186,2.2,0.679,3.188c0.422,0.844,10.763,20.672,48.481,20.672
	s48.059-19.828,48.481-20.672c0.494-0.987,0.728-2.085,0.679-3.188L251.671,201.969z M203.357,15.395l10.729-1.028
	c-2.708,3.689-5.48,7.519-7.4,10.31C205.491,21.13,204.349,17.996,203.357,15.395z M209.011,144.04l2.033-4.066l2.033,4.066v17.576
	h-4.066V144.04z M191.944,174.616h10.567h17.066h10.567v21.129h-38.2V174.616z M211.044,409.088
	c-24.205,0-33.478-9.039-36.082-12.387l0.183-4.201h43.904c3.59,0,6.5-2.91,6.5-6.5s-2.91-6.5-6.5-6.5H175.71l7.424-170.749h55.819
	l8.172,187.95C244.522,400.049,235.249,409.088,211.044,409.088z M230.423,233.677c2.696,6.465,4.006,15.179,4.006,26.639
	c0,3.59-2.91,6.5-6.5,6.5s-6.5-2.91-6.5-6.5c0-18.337-3.494-27.635-10.385-27.635c-9.636,0-10.385,21.152-10.385,27.635
	c0,3.59-2.91,6.5-6.5,6.5s-6.5-2.91-6.5-6.5c0-35.355,14.651-40.635,23.385-40.635C217.223,219.681,225.6,222.109,230.423,233.677z"
	/>
<g>
</g>
<g>
</g>
<g>
</g>
<g>
</g>
<g>
</g>
<g>
</g>
<g>
</g>
<g>
</g>
<g>
</g>
<g>
</g>
<g>
</g>
<g>
</g>
<g>
</g>
<g>
</g>
<g>
</g>
</svg>
