<?xml version="1.0" encoding="iso-8859-1"?>
<!-- Generator: Adobe Illustrator 17.1.0, SVG Export Plug-In . SVG Version: 6.00 Build 0)  -->
<!DOCTYPE svg PUBLIC "-//W3C//DTD SVG 1.1//EN" "http://www.w3.org/Graphics/SVG/1.1/DTD/svg11.dtd">
<svg version="1.1" id="Capa_1" xmlns="http://www.w3.org/2000/svg" xmlns:xlink="http://www.w3.org/1999/xlink" x="0px" y="0px"
	 viewBox="0 0 436.916 436.916" style="enable-background:new 0 0 436.916 436.916;" xml:space="preserve">
<path d="M261.228,203.403c-0.151-3.477-3.014-6.218-6.494-6.218h-2.569v-29.777c0-3.59-2.91-6.5-6.5-6.5h-11.638V140.19
	c0-1.009-0.235-2.004-0.687-2.907l-8.383-16.767v-96.16l23.66-12.066c3.198-1.631,4.469-5.545,2.837-8.743
	c-1.631-3.197-5.545-4.466-8.743-2.837l-27.207,13.875c-2.177,1.109-3.547,3.347-3.547,5.79v100.141l-8.383,16.767
	c-0.451,0.903-0.686,1.898-0.686,2.907v20.719h-11.638c-3.59,0-6.5,2.91-6.5,6.5v29.777h-2.569c-3.48,0-6.343,2.741-6.494,6.218
	l-9.069,208.581c-0.048,1.103,0.186,2.2,0.679,3.188c0.443,0.888,11.323,21.744,51.16,21.744s50.717-20.856,51.16-21.744
	c0.493-0.987,0.728-2.085,0.68-3.188L261.228,203.403z M215.889,141.724l2.569-5.138l2.569,5.139v19.184h-5.138V141.724z
	 M197.751,173.908h11.638h18.138h11.638v23.271h-41.414V173.908z M218.458,423.916c-26.169,0-36.061-9.899-38.761-13.44l0.218-5.005
	h47.051c3.59,0,6.5-2.91,6.5-6.5s-2.91-6.5-6.5-6.5h-46.486l7.926-182.285h60.105l8.709,200.29
	C254.519,414.016,244.627,423.916,218.458,423.916z M238.677,237.241c2.844,6.82,4.226,16.029,4.226,28.153c0,3.59-2.91,6.5-6.5,6.5
	s-6.5-2.91-6.5-6.5c0-19.758-3.851-29.776-11.445-29.776c-10.33,0-11.445,20.823-11.445,29.776c0,3.59-2.91,6.5-6.5,6.5
	s-6.5-2.91-6.5-6.5c0-37.219,15.316-42.776,24.445-42.776C224.9,222.618,233.637,225.155,238.677,237.241z"/>
<g>
</g>
<g>
</g>
<g>
</g>
<g>
</g>
<g>
</g>
<g>
</g>
<g>
</g>
<g>
</g>
<g>
</g>
<g>
</g>
<g>
</g>
<g>
</g>
<g>
</g>
<g>
</g>
<g>
</g>
</svg>
