<?xml version="1.0" encoding="iso-8859-1"?>
<!-- Generator: Adobe Illustrator 17.1.0, SVG Export Plug-In . SVG Version: 6.00 Build 0)  -->
<!DOCTYPE svg PUBLIC "-//W3C//DTD SVG 1.1//EN" "http://www.w3.org/Graphics/SVG/1.1/DTD/svg11.dtd">
<svg version="1.1" id="Capa_1" xmlns="http://www.w3.org/2000/svg" xmlns:xlink="http://www.w3.org/1999/xlink" x="0px" y="0px"
	 viewBox="0 0 443.305 443.305" style="enable-background:new 0 0 443.305 443.305;" xml:space="preserve">
<path d="M312.874,293.136c-11.301-27.286-27.469-51.795-48.08-72.89v-45.983c0-0.021-0.003-0.042-0.003-0.064
	c0-0.011,0.002-0.022,0.002-0.034l-1.931-128.241C262.493,20.598,241.591,0,216.263,0c-0.003,0-0.009,0-0.013,0
	c-1.883,0.001-3.673,0.817-4.907,2.24c-1.234,1.422-1.791,3.31-1.526,5.174l7.012,49.366c0.456,3.205,3.199,5.586,6.436,5.586
	c0.943,0,1.563,0.481,1.849,0.768c0.285,0.287,0.764,0.908,0.76,1.849l-0.138,33.149l-14.79,4.334l-1.873-29.456
	c-0.146-2.532,0.98-4.952,3.011-6.472c1.932-1.446,2.904-3.844,2.524-6.227l-8.038-50.468c-0.409-2.571-2.314-4.65-4.84-5.283
	c-2.527-0.631-5.186,0.303-6.759,2.38c-12.505,16.5-19.015,36.982-18.329,57.69l1.867,52.33v103.857
	c-20.611,21.095-36.779,45.604-48.08,72.89c-11.646,28.121-17.552,57.812-17.552,88.248v42.136c0,10.406,8.279,19.024,18.457,19.211
	c0.119,0.002,0.236,0.003,0.354,0.003c4.959,0,9.625-1.905,13.17-5.387c3.631-3.565,5.63-8.331,5.63-13.419v-20.511v-1.289
	c0-17.555,8.752-33.802,23.412-43.46l44.92-29.594l48.974,29.94c15.357,9.389,24.897,26.402,24.897,44.402
	c0,0.423,0.044,0.835,0.121,1.235v18.704c0,10.369,8.436,18.806,18.806,18.806s18.806-8.437,18.806-18.806v-42.543
	C330.426,350.947,324.521,321.256,312.874,293.136z M196.547,29.554l4.682,29.396c-3.57,4.021-5.448,9.323-5.13,14.846l2.061,32.418
	l-6.95,2.037l-1.572-44.066C189.24,52.229,191.648,40.354,196.547,29.554z M137.491,424.499c0,1.571-0.617,3.042-1.738,4.143
	s-2.612,1.705-4.179,1.662c-3.14-0.058-5.694-2.845-5.694-6.213v-42.136c0-58.122,22.632-112.769,63.729-153.872
	c1.219-1.219,1.903-2.872,1.903-4.596V121.708l42.533-12.464c2.76-0.809,4.66-3.334,4.672-6.21l0.158-38
	c0.016-4.181-1.601-8.113-4.551-11.075c-1.525-1.531-3.312-2.707-5.259-3.485l-5.198-36.597c14.665,3.44,25.77,16.587,25.998,32.239
	l1.859,123.43l-44.086,14.151c-2.689,0.862-4.513,3.364-4.513,6.188v41.45c-20.61,21.095-36.779,45.604-48.08,72.89
	c-11.646,28.12-17.552,57.812-17.552,88.248v10.226v1.289V424.499z M274.577,348.494l-52.495-32.093
	c-2.148-1.313-4.863-1.268-6.967,0.118l-48.366,31.864c-5.31,3.499-9.996,7.693-13.979,12.414
	c6.683-46.103,27.916-88.659,61.448-122.196c1.219-1.219,1.903-2.872,1.903-4.596v-39.38l7.005-2.249l4.054,1.481v39.575
	c0,1.724,0.685,3.377,1.903,4.596c34.14,34.146,55.522,77.642,61.788,124.71C286.321,357.17,280.839,352.322,274.577,348.494z
	 M317.426,423.927c0,3.201-2.604,5.806-5.806,5.806c-3.201,0-5.806-2.604-5.806-5.806v-32.025c0-30.437-5.905-60.127-17.552-88.248
	c-11.301-27.285-27.469-51.795-48.08-72.89v-41.45c0-0.795-0.159-1.558-0.428-2.273l12.04-3.865v39.741
	c0,1.724,0.685,3.377,1.903,4.596c41.096,41.103,63.729,95.749,63.729,153.872V423.927z M198.476,141.446
	c0-11.147,9.069-20.217,20.216-20.217c3.59,0,6.5,2.91,6.5,6.5s-2.91,6.5-6.5,6.5c-3.979,0-7.216,3.237-7.216,7.217
	c0,3.979,3.237,7.216,7.216,7.216s7.216-3.237,7.216-7.216c0-3.59,2.91-6.5,6.5-6.5s6.5,2.91,6.5,6.5
	c0,11.147-9.069,20.216-20.216,20.216S198.476,152.594,198.476,141.446z"/>
<g>
</g>
<g>
</g>
<g>
</g>
<g>
</g>
<g>
</g>
<g>
</g>
<g>
</g>
<g>
</g>
<g>
</g>
<g>
</g>
<g>
</g>
<g>
</g>
<g>
</g>
<g>
</g>
<g>
</g>
</svg>
