<?xml version="1.0" encoding="iso-8859-1"?>
<!-- Generator: Adobe Illustrator 17.1.0, SVG Export Plug-In . SVG Version: 6.00 Build 0)  -->
<!DOCTYPE svg PUBLIC "-//W3C//DTD SVG 1.1//EN" "http://www.w3.org/Graphics/SVG/1.1/DTD/svg11.dtd">
<svg version="1.1" id="Capa_1" xmlns="http://www.w3.org/2000/svg" xmlns:xlink="http://www.w3.org/1999/xlink" x="0px" y="0px"
	 viewBox="0 0 435.293 435.293" style="enable-background:new 0 0 435.293 435.293;" xml:space="preserve">
<path d="M308.868,285.124c-11.301-27.286-27.47-51.795-48.08-72.89v-45.983c0-0.004,0-0.007,0-0.011c0-0.002,0-0.005,0-0.007
	c-0.001-0.505-0.134-50.77-0.134-69.346c0-11.411,9.481-49.26,13.135-62.881c0.064-0.241,0.115-0.485,0.151-0.732
	c1.134-7.669-0.786-15.319-5.406-21.544S257.147,1.454,249.479,0.32c-7.668-1.138-15.319,0.784-21.544,5.405
	c-6.225,4.62-10.276,11.388-11.41,19.056l-0.45,3.042c-0.253,1.705,0.183,3.44,1.21,4.825c1.028,1.385,2.563,2.304,4.269,2.556
	l9.508,1.406c1.064,0.158,1.686,0.804,1.961,1.175c0.262,0.353,0.67,1.074,0.576,2.057l-10.915,50l-12.681,3.716l-16.594-53.913
	c-0.026-0.882,0.345-1.531,0.588-1.859c0.275-0.371,0.896-1.017,1.962-1.175l9.507-1.406c3.551-0.524,6.004-3.828,5.479-7.379
	l-0.45-3.044c-1.134-7.668-5.187-14.436-11.411-19.056c-6.226-4.621-13.874-6.545-21.543-5.405
	c-7.668,1.134-14.437,5.186-19.057,11.41s-6.54,13.876-5.405,21.544c0.06,0.404,0.157,0.801,0.291,1.187
	c8.172,23.467,21.137,64.408,21.137,74.366v103.979c-20.61,21.095-36.779,45.604-48.08,72.89
	c-11.646,28.121-17.552,57.812-17.552,88.248v42.136c0,10.406,8.279,19.024,18.457,19.211c0.118,0.002,0.235,0.003,0.354,0.003
	c4.96,0,9.625-1.905,13.172-5.387c3.63-3.565,5.63-8.331,5.63-13.419v-20.511v-1.289c0-17.556,8.752-33.802,23.411-43.46
	l44.92-29.594l48.974,29.94c15.357,9.389,24.897,26.402,24.897,44.402c0,0.422,0.043,0.833,0.12,1.232v18.707
	c0,10.369,8.437,18.806,18.807,18.806c10.369,0,18.806-8.437,18.806-18.806v-42.543C326.42,342.936,320.515,313.244,308.868,285.124
	z M165.864,30.815c-0.458-4.045,0.618-8.051,3.057-11.336c2.551-3.437,6.287-5.674,10.521-6.3c4.234-0.622,8.456,0.435,11.893,2.984
	c2.5,1.855,4.365,4.339,5.438,7.185l-2.717,0.402c-4.225,0.624-7.952,2.856-10.498,6.285c-2.545,3.43-3.603,7.644-2.978,11.868
	c0.048,0.325,0.12,0.646,0.218,0.961l16.729,54.348l-11.021,3.229C182.604,79.527,168.5,38.413,165.864,30.815z M133.485,416.487
	c0,1.57-0.617,3.042-1.738,4.143c-1.12,1.101-2.589,1.708-4.18,1.662c-3.14-0.058-5.694-2.845-5.694-6.213v-42.136
	c0-58.122,22.633-112.769,63.729-153.872c1.219-1.219,1.903-2.872,1.903-4.596V113.696l42.534-12.464
	c2.281-0.668,4.016-2.528,4.522-4.851l11.797-54.042c0.031-0.145,0.058-0.29,0.079-0.436c0.625-4.224-0.433-8.438-2.978-11.867
	c-2.545-3.43-6.273-5.662-10.497-6.286l-2.717-0.402c1.071-2.846,2.938-5.329,5.438-7.185c3.437-2.55,7.659-3.607,11.893-2.984
	c4.233,0.626,7.969,2.863,10.52,6.3c2.482,3.345,3.554,7.435,3.031,11.554c-1.808,6.766-13.473,50.994-13.473,65.854
	c0,15.201,0.089,51.582,0.122,64.627l-44.146,14.17c-2.689,0.863-4.514,3.365-4.514,6.189v41.45
	c-20.611,21.095-36.779,45.604-48.08,72.89c-11.646,28.12-17.552,57.812-17.552,88.248v10.226v1.289V416.487z M270.571,340.482
	l-52.494-32.093c-2.149-1.313-4.862-1.268-6.967,0.118l-48.366,31.864c-5.31,3.498-9.995,7.692-13.978,12.413
	c6.683-46.103,27.916-88.659,61.448-122.195c1.219-1.219,1.903-2.872,1.903-4.596v-39.38l7.005-2.249l4.054,1.481v39.575
	c0,1.724,0.685,3.377,1.903,4.596c34.14,34.145,55.522,77.641,61.788,124.708C282.314,349.158,276.833,344.31,270.571,340.482z
	 M313.42,415.915c0,3.201-2.604,5.806-5.806,5.806c-3.202,0-5.807-2.604-5.807-5.806V383.89c0-30.437-5.905-60.128-17.552-88.248
	c-11.301-27.286-27.469-51.795-48.08-72.89v-41.45c0-0.794-0.159-1.557-0.427-2.273l12.04-3.865v39.74
	c0,1.724,0.685,3.377,1.903,4.596c41.096,41.103,63.729,95.749,63.729,153.872V415.915z M194.47,133.435
	c0-11.147,9.069-20.217,20.217-20.217c3.59,0,6.5,2.91,6.5,6.5s-2.91,6.5-6.5,6.5c-3.979,0-7.217,3.237-7.217,7.217
	c0,3.979,3.237,7.216,7.217,7.216c3.979,0,7.216-3.237,7.216-7.216c0-3.59,2.91-6.5,6.5-6.5s6.5,2.91,6.5,6.5
	c0,11.147-9.068,20.216-20.216,20.216S194.47,144.582,194.47,133.435z"/>
<g>
</g>
<g>
</g>
<g>
</g>
<g>
</g>
<g>
</g>
<g>
</g>
<g>
</g>
<g>
</g>
<g>
</g>
<g>
</g>
<g>
</g>
<g>
</g>
<g>
</g>
<g>
</g>
<g>
</g>
</svg>
