<?xml version="1.0" encoding="iso-8859-1"?>
<!-- Generator: Adobe Illustrator 17.1.0, SVG Export Plug-In . SVG Version: 6.00 Build 0)  -->
<!DOCTYPE svg PUBLIC "-//W3C//DTD SVG 1.1//EN" "http://www.w3.org/Graphics/SVG/1.1/DTD/svg11.dtd">
<svg version="1.1" id="Capa_1" xmlns="http://www.w3.org/2000/svg" xmlns:xlink="http://www.w3.org/1999/xlink" x="0px" y="0px"
	 viewBox="0 0 417.921 417.921" style="enable-background:new 0 0 417.921 417.921;" xml:space="preserve">
<path d="M361.965,105.914c2.665-8.543,3.896-17.457,3.66-26.492C364.481,35.55,327.925,0,284.049,0c-0.121,0-0.247,0-0.368,0.001
	l-1.053,0.004c-17.821,0.078-34.245,9.443-43.936,25.05c-6.436,10.364-17.55,16.552-29.732,16.552s-23.296-6.188-29.732-16.552
	c-9.69-15.607-26.115-24.972-43.938-25.05l-1.05-0.004C134.117,0,133.996,0,133.873,0C90,0,53.439,35.553,52.295,79.422
	c-0.235,9.035,0.996,17.948,3.674,26.537l6.264,19.578c0.006,0.021,0.013,0.041,0.019,0.061l22.705,70.966
	c0.023,35.458,7.548,89.387,24.163,125.251l37.25,80.404c3.207,9.32,11.734,15.611,21.348,15.7c0.072,0.001,0.144,0.001,0.215,0.001
	c6.014,0,11.669-2.326,15.945-6.563c4.328-4.288,6.711-10.005,6.711-16.097c0-0.603-0.084-1.203-0.249-1.783
	c-7.377-25.865-22.161-98.769-2.251-125.151c4.956-6.567,11.783-9.76,20.87-9.76c8.862,0,15.544,3.127,20.427,9.561
	c19.852,26.156,5.44,99.052-1.788,124.934c-0.159,0.569-0.24,1.159-0.24,1.75c0,11.756,9.322,22.088,20.78,23.032
	c0.638,0.053,1.271,0.078,1.901,0.078c9.636,0,18.219-6.053,21.396-15.262l37.426-80.902
	c16.576-35.832,24.081-89.721,24.102-125.194l25.433-79.493c0.008-0.026,0.017-0.051,0.025-0.077L361.965,105.914z M65.291,79.761
	C66.253,42.883,96.985,13,133.874,13c0.102,0,0.208,0,0.31,0.001l1.053,0.004c13.316,0.059,25.633,7.126,32.948,18.907
	c8.824,14.211,24.067,22.695,40.776,22.695s31.952-8.484,40.776-22.695c7.315-11.781,19.632-18.849,32.946-18.907l1.057-0.004
	c0.104,0,0.206-0.001,0.31-0.001c36.884,0,67.62,29.885,68.582,66.761c0.198,7.607-0.836,15.104-3.061,22.237l-2.189,6.842
	c-22.382,2.276-40.205,20.201-42.311,42.632c-24.017,2.26-42.875,22.537-42.875,47.135v6.402
	c-18.101,2.886-35.931,4.351-53.233,4.351c-6.515,0-12.895-0.209-19.104-0.58c-0.094-17.618-14.452-31.922-32.091-31.922h-2.038
	v-2.039c0-17.697-14.398-32.095-32.095-32.095h-2.7c-3.013-14.592-15.962-25.596-31.434-25.596H73.192l-4.827-15.086
	C66.127,94.865,65.093,87.368,65.291,79.761z M77.352,130.13h12.147c10.529,0,19.095,8.566,19.095,19.096c0,3.59,2.91,6.5,6.5,6.5
	h8.538c10.529,0,19.095,8.566,19.095,19.095v8.539c0,3.59,2.91,6.5,6.5,6.5h8.538c10.123,0,18.407,7.923,19.034,17.891
	c-40.029-3.935-70.884-13.954-80.12-17.21L77.352,130.13z M320.271,193.572c-0.207,0.647-0.312,1.399-0.309,2.079
	c0.119,34.01-6.997,86.272-22.899,120.647l-37.575,81.225c-0.108,0.234-0.203,0.475-0.283,0.721
	c-1.391,4.281-5.511,7.016-9.999,6.643c-4.473-0.368-8.424-4.627-8.815-9.316c2.985-11.03,25.981-100.204-0.645-135.297
	c-7.404-9.759-17.762-14.707-30.786-14.707c-13.258,0-23.771,5.023-31.247,14.929c-26.667,35.336-3.209,124.48-0.154,135.546
	c-0.183,2.302-1.172,4.438-2.831,6.081c-1.823,1.806-4.234,2.797-6.798,2.797c-0.031,0-0.062,0-0.092,0
	c-4.091-0.038-7.889-2.964-9.238-7.116c-0.08-0.247-0.175-0.489-0.284-0.724l-37.401-80.73
	c-14.568-31.445-21.777-77.833-22.822-111.577c17.797,5.829,60.006,17.588,110.866,17.588c25.26,0,51.562-2.982,78.175-8.864
	c3.505-0.774,5.719-4.244,4.944-7.75c-0.774-3.505-4.243-5.719-7.75-4.944c-3.051,0.674-6.096,1.306-9.136,1.901v-4.097
	c0-18.938,15.407-34.344,34.344-34.344h1.822c3.59,0,6.5-2.91,6.5-6.5v-1.828c0-15.708,10.604-28.977,25.026-33.049L320.271,193.572
	z M93.36,167.4c-1.21-1.21-1.9-2.89-1.9-4.6s0.69-3.38,1.9-4.59s2.89-1.91,4.6-1.91s3.39,0.7,4.6,1.91c1.21,1.21,1.9,2.88,1.9,4.59
	c0,1.72-0.69,3.39-1.9,4.6c-1.21,1.21-2.89,1.9-4.6,1.9S94.57,168.61,93.36,167.4z M121.31,190.05c-1.21-1.2-1.91-2.88-1.91-4.59
	s0.7-3.39,1.91-4.6c1.21-1.21,2.88-1.9,4.59-1.9c1.72,0,3.39,0.69,4.6,1.9s1.9,2.89,1.9,4.6s-0.69,3.39-1.9,4.59
	c-1.21,1.22-2.89,1.91-4.6,1.91S122.521,191.27,121.31,190.05z M308.06,176.36c1.21,1.21,1.9,2.89,1.9,4.6s-0.69,3.39-1.9,4.59
	c-1.21,1.22-2.89,1.91-4.6,1.91s-3.39-0.69-4.6-1.91c-1.21-1.2-1.9-2.88-1.9-4.59s0.69-3.39,1.9-4.6s2.89-1.9,4.6-1.9
	S306.85,175.15,308.06,176.36z"/>
<g>
</g>
<g>
</g>
<g>
</g>
<g>
</g>
<g>
</g>
<g>
</g>
<g>
</g>
<g>
</g>
<g>
</g>
<g>
</g>
<g>
</g>
<g>
</g>
<g>
</g>
<g>
</g>
<g>
</g>
</svg>
