<?xml version="1.0" encoding="iso-8859-1"?>
<!-- Generator: Adobe Illustrator 17.1.0, SVG Export Plug-In . SVG Version: 6.00 Build 0)  -->
<!DOCTYPE svg PUBLIC "-//W3C//DTD SVG 1.1//EN" "http://www.w3.org/Graphics/SVG/1.1/DTD/svg11.dtd">
<svg version="1.1" id="Capa_1" xmlns="http://www.w3.org/2000/svg" xmlns:xlink="http://www.w3.org/1999/xlink" x="0px" y="0px"
	 viewBox="0 0 431.137 431.137" style="enable-background:new 0 0 431.137 431.137;" xml:space="preserve">
<path d="M243.397,189.885c-0.001-0.09-0.009-0.181-0.014-0.271c-0.008-0.15-0.019-0.299-0.037-0.446
	c-0.01-0.082-0.024-0.164-0.038-0.246c-0.026-0.16-0.057-0.317-0.094-0.473c-0.009-0.038-0.013-0.077-0.023-0.115l-10.006-38.409
	c-0.746-2.863-3.332-4.861-6.29-4.861h-0.561V49.173c0-3.59-2.91-6.5-6.5-6.5c-1.955,0-19.1-0.417-19.1-14.836
	c0-13.433,5.82-14.836,19.1-14.836c3.59,0,6.5-2.91,6.5-6.5s-2.91-6.5-6.5-6.5c-9.605,0-32.1,0-32.1,27.836
	c0,16.453,12.316,25.192,25.6,27.315v89.913h-0.56c-2.958,0-5.544,1.998-6.29,4.861l-10.006,38.409
	c-0.01,0.038-0.014,0.077-0.023,0.115c-0.037,0.156-0.068,0.313-0.094,0.473c-0.013,0.082-0.027,0.164-0.038,0.246
	c-0.018,0.147-0.029,0.297-0.037,0.447c-0.005,0.09-0.012,0.18-0.014,0.269c0,0.03-0.004,0.058-0.004,0.088v98.138V407.57
	c0,12.995,10.572,23.567,23.566,23.567s23.567-10.572,23.567-23.567V288.111v-98.138
	C243.402,189.944,243.398,189.915,243.397,189.885z M230.402,203.269h-21.133v-6.795h21.133V203.269z M209.269,242.937v-6.834
	h21.133v6.834H209.269z M230.402,255.937v6.834h-21.133v-6.834H230.402z M209.269,223.103v-6.834h21.133v6.834H209.269z
	 M209.269,275.771h21.133v5.84h-21.133V275.771z M217.798,158.064h1.834c0.068,0.002,0.134,0.01,0.203,0.01s0.135-0.008,0.203-0.01
	h1.834l6.62,25.409h-17.313L217.798,158.064z M230.402,407.57c0,5.827-4.74,10.567-10.567,10.567
	c-5.826,0-10.566-4.74-10.566-10.567V294.611h21.133V407.57z M213.335,362.962v-53.838c0-3.59,2.91-6.5,6.5-6.5s6.5,2.91,6.5,6.5
	v53.838c0,3.59-2.91,6.5-6.5,6.5S213.335,366.552,213.335,362.962z M213.335,404.634v-14.735c0-3.59,2.91-6.5,6.5-6.5
	s6.5,2.91,6.5,6.5v14.735c0,3.59-2.91,6.5-6.5,6.5S213.335,408.224,213.335,404.634z"/>
<g>
</g>
<g>
</g>
<g>
</g>
<g>
</g>
<g>
</g>
<g>
</g>
<g>
</g>
<g>
</g>
<g>
</g>
<g>
</g>
<g>
</g>
<g>
</g>
<g>
</g>
<g>
</g>
<g>
</g>
</svg>
