<?xml version="1.0" encoding="iso-8859-1"?>
<!-- Generator: Adobe Illustrator 17.1.0, SVG Export Plug-In . SVG Version: 6.00 Build 0)  -->
<!DOCTYPE svg PUBLIC "-//W3C//DTD SVG 1.1//EN" "http://www.w3.org/Graphics/SVG/1.1/DTD/svg11.dtd">
<svg version="1.1" id="Capa_1" xmlns="http://www.w3.org/2000/svg" xmlns:xlink="http://www.w3.org/1999/xlink" x="0px" y="0px"
	 viewBox="0 0 448.527 448.527" style="enable-background:new 0 0 448.527 448.527;" xml:space="preserve">
<path d="M252.092,207.278c-0.001-0.093-0.009-0.186-0.014-0.279c-0.008-0.147-0.018-0.294-0.036-0.439
	c-0.01-0.083-0.024-0.167-0.038-0.25c-0.026-0.159-0.057-0.315-0.094-0.47c-0.009-0.038-0.013-0.078-0.023-0.116l-10.006-38.409
	c-0.746-2.863-3.331-4.861-6.29-4.861h-0.561V75.091c0-1.406-0.456-2.775-1.3-3.9l-22.135-29.514l11.376-10.84
	c1.818,0.721,3.793,1.129,5.865,1.129c8.814,0,15.984-7.17,15.984-15.983S237.65,0,228.837,0c-8.813,0-15.983,7.17-15.983,15.983
	c0,1.96,0.372,3.831,1.02,5.567l-15.427,14.701c-2.385,2.272-2.693,5.97-0.716,8.605l24.3,32.401v85.197h-0.561
	c-2.958,0-5.544,1.998-6.29,4.861l-10.006,38.409c-0.01,0.038-0.014,0.077-0.023,0.115c-0.037,0.156-0.068,0.313-0.094,0.473
	c-0.013,0.082-0.027,0.164-0.038,0.246c-0.018,0.147-0.029,0.297-0.037,0.447c-0.005,0.09-0.012,0.18-0.014,0.269
	c0,0.03-0.004,0.058-0.004,0.088V305.5V424.96c0,12.995,10.572,23.567,23.567,23.567c12.994,0,23.566-10.572,23.566-23.567V305.5
	v-98.137C252.097,207.334,252.093,207.307,252.092,207.278z M228.837,13c1.645,0,2.984,1.338,2.984,2.983s-1.339,2.983-2.984,2.983
	c-0.766,0-1.458-0.298-1.987-0.775c-0.005-0.005-0.009-0.01-0.013-0.015c-0.056-0.059-0.118-0.11-0.176-0.167
	c-0.497-0.533-0.807-1.242-0.807-2.026C225.853,14.338,227.192,13,228.837,13z M239.097,220.659h-21.133v-6.795h21.133V220.659z
	 M217.963,260.327v-6.834h21.133v6.834H217.963z M239.097,273.327v6.834h-21.133v-6.834H239.097z M217.963,240.493v-6.834h21.133
	v6.834H217.963z M217.963,293.161h21.133V299h-21.133V293.161z M226.493,175.455h1.834c0.068,0.002,0.134,0.01,0.203,0.01
	s0.135-0.008,0.203-0.01h1.834l6.619,25.409h-17.313L226.493,175.455z M239.097,424.96c0,5.827-4.74,10.567-10.566,10.567
	c-5.827,0-10.567-4.74-10.567-10.567V312h21.133V424.96z M222.03,380.352v-53.838c0-3.59,2.91-6.5,6.5-6.5s6.5,2.91,6.5,6.5v53.838
	c0,3.59-2.91,6.5-6.5,6.5S222.03,383.942,222.03,380.352z M222.03,422.024v-14.735c0-3.59,2.91-6.5,6.5-6.5s6.5,2.91,6.5,6.5v14.735
	c0,3.59-2.91,6.5-6.5,6.5S222.03,425.614,222.03,422.024z"/>
<g>
</g>
<g>
</g>
<g>
</g>
<g>
</g>
<g>
</g>
<g>
</g>
<g>
</g>
<g>
</g>
<g>
</g>
<g>
</g>
<g>
</g>
<g>
</g>
<g>
</g>
<g>
</g>
<g>
</g>
</svg>
