<?xml version="1.0" encoding="iso-8859-1"?>
<!-- Generator: Adobe Illustrator 17.1.0, SVG Export Plug-In . SVG Version: 6.00 Build 0)  -->
<!DOCTYPE svg PUBLIC "-//W3C//DTD SVG 1.1//EN" "http://www.w3.org/Graphics/SVG/1.1/DTD/svg11.dtd">
<svg version="1.1" id="Capa_1" xmlns="http://www.w3.org/2000/svg" xmlns:xlink="http://www.w3.org/1999/xlink" x="0px" y="0px"
	 viewBox="0 0 460.533 460.533" style="enable-background:new 0 0 460.533 460.533;" xml:space="preserve">
<g>
	<path d="M253.829,219.284c-0.001-0.093-0.009-0.186-0.014-0.279c-0.008-0.147-0.018-0.294-0.036-0.438
		c-0.01-0.083-0.024-0.167-0.038-0.25c-0.026-0.159-0.057-0.315-0.094-0.47c-0.009-0.038-0.013-0.077-0.023-0.116l-10.006-38.409
		c-0.746-2.863-3.331-4.861-6.29-4.861h-0.561V92.3c6.157-2.558,10.5-8.63,10.5-15.703V20.5c0-1.406-0.456-2.775-1.3-3.9l-10.5-14
		c-1.228-1.637-3.154-2.6-5.2-2.6s-3.973,0.963-5.2,2.6l-10.5,14c-0.844,1.125-1.3,2.494-1.3,3.9v56.097
		c0,7.072,4.343,13.145,10.5,15.703v82.161h-0.561c-2.958,0-5.544,1.998-6.29,4.861L206.91,217.73
		c-0.01,0.038-0.014,0.077-0.023,0.115c-0.037,0.156-0.068,0.313-0.094,0.472c-0.013,0.082-0.027,0.164-0.038,0.246
		c-0.018,0.147-0.029,0.297-0.037,0.447c-0.005,0.09-0.012,0.179-0.014,0.269c0,0.03-0.004,0.059-0.004,0.088v98.137v119.459
		c0,12.995,10.572,23.567,23.567,23.567c12.994,0,23.566-10.572,23.566-23.567V317.506v-98.137
		C253.833,219.34,253.829,219.313,253.829,219.284z M226.267,22.667l4-5.333l4,5.333v53.931c0,2.206-1.794,4-4,4
		c-2.206,0-4-1.794-4-4V22.667z M240.833,232.665H219.7v-6.795h21.133V232.665z M219.7,272.333v-6.834h21.133v6.834H219.7z
		 M240.833,285.333v6.834H219.7v-6.834H240.833z M219.7,252.499v-6.834h21.133v6.834H219.7z M219.7,305.167h21.133v5.84H219.7
		V305.167z M228.229,187.46h1.834c0.068,0.002,0.134,0.01,0.203,0.01s0.135-0.008,0.203-0.01h1.834l6.619,25.409H221.61
		L228.229,187.46z M240.833,436.966c0,5.827-4.74,10.567-10.566,10.567c-5.827,0-10.567-4.74-10.567-10.567V324.006h21.133V436.966z
		"/>
	<path d="M230.267,398.858c3.59,0,6.5-2.91,6.5-6.5V338.52c0-3.59-2.91-6.5-6.5-6.5s-6.5,2.91-6.5,6.5v53.838
		C223.767,395.948,226.677,398.858,230.267,398.858z"/>
	<path d="M230.267,440.53c3.59,0,6.5-2.91,6.5-6.5v-14.735c0-3.59-2.91-6.5-6.5-6.5s-6.5,2.91-6.5,6.5v14.735
		C223.767,437.62,226.677,440.53,230.267,440.53z"/>
</g>
<g>
</g>
<g>
</g>
<g>
</g>
<g>
</g>
<g>
</g>
<g>
</g>
<g>
</g>
<g>
</g>
<g>
</g>
<g>
</g>
<g>
</g>
<g>
</g>
<g>
</g>
<g>
</g>
<g>
</g>
</svg>
