<?xml version="1.0" encoding="iso-8859-1"?>
<!-- Generator: Adobe Illustrator 17.1.0, SVG Export Plug-In . SVG Version: 6.00 Build 0)  -->
<!DOCTYPE svg PUBLIC "-//W3C//DTD SVG 1.1//EN" "http://www.w3.org/Graphics/SVG/1.1/DTD/svg11.dtd">
<svg version="1.1" id="Capa_1" xmlns="http://www.w3.org/2000/svg" xmlns:xlink="http://www.w3.org/1999/xlink" x="0px" y="0px"
	 viewBox="0 0 433.643 433.643" style="enable-background:new 0 0 433.643 433.643;" xml:space="preserve">
<path d="M262.22,103.275l-12.31-19.925c-3.463-5.605-5.294-12.144-5.294-18.909v-3.053c0-11.752-9.075-21.313-20.23-21.313h-1.064
	v-7.038h12.073c8.705,0,15.787-7.41,15.787-16.519C251.182,7.41,244.1,0,235.395,0h-46.434c-3.59,0-6.5,2.91-6.5,6.5
	s2.91,6.5,6.5,6.5h46.434c1.511,0,2.787,1.611,2.787,3.52c0,1.907-1.276,3.519-2.787,3.519h-18.573c-3.59,0-6.5,2.91-6.5,6.5v13.538
	h-0.066c-1.982,0-3.855,0.904-5.089,2.456c-1.233,1.552-1.691,3.581-1.243,5.512l3.998,17.248c0.624,2.69,1.439,5.301,2.4,7.833
	v7.12h-2.787c-3.177,0-5.889,2.297-6.412,5.431l-4.643,27.851c-0.005,0.033-0.003,0.066-0.008,0.1
	c-0.048,0.317-0.08,0.639-0.08,0.97v204.326c0,0,0,0.004,0,0.006c0,0.326,0.032,0.644,0.079,0.957
	c0.005,0.035,0.003,0.071,0.009,0.106l1.857,11.14c-0.217-0.121-0.427-0.254-0.646-0.373l-17.65-9.526
	c-2.589-1.397-5.795-0.881-7.816,1.26c-2.02,2.142-2.348,5.372-0.801,7.876l12.309,19.925c3.464,5.605,5.295,12.145,5.295,18.909
	v3.053c0,11.752,9.075,21.313,20.23,21.313h1.064v7.038h-12.074c-8.705,0-15.787,7.41-15.787,16.519
	c0,9.109,7.082,16.52,15.787,16.52h46.434c3.59,0,6.5-2.91,6.5-6.5s-2.91-6.5-6.5-6.5h-46.434c-1.511,0-2.787-1.611-2.787-3.52
	c0-1.907,1.276-3.519,2.787-3.519h18.574c3.59,0,6.5-2.91,6.5-6.5v-13.538h0.066c1.982,0,3.855-0.904,5.089-2.456
	s1.69-3.581,1.243-5.512l-3.998-17.248c-0.624-2.69-1.439-5.301-2.4-7.833v-7.243h2.787c3.178,0,5.889-2.297,6.411-5.431
	l4.644-27.853c0.006-0.034,0.003-0.068,0.008-0.102c0.047-0.314,0.079-0.634,0.08-0.962c0-0.002,0-0.004,0-0.004V114.596
	c0-0.358-0.029-0.716-0.089-1.069l-1.834-11.001c0.21,0.117,0.413,0.246,0.624,0.36l17.649,9.526c0.973,0.525,2.033,0.78,3.085,0.78
	c1.746,0,3.47-0.703,4.73-2.04C263.438,109.01,263.767,105.779,262.22,103.275z M220.603,93.245l3.649,21.889v9.801h-14.861v-3.839
	h3.621c3.59,0,6.5-2.91,6.5-6.5s-2.91-6.5-6.5-6.5h-2.448l2.476-14.851H220.603z M220.603,340.274h-7.562l-2.477-14.856h12.516
	L220.603,340.274z M209.391,137.935h14.861v157.313h-14.861V137.935z M209.391,312.418v-4.17h14.861v4.17H209.391z M202.027,372.254
	v-3.053c0-8.701-2.248-17.152-6.513-24.533c2.531,1.775,4.852,3.845,6.944,6.149c0.142,0.178,0.302,0.339,0.461,0.501
	c4.853,5.52,8.377,12.371,10.138,19.968l2.151,9.28h-5.952C205.27,380.566,202.027,376.838,202.027,372.254z M231.538,83.209
	c-0.368-0.563-0.808-1.07-1.325-1.492c-4.586-5.413-7.93-12.036-9.628-19.36l-2.15-9.28h5.951c3.987,0,7.23,3.729,7.23,8.313v3.053
	c0,8.701,2.247,17.152,6.512,24.533C235.738,87.299,233.537,85.359,231.538,83.209z"/>
<g>
</g>
<g>
</g>
<g>
</g>
<g>
</g>
<g>
</g>
<g>
</g>
<g>
</g>
<g>
</g>
<g>
</g>
<g>
</g>
<g>
</g>
<g>
</g>
<g>
</g>
<g>
</g>
<g>
</g>
</svg>
