<?xml version="1.0" encoding="iso-8859-1"?>
<!-- Generator: Adobe Illustrator 17.1.0, SVG Export Plug-In . SVG Version: 6.00 Build 0)  -->
<!DOCTYPE svg PUBLIC "-//W3C//DTD SVG 1.1//EN" "http://www.w3.org/Graphics/SVG/1.1/DTD/svg11.dtd">
<svg version="1.1" id="Capa_1" xmlns="http://www.w3.org/2000/svg" xmlns:xlink="http://www.w3.org/1999/xlink" x="0px" y="0px"
	 viewBox="0 0 448.203 448.203" style="enable-background:new 0 0 448.203 448.203;" xml:space="preserve">
<path d="M251.93,206.954c-0.001-0.093-0.009-0.186-0.014-0.279c-0.008-0.147-0.019-0.294-0.036-0.438
	c-0.01-0.083-0.024-0.167-0.038-0.25c-0.026-0.159-0.057-0.315-0.094-0.47c-0.009-0.038-0.013-0.077-0.023-0.116l-10.006-38.409
	c-0.746-2.863-3.331-4.861-6.29-4.861h-0.561V74.768c0-1.406-0.456-2.775-1.3-3.9l-22.218-29.625l30.147-30.147
	c2.538-2.539,2.538-6.654-0.001-9.192c-2.537-2.538-6.653-2.538-9.192,0l-34.133,34.134c-2.287,2.287-2.544,5.908-0.604,8.496
	l24.3,32.401v85.197h-0.561c-2.959,0-5.544,1.998-6.29,4.861l-10.006,38.409c-0.01,0.038-0.014,0.077-0.023,0.116
	c-0.037,0.155-0.068,0.312-0.094,0.47c-0.014,0.083-0.028,0.167-0.038,0.25c-0.018,0.145-0.028,0.291-0.036,0.438
	c-0.005,0.093-0.013,0.186-0.014,0.279c0,0.029-0.004,0.057-0.004,0.085v98.137v119.459c0,12.995,10.572,23.567,23.566,23.567
	s23.566-10.572,23.566-23.567V305.177V207.04C251.935,207.011,251.931,206.983,251.93,206.954z M238.935,220.335h-21.133v-6.795
	h21.133V220.335z M217.802,260.003v-6.834h21.133v6.834H217.802z M238.935,273.003v6.834h-21.133v-6.834H238.935z M217.802,240.169
	v-6.834h21.133v6.834H217.802z M217.802,292.837h21.133v5.84h-21.133V292.837z M226.331,175.131h1.834
	c0.068,0.002,0.134,0.01,0.203,0.01s0.135-0.008,0.203-0.01h1.834l6.619,25.409h-17.313L226.331,175.131z M238.935,424.636
	c0,5.827-4.74,10.567-10.566,10.567s-10.566-4.74-10.566-10.567V311.677h21.133V424.636z M221.868,380.029V326.19
	c0-3.59,2.91-6.5,6.5-6.5s6.5,2.91,6.5,6.5v53.838c0,3.59-2.91,6.5-6.5,6.5S221.868,383.618,221.868,380.029z M221.868,421.7
	v-14.735c0-3.59,2.91-6.5,6.5-6.5s6.5,2.91,6.5,6.5V421.7c0,3.59-2.91,6.5-6.5,6.5S221.868,425.29,221.868,421.7z"/>
<g>
</g>
<g>
</g>
<g>
</g>
<g>
</g>
<g>
</g>
<g>
</g>
<g>
</g>
<g>
</g>
<g>
</g>
<g>
</g>
<g>
</g>
<g>
</g>
<g>
</g>
<g>
</g>
<g>
</g>
</svg>
