<?xml version="1.0" encoding="iso-8859-1"?>
<!-- Generator: Adobe Illustrator 17.1.0, SVG Export Plug-In . SVG Version: 6.00 Build 0)  -->
<!DOCTYPE svg PUBLIC "-//W3C//DTD SVG 1.1//EN" "http://www.w3.org/Graphics/SVG/1.1/DTD/svg11.dtd">
<svg version="1.1" id="Capa_1" xmlns="http://www.w3.org/2000/svg" xmlns:xlink="http://www.w3.org/1999/xlink" x="0px" y="0px"
	 viewBox="0 0 322.687 322.687" style="enable-background:new 0 0 322.687 322.687;" xml:space="preserve">
<path d="M316.187,180.986h-10.069c-15.84,0-28.728,12.887-28.728,28.728v10.835c0,7.143-5.811,12.954-12.954,12.954
	s-12.954-5.812-12.954-12.954V98.953c0-21.977-14.182-40.692-33.87-47.509V31.715c0-12.099-9.539-21.941-21.265-21.941H21.265
	C9.539,9.774,0,19.617,0,31.715v56.655c0,5.453,1.942,10.443,5.144,14.285c-0.072,0.399-0.111,0.81-0.106,1.231l1.716,150.783
	c0.011,0.977,0.242,1.938,0.676,2.814l16.951,34.173c4.902,12.729,17.298,21.256,30.96,21.256h106.929
	c13.663,0,26.059-8.527,30.96-21.258l16.951-34.181c0.434-0.875,0.665-1.837,0.676-2.813l1.716-150.774
	c0.005-0.421-0.034-0.832-0.106-1.231c3.202-3.842,5.144-8.832,5.144-14.285V65.495c12.349,6.078,20.87,18.79,20.87,33.458v121.596
	c0,14.312,11.643,25.954,25.954,25.954s25.954-11.643,25.954-25.954v-10.835c0-8.672,7.055-15.728,15.728-15.728h10.069
	c3.59,0,6.5-2.91,6.5-6.5S319.776,180.986,316.187,180.986z M13,31.715c0-4.931,3.708-8.941,8.265-8.941h175.083
	c4.557,0,8.265,4.011,8.265,8.941V48.81c-1.125-0.076-2.257-0.128-3.401-0.128c-27.169,0-49.359,21.669-50.229,48.63h-12.995
	c-3.149,0-5.774,2.24-6.371,5.213H85.997c-0.597-2.973-3.222-5.213-6.371-5.213c0,0,0,0,0,0h0H21.265
	c-4.557,0-8.265-4.011-8.265-8.941V31.715z M131.396,115.525c-1.005,11.584-10.749,20.706-22.589,20.706
	c-11.84,0-21.584-9.122-22.589-20.706H131.396z M181.443,286.165c-0.1,0.201-0.189,0.407-0.268,0.618
	c-2.926,7.854-10.524,13.13-18.905,13.13H55.342c-8.381,0-15.978-5.276-18.905-13.13c-0.079-0.21-0.168-0.417-0.268-0.618
	l-12.438-25.075h133.71c3.59,0,6.5-2.91,6.5-6.5s-2.91-6.5-6.5-6.5H19.938c-0.087,0-0.171,0.01-0.257,0.013l-1.571-138.034
	c1.03,0.159,2.083,0.243,3.155,0.243h51.861v3.238c0,19.675,16.006,35.681,35.681,35.681s35.68-16.006,35.68-35.681v-3.238h51.861
	c1.072,0,2.125-0.084,3.155-0.243l-1.628,142.959L181.443,286.165z M204.613,88.371c0,4.931-3.708,8.941-8.265,8.941h-32.366
	c0.862-19.792,17.228-35.63,37.229-35.63c1.147,0,2.28,0.06,3.401,0.162V88.371z"/>
<g>
</g>
<g>
</g>
<g>
</g>
<g>
</g>
<g>
</g>
<g>
</g>
<g>
</g>
<g>
</g>
<g>
</g>
<g>
</g>
<g>
</g>
<g>
</g>
<g>
</g>
<g>
</g>
<g>
</g>
</svg>
