<?xml version="1.0" encoding="iso-8859-1"?>
<!-- Generator: Adobe Illustrator 17.1.0, SVG Export Plug-In . SVG Version: 6.00 Build 0)  -->
<!DOCTYPE svg PUBLIC "-//W3C//DTD SVG 1.1//EN" "http://www.w3.org/Graphics/SVG/1.1/DTD/svg11.dtd">
<svg version="1.1" id="Capa_1" xmlns="http://www.w3.org/2000/svg" xmlns:xlink="http://www.w3.org/1999/xlink" x="0px" y="0px"
	 viewBox="0 0 456.742 456.742" style="enable-background:new 0 0 456.742 456.742;" xml:space="preserve">
<path d="M239.773,438.168l-11.636-1.955v-56.769l11.003-11.532c1.153-1.209,1.797-2.816,1.797-4.487v-256.08
	c0-1.671-0.644-3.278-1.797-4.487l-11.003-11.532V71.215l10.865-2.917c15.152-4.068,25.735-17.866,25.735-33.555
	C264.738,15.586,249.152,0,229.995,0h-14.424c-12.994,0-23.566,10.572-23.566,23.567c0,3.59,2.91,6.5,6.5,6.5s6.5-2.91,6.5-6.5
	c0-5.827,4.74-10.567,10.566-10.567h14.424c11.989,0,21.743,9.754,21.743,21.743c0,9.818-6.623,18.454-16.106,21l-15.68,4.209
	c-2.84,0.763-4.814,3.337-4.814,6.278v25.098l-11.003,11.532c-1.153,1.209-1.797,2.816-1.797,4.487v256.08
	c0,1.671,0.644,3.278,1.797,4.487l11.003,11.532v62.268c0,3.174,2.293,5.884,5.424,6.41l17.06,2.865
	c2.854,0.479,5.444,1.813,7.493,3.855c1.269,1.266,2.929,1.898,4.59,1.898c1.666,0,3.332-0.637,4.603-1.91
	c2.535-2.542,2.529-6.657-0.013-9.192C250.324,441.68,245.302,439.097,239.773,438.168z M219.428,186.219h-4.091V109.95l6.3-6.603
	l6.3,6.603v93.336h-12.6v-4.067h4.091c3.59,0,6.5-2.91,6.5-6.5S223.018,186.219,219.428,186.219z M227.937,233.353v4.067h-12.6
	v-4.067H227.937z M215.337,220.353v-4.067h12.6v4.067H215.337z M227.937,250.42v4.067h-12.6v-4.067H227.937z M227.937,267.487v4.067
	h-12.6v-4.067H227.937z M215.337,284.554h12.6v76.269l-6.3,6.603l-6.3-6.603V284.554z"/>
<g>
</g>
<g>
</g>
<g>
</g>
<g>
</g>
<g>
</g>
<g>
</g>
<g>
</g>
<g>
</g>
<g>
</g>
<g>
</g>
<g>
</g>
<g>
</g>
<g>
</g>
<g>
</g>
<g>
</g>
</svg>
