<?xml version="1.0" encoding="iso-8859-1"?>
<!-- Generator: Adobe Illustrator 17.1.0, SVG Export Plug-In . SVG Version: 6.00 Build 0)  -->
<!DOCTYPE svg PUBLIC "-//W3C//DTD SVG 1.1//EN" "http://www.w3.org/Graphics/SVG/1.1/DTD/svg11.dtd">
<svg version="1.1" id="Capa_1" xmlns="http://www.w3.org/2000/svg" xmlns:xlink="http://www.w3.org/1999/xlink" x="0px" y="0px"
	 viewBox="0 0 417.921 417.921" style="enable-background:new 0 0 417.921 417.921;" xml:space="preserve">
<path d="M380.404,319.033c-0.293-0.035-29.649-3.567-58.647-12.175c-2.125-0.631-4.189-1.273-6.2-1.925
	c7.722-22.333,12.736-48.547,15.31-72.481c32.543-11.485,63.807-24.177,63.807-49.093c0-30.41-28.288-45.792-41.117-51.204
	l8.396-26.242c2.664-8.543,3.896-17.456,3.66-26.491C364.468,35.55,327.913,0,284.037,0c-0.121,0-0.247,0-0.368,0.001l-1.054,0.004
	c-17.821,0.078-34.245,9.443-43.936,25.05c-6.436,10.364-17.55,16.552-29.731,16.552s-23.296-6.188-29.731-16.552
	c-9.69-15.607-26.115-24.972-43.938-25.05l-1.05-0.004C134.105,0,133.984,0,133.86,0C89.987,0,53.427,35.553,52.283,79.422
	c-0.235,9.035,0.996,17.948,3.675,26.537l8.384,26.206c-12.839,5.421-41.094,20.802-41.094,51.194
	c0,24.911,31.252,37.603,63.788,49.087c2.58,23.927,7.601,50.141,15.333,72.485c-1.968,0.638-3.986,1.268-6.065,1.886
	c-28.997,8.624-58.493,12.182-58.788,12.216c-3.564,0.423-6.112,3.655-5.689,7.219c0.392,3.306,3.197,5.737,6.446,5.736
	c0.255,0,0.513-0.015,0.771-0.045c1.242-0.147,30.765-3.701,60.819-12.623c2.459-0.73,4.84-1.476,7.16-2.235
	c0.68,1.604,1.371,3.189,2.084,4.729l37.25,80.404c3.207,9.32,11.734,15.611,21.349,15.7c0.071,0.001,0.143,0.001,0.215,0.001
	c6.014,0,11.669-2.326,15.945-6.563c4.328-4.288,6.712-10.005,6.712-16.097c0-0.603-0.084-1.203-0.249-1.783
	c-7.377-25.865-22.161-98.769-2.252-125.151c4.956-6.567,11.783-9.76,20.87-9.76c8.862,0,15.544,3.127,20.427,9.561
	c19.852,26.156,5.439,99.052-1.788,124.934c-0.159,0.569-0.24,1.159-0.24,1.75c0,11.756,9.322,22.088,20.781,23.032
	c0.638,0.053,1.271,0.079,1.901,0.078c9.637,0,18.22-6.052,21.395-15.263l37.426-80.901c0.704-1.521,1.385-3.085,2.056-4.668
	c2.317,0.758,4.696,1.503,7.152,2.232c30.055,8.922,59.577,12.476,60.819,12.623c0.26,0.031,0.517,0.045,0.771,0.045
	c3.249,0,6.057-2.431,6.447-5.737C386.517,322.687,383.968,319.455,380.404,319.033z M303.328,300.564
	c-23.794-9.399-36.654-20.466-36.654-31.869c0-12.781,25.718-22.723,50.586-31.475C314.64,258.499,310.062,281.125,303.328,300.564z
	 M381.673,183.359c0,15.014-24.201,25.667-49.532,34.832c0.539-7.696,0.805-14.986,0.809-21.629l16.615-51.931
	C360.29,149.396,381.673,161.623,381.673,183.359z M36.248,183.359c0-21.721,21.353-33.946,32.085-38.719l16.612,51.923
	c0.004,6.639,0.272,13.926,0.813,21.621C60.435,209.02,36.248,198.369,36.248,183.359z M100.647,237.214
	c24.872,8.753,50.601,18.697,50.601,31.48c0,11.402-12.858,22.469-36.65,31.868C107.857,281.12,103.271,258.495,100.647,237.214z
	 M297.05,316.298l-37.575,81.225c-0.108,0.235-0.203,0.476-0.283,0.722c-1.391,4.28-5.502,7.014-9.998,6.642
	c-4.473-0.368-8.424-4.627-8.815-9.316c2.985-11.029,25.981-100.204-0.645-135.296c-7.404-9.759-17.762-14.707-30.786-14.707
	c-13.258,0-23.771,5.023-31.247,14.929c-26.667,35.336-3.209,124.48-0.153,135.546c-0.183,2.301-1.171,4.437-2.83,6.081
	c-1.844,1.828-4.303,2.813-6.891,2.797c-4.091-0.038-7.89-2.964-9.238-7.116c-0.08-0.247-0.175-0.489-0.284-0.724l-37.401-80.73
	c-0.555-1.198-1.096-2.422-1.63-3.661c29.858-11.778,44.975-26.533,44.975-43.995c0-22.994-31.578-34.08-65.094-45.778
	c-0.539-6.323-0.894-12.415-1.072-18.144c17.797,5.829,60.005,17.588,110.866,17.588c25.26,0,51.562-2.982,78.175-8.864
	c3.506-0.774,5.719-4.244,4.944-7.75c-0.774-3.504-4.246-5.721-7.749-4.944c-3.189,0.705-6.374,1.366-9.552,1.985l14.177-35.973
	c1.316-3.34-0.324-7.114-3.664-8.431c-3.34-1.315-7.113,0.324-8.43,3.664l-17.08,43.341c-17.274,2.636-34.288,3.971-50.821,3.971
	c-18.656,0-36.227-1.693-51.76-4.089l-17.034-43.223c-1.316-3.34-5.092-4.979-8.43-3.664c-3.34,1.316-4.98,5.091-3.664,8.431
	l14.119,35.826c-22.67-4.453-39.178-9.869-45.513-12.103l-18.04-56.385c0-0.001,0-0.001,0-0.002c0-0.001-0.001-0.002-0.001-0.003
	l-10.271-32.104c-2.238-7.18-3.272-14.677-3.074-22.283C66.24,42.883,96.973,13,133.861,13c0.102,0,0.208,0,0.31,0.001l1.053,0.004
	c13.317,0.059,25.635,7.126,32.948,18.907c8.824,14.211,24.067,22.695,40.776,22.695s31.952-8.484,40.776-22.695
	c7.313-11.781,19.631-18.849,32.945-18.907l1.057-0.004c0.104,0,0.206-0.001,0.31-0.001c36.884,0,67.62,29.885,68.581,66.761
	c0.198,7.606-0.836,15.104-3.06,22.237l-29.298,91.573c-0.208,0.647-0.312,1.399-0.31,2.079c0.029,8.197-0.367,17.461-1.201,27.272
	c-33.509,11.695-65.075,22.782-65.075,45.771c0,17.463,15.119,32.219,44.982,43.997C298.13,313.913,297.596,315.118,297.05,316.298z
	 M283.932,35.463c-0.078,0-0.157,0.001-0.236,0c-3.576,0-6.482-2.891-6.499-6.47c-0.017-3.59,2.881-6.513,6.471-6.53
	c0.087,0,0.178,0,0.265,0c31.466,0,57.682,25.495,58.503,56.959c0.094,3.588-2.74,6.574-6.328,6.667
	c-0.058,0.002-0.116,0.002-0.173,0.002c-3.512,0-6.402-2.799-6.495-6.331C328.801,55.293,308.407,35.463,283.932,35.463z
	 M340.534,94.61c1.211,1.21,1.9,2.89,1.9,4.6s-0.689,3.39-1.9,4.6c-1.21,1.21-2.89,1.9-4.6,1.9s-3.38-0.69-4.59-1.9
	c-1.21-1.22-1.91-2.89-1.91-4.6s0.7-3.39,1.91-4.6c1.2-1.21,2.88-1.9,4.59-1.9S339.324,93.4,340.534,94.61z"/>
<g>
</g>
<g>
</g>
<g>
</g>
<g>
</g>
<g>
</g>
<g>
</g>
<g>
</g>
<g>
</g>
<g>
</g>
<g>
</g>
<g>
</g>
<g>
</g>
<g>
</g>
<g>
</g>
<g>
</g>
</svg>
