<?xml version="1.0" encoding="iso-8859-1"?>
<!-- Generator: Adobe Illustrator 17.1.0, SVG Export Plug-In . SVG Version: 6.00 Build 0)  -->
<!DOCTYPE svg PUBLIC "-//W3C//DTD SVG 1.1//EN" "http://www.w3.org/Graphics/SVG/1.1/DTD/svg11.dtd">
<svg version="1.1" id="Capa_1" xmlns="http://www.w3.org/2000/svg" xmlns:xlink="http://www.w3.org/1999/xlink" x="0px" y="0px"
	 viewBox="0 0 448.203 448.203" style="enable-background:new 0 0 448.203 448.203;" xml:space="preserve">
<path d="M251.271,11.545l-11.8-10.004c-2.58-2.187-6.407-2.029-8.799,0.362l-34.133,34.134c-2.287,2.287-2.544,5.908-0.604,8.496
	l24.3,32.401v85.197h-0.561c-2.958,0-5.544,1.998-6.29,4.861l-10.006,38.409c-0.01,0.038-0.014,0.077-0.023,0.115
	c-0.037,0.156-0.068,0.313-0.094,0.473c-0.013,0.082-0.027,0.164-0.038,0.246c-0.018,0.147-0.029,0.297-0.037,0.447
	c-0.005,0.09-0.012,0.18-0.014,0.269c0,0.03-0.004,0.058-0.004,0.088v98.137v119.459c0,12.995,10.572,23.567,23.567,23.567
	s23.567-10.572,23.567-23.567V305.177v-98.137c0-0.03-0.004-0.058-0.004-0.088c-0.001-0.09-0.009-0.181-0.014-0.271
	c-0.008-0.15-0.019-0.299-0.037-0.446c-0.01-0.082-0.024-0.164-0.038-0.246c-0.026-0.16-0.057-0.317-0.094-0.473
	c-0.009-0.038-0.013-0.077-0.023-0.115l-10.006-38.409c-0.746-2.863-3.332-4.861-6.29-4.861h-0.561V74.767
	c0-1.406-0.456-2.775-1.3-3.9l-22.218-29.625l25.914-25.915l7.234,6.133c2.737,2.321,6.84,1.983,9.161-0.755
	S254.01,13.867,251.271,11.545z M216.168,260.003v-6.834h21.134v6.834H216.168z M237.302,273.003v6.834h-21.134v-6.834H237.302z
	 M216.168,240.169v-6.834h21.134v6.834H216.168z M216.168,292.837h21.134v5.84h-21.134V292.837z M237.302,220.335h-21.134v-6.795
	h21.134V220.335z M237.302,424.636c0,5.827-4.74,10.567-10.567,10.567s-10.567-4.74-10.567-10.567V311.677h21.134V424.636z
	 M235.392,200.539h-17.313l6.62-25.409h1.834c0.068,0.002,0.134,0.01,0.203,0.01s0.135-0.008,0.203-0.01h1.834L235.392,200.539z
	 M220.235,380.028V326.19c0-3.59,2.91-6.5,6.5-6.5s6.5,2.91,6.5,6.5v53.838c0,3.59-2.91,6.5-6.5,6.5
	S220.235,383.618,220.235,380.028z M220.235,421.7v-14.735c0-3.59,2.91-6.5,6.5-6.5s6.5,2.91,6.5,6.5V421.7c0,3.59-2.91,6.5-6.5,6.5
	S220.235,425.29,220.235,421.7z"/>
<g>
</g>
<g>
</g>
<g>
</g>
<g>
</g>
<g>
</g>
<g>
</g>
<g>
</g>
<g>
</g>
<g>
</g>
<g>
</g>
<g>
</g>
<g>
</g>
<g>
</g>
<g>
</g>
<g>
</g>
</svg>
