<?xml version="1.0" encoding="iso-8859-1"?>
<!-- Generator: Adobe Illustrator 17.1.0, SVG Export Plug-In . SVG Version: 6.00 Build 0)  -->
<!DOCTYPE svg PUBLIC "-//W3C//DTD SVG 1.1//EN" "http://www.w3.org/Graphics/SVG/1.1/DTD/svg11.dtd">
<svg version="1.1" id="Capa_1" xmlns="http://www.w3.org/2000/svg" xmlns:xlink="http://www.w3.org/1999/xlink" x="0px" y="0px"
	 viewBox="0 0 418.502 418.502" style="enable-background:new 0 0 418.502 418.502;" xml:space="preserve">
<path d="M275.481,120.383V46.225c9.845-2.829,17.072-11.91,17.072-22.653C292.554,10.574,281.979,0,268.981,0h-65.496
	c-42.754,0-77.538,34.783-77.538,77.537v283.265c0,0.349,0.028,0.697,0.084,1.041c2.247,13.849,16.815,50.966,17.434,52.539
	c0.979,2.486,3.378,4.12,6.049,4.12c2.671,0,5.071-1.635,6.049-4.12c0.619-1.574,15.187-38.699,17.434-52.55
	c0.056-0.345,0.084-0.692,0.084-1.041V197.274c0-16.91,13.757-30.667,30.667-30.667h65.233c12.998,0,23.572-10.574,23.572-23.572
	C292.554,132.292,285.327,123.212,275.481,120.383z M268.981,153.607h-65.233c-24.078,0-43.667,19.589-43.667,43.667V360.24
	c-1.251,6.969-6.167,21.346-10.567,33.383c-4.399-12.032-9.315-26.403-10.566-33.372V77.537C138.948,41.951,167.9,13,203.486,13
	h65.496c5.83,0,10.572,4.742,10.572,10.571s-4.743,10.572-10.572,10.572H208.48c-26.687,0-48.399,21.711-48.399,48.398
	c0,27.527,22.395,49.922,49.921,49.922h16.312c3.59,0,6.5-2.91,6.5-6.5s-2.91-6.5-6.5-6.5h-16.312
	c-20.358,0-36.921-16.563-36.921-36.922c0-19.519,15.88-35.398,35.399-35.398h54.001v72.32h-7.133c-3.59,0-6.5,2.91-6.5,6.5
	s2.91,6.5,6.5,6.5h13.633c5.83,0,10.572,4.742,10.572,10.571S274.811,153.607,268.981,153.607z"/>
<g>
</g>
<g>
</g>
<g>
</g>
<g>
</g>
<g>
</g>
<g>
</g>
<g>
</g>
<g>
</g>
<g>
</g>
<g>
</g>
<g>
</g>
<g>
</g>
<g>
</g>
<g>
</g>
<g>
</g>
</svg>
