<?xml version="1.0" encoding="iso-8859-1"?>
<!-- Generator: Adobe Illustrator 17.1.0, SVG Export Plug-In . SVG Version: 6.00 Build 0)  -->
<!DOCTYPE svg PUBLIC "-//W3C//DTD SVG 1.1//EN" "http://www.w3.org/Graphics/SVG/1.1/DTD/svg11.dtd">
<svg version="1.1" id="Capa_1" xmlns="http://www.w3.org/2000/svg" xmlns:xlink="http://www.w3.org/1999/xlink" x="0px" y="0px"
	 viewBox="0 0 425.529 425.529" style="enable-background:new 0 0 425.529 425.529;" xml:space="preserve">
<path d="M303.986,275.36c-11.301-27.286-27.47-51.795-48.08-72.89v-70.904c4.567-21.303,9.91-50.223,9.291-66.47
	c-0.382-10.013-6.896-61.498-28.641-64.464c-1.933-0.264-3.881,0.355-5.309,1.685c-1.427,1.329-2.182,3.229-2.056,5.176
	l2.427,37.486c0.012,0.177,0.03,0.354,0.056,0.529c2.316,15.695-1.305,20.61-12.13,34.058l-5.804,1.701l-7.79-2.282
	c-10.448-12.735-14.31-18.134-12.026-33.815c0.025-0.177,0.044-0.354,0.055-0.531l2.359-37.732c0.122-1.944-0.636-3.84-2.063-5.166
	s-3.373-1.944-5.304-1.68c-20.946,2.858-29.013,51.197-28.581,65.479c0.363,12.057,7.371,30.29,9.232,34.935v102.567
	c-20.61,21.095-36.779,45.604-48.08,72.89c-11.646,28.121-17.552,57.812-17.552,88.248v42.136c0,10.406,8.279,19.024,18.457,19.211
	c0.118,0.002,0.235,0.003,0.354,0.003c4.96,0,9.625-1.905,13.172-5.387c3.63-3.565,5.63-8.331,5.63-13.419v-32.025
	c0-58.124,22.633-112.771,63.729-153.872c1.219-1.219,1.903-2.872,1.903-4.596v-39.575l6.312-2.307l4.747,1.734v39.575
	c0,1.724,0.685,3.377,1.903,4.596c41.096,41.103,63.729,95.749,63.729,153.872v32.025c0,10.369,8.437,18.806,18.807,18.806
	c10.369,0,18.806-8.437,18.806-18.806v-42.543C321.538,333.171,315.633,303.48,303.986,275.36z M179.123,32.298
	c1.027-3.121,2.075-5.812,3.108-8.107l-1.211,19.375c-2.947,20.701,3.46,29.712,14.394,43.071l-15.442,4.525
	c-2.728-7.437-6.372-18.856-6.588-26.014C173.179,58.354,174.887,45.176,179.123,32.298z M198.504,166.004
	c-2.563,0.938-4.269,3.376-4.269,6.105v41.45c-20.611,21.094-36.779,45.604-48.08,72.89c-11.646,28.12-17.552,57.812-17.552,88.248
	v32.025c0,1.57-0.617,3.042-1.738,4.143s-2.609,1.692-4.18,1.662c-3.14-0.058-5.694-2.845-5.694-6.213v-42.136
	c0-58.122,22.633-112.769,63.729-153.872c1.219-1.219,1.903-2.872,1.903-4.596V103.932l33.033-9.68
	c0.027-0.008,0.055-0.015,0.082-0.024l9.419-2.76c1.272-0.373,2.401-1.127,3.233-2.16l0.514-0.637
	c11.694-14.518,18.772-23.305,15.671-44.793l-1.191-18.408c0.856,2.042,1.731,4.402,2.606,7.12
	c3.864,12.013,5.932,25.527,6.217,33.002c0.841,22.052-10.957,72.547-14.209,85.979L198.504,166.004z M308.538,406.151
	c0,3.201-2.604,5.806-5.806,5.806c-3.202,0-5.807-2.604-5.807-5.806v-32.025c0-30.437-5.905-60.128-17.552-88.248
	c-11.301-27.286-27.469-51.795-48.08-72.89v-41.45c0-1.205-0.348-2.344-0.94-3.331l12.552-4.587v41.521
	c0,1.724,0.685,3.377,1.903,4.596c41.096,41.103,63.729,95.749,63.729,153.872V406.151z M230.02,123.67
	c0,11.147-9.068,20.216-20.216,20.216s-20.217-9.068-20.217-20.216s9.069-20.217,20.217-20.217c3.59,0,6.5,2.91,6.5,6.5
	s-2.91,6.5-6.5,6.5c-3.979,0-7.217,3.237-7.217,7.217c0,3.979,3.237,7.216,7.217,7.216c3.979,0,7.216-3.237,7.216-7.216
	c0-3.59,2.91-6.5,6.5-6.5S230.02,120.081,230.02,123.67z"/>
<g>
	<path d="M264.294,275.603c-2.649,0-5.138-1.632-6.104-4.264c-1.236-3.37,0.494-7.104,3.864-8.341l25.271-9.27
		c3.369-1.235,7.104,0.494,8.341,3.864c1.236,3.37-0.494,7.104-3.864,8.341l-25.271,9.27
		C265.793,275.474,265.037,275.603,264.294,275.603z"/>
</g>
<g>
	<path d="M315.038,375.224H290.36c-3.59,0-6.5-2.91-6.5-6.5s2.91-6.5,6.5-6.5h24.678c3.59,0,6.5,2.91,6.5,6.5
		S318.628,375.224,315.038,375.224z"/>
</g>
<g>
	<path d="M161.336,275.603c-0.743,0-1.499-0.129-2.237-0.399l-25.271-9.27c-3.37-1.236-5.101-4.971-3.864-8.341
		c1.236-3.37,4.971-5.1,8.341-3.864l25.271,9.27c3.37,1.236,5.101,4.971,3.864,8.341
		C166.473,273.971,163.985,275.603,161.336,275.603z"/>
</g>
<g>
	<path d="M135.27,375.224h-24.679c-3.59,0-6.5-2.91-6.5-6.5s2.91-6.5,6.5-6.5h24.679c3.59,0,6.5,2.91,6.5,6.5
		S138.86,375.224,135.27,375.224z"/>
</g>
<g>
</g>
<g>
</g>
<g>
</g>
<g>
</g>
<g>
</g>
<g>
</g>
<g>
</g>
<g>
</g>
<g>
</g>
<g>
</g>
<g>
</g>
<g>
</g>
<g>
</g>
<g>
</g>
<g>
</g>
</svg>
