<?xml version="1.0" encoding="iso-8859-1"?>
<!-- Generator: Adobe Illustrator 17.1.0, SVG Export Plug-In . SVG Version: 6.00 Build 0)  -->
<!DOCTYPE svg PUBLIC "-//W3C//DTD SVG 1.1//EN" "http://www.w3.org/Graphics/SVG/1.1/DTD/svg11.dtd">
<svg version="1.1" id="Capa_1" xmlns="http://www.w3.org/2000/svg" xmlns:xlink="http://www.w3.org/1999/xlink" x="0px" y="0px"
	 viewBox="0 0 417.921 417.921" style="enable-background:new 0 0 417.921 417.921;" xml:space="preserve">
<path d="M365.625,79.423C365.625,79.422,365.625,79.422,365.625,79.423C364.481,35.55,327.925,0,284.049,0
	c-0.121,0-0.247,0-0.368,0.001l-1.054,0.004c-17.821,0.079-34.245,9.443-43.936,25.05c-6.436,10.365-17.55,16.552-29.731,16.552
	s-23.296-6.188-29.731-16.552c-9.69-15.607-26.114-24.972-43.938-25.05l-1.051-0.004C134.118,0,133.997,0,133.873,0
	C90,0,53.44,35.553,52.295,79.423c-0.235,9.035,0.996,17.948,3.675,26.537l28.987,90.604c0.024,35.46,7.549,89.389,24.163,125.251
	l37.25,80.405c3.207,9.32,11.734,15.611,21.348,15.699c0.073,0,0.145,0.001,0.217,0.001c6.013,0,11.669-2.326,15.944-6.563
	c4.328-4.288,6.712-10.005,6.712-16.097c0-0.603-0.084-1.203-0.249-1.783c-7.377-25.865-22.161-98.769-2.252-125.151
	c4.956-6.568,11.783-9.76,20.87-9.76c8.862,0,15.544,3.127,20.427,9.561c19.852,26.156,5.439,99.052-1.788,124.933
	c-0.159,0.569-0.24,1.158-0.24,1.75c0,11.757,9.322,22.089,20.781,23.031c0.638,0.052,1.271,0.078,1.9,0.078
	c9.637,0,18.22-6.052,21.396-15.262l37.426-80.902c16.576-35.832,24.081-89.721,24.101-125.194l29.002-90.649
	C364.629,97.371,365.861,88.458,365.625,79.423z M349.57,101.998l-29.298,91.573c-0.208,0.647-0.312,1.4-0.31,2.08
	c0.119,34.01-6.996,86.271-22.898,120.647l-37.575,81.226c-0.108,0.234-0.203,0.475-0.282,0.721c-1.391,4.28-5.49,7.011-10,6.642
	c-4.473-0.368-8.424-4.627-8.815-9.316c2.985-11.03,25.981-100.204-0.645-135.296c-7.404-9.759-17.762-14.707-30.786-14.707
	c-13.258,0-23.771,5.023-31.247,14.929c-26.667,35.336-3.209,124.479-0.153,135.546c-0.183,2.302-1.171,4.437-2.83,6.08
	c-1.844,1.828-4.303,2.83-6.891,2.797c-4.091-0.038-7.89-2.964-9.238-7.115c-0.08-0.247-0.175-0.489-0.284-0.724l-37.401-80.73
	c-14.567-31.444-21.776-77.832-22.821-111.576c17.797,5.828,60.006,17.588,110.866,17.588c25.257,0,51.56-2.982,78.175-8.864
	c3.506-0.775,5.719-4.244,4.944-7.75c-0.774-3.505-4.245-5.719-7.749-4.944c-3.189,0.705-6.374,1.366-9.551,1.984l14.176-35.972
	c1.316-3.34-0.324-7.115-3.664-8.431c-3.338-1.316-7.113,0.324-8.43,3.664l-17.08,43.341c-17.275,2.637-34.289,3.971-50.821,3.971
	c-18.656,0-36.227-1.693-51.76-4.088l-17.034-43.224c-1.316-3.34-5.092-4.98-8.43-3.664c-3.34,1.316-4.98,5.091-3.664,8.431
	l14.119,35.826c-22.67-4.453-39.178-9.869-45.513-12.103l-28.313-88.495c-2.238-7.179-3.272-14.676-3.074-22.283
	C66.252,42.883,96.986,13,133.874,13c0.102,0,0.208,0,0.31,0.001l1.054,0.004c13.316,0.058,25.633,7.126,32.947,18.907
	c8.824,14.211,24.067,22.695,40.776,22.695s31.952-8.484,40.776-22.695c7.314-11.781,19.631-18.849,32.945-18.907l1.057-0.004
	C283.843,13,283.945,13,284.048,13c36.884,0,67.62,29.885,68.581,66.761v0C352.828,87.368,351.793,94.865,349.57,101.998z
	 M322.502,89.068l13.496-13.503c2.537-2.539,2.536-6.653-0.001-9.191l-24.149-24.15c-1.22-1.219-2.873-1.904-4.598-1.904
	s-3.378,0.686-4.597,1.905l-13.494,13.502l-13.503-13.503c-1.219-1.219-2.872-1.904-4.596-1.904s-3.377,0.685-4.597,1.904
	l-24.149,24.15c-2.538,2.538-2.538,6.654,0,9.192l13.503,13.502l-13.501,13.494c-1.22,1.219-1.905,2.872-1.905,4.596
	c0,1.724,0.685,3.378,1.903,4.597l24.149,24.15c1.27,1.269,2.933,1.904,4.597,1.904c1.663,0,3.326-0.634,4.595-1.903l13.504-13.496
	l13.495,13.495c1.22,1.219,2.873,1.904,4.597,1.904s3.377-0.685,4.597-1.904l24.149-24.15c2.538-2.538,2.538-6.654,0-9.192
	L322.502,89.068z M271.061,122.119l-14.957-14.958l8.905-8.9l14.958,14.958L271.061,122.119z M307.25,122.118l-13.488-13.488
	c-0.001-0.001-0.002-0.003-0.004-0.004s-0.003-0.003-0.004-0.004l-24.145-24.146c0,0,0,0-0.001-0.001c0,0,0,0-0.001,0L256.103,70.97
	l14.957-14.958l21.004,21.003c2.537,2.539,6.653,2.539,9.192,0c2.538-2.539,2.538-6.654-0.001-9.192l-2.904-2.904l8.9-8.905
	l14.957,14.958l-13.496,13.503c-2.309,2.311-2.508,5.922-0.614,8.467c0.057,0.077,0.109,0.157,0.171,0.232
	c0.014,0.017,0.03,0.032,0.044,0.048c0.127,0.152,0.259,0.302,0.402,0.445l13.493,13.493L307.25,122.118z"/>
<g>
</g>
<g>
</g>
<g>
</g>
<g>
</g>
<g>
</g>
<g>
</g>
<g>
</g>
<g>
</g>
<g>
</g>
<g>
</g>
<g>
</g>
<g>
</g>
<g>
</g>
<g>
</g>
<g>
</g>
</svg>
