<?xml version="1.0" encoding="iso-8859-1"?>
<!-- Generator: Adobe Illustrator 17.1.0, SVG Export Plug-In . SVG Version: 6.00 Build 0)  -->
<!DOCTYPE svg PUBLIC "-//W3C//DTD SVG 1.1//EN" "http://www.w3.org/Graphics/SVG/1.1/DTD/svg11.dtd">
<svg version="1.1" id="Capa_1" xmlns="http://www.w3.org/2000/svg" xmlns:xlink="http://www.w3.org/1999/xlink" x="0px" y="0px"
	 viewBox="0 0 457.565 457.565" style="enable-background:new 0 0 457.565 457.565;" xml:space="preserve">
<path d="M295.767,14.125c-0.969-1.426-2.465-2.408-4.159-2.73L234.779,0.566c-8.275-1.577-16.67,0.164-23.637,4.9
	c-6.521,4.434-11.059,10.996-12.907,18.604l-29.845-5.686c-3.521-0.669-6.929,1.642-7.602,5.169
	c-0.672,3.526,1.642,6.93,5.169,7.602l29.844,5.686c-2.09,15.075,6.969,29.412,21.163,34.191l-3.827,14.93
	c-0.192,0.439-0.344,0.903-0.437,1.394c-0.043,0.224-0.073,0.448-0.092,0.67l-29.367,114.563c-0.19,0.743-0.241,1.503-0.168,2.249
	c-0.015,0.183-0.028,0.366-0.028,0.553v198.033c0,3.59,2.91,6.5,6.5,6.5h2.71v41.141c0,3.59,2.91,6.5,6.5,6.5h36.84
	c3.59,0,6.5-2.91,6.5-6.5v-41.141h2.71c3.59,0,6.5-2.91,6.5-6.5v-196.93l13.28-108.414c0.085-0.26,0.174-0.519,0.226-0.796
	c0.113-0.595,0.135-1.186,0.087-1.762l1.801-14.707l11.271,2.147c0.411,0.078,0.82,0.116,1.224,0.116
	c3.059,0,5.784-2.169,6.378-5.284l11.203-58.798C297.1,17.302,296.737,15.55,295.767,14.125z M229.097,426.934h-23.84v-15.431h23.84
	V426.934z M205.256,444.565v-4.631h23.84v4.631H205.256z M223.955,96.117l27.142,5.171l-11.955,97.604H217.17l-19.346-0.835
	L223.955,96.117z M238.307,249.559h-42.261v-14.625h42.261V249.559z M238.307,212.817v9.117h-42.261v-10.042h20.839L238.307,212.817
	z M238.307,396.924h-42.261v-106.74h42.261V396.924z M196.046,277.184v-14.625h42.261v14.625H196.046z M252.68,88.355l-25.491-4.857
	l2.496-9.736l3.047,0.581c0.001,0,0.003,0.001,0.004,0.001c0.001,0,0.003,0,0.004,0.001l21.162,4.032L252.68,88.355z M274.02,68.976
	l-11.704-2.23c-0.002,0-0.004-0.001-0.006-0.001l-20.757-3.955l5.337-28.013c0.672-3.526-1.642-6.93-5.169-7.602
	c-3.518-0.668-6.93,1.642-7.602,5.169l-5.337,28.012l-2.662-0.507l-0.001,0l-2.544-0.485c-4.865-0.927-9.077-3.692-11.861-7.788
	c-2.785-4.095-3.808-9.029-2.88-13.894l1.83-9.605c0.927-4.864,3.692-9.077,7.787-11.861c4.095-2.785,9.03-3.809,13.895-2.88
	l50.444,9.611L274.02,68.976z"/>
<g>
</g>
<g>
</g>
<g>
</g>
<g>
</g>
<g>
</g>
<g>
</g>
<g>
</g>
<g>
</g>
<g>
</g>
<g>
</g>
<g>
</g>
<g>
</g>
<g>
</g>
<g>
</g>
<g>
</g>
</svg>
