<?xml version="1.0" encoding="iso-8859-1"?>
<!-- Generator: Adobe Illustrator 17.1.0, SVG Export Plug-In . SVG Version: 6.00 Build 0)  -->
<!DOCTYPE svg PUBLIC "-//W3C//DTD SVG 1.1//EN" "http://www.w3.org/Graphics/SVG/1.1/DTD/svg11.dtd">
<svg version="1.1" id="Capa_1" xmlns="http://www.w3.org/2000/svg" xmlns:xlink="http://www.w3.org/1999/xlink" x="0px" y="0px"
	 viewBox="0 0 429.952 429.952" style="enable-background:new 0 0 429.952 429.952;" xml:space="preserve">
<path d="M255.524,72.32l6.037-51.465c1.04-8.87-5.329-16.933-14.2-17.973c-8.872-1.05-16.933,5.33-17.974,14.199l-6.035,51.467
	c-1.69,2.146-3.33,4.27-4.932,6.372c-1.335-2.25-2.719-4.547-4.166-6.904V16.197C214.254,7.266,206.988,0,198.058,0
	c-8.932,0-16.197,7.266-16.197,16.197v51.818c-18.862,30.727-28.226,52.423-27.836,64.504l8.443,261.749
	c0.058,19.456,15.81,35.281,35.236,35.471c1.275,0.135,2.548,0.212,3.813,0.212c7.965,0,15.647-2.656,21.992-7.669
	c7.432-5.871,12.142-14.274,13.271-23.672l38.876-258.983C277.451,127.672,270.679,105.033,255.524,72.32z M169.329,203.707h57.458
	l-0.314,9.741h-56.83L169.329,203.707z M227.207,190.707h-58.297l-0.314-9.741h58.926L227.207,190.707z M170.062,226.447h55.992
	l-0.314,9.741h-55.363L170.062,226.447z M193.889,73.274c0.636-1.027,0.972-2.21,0.972-3.418v-53.66
	c0-1.763,1.435-3.197,3.197-3.197s3.196,1.434,3.196,3.197v53.66c0,1.208,0.336,2.391,0.971,3.418
	c13.853,22.408,23.071,41.08,25.931,52.234c0.02,0.08,0.042,0.163,0.062,0.242c0.085,0.339,0.163,0.67,0.236,0.994
	c0.045,0.202,0.084,0.394,0.124,0.586c0.024,0.115,0.047,0.23,0.069,0.343c0.131,0.671,0.229,1.281,0.3,1.832
	c0.016,0.127,0.031,0.252,0.044,0.376c0.022,0.202,0.041,0.397,0.056,0.583c0.017,0.21,0.031,0.417,0.04,0.616
	c0.003,0.057,0.006,0.117,0.008,0.173c0.009,0.293,0.011,0.576,0.002,0.847l-1.157,35.865h-59.764l-0.314-9.741h38.68
	c3.59,0,6.5-2.91,6.5-6.5s-2.91-6.5-6.5-6.5h-39.099l-0.423-13.125C166.723,122.96,176.769,100.969,193.889,73.274z
	 M175.468,394.159c0-0.07-0.001-0.14-0.003-0.209l-4.669-144.761h54.524l-4.669,144.761c-0.002,0.07-0.003,0.14-0.003,0.209
	c0,12.456-10.134,22.59-22.59,22.59S175.468,406.615,175.468,394.159z M262.801,137.698L236.21,314.84l5.881-182.321
	c0.016-0.508,0.009-1.04-0.009-1.583c-0.005-0.166-0.012-0.334-0.02-0.503c-0.024-0.456-0.057-0.922-0.104-1.402
	c-0.031-0.323-0.073-0.656-0.115-0.989c-0.032-0.25-0.064-0.5-0.102-0.756c-0.582-3.998-1.896-8.695-3.953-14.122
	c-0.045-0.119-0.092-0.24-0.138-0.359c-0.29-0.759-0.592-1.528-0.911-2.315c-0.242-0.6-0.492-1.207-0.75-1.822
	c-0.092-0.217-0.183-0.434-0.277-0.654c-2.622-6.164-6.044-13.104-10.268-20.812c2.899-3.905,5.997-7.938,9.243-12.03
	c0.75-0.946,1.223-2.083,1.363-3.282l6.25-53.294c0.205-1.75,1.805-3.009,3.547-2.803c1.751,0.206,3.009,1.797,2.803,3.547
	l-6.251,53.294c-0.141,1.199,0.056,2.414,0.566,3.508C256.743,105.641,264.158,128.652,262.801,137.698z"/>
<g>
</g>
<g>
</g>
<g>
</g>
<g>
</g>
<g>
</g>
<g>
</g>
<g>
</g>
<g>
</g>
<g>
</g>
<g>
</g>
<g>
</g>
<g>
</g>
<g>
</g>
<g>
</g>
<g>
</g>
</svg>
