<?xml version="1.0" encoding="iso-8859-1"?>
<!-- Generator: Adobe Illustrator 17.1.0, SVG Export Plug-In . SVG Version: 6.00 Build 0)  -->
<!DOCTYPE svg PUBLIC "-//W3C//DTD SVG 1.1//EN" "http://www.w3.org/Graphics/SVG/1.1/DTD/svg11.dtd">
<svg version="1.1" id="Capa_1" xmlns="http://www.w3.org/2000/svg" xmlns:xlink="http://www.w3.org/1999/xlink" x="0px" y="0px"
	 viewBox="0 0 378.311 378.311" style="enable-background:new 0 0 378.311 378.311;" xml:space="preserve">
<path d="M119.205,55.666c0,3.59-2.91,6.5-6.5,6.5H90.077c-3.59,0-6.5-2.91-6.5-6.5s2.91-6.5,6.5-6.5h22.628
	C116.295,49.166,119.205,52.076,119.205,55.666z M353.858,107.526v60.395h17.952c3.59,0,6.5,2.91,6.5,6.5s-2.91,6.5-6.5,6.5h-17.952
	v60.396h17.952c3.59,0,6.5,2.91,6.5,6.5s-2.91,6.5-6.5,6.5h-17.952v60.396h17.952c3.59,0,6.5,2.91,6.5,6.5s-2.91,6.5-6.5,6.5
	h-24.452h-148.37c-2.368,6.761-10.21,14.708-31.122,20.982c-18.236,5.472-42.363,8.485-67.935,8.485s-49.698-3.014-67.935-8.485
	C5.551,340.759,0,330.148,0,322.645V55.666c0-7.504,5.551-18.114,31.997-26.05c18.236-5.472,42.363-8.485,67.935-8.485
	c0.021,0,0.042,0,0.063,0c0.003,0,0.006,0,0.009,0h247.354h24.452c3.59,0,6.5,2.91,6.5,6.5s-2.91,6.5-6.5,6.5h-17.952v60.396h17.952
	c3.59,0,6.5,2.91,6.5,6.5s-2.91,6.5-6.5,6.5H353.858z M186.863,55.666c0-2.724-6.055-8.594-22.733-13.598
	c-17.058-5.119-39.857-7.938-64.198-7.938s-47.141,2.818-64.198,7.938C19.055,47.072,13,52.942,13,55.666s6.055,8.594,22.733,13.598
	c17.058,5.119,39.857,7.938,64.198,7.938c19.934,0,38.825-1.883,54.631-5.445c3.502-0.789,6.98,1.41,7.77,4.911
	c0.789,3.503-1.409,6.981-4.912,7.771c-16.729,3.771-36.607,5.764-57.488,5.764c-25.571,0-49.698-3.014-67.935-8.485
	C23.814,79.26,17.636,76.549,13,73.753v248.892c0,2.724,6.055,8.594,22.733,13.598c17.058,5.119,39.857,7.938,64.198,7.938
	s47.141-2.818,64.198-7.938c16.679-5.004,22.733-10.874,22.733-13.598V55.666z M340.858,254.316h-35.873v32.225
	c0,3.59-2.91,6.5-6.5,6.5s-6.5-2.91-6.5-6.5v-32.225h-33.667v32.225c0,3.59-2.91,6.5-6.5,6.5s-6.5-2.91-6.5-6.5v-32.225h-26.627
	c-3.59,0-6.5-2.91-6.5-6.5s2.91-6.5,6.5-6.5h26.627v-60.396h-26.627c-3.59,0-6.5-2.91-6.5-6.5s2.91-6.5,6.5-6.5h26.627v-60.395
	h-26.627c-3.59,0-6.5-2.91-6.5-6.5s2.91-6.5,6.5-6.5h26.627V62.302c0-3.59,2.91-6.5,6.5-6.5s6.5,2.91,6.5,6.5v32.225h33.667V62.302
	c0-3.59,2.91-6.5,6.5-6.5s6.5,2.91,6.5,6.5v32.225h35.873V34.131H180.201c15.921,7.143,19.662,15.383,19.662,21.535v259.046h140.995
	V254.316z M291.985,167.921v-60.395h-33.667v60.395H291.985z M258.318,180.921v60.396h33.667v-60.396H258.318z M340.858,180.921
	h-35.873v60.396h35.873V180.921z M340.858,107.526h-35.873v60.395h35.873V107.526z M162.49,246.157v42.599
	c3.539-1.007,6.817-2.103,9.775-3.284c3.332-1.335,7.115,0.291,8.447,3.625s-0.292,7.116-3.625,8.447
	c-4.365,1.743-9.273,3.304-14.598,4.684v20.59c0,3.59-2.91,6.5-6.5,6.5s-6.5-2.91-6.5-6.5v-17.753
	c-12.959,2.361-27.627,3.773-43.059,4.082v20.245c0,3.59-2.91,6.5-6.5,6.5s-6.5-2.91-6.5-6.5v-20.245
	c-15.427-0.31-30.098-1.723-43.059-4.083v17.754c0,3.59-2.91,6.5-6.5,6.5s-6.5-2.91-6.5-6.5v-20.592
	c-5.261-1.363-10.118-2.902-14.441-4.62c-3.337-1.325-4.967-5.104-3.642-8.44c1.326-3.336,5.106-4.965,8.44-3.642
	c2.923,1.161,6.156,2.239,9.643,3.231v-42.6c-5.261-1.363-10.118-2.902-14.441-4.62c-3.337-1.325-4.967-5.104-3.642-8.44
	c1.326-3.337,5.106-4.966,8.44-3.642c2.923,1.161,6.156,2.239,9.643,3.231v-42.6c-5.261-1.363-10.117-2.902-14.441-4.62
	c-3.336-1.325-4.967-5.104-3.642-8.44c1.326-3.337,5.106-4.966,8.44-3.642c2.923,1.161,6.156,2.239,9.643,3.231v-42.6
	c-5.261-1.363-10.118-2.902-14.441-4.62c-3.337-1.325-4.967-5.104-3.642-8.44c1.326-3.336,5.106-4.965,8.44-3.642
	c2.923,1.161,6.156,2.239,9.643,3.231V98.579c0-3.59,2.91-6.5,6.5-6.5s6.5,2.91,6.5,6.5v25.033
	c12.763,2.477,27.603,3.989,43.059,4.322v-22.781c0-3.59,2.91-6.5,6.5-6.5s6.5,2.91,6.5,6.5v22.782
	c15.461-0.333,30.298-1.844,43.059-4.321V98.579c0-3.59,2.91-6.5,6.5-6.5s6.5,2.91,6.5,6.5v21.964
	c3.539-1.007,6.817-2.103,9.775-3.284c3.332-1.334,7.115,0.29,8.447,3.625c1.332,3.334-0.292,7.116-3.625,8.447
	c-4.365,1.743-9.273,3.304-14.598,4.684v42.599c3.539-1.007,6.817-2.103,9.775-3.284c3.332-1.334,7.115,0.29,8.447,3.625
	c1.332,3.334-0.292,7.116-3.625,8.447c-4.365,1.743-9.273,3.304-14.598,4.684v42.599c3.539-1.007,6.817-2.103,9.775-3.285
	c3.332-1.331,7.115,0.291,8.447,3.625s-0.291,7.116-3.625,8.447C172.723,243.216,167.815,244.777,162.49,246.157z M149.49,192.924
	c-12.959,2.361-27.627,3.773-43.059,4.082v43.07c15.461-0.333,30.299-1.843,43.059-4.32V192.924z M106.432,140.936v43.069
	c15.461-0.333,30.299-1.843,43.059-4.32v-42.832C136.531,139.213,121.863,140.626,106.432,140.936z M50.373,179.682
	c12.763,2.477,27.603,3.988,43.059,4.322v-43.069c-15.427-0.31-30.097-1.723-43.059-4.084V179.682z M50.373,235.753
	c12.763,2.477,27.603,3.989,43.059,4.322v-43.07c-15.427-0.31-30.097-1.723-43.059-4.084V235.753z M93.432,296.146v-43.069
	c-15.427-0.31-30.097-1.723-43.059-4.084v42.831C63.135,294.301,77.975,295.812,93.432,296.146z M149.49,248.994
	c-12.958,2.361-27.627,3.773-43.059,4.083v43.069c15.461-0.333,30.299-1.843,43.059-4.32V248.994z"/>
<g>
</g>
<g>
</g>
<g>
</g>
<g>
</g>
<g>
</g>
<g>
</g>
<g>
</g>
<g>
</g>
<g>
</g>
<g>
</g>
<g>
</g>
<g>
</g>
<g>
</g>
<g>
</g>
<g>
</g>
</svg>
