<?xml version="1.0" encoding="iso-8859-1"?>
<!-- Generator: Adobe Illustrator 17.1.0, SVG Export Plug-In . SVG Version: 6.00 Build 0)  -->
<!DOCTYPE svg PUBLIC "-//W3C//DTD SVG 1.1//EN" "http://www.w3.org/Graphics/SVG/1.1/DTD/svg11.dtd">
<svg version="1.1" id="Capa_1" xmlns="http://www.w3.org/2000/svg" xmlns:xlink="http://www.w3.org/1999/xlink" x="0px" y="0px"
	 viewBox="0 0 417.921 417.921" style="enable-background:new 0 0 417.921 417.921;" xml:space="preserve">
<path d="M365.625,79.422L365.625,79.422C364.481,35.55,327.925,0,284.049,0c-0.121,0-0.247,0-0.368,0.001l-1.053,0.005
	c-17.821,0.078-34.245,9.443-43.936,25.05c-6.436,10.365-17.55,16.552-29.732,16.552s-23.296-6.188-29.732-16.552
	c-9.69-15.607-26.115-24.971-43.938-25.05l-1.05-0.005C134.117,0,133.996,0,133.873,0C90,0,53.439,35.553,52.295,79.422
	c-0.235,9.035,0.996,17.949,3.674,26.538l28.988,90.604c0.023,35.458,7.548,89.387,24.163,125.251l37.25,80.404
	c3.207,9.32,11.734,15.611,21.348,15.7c6.07,0.07,11.833-2.274,16.161-6.562c4.328-4.288,6.711-10.005,6.711-16.097
	c0-0.603-0.084-1.203-0.249-1.783c-7.377-25.865-22.161-98.769-2.251-125.151c4.956-6.567,11.783-9.76,20.87-9.76
	c8.862,0,15.544,3.127,20.427,9.561c19.852,26.156,5.44,99.052-1.788,124.934c-0.159,0.569-0.24,1.159-0.24,1.75
	c0,11.756,9.322,22.088,20.78,23.032c0.638,0.053,1.271,0.078,1.901,0.078c9.637,0,18.219-6.052,21.396-15.262l37.426-80.902
	c16.576-35.832,24.081-89.721,24.102-125.194l29.001-90.648C364.63,97.371,365.861,88.458,365.625,79.422z M349.569,101.998
	l-29.298,91.573c-0.207,0.647-0.312,1.399-0.309,2.079c0.119,34.01-6.997,86.272-22.899,120.647l-37.575,81.225
	c-0.108,0.234-0.203,0.475-0.283,0.721c-1.391,4.281-5.511,7.014-9.999,6.643c-4.473-0.368-8.424-4.627-8.815-9.316
	c2.985-11.03,25.981-100.204-0.645-135.297c-7.404-9.759-17.762-14.707-30.786-14.707c-13.258,0-23.771,5.023-31.247,14.929
	c-26.667,35.336-3.209,124.48-0.154,135.546c-0.183,2.302-1.172,4.438-2.831,6.081c-1.844,1.828-4.275,2.801-6.89,2.797
	c-4.091-0.038-7.889-2.964-9.238-7.116c-0.08-0.247-0.175-0.488-0.284-0.724l-37.401-80.73
	c-14.568-31.445-21.777-77.833-22.822-111.577c17.797,5.829,60.006,17.588,110.866,17.588c25.26,0,51.562-2.982,78.175-8.864
	c3.505-0.774,5.719-4.244,4.944-7.75c-0.774-3.505-4.243-5.719-7.75-4.944c-3.189,0.705-6.373,1.366-9.55,1.984l14.176-35.973
	c1.316-3.34-0.324-7.114-3.664-8.431c-3.343-1.316-7.115,0.324-8.431,3.664l-17.08,43.341c-17.273,2.636-34.288,3.971-50.821,3.971
	c-18.656,0-36.226-1.693-51.76-4.088l-17.034-43.224c-1.316-3.339-5.089-4.98-8.431-3.664c-3.34,1.316-4.98,5.091-3.664,8.431
	l14.119,35.826c-22.668-4.453-39.176-9.869-45.511-12.103l-28.314-88.496c-2.239-7.179-3.273-14.676-3.075-22.283
	C66.253,42.883,96.985,13,133.874,13c0.102,0,0.208,0,0.31,0.001l1.053,0.005c13.316,0.058,25.633,7.126,32.948,18.907
	c8.824,14.211,24.067,22.695,40.776,22.695s31.952-8.484,40.776-22.695c7.315-11.781,19.632-18.849,32.946-18.907l1.057-0.005
	c0.104,0,0.206-0.001,0.31-0.001c36.884,0,67.62,29.885,68.582,66.761c0,0,0,0,0,0C352.828,87.368,351.794,94.865,349.569,101.998z
	 M340.808,82.103c0.094,3.589-2.739,6.574-6.328,6.667c-0.058,0.001-0.115,0.002-0.173,0.002c-3.511,0-6.402-2.8-6.494-6.331
	c-0.683-26.173-22.499-47.385-48.679-47.385c-0.083,0-0.166,0-0.25,0c-3.577,0-6.483-2.891-6.5-6.47
	c-0.016-3.59,2.881-6.513,6.471-6.53c0.091,0,0.187,0,0.278,0C312.306,22.057,339.943,48.934,340.808,82.103z M334.569,112.981
	l-8.289,25.908c-0.883,2.761-3.438,4.521-6.189,4.521c-0.656,0-1.323-0.101-1.982-0.311c-3.419-1.094-5.304-4.752-4.21-8.171
	l8.289-25.908c1.094-3.419,4.751-5.303,8.171-4.21C333.778,105.903,335.663,109.562,334.569,112.981z M151.836,82.276
	c-9.711,0-17.612,7.901-17.612,17.613c0,9.711,7.901,17.612,17.612,17.612c1.598,0,3.139-0.233,4.612-0.634v5.246
	c0,2.543-2.069,4.612-4.612,4.612c-1.384,0-2.684-0.615-3.566-1.687c-2.281-2.772-6.378-3.17-9.149-0.89
	c-2.772,2.281-3.17,6.377-0.89,9.149c3.361,4.084,8.319,6.427,13.605,6.427c9.711,0,17.612-7.901,17.612-17.612V99.888
	c0-0.225-0.011-0.447-0.034-0.666C169.061,89.821,161.323,82.276,151.836,82.276z M151.836,104.5c-2.543,0-4.612-2.069-4.612-4.612
	c0-2.543,2.069-4.613,4.612-4.613s4.612,2.069,4.612,4.613C156.449,102.431,154.38,104.5,151.836,104.5z M189.919,82.276
	c-9.711,0-17.612,7.901-17.612,17.613c0,9.711,7.901,17.612,17.612,17.612c1.598,0,3.139-0.233,4.612-0.634v5.246
	c0,2.543-2.069,4.612-4.612,4.612c-1.384,0-2.684-0.615-3.566-1.687c-2.281-2.772-6.377-3.17-9.149-0.89
	c-2.772,2.281-3.17,6.377-0.89,9.149c3.361,4.084,8.319,6.427,13.605,6.427c9.711,0,17.612-7.901,17.612-17.612V99.888
	c0-0.225-0.011-0.447-0.034-0.666C207.143,89.821,199.406,82.276,189.919,82.276z M189.919,104.5c-2.543,0-4.612-2.069-4.612-4.612
	c0-2.543,2.069-4.613,4.612-4.613s4.612,2.069,4.612,4.613C194.531,102.431,192.462,104.5,189.919,104.5z M228.002,82.276
	c-9.711,0-17.612,7.901-17.612,17.613c0,9.711,7.901,17.612,17.612,17.612c1.598,0,3.139-0.233,4.612-0.634v5.246
	c0,2.543-2.069,4.612-4.612,4.612c-1.384,0-2.684-0.615-3.566-1.687c-2.281-2.772-6.378-3.17-9.149-0.89
	c-2.772,2.281-3.17,6.377-0.89,9.149c3.361,4.084,8.319,6.427,13.605,6.427c9.711,0,17.612-7.901,17.612-17.612V99.888
	c0-0.225-0.011-0.447-0.034-0.666C245.227,89.821,237.489,82.276,228.002,82.276z M228.002,104.5c-2.543,0-4.612-2.069-4.612-4.612
	c0-2.543,2.069-4.613,4.612-4.613s4.612,2.069,4.612,4.613C232.614,102.431,230.545,104.5,228.002,104.5z M266.084,82.276
	c-9.711,0-17.612,7.901-17.612,17.613c0,9.711,7.901,17.612,17.612,17.612c1.598,0,3.139-0.233,4.612-0.634v5.246
	c0,2.543-2.069,4.612-4.612,4.612c-1.384,0-2.684-0.615-3.566-1.687c-2.28-2.772-6.377-3.17-9.149-0.89
	c-2.772,2.281-3.17,6.377-0.89,9.149c3.361,4.084,8.319,6.427,13.605,6.427c9.711,0,17.612-7.901,17.612-17.612V99.888
	c0-0.225-0.011-0.447-0.034-0.666C283.309,89.821,275.571,82.276,266.084,82.276z M266.084,104.5c-2.543,0-4.612-2.069-4.612-4.612
	c0-2.543,2.069-4.613,4.612-4.613s4.612,2.069,4.612,4.613C270.697,102.431,268.628,104.5,266.084,104.5z M128.56,125.36
	c1.21,1.21,1.9,2.89,1.9,4.6s-0.69,3.39-1.9,4.6c-1.21,1.21-2.89,1.9-4.6,1.9s-3.39-0.69-4.6-1.9s-1.9-2.89-1.9-4.6
	s0.69-3.39,1.9-4.6s2.89-1.9,4.6-1.9S127.35,124.15,128.56,125.36z"/>
<g>
</g>
<g>
</g>
<g>
</g>
<g>
</g>
<g>
</g>
<g>
</g>
<g>
</g>
<g>
</g>
<g>
</g>
<g>
</g>
<g>
</g>
<g>
</g>
<g>
</g>
<g>
</g>
<g>
</g>
</svg>
