<?xml version="1.0" encoding="iso-8859-1"?>
<!-- Generator: Adobe Illustrator 17.1.0, SVG Export Plug-In . SVG Version: 6.00 Build 0)  -->
<!DOCTYPE svg PUBLIC "-//W3C//DTD SVG 1.1//EN" "http://www.w3.org/Graphics/SVG/1.1/DTD/svg11.dtd">
<svg version="1.1" id="Capa_1" xmlns="http://www.w3.org/2000/svg" xmlns:xlink="http://www.w3.org/1999/xlink" x="0px" y="0px"
	 viewBox="0 0 328.74 328.74" style="enable-background:new 0 0 328.74 328.74;" xml:space="preserve">
<path d="M269.235,0c-6.269,0-12.146,2.156-16.835,5.831c-11.994,0.949-72.765,5.676-94.443,5.676c-0.006,0-0.012,0-0.018,0
	c-23.884-0.002-96.261-5.771-96.989-5.829c-0.173-0.014-0.346-0.021-0.519-0.021c-15.561,0-28.22,12.659-28.22,28.22
	c0,14.535,10.905,26.605,25.366,28.075l68.434,6.956c4.283,0.435,7.526,4.146,7.383,8.448l-8.156,244.667
	c-0.059,1.761,0.6,3.47,1.824,4.735c1.225,1.267,2.91,1.981,4.672,1.981h51.68c1.762,0,3.447-0.715,4.672-1.981
	c1.225-1.266,1.883-2.975,1.824-4.735l-8.668-260.05c-0.147-4.422,3.326-8.225,7.743-8.478l64.81-3.713
	c4.524,3.106,9.907,4.803,15.44,4.803c15.05,0,27.293-12.243,27.293-27.293S284.285,0,269.235,0z M269.235,41.586
	c-3.387,0-6.67-1.204-9.244-3.392c-1.404-1.193-3.168-1.682-4.867-1.509l-66.883,3.832c-11.598,0.664-20.379,10.279-19.991,21.89
	l8.443,253.333h-38.238l7.932-237.95c0.37-11.109-8.002-20.692-19.061-21.815l-68.434-6.956
	c-7.799-0.793-13.681-7.302-13.681-15.142c0-8.313,6.7-15.091,14.983-15.218c5.7,0.454,73.862,5.846,97.742,5.848
	c0.008,0,0.012,0,0.02,0c18.545,0,63.201-3.233,85.107-4.909c-0.061,0.207-0.136,0.405-0.192,0.613
	c-0.93,3.468,1.128,7.032,4.595,7.962c3.477,0.932,7.033-1.128,7.962-4.595C257.099,17.35,262.775,13,269.235,13
	c7.881,0,14.293,6.412,14.293,14.293S277.116,41.586,269.235,41.586z M164.87,134.493v102.401c0,3.59-2.91,6.5-6.5,6.5
	s-6.5-2.91-6.5-6.5V134.493c0-3.59,2.91-6.5,6.5-6.5S164.87,130.903,164.87,134.493z M164.87,262.5v17.067c0,3.59-2.91,6.5-6.5,6.5
	s-6.5-2.91-6.5-6.5V262.5c0-3.59,2.91-6.5,6.5-6.5S164.87,258.91,164.87,262.5z"/>
<g>
</g>
<g>
</g>
<g>
</g>
<g>
</g>
<g>
</g>
<g>
</g>
<g>
</g>
<g>
</g>
<g>
</g>
<g>
</g>
<g>
</g>
<g>
</g>
<g>
</g>
<g>
</g>
<g>
</g>
</svg>
