<?xml version="1.0" encoding="iso-8859-1"?>
<!-- Generator: Adobe Illustrator 17.1.0, SVG Export Plug-In . SVG Version: 6.00 Build 0)  -->
<!DOCTYPE svg PUBLIC "-//W3C//DTD SVG 1.1//EN" "http://www.w3.org/Graphics/SVG/1.1/DTD/svg11.dtd">
<svg version="1.1" id="Capa_1" xmlns="http://www.w3.org/2000/svg" xmlns:xlink="http://www.w3.org/1999/xlink" x="0px" y="0px"
	 viewBox="0 0 403 403" style="enable-background:new 0 0 403 403;" xml:space="preserve">
<path d="M138.672,149.05c0-34.643,28.185-62.828,62.828-62.828c14.78,0,29.139,5.234,40.433,14.737
	c2.747,2.312,3.1,6.412,0.789,9.159c-2.311,2.747-6.411,3.1-9.159,0.789c-8.954-7.535-20.34-11.684-32.062-11.684
	c-27.475,0-49.828,22.353-49.828,49.828s22.353,49.828,49.828,49.828s49.828-22.353,49.828-49.828c0-3.59,2.91-6.5,6.5-6.5
	s6.5,2.91,6.5,6.5c0,34.643-28.185,62.828-62.828,62.828S138.672,183.693,138.672,149.05z M201.5,126.135
	c12.635,0,22.915,10.28,22.915,22.916c0,12.635-10.28,22.915-22.915,22.915s-22.915-10.28-22.915-22.915
	C178.585,136.415,188.865,126.135,201.5,126.135z M201.5,139.135c-5.467,0-9.915,4.448-9.915,9.916s4.448,9.915,9.915,9.915
	s9.915-4.448,9.915-9.915S206.967,139.135,201.5,139.135z M403,228.736v84.153c0,8.262-7.121,18.817-62.647,27.169
	c-37.141,5.587-86.453,8.664-138.853,8.664s-101.712-3.077-138.853-8.664C7.121,331.706,0,321.151,0,312.889v-84.153
	c0-9.984,12.295-17.099,39.867-23.069c20.221-4.378,47.41-7.814,79.101-10.026c-8.022-14.167-12.241-30.102-12.241-46.59
	c0-52.258,42.515-94.773,94.772-94.773s94.772,42.515,94.772,94.773c0,16.462-4.213,32.42-12.232,46.59
	c31.678,2.211,58.857,5.646,79.076,10.022C390.699,211.634,403,218.75,403,228.736z M356.019,217.466
	c-20.791-4.147-48.542-7.37-80.408-9.354c-11.496,14.419-26.795,25.025-43.945,30.78v12.324c34.608-0.816,67.224-3.05,94.06-6.421
	c1.057-0.133,2.105-0.268,3.144-0.404c2.078-0.273,4.119-0.552,6.121-0.839c2.002-0.287,3.966-0.58,5.89-0.88
	c1.224-0.191,2.413-0.382,3.578-0.574c0.375-0.062,0.732-0.123,1.101-0.185c0.779-0.131,1.556-0.261,2.308-0.392
	c0.419-0.073,0.825-0.146,1.236-0.219c0.677-0.12,1.351-0.24,2.006-0.36c0.418-0.076,0.826-0.153,1.234-0.229
	c0.624-0.117,1.241-0.233,1.845-0.35c0.403-0.078,0.8-0.156,1.194-0.233c0.589-0.116,1.168-0.232,1.738-0.348
	c0.373-0.076,0.746-0.152,1.111-0.228c0.572-0.119,1.13-0.238,1.682-0.356c0.337-0.072,0.677-0.145,1.006-0.217
	c0.572-0.125,1.127-0.25,1.677-0.375c0.284-0.064,0.575-0.129,0.853-0.193c0.642-0.148,1.262-0.296,1.874-0.443
	c0.164-0.04,0.337-0.079,0.5-0.119c0.78-0.189,1.536-0.378,2.268-0.566c0.076-0.02,0.147-0.039,0.222-0.058
	c0.641-0.165,1.265-0.33,1.87-0.493c0.212-0.057,0.412-0.114,0.619-0.171c0.454-0.125,0.904-0.249,1.337-0.373
	c0.235-0.067,0.461-0.133,0.69-0.2c0.389-0.113,0.774-0.226,1.145-0.337c0.228-0.069,0.45-0.137,0.671-0.205
	c0.355-0.109,0.705-0.217,1.044-0.325c0.213-0.067,0.423-0.135,0.63-0.202c0.328-0.106,0.647-0.211,0.959-0.316
	c0.198-0.066,0.397-0.133,0.589-0.198c0.31-0.106,0.609-0.211,0.904-0.315c0.172-0.061,0.348-0.122,0.515-0.183
	c0.309-0.112,0.604-0.221,0.896-0.331c0.137-0.052,0.28-0.104,0.413-0.155c0.363-0.138,0.711-0.275,1.047-0.41
	c0.049-0.02,0.102-0.04,0.15-0.059c0.385-0.156,0.753-0.308,1.104-0.458c0.089-0.038,0.169-0.074,0.255-0.112
	c0.254-0.11,0.505-0.22,0.741-0.327c0.115-0.052,0.223-0.103,0.334-0.154c0.194-0.09,0.386-0.179,0.567-0.266
	c0.116-0.056,0.227-0.11,0.338-0.166c0.163-0.08,0.324-0.16,0.477-0.238c0.109-0.055,0.214-0.11,0.318-0.165
	c0.143-0.075,0.282-0.149,0.415-0.221c0.096-0.052,0.192-0.104,0.284-0.156c0.13-0.072,0.254-0.143,0.374-0.213
	c0.083-0.048,0.167-0.096,0.246-0.143c0.117-0.07,0.228-0.137,0.336-0.205c0.07-0.043,0.143-0.087,0.209-0.129
	c0.109-0.069,0.21-0.136,0.309-0.202c0.055-0.036,0.114-0.074,0.166-0.109c0.134-0.091,0.259-0.179,0.376-0.264
	c0.027-0.02,0.052-0.038,0.078-0.058c0.104-0.077,0.203-0.151,0.293-0.222c0.045-0.035,0.083-0.067,0.125-0.101
	c0.057-0.046,0.114-0.092,0.165-0.135c0.041-0.035,0.078-0.067,0.116-0.101c0.03-0.026,0.06-0.053,0.088-0.078
	C387.616,227.024,380.486,222.346,356.019,217.466z M158.333,282.519v32h86.333v-32h-13.713
	c-2.982,13.519-15.052,23.667-29.454,23.667s-26.472-10.148-29.454-23.667H158.333z M184.333,242.253v15.63
	c0,0.031,0.003,0.06,0.003,0.091c0,0.015-0.003,0.028-0.003,0.043v18.002c0,9.466,7.701,17.167,17.167,17.167
	s17.167-7.701,17.167-17.167v-18.002c0-0.015-0.003-0.028-0.003-0.043c-0.001-0.031,0.003-0.06,0.003-0.091v-15.626
	c-5.609,1.031-11.351,1.566-17.167,1.566C195.69,243.823,189.947,243.288,184.333,242.253z M119.728,149.05
	c0,16.789,5.048,32.918,14.599,46.645c10.863,15.613,26.67,26.752,44.496,31.907c0.538,0.083,1.057,0.223,1.544,0.429
	c6.819,1.828,13.915,2.792,21.134,2.792c7.211,0,14.288-0.956,21.084-2.768c0.533-0.231,1.104-0.388,1.7-0.469
	c18.149-5.261,34.154-16.727,45.027-32.82c9.134-13.52,13.961-29.328,13.961-45.715c0-45.09-36.683-81.773-81.772-81.773
	S119.728,103.96,119.728,149.05z M13.493,228.734c0.028,0.025,0.058,0.052,0.088,0.078c0.038,0.033,0.074,0.065,0.116,0.101
	c0.051,0.043,0.108,0.089,0.165,0.135c0.042,0.034,0.08,0.066,0.125,0.101c0.09,0.071,0.189,0.145,0.293,0.222
	c0.026,0.019,0.051,0.038,0.078,0.058c0.117,0.084,0.241,0.172,0.376,0.264c0.052,0.035,0.111,0.073,0.166,0.109
	c0.1,0.066,0.2,0.133,0.309,0.202c0.066,0.042,0.139,0.086,0.209,0.129c0.108,0.067,0.219,0.135,0.336,0.205
	c0.079,0.047,0.163,0.095,0.246,0.143c0.121,0.07,0.245,0.141,0.374,0.213c0.092,0.051,0.187,0.103,0.284,0.156
	c0.134,0.073,0.273,0.146,0.415,0.221c0.104,0.054,0.209,0.109,0.318,0.165c0.153,0.078,0.314,0.158,0.477,0.238
	c0.112,0.055,0.222,0.11,0.338,0.166c0.181,0.087,0.374,0.177,0.567,0.266c0.111,0.052,0.219,0.102,0.334,0.154
	c0.236,0.107,0.487,0.217,0.741,0.327c0.086,0.037,0.167,0.074,0.255,0.112c0.352,0.15,0.719,0.303,1.104,0.458
	c0.048,0.02,0.101,0.04,0.15,0.059c0.337,0.135,0.684,0.271,1.047,0.41c0.133,0.051,0.276,0.103,0.413,0.155
	c0.292,0.109,0.587,0.219,0.896,0.331c0.167,0.06,0.343,0.122,0.515,0.183c0.295,0.104,0.594,0.209,0.904,0.315
	c0.192,0.066,0.391,0.132,0.589,0.198c0.313,0.105,0.632,0.21,0.959,0.316c0.207,0.067,0.417,0.134,0.63,0.202
	c0.34,0.108,0.689,0.216,1.044,0.325c0.222,0.068,0.443,0.136,0.671,0.205c0.372,0.112,0.757,0.224,1.145,0.337
	c0.229,0.067,0.455,0.133,0.69,0.2c0.433,0.123,0.883,0.248,1.337,0.373c0.207,0.057,0.407,0.114,0.619,0.171
	c0.604,0.163,1.229,0.328,1.87,0.493c0.076,0.02,0.146,0.039,0.222,0.058c0.731,0.188,1.488,0.376,2.268,0.566
	c0.162,0.04,0.335,0.079,0.5,0.119c0.612,0.147,1.232,0.295,1.874,0.443c0.278,0.064,0.569,0.129,0.853,0.193
	c0.55,0.125,1.105,0.25,1.677,0.375c0.329,0.072,0.67,0.145,1.006,0.217c0.552,0.119,1.11,0.237,1.682,0.356
	c0.365,0.076,0.737,0.152,1.111,0.228c0.569,0.116,1.148,0.232,1.738,0.348c0.394,0.078,0.791,0.156,1.194,0.233
	c0.604,0.117,1.221,0.233,1.845,0.35c0.409,0.076,0.817,0.153,1.234,0.229c0.655,0.12,1.329,0.24,2.006,0.36
	c0.411,0.073,0.816,0.146,1.236,0.219c0.753,0.131,1.529,0.261,2.308,0.392c0.369,0.062,0.726,0.124,1.101,0.185
	c1.164,0.192,2.354,0.383,3.578,0.574c29.221,4.559,67.791,7.567,109.215,8.544v-12.34c-17.138-5.763-32.46-16.367-43.948-30.764
	c-31.873,1.984-59.63,5.208-80.421,9.356C22.509,222.349,15.384,227.025,13.493,228.734z M390,243.532
	c-0.027,0.013-0.057,0.026-0.085,0.039c-0.442,0.208-0.9,0.415-1.372,0.622c-0.092,0.041-0.185,0.081-0.278,0.121
	c-0.485,0.211-0.983,0.421-1.499,0.632c-0.058,0.023-0.118,0.047-0.176,0.071c-0.501,0.203-1.018,0.406-1.549,0.608
	c-0.072,0.027-0.141,0.055-0.213,0.082c-0.55,0.208-1.119,0.415-1.701,0.623c-0.118,0.042-0.237,0.084-0.357,0.126
	c-0.583,0.205-1.181,0.41-1.797,0.614c-0.107,0.036-0.218,0.071-0.326,0.107c-0.621,0.204-1.256,0.408-1.911,0.611
	c-0.041,0.013-0.081,0.026-0.122,0.039c-0.676,0.209-1.376,0.417-2.088,0.626c-0.137,0.04-0.272,0.08-0.41,0.12
	c-0.697,0.201-1.412,0.402-2.145,0.603c-0.15,0.041-0.302,0.082-0.453,0.123c-0.76,0.206-1.533,0.411-2.331,0.615
	c-0.068,0.017-0.139,0.035-0.208,0.052c-0.767,0.196-1.555,0.39-2.358,0.585c-0.145,0.035-0.288,0.07-0.434,0.105
	c-0.827,0.198-1.676,0.396-2.542,0.593c-0.183,0.042-0.368,0.083-0.553,0.125c-0.881,0.198-1.779,0.396-2.701,0.593
	c-0.137,0.029-0.277,0.058-0.415,0.087c-0.9,0.191-1.819,0.381-2.758,0.571c-0.109,0.022-0.215,0.044-0.325,0.066
	c-0.986,0.198-1.999,0.394-3.029,0.59c-0.2,0.038-0.4,0.076-0.602,0.115c-1.021,0.193-2.063,0.384-3.128,0.575
	c-0.195,0.035-0.393,0.07-0.589,0.104c-1.122,0.199-2.26,0.398-3.43,0.595c-30.505,5.142-71.654,8.508-116.446,9.55v5.299h19.5
	c3.59,0,6.5,2.91,6.5,6.5v45c0,3.59-2.91,6.5-6.5,6.5h-99.333c-3.59,0-6.5-2.91-6.5-6.5v-45c0-3.59,2.91-6.5,6.5-6.5h19.5v-5.299
	c-44.792-1.042-85.941-4.409-116.446-9.55c-1.17-0.197-2.308-0.396-3.43-0.595c-0.196-0.035-0.394-0.07-0.589-0.104
	c-1.065-0.191-2.106-0.383-3.128-0.575c-0.202-0.038-0.402-0.076-0.602-0.115c-1.03-0.196-2.043-0.393-3.029-0.59
	c-0.11-0.022-0.216-0.044-0.325-0.066c-0.94-0.189-1.858-0.38-2.758-0.571c-0.138-0.029-0.278-0.058-0.415-0.087
	c-0.922-0.197-1.82-0.395-2.701-0.593c-0.185-0.042-0.37-0.083-0.553-0.125c-0.866-0.197-1.715-0.395-2.542-0.593
	c-0.146-0.035-0.289-0.07-0.434-0.105c-0.803-0.195-1.591-0.389-2.358-0.585c-0.069-0.017-0.14-0.035-0.208-0.052
	c-0.798-0.205-1.572-0.41-2.331-0.615c-0.151-0.041-0.304-0.082-0.453-0.123c-0.733-0.201-1.448-0.401-2.145-0.603
	c-0.138-0.04-0.273-0.08-0.41-0.12c-0.713-0.208-1.413-0.417-2.088-0.626c-0.042-0.013-0.081-0.026-0.122-0.039
	c-0.655-0.203-1.29-0.407-1.911-0.611c-0.109-0.036-0.219-0.071-0.326-0.107c-0.616-0.204-1.214-0.409-1.797-0.614
	c-0.12-0.042-0.238-0.084-0.357-0.126c-0.582-0.207-1.152-0.415-1.701-0.623c-0.072-0.027-0.142-0.055-0.213-0.082
	c-0.531-0.202-1.048-0.405-1.549-0.608c-0.058-0.024-0.118-0.047-0.176-0.071c-0.517-0.21-1.014-0.421-1.499-0.632
	c-0.093-0.041-0.186-0.081-0.278-0.121c-0.472-0.207-0.93-0.415-1.372-0.622c-0.027-0.013-0.058-0.026-0.085-0.039v68.855
	c1.053,1.265,9.277,8.955,56.966,15.595c35.845,4.992,82.558,7.74,131.534,7.74s95.689-2.749,131.534-7.74
	c47.689-6.64,55.913-14.331,56.966-15.595V243.532z M134,269.519c-3.59,0-6.5,2.91-6.5,6.5v45c0,3.59,2.91,6.5,6.5,6.5
	s6.5-2.91,6.5-6.5v-45C140.5,272.429,137.589,269.519,134,269.519z M269,269.519c-3.59,0-6.5,2.91-6.5,6.5v45
	c0,3.59,2.91,6.5,6.5,6.5s6.5-2.91,6.5-6.5v-45C275.5,272.429,272.59,269.519,269,269.519z"/>
<g>
</g>
<g>
</g>
<g>
</g>
<g>
</g>
<g>
</g>
<g>
</g>
<g>
</g>
<g>
</g>
<g>
</g>
<g>
</g>
<g>
</g>
<g>
</g>
<g>
</g>
<g>
</g>
<g>
</g>
</svg>
