<?xml version="1.0" encoding="iso-8859-1"?>
<!-- Generator: Adobe Illustrator 17.1.0, SVG Export Plug-In . SVG Version: 6.00 Build 0)  -->
<!DOCTYPE svg PUBLIC "-//W3C//DTD SVG 1.1//EN" "http://www.w3.org/Graphics/SVG/1.1/DTD/svg11.dtd">
<svg version="1.1" id="Capa_1" xmlns="http://www.w3.org/2000/svg" xmlns:xlink="http://www.w3.org/1999/xlink" x="0px" y="0px"
	 viewBox="0 0 460.069 460.069" style="enable-background:new 0 0 460.069 460.069;" xml:space="preserve">
<path d="M297.079,347.329c-25.53,0-46.3,20.77-46.3,46.3c0,25.53,20.77,46.3,46.3,46.3s46.3-20.77,46.3-46.3
	C343.378,368.099,322.609,347.329,297.079,347.329z M297.079,426.929c-18.361,0-33.3-14.938-33.3-33.3
	c0-18.362,14.938-33.3,33.3-33.3s33.3,14.938,33.3,33.3C330.378,411.991,315.44,426.929,297.079,426.929z M345.131,347.748
	c-12.661-13.257-29.727-20.558-48.053-20.558c-0.335,0-0.67,0.003-1.008,0.008l-29.864-184.997
	c-0.024-0.153-0.055-0.306-0.091-0.457l-5.9-24.994c-0.759-18.39-0.928-50.052,1.823-58.684
	c2.188-6.869,14.047-29.007,18.432-36.958c1.249-2.264,1.037-5.054-0.54-7.103s-4.22-2.972-6.727-2.342
	c-5.914,1.478-11.297,3.437-16.141,5.845c1.697-3.175,3.201-5.94,4.263-7.868c1.249-2.264,1.037-5.053-0.54-7.103
	s-4.221-2.971-6.727-2.342c-23.154,5.785-41.173,24.638-45.907,48.029c-0.021,0.104-0.039,0.208-0.055,0.313l-14.237,93.688
	l-29.861,184.973c-0.337-0.005-0.673-0.008-1.007-0.008c-18.327,0-35.392,7.301-48.053,20.558
	c-12.655,13.25-19.159,30.656-18.314,49.011c1.56,33.9,29.336,61.677,63.237,63.237c1.06,0.049,2.116,0.073,3.168,0.073
	c17.182,0,33.357-6.463,45.843-18.387c13.257-12.661,20.558-29.727,20.558-48.053c0-11.785-3.123-23.25-8.952-33.3h9.206h0.703
	h9.205c-5.829,10.05-8.952,21.514-8.952,33.3c0,18.326,7.301,35.392,20.558,48.053c12.486,11.925,28.659,18.388,45.843,18.387
	c1.052,0,2.11-0.024,3.169-0.073c33.9-1.56,61.677-29.337,63.237-63.237C364.291,378.404,357.786,360.998,345.131,347.748z
	 M249.652,54.119c-2.933,9.206-3.114,32.318-2.847,48.161l-10.068-9.384c0.647-8.72,2.032-24.11,3.854-35.486
	c2.465-12.035,9.26-21.15,20.271-27.232C256.295,38.939,251.254,49.09,249.652,54.119z M229.683,347.33h-21.89
	c-2.56,0-4.881,1.502-5.93,3.837s-0.629,5.068,1.072,6.981c8.702,9.789,13.494,22.39,13.494,35.481
	c0,14.74-5.873,28.467-16.537,38.652c-10.657,10.178-24.659,15.406-39.435,14.729c-27.259-1.254-49.595-23.59-50.849-50.849
	c-0.68-14.773,4.551-28.778,14.729-39.435c10.185-10.664,23.912-16.537,38.652-16.537c1.885,0,3.833,0.107,5.791,0.318
	c3.438,0.367,6.562-2.015,7.113-5.427l29.147-180.55l13.789,9.696c-0.908,0.899-1.55,2.038-1.809,3.303l-30.044,146.813
	c-1.313,6.358,0.286,12.893,4.387,17.926c4.101,5.034,10.176,7.921,16.669,7.921h21.65h0.703c1.968,0,3.569,1.602,3.569,3.57
	s-1.602,3.57-3.569,3.57H229.683z M230.83,172.665l29.531,144.307c0.519,2.514-0.113,5.097-1.734,7.087s-4.023,3.131-6.59,3.131
	h-21.65h-0.703h-21.65c-2.567,0-4.969-1.142-6.59-3.132c-1.622-1.99-2.253-4.573-1.732-7.098l29.549-144.395l0.694-0.517
	L230.83,172.665z M350.459,396.162c-1.255,27.259-23.59,49.594-50.849,50.849c-14.764,0.684-28.778-4.551-39.436-14.729
	c-10.663-10.185-16.536-23.911-16.536-38.651c0-13.092,4.793-25.693,13.494-35.481c1.701-1.913,2.121-4.646,1.072-6.981
	s-3.37-3.837-5.93-3.837h-5.718c0.254-1.151,0.398-2.343,0.398-3.57s-0.144-2.419-0.398-3.57h5.479
	c6.492,0,12.568-2.887,16.669-7.921s5.699-11.568,4.389-17.916l-30.046-146.824c-0.333-1.625-1.273-3.06-2.629-4.014l-5.416-3.809
	c-0.752-0.896-1.698-1.544-2.733-1.922l-24.959-17.551l13.613-89.583c2.559-12.444,9.873-23.251,19.976-30.367
	c-4.336,8.375-8.885,17.636-10.392,22.366c-0.982,3.083-1.869,7.366-2.656,12.162c-0.009,0.042-0.019,0.083-0.028,0.125
	c-0.045,0.221-0.077,0.441-0.099,0.66c-2.625,16.403-4.098,38.305-4.177,39.508c-0.129,1.949,0.625,3.852,2.054,5.184l22.271,20.758
	l5.536,23.456l30.766,190.578c0.55,3.412,3.684,5.79,7.112,5.427c1.958-0.211,3.906-0.318,5.791-0.318
	c14.74,0,28.467,5.873,38.651,16.537C345.908,367.383,351.139,381.389,350.459,396.162z M246.098,139.396
	c-2.567,6.282-8.612,10.341-15.399,10.341c-9.17,0-16.631-7.46-16.631-16.631s7.46-16.631,16.631-16.631c3.59,0,6.5,2.91,6.5,6.5
	s-2.909,6.5-6.5,6.5c-2.002,0-3.631,1.629-3.631,3.631c0,2.002,1.629,3.631,3.631,3.631c1.483,0,2.804-0.887,3.366-2.26
	c1.358-3.323,5.152-4.914,8.477-3.557C245.864,132.278,247.457,136.073,246.098,139.396z M162.991,347.329
	c-25.53,0-46.3,20.77-46.3,46.3c0,25.53,20.77,46.3,46.3,46.3c25.53,0,46.3-20.77,46.3-46.3
	C209.291,368.099,188.52,347.329,162.991,347.329z M162.991,426.929c-18.362,0-33.3-14.938-33.3-33.3
	c0-18.362,14.938-33.3,33.3-33.3s33.3,14.938,33.3,33.3C196.291,411.991,181.353,426.929,162.991,426.929z"/>
<g>
</g>
<g>
</g>
<g>
</g>
<g>
</g>
<g>
</g>
<g>
</g>
<g>
</g>
<g>
</g>
<g>
</g>
<g>
</g>
<g>
</g>
<g>
</g>
<g>
</g>
<g>
</g>
<g>
</g>
</svg>
