<?xml version="1.0" encoding="iso-8859-1"?>
<!-- Generator: Adobe Illustrator 17.1.0, SVG Export Plug-In . SVG Version: 6.00 Build 0)  -->
<!DOCTYPE svg PUBLIC "-//W3C//DTD SVG 1.1//EN" "http://www.w3.org/Graphics/SVG/1.1/DTD/svg11.dtd">
<svg version="1.1" id="Capa_1" xmlns="http://www.w3.org/2000/svg" xmlns:xlink="http://www.w3.org/1999/xlink" x="0px" y="0px"
	 viewBox="0 0 439.276 439.276" style="enable-background:new 0 0 439.276 439.276;" xml:space="preserve">
<path d="M286.682,326.536c-25.53,0-46.3,20.771-46.3,46.301s20.77,46.3,46.3,46.3s46.3-20.77,46.3-46.3
	S312.212,326.536,286.682,326.536z M286.682,406.137c-18.361,0-33.3-14.938-33.3-33.3c0-18.362,14.938-33.301,33.3-33.301
	s33.3,14.938,33.3,33.301C319.982,391.198,305.043,406.137,286.682,406.137z M334.735,326.955
	c-12.661-13.257-29.727-20.558-48.053-20.558c-0.468,0-0.938,0.005-1.411,0.016l-29.552-126.306l-5.887-24.938l-2.887-127.976
	C246.903,12.192,234.685,0,219.673,0c-0.012,0-0.023,0.002-0.035,0.002S219.615,0,219.604,0c-14.971,0-27.164,12.125-27.272,27.07
	l-8.905,153.596l-29.422,125.747c-0.473-0.011-0.943-0.016-1.411-0.016c-18.327,0-35.393,7.301-48.054,20.559
	c-12.654,13.25-19.158,30.655-18.313,49.01c1.56,33.901,29.337,61.679,63.237,63.237c1.06,0.049,2.116,0.073,3.169,0.073
	c17.182,0,33.357-6.464,45.842-18.388c13.257-12.661,20.558-29.726,20.558-48.052c0-11.785-3.124-23.251-8.953-33.301h9.206h0.703
	h9.206c-5.83,10.05-8.953,21.516-8.953,33.301c0,18.326,7.301,35.391,20.558,48.052c12.485,11.925,28.659,18.388,45.843,18.388
	c1.052,0,2.11-0.024,3.169-0.073c33.9-1.559,61.677-29.336,63.237-63.237C353.894,357.61,347.389,340.205,334.735,326.955z
	 M233.946,27.272c0,0.049,0.001,0.098,0.002,0.146l2.61,115.694l-10.385-7.464V14.567C230.785,16.937,233.946,21.742,233.946,27.272
	z M219.287,326.536h-21.89c-2.56,0-4.881,1.502-5.93,3.837c-1.048,2.335-0.629,5.068,1.071,6.981
	c8.702,9.79,13.495,22.391,13.495,35.482c0,14.74-5.873,28.467-16.536,38.65c-10.657,10.179-24.665,15.408-39.435,14.729
	c-27.259-1.254-49.595-23.589-50.849-50.849c-0.68-14.772,4.551-28.777,14.729-39.434c10.185-10.664,23.912-16.537,38.652-16.537
	c1.888,0,3.836,0.106,5.791,0.317c3.269,0.353,6.277-1.786,7.025-4.982l28.608-122.269l8.285,5.836l-3.307,5.133
	c-0.391,0.606-0.678,1.274-0.85,1.976l-21.513,87.912c-0.019,0.076-0.036,0.153-0.052,0.23c-1.313,6.358,0.286,12.892,4.387,17.926
	c4.101,5.034,10.177,7.922,16.669,7.922h21.65h0.703c1.968,0,3.569,1.602,3.569,3.569s-1.602,3.569-3.569,3.569H219.287z
	 M219.99,306.397h-0.703h-21.65c-2.567,0-4.969-1.142-6.59-3.132c-1.6-1.964-2.237-4.505-1.754-6.987l21.222-86.722l2.425-3.765
	l11.2,7.89l25.877,82.771c0.42,2.427-0.224,4.896-1.786,6.813c-1.621,1.99-4.023,3.132-6.59,3.132H219.99z M340.063,375.368
	c-1.255,27.26-23.59,49.595-50.849,50.849c-14.758,0.676-28.778-4.551-39.436-14.729c-10.663-10.185-16.536-23.91-16.536-38.65
	c0-13.092,4.793-25.692,13.495-35.482c1.7-1.913,2.12-4.646,1.071-6.981c-1.049-2.335-3.37-3.837-5.93-3.837h-5.718
	c0.254-1.151,0.398-2.343,0.398-3.569s-0.144-2.418-0.398-3.569h5.479c6.492,0,12.568-2.887,16.669-7.921s5.699-11.568,4.386-17.927
	c-0.043-0.211-0.097-0.42-0.161-0.625l-26.645-85.227c-0.427-1.365-1.292-2.551-2.461-3.374l-36.846-25.956l8.738-150.72
	c0.007-0.125,0.011-0.251,0.011-0.376c0-5.53,3.162-10.336,7.773-12.705v124.365c0,2.093,1.007,4.057,2.707,5.278l21.772,15.648
	l5.481,23.222l30.803,131.651c0.748,3.196,3.781,5.331,7.024,4.982c1.955-0.211,3.903-0.317,5.791-0.317
	c14.74,0,28.468,5.873,38.651,16.536C335.512,346.591,340.743,360.596,340.063,375.368z M235.702,177.759
	c-2.567,6.282-8.612,10.342-15.399,10.342c-9.17,0-16.631-7.461-16.631-16.632c0-9.17,7.46-16.631,16.631-16.631
	c3.59,0,6.5,2.91,6.5,6.5s-2.909,6.5-6.5,6.5c-2.002,0-3.631,1.629-3.631,3.631c0,2.003,1.629,3.632,3.631,3.632
	c1.483,0,2.804-0.887,3.366-2.26c1.358-3.323,5.156-4.915,8.476-3.558C235.467,170.642,237.06,174.436,235.702,177.759z
	 M152.594,326.536c-25.53,0-46.3,20.771-46.3,46.301s20.77,46.3,46.3,46.3c25.53,0,46.3-20.77,46.3-46.3
	S178.124,326.536,152.594,326.536z M152.594,406.137c-18.362,0-33.3-14.938-33.3-33.3c0-18.362,14.938-33.301,33.3-33.301
	c18.361,0,33.3,14.938,33.3,33.301C185.894,391.198,170.956,406.137,152.594,406.137z"/>
<g>
</g>
<g>
</g>
<g>
</g>
<g>
</g>
<g>
</g>
<g>
</g>
<g>
</g>
<g>
</g>
<g>
</g>
<g>
</g>
<g>
</g>
<g>
</g>
<g>
</g>
<g>
</g>
<g>
</g>
</svg>
