<?xml version="1.0" encoding="iso-8859-1"?>
<!-- Generator: Adobe Illustrator 17.1.0, SVG Export Plug-In . SVG Version: 6.00 Build 0)  -->
<!DOCTYPE svg PUBLIC "-//W3C//DTD SVG 1.1//EN" "http://www.w3.org/Graphics/SVG/1.1/DTD/svg11.dtd">
<svg version="1.1" id="Capa_1" xmlns="http://www.w3.org/2000/svg" xmlns:xlink="http://www.w3.org/1999/xlink" x="0px" y="0px"
	 viewBox="0 0 417.922 417.922" style="enable-background:new 0 0 417.922 417.922;" xml:space="preserve">
<path d="M365.629,79.421C364.483,35.552,327.922,0,284.071,0c-0.491,0-0.992-0.002-1.511,0.012
	c-5.161,0.029-10.263,0.844-15.157,2.417c-11.791,3.767-21.988,11.8-28.715,22.625c-6.434,10.367-17.546,16.557-29.727,16.557
	c-7.439,0-14.474-2.319-20.294-6.479c-0.073-0.051-0.145-0.104-0.22-0.152c-3.618-2.628-6.759-5.972-9.216-9.93
	c-0.42-0.676-0.854-1.341-1.301-1.996c-6.704-9.812-16.357-17.094-27.4-20.622c-0.002,0-0.003,0-0.005-0.001
	c-0.002-0.001-0.004-0.002-0.006-0.002c-0.003-0.001-0.006-0.001-0.009-0.002c-4.899-1.573-9.995-2.386-15.148-2.415
	c-0.38-0.01-0.75-0.011-1.086-0.011C134.142,0,134.012,0,133.879,0C90.003,0,53.438,35.554,52.293,79.423
	c-0.233,9.031,0.999,17.944,3.677,26.539l28.991,90.604c0.018,35.283,7.581,89.479,24.162,125.248l37.249,80.404
	c3.206,9.315,11.732,15.608,21.351,15.703c0.07,0,0.139,0.001,0.208,0.001c6.017,0,11.675-2.327,15.952-6.567
	c4.326-4.287,6.708-10.003,6.708-16.094c0-0.602-0.084-1.203-0.249-1.782c-7.371-25.875-22.143-98.8-2.25-125.152
	c4.956-6.565,11.782-9.757,20.869-9.757c8.864,0,15.546,3.128,20.43,9.563c19.851,26.156,5.438,99.048-1.791,124.928
	c-0.159,0.569-0.24,1.159-0.24,1.75c0,11.758,9.321,22.089,20.769,23.027c10.405,0.872,19.925-5.357,23.311-15.182l37.42-80.896
	c16.577-35.83,24.082-89.721,24.102-125.199l28.989-90.599c0.005-0.016,0.01-0.031,0.015-0.047
	C364.63,97.367,365.862,88.454,365.629,79.421z M231.612,77.65c-2.538-2.538-6.654-2.538-9.192,0l-18.271,18.271
	c-2.836-0.227-5.615-0.649-8.326-1.259l71.596-71.596c0.611,2.73,1.039,5.505,1.261,8.324l-28.896,28.896
	c-2.539,2.539-2.539,6.654,0,9.192c1.27,1.269,2.933,1.904,4.596,1.904c1.663,0,3.327-0.635,4.596-1.904l17.887-17.886
	c-5.5,20.702-21.83,37.032-42.532,42.532l7.281-7.281C234.151,84.304,234.151,80.188,231.612,77.65z M176.195,86.339l31.76-31.76
	c0.336,0.007,0.668,0.032,1.005,0.032c3.221,0,6.385-0.322,9.461-0.933l-36.155,36.155C180.17,88.784,178.144,87.617,176.195,86.339
	z M152.404,17.242c0.715,0.368,1.422,0.751,2.113,1.164c0.039,0.023,0.077,0.049,0.116,0.072c0.661,0.397,1.307,0.819,1.944,1.255
	c0.148,0.101,0.296,0.201,0.442,0.304c0.651,0.458,1.291,0.935,1.915,1.433c0.101,0.081,0.198,0.165,0.298,0.247
	c0.558,0.455,1.105,0.926,1.64,1.412c0.117,0.106,0.236,0.21,0.352,0.317c0.586,0.545,1.157,1.109,1.713,1.69
	c0.027,0.028,0.053,0.058,0.08,0.086l-13.892,13.892c-0.046-0.959-0.073-1.924-0.073-2.895c0-6.589,1.042-12.991,3.104-19.105
	C152.237,17.158,152.321,17.199,152.404,17.242z M170.868,35.757c1.384,1.816,2.877,3.52,4.476,5.099l-20.669,20.669
	c-1.039-2.219-1.945-4.511-2.709-6.867L170.868,35.757z M161.661,72.924l24.205-24.205c2.113,1.16,4.32,2.144,6.593,2.973
	l-26.344,26.344C164.535,76.418,163.05,74.711,161.661,72.924z M349.561,102.027L320.27,193.57c-0.205,0.64-0.309,1.309-0.309,1.981
	c0,0.008,0,0.095,0,0.103c0.119,34.012-6.996,86.275-22.899,120.648l-37.57,81.22c-0.109,0.235-0.203,0.476-0.283,0.723
	c-1.391,4.284-5.503,7.012-10.006,6.637c-4.47-0.366-8.418-4.623-8.81-9.312c2.986-11.029,25.983-100.198-0.642-135.291
	c-7.405-9.76-17.764-14.709-30.79-14.709c-13.259,0-23.772,5.023-31.248,14.93c-26.667,35.336-3.208,124.476-0.153,135.542
	c-0.183,2.301-1.171,4.436-2.829,6.079c-1.845,1.828-4.273,2.83-6.886,2.799c-4.093-0.041-7.894-2.968-9.242-7.119
	c-0.081-0.247-0.175-0.488-0.284-0.724l-37.401-80.731C106.387,285.001,99.15,238.424,98.1,204.776
	c17.8,5.829,60.006,17.586,110.86,17.586c25.257,0,51.559-2.982,78.174-8.864c3.505-0.775,5.719-4.244,4.944-7.75
	c-0.774-3.505-4.242-5.719-7.749-4.944c-3.189,0.705-6.373,1.366-9.55,1.984l14.176-35.972c1.316-3.34-0.324-7.115-3.664-8.431
	c-3.344-1.318-7.115,0.325-8.431,3.664l-17.08,43.341c-17.274,2.636-34.288,3.971-50.821,3.971c-18.656,0-36.226-1.693-51.759-4.089
	l-17.034-43.224c-1.316-3.339-5.089-4.981-8.431-3.664c-3.34,1.316-4.98,5.091-3.664,8.431l14.119,35.826
	c-22.665-4.452-39.171-9.867-45.509-12.102l-28.316-88.495c-2.239-7.185-3.274-14.684-3.078-22.286
	C66.251,42.884,96.989,13,133.907,13c0.1,0,0.204,0,0.304,0.001c0.281,0,0.571-0.001,0.869,0.008
	c0.051,0.001,0.102,0.002,0.152,0.002c1.505,0.007,2.999,0.13,4.485,0.315c-2.433,7.339-3.666,15.009-3.666,22.895
	c0,6.094,0.762,12.012,2.178,17.674c0.059,0.347,0.148,0.688,0.263,1.024c1.923,7.241,4.941,14.036,8.856,20.212
	c0.211,0.422,0.465,0.828,0.773,1.206c3.746,5.662,8.262,10.766,13.395,15.177c0.051,0.054,0.096,0.111,0.148,0.164
	c0.283,0.283,0.587,0.529,0.905,0.749c5.488,4.538,11.652,8.284,18.312,11.074c0.275,0.13,0.556,0.244,0.843,0.333
	c8.421,3.405,17.609,5.298,27.236,5.298c40.203,0,72.91-32.707,72.91-72.91c0-0.675-0.035-1.344-0.053-2.017
	c0.013-0.318,0.008-0.637-0.025-0.954c-0.271-6.842-1.462-13.511-3.588-19.924c1.485-0.185,2.98-0.308,4.485-0.315
	c0.051,0,0.102-0.001,0.152-0.002c0.281-0.008,0.557-0.01,0.845-0.008c0.121,0,0.237-0.001,0.356-0.001
	c36.887,0,67.627,29.887,68.59,66.759C352.829,87.356,351.796,94.848,349.561,102.027z"/>
<g>
</g>
<g>
</g>
<g>
</g>
<g>
</g>
<g>
</g>
<g>
</g>
<g>
</g>
<g>
</g>
<g>
</g>
<g>
</g>
<g>
</g>
<g>
</g>
<g>
</g>
<g>
</g>
<g>
</g>
</svg>
