<?xml version="1.0" encoding="iso-8859-1"?>
<!-- Generator: Adobe Illustrator 17.1.0, SVG Export Plug-In . SVG Version: 6.00 Build 0)  -->
<!DOCTYPE svg PUBLIC "-//W3C//DTD SVG 1.1//EN" "http://www.w3.org/Graphics/SVG/1.1/DTD/svg11.dtd">
<svg version="1.1" id="Capa_1" xmlns="http://www.w3.org/2000/svg" xmlns:xlink="http://www.w3.org/1999/xlink" x="0px" y="0px"
	 viewBox="0 0 417.477 417.477" style="enable-background:new 0 0 417.477 417.477;" xml:space="preserve">
<path d="M271.672,46.938h-49.1V32.096c0-3.59-2.91-6.5-6.5-6.5h-12.567V16.5c0-9.098-7.402-16.5-16.5-16.5h-31.2
	c-9.098,0-16.5,7.402-16.5,16.5v73.874c0,4.244,1.624,8.106,4.267,11.033v167.706c0,4.452,1.737,8.497,4.552,11.527
	c-2.841,3.501-4.552,7.957-4.552,12.807v23.474c0,5.356,2.095,10.222,5.488,13.861c-3.393,3.639-5.488,8.504-5.488,13.861v23.475
	c0,4.93,1.762,9.455,4.688,12.981c-2.899,3.124-4.688,7.292-4.688,11.88v17.999c0,3.59,2.91,6.5,6.5,6.5h42.667
	c3.59,0,6.5-2.91,6.5-6.5v-17.999c0-4.588-1.789-8.756-4.688-11.88c2.926-3.526,4.688-8.051,4.688-12.981v-23.475
	c0-5.356-2.095-10.222-5.488-13.861c3.393-3.639,5.488-8.504,5.488-13.861v-23.474c0-4.85-1.71-9.305-4.552-12.807
	c2.815-3.03,4.552-7.075,4.552-11.527V101.407c2.642-2.927,4.267-6.789,4.267-11.033v-9.096h12.567c3.59,0,6.5-2.91,6.5-6.5V59.938
	h49.1c3.59,0,6.5-2.91,6.5-6.5S275.261,46.938,271.672,46.938z M186.238,316.92c0,4.044-3.277,7.334-7.315,7.361
	c-0.016,0-0.032-0.002-0.048-0.002h-14.94c-0.016,0-0.032,0.002-0.048,0.002c-4.038-0.026-7.315-3.316-7.315-7.361v-23.474
	c0-4.061,3.303-7.364,7.363-7.364h14.94c4.06,0,7.363,3.304,7.363,7.364V316.92z M186.238,344.642v23.475
	c0,4.061-3.303,7.363-7.363,7.363h-14.94c-4.06,0-7.363-3.303-7.363-7.363v-23.475c0-4.044,3.277-7.334,7.315-7.361
	c0.016,0,0.032,0.002,0.048,0.002h14.94c0.016,0,0.032-0.002,0.048-0.002C182.961,337.307,186.238,340.597,186.238,344.642z
	 M152.305,16.5c0-1.93,1.57-3.5,3.5-3.5h31.2c1.93,0,3.5,1.57,3.5,3.5v15.596v42.683v15.596c0,1.93-1.57,3.5-3.5,3.5
	c-3.59,0-6.5,2.91-6.5,6.5c0,0.217,0.012,0.431,0.032,0.642c0.007,0.071,0.021,0.14,0.03,0.21c0.018,0.139,0.036,0.277,0.063,0.414
	c0.016,0.082,0.039,0.162,0.058,0.243c0.029,0.121,0.057,0.242,0.093,0.36c0.025,0.084,0.056,0.167,0.084,0.25
	c0.038,0.111,0.077,0.222,0.121,0.33c0.034,0.083,0.072,0.165,0.109,0.247c0.047,0.104,0.095,0.207,0.148,0.307
	c0.042,0.08,0.087,0.159,0.132,0.237c0.056,0.097,0.113,0.193,0.174,0.287c0.049,0.077,0.1,0.151,0.153,0.225
	c0.064,0.091,0.131,0.18,0.2,0.267c0.056,0.071,0.112,0.141,0.171,0.209c0.073,0.084,0.148,0.167,0.225,0.248
	c0.062,0.065,0.123,0.129,0.188,0.192c0.081,0.079,0.166,0.153,0.251,0.228c0.066,0.058,0.131,0.116,0.2,0.171
	c0.091,0.073,0.185,0.141,0.279,0.208c0.069,0.05,0.137,0.102,0.208,0.148c0.102,0.067,0.208,0.128,0.313,0.19
	c0.069,0.04,0.136,0.083,0.206,0.121c0.121,0.065,0.246,0.122,0.371,0.179c0.06,0.027,0.118,0.059,0.179,0.084
	c0.188,0.079,0.379,0.149,0.575,0.21c0.029,0.009,0.06,0.015,0.089,0.023c0.168,0.05,0.338,0.095,0.511,0.132
	c0.074,0.015,0.15,0.024,0.225,0.037c0.115,0.02,0.228,0.043,0.345,0.057v162.283c0,2.188-1.781,3.97-3.97,3.97h-3.394h-14.94
	h-3.394c-2.189,0-3.97-1.781-3.97-3.97V106.874h6.3c3.59,0,6.5-2.91,6.5-6.5s-2.91-6.5-6.5-6.5h-7.066c-1.93,0-3.5-1.57-3.5-3.5
	V16.5z M186.238,404.477h-29.667v-11.499c0-2.48,2.018-4.498,4.499-4.498h2.865h14.94h2.865c2.48,0,4.498,2.018,4.498,4.498V404.477
	z M209.572,68.278h-6.067V38.596h6.067V68.278z"/>
<g>
</g>
<g>
</g>
<g>
</g>
<g>
</g>
<g>
</g>
<g>
</g>
<g>
</g>
<g>
</g>
<g>
</g>
<g>
</g>
<g>
</g>
<g>
</g>
<g>
</g>
<g>
</g>
<g>
</g>
</svg>
