<?xml version="1.0" encoding="iso-8859-1"?>
<!-- Generator: Adobe Illustrator 17.1.0, SVG Export Plug-In . SVG Version: 6.00 Build 0)  -->
<!DOCTYPE svg PUBLIC "-//W3C//DTD SVG 1.1//EN" "http://www.w3.org/Graphics/SVG/1.1/DTD/svg11.dtd">
<svg version="1.1" id="Capa_1" xmlns="http://www.w3.org/2000/svg" xmlns:xlink="http://www.w3.org/1999/xlink" x="0px" y="0px"
	 viewBox="0 0 417.921 417.921" style="enable-background:new 0 0 417.921 417.921;" xml:space="preserve">
<path d="M365.625,79.423C365.625,79.422,365.625,79.422,365.625,79.423C364.481,35.55,327.925,0,284.049,0
	c-0.121,0-0.247,0-0.368,0.001l-1.054,0.005c-17.821,0.078-34.245,9.443-43.936,25.05c-6.436,10.365-17.55,16.552-29.731,16.552
	s-23.296-6.188-29.731-16.552c-9.69-15.607-26.114-24.972-43.938-25.05l-1.051-0.005C134.118,0,133.997,0,133.873,0
	C90,0,53.44,35.553,52.295,79.423c-0.235,9.035,0.996,17.948,3.675,26.537l28.987,90.604c0.024,35.46,7.549,89.39,24.163,125.252
	l37.25,80.404c3.207,9.32,11.734,15.611,21.349,15.7c3.281,0.029,6.466-0.661,9.391-1.959c0.304-0.114,0.593-0.25,0.87-0.404
	c2.15-1.066,4.147-2.463,5.9-4.2c4.328-4.288,6.712-10.005,6.712-16.097c0-0.603-0.084-1.203-0.249-1.783
	c-7.377-25.865-22.161-98.769-2.252-125.151c4.956-6.567,11.783-9.76,20.87-9.76c8.862,0,15.544,3.127,20.427,9.561
	c19.852,26.156,5.439,99.052-1.788,124.934c-0.159,0.569-0.24,1.159-0.24,1.75c0,8.493,4.877,16.221,11.897,20.225
	c0.635,0.487,1.37,0.868,2.187,1.098c2.105,0.911,4.352,1.515,6.697,1.708c0.638,0.053,1.271,0.078,1.901,0.078
	c9.637,0,18.219-6.052,21.396-15.262l37.426-80.902c16.576-35.833,24.081-89.722,24.101-125.194l29.002-90.648
	C364.629,97.371,365.861,88.458,365.625,79.423z M208.96,245.567c-13.258,0-23.771,5.023-31.247,14.929
	c-23.461,31.088-8.127,103.812-2.02,128.388c-8.623-30.742-25.057-89.186-30.15-106.291c2.695-14.316,7.477-25.898,14.61-35.35
	c4.65-6.163,10.261-11.186,16.595-15.012c0.886-0.273,1.72-0.744,2.443-1.401c8.803-4.747,18.892-7.264,29.769-7.264
	c19.701,0,36.859,8.314,48.313,23.41c7.361,9.701,12.242,21.698,14.918,36.626c-5.855,19.795-24.092,84.738-31.776,112.149
	c-0.006-0.061-0.019-0.12-0.024-0.181c2.985-11.029,25.981-100.204-0.645-135.296C232.342,250.515,221.985,245.567,208.96,245.567z
	 M100.28,80.672c0.427-16.379,12.921-29.978,28.734-32.314l-28.59,36.212C100.312,83.281,100.246,81.984,100.28,80.672z
	 M140.973,54.189c4.469,6.401,9.727,12.048,15.602,16.847l-44.306,53.371l-7.709-24.096L140.973,54.189z M167.305,78.462
	c7.412,4.301,15.488,7.436,23.98,9.264l-66.492,75.828l-7.825-24.458L167.305,78.462z M314.017,66.481L171.24,220.331
	c-8.222,4.746-15.479,11.151-21.464,19.081c-4.099,5.431-7.572,11.547-10.404,18.307c-2.156-10.786-3.836-22.149-4.938-33.287
	l162.572-173.79C304.343,53.755,310.402,59.41,314.017,66.481z M286.936,182.906c-0.103,0.32-0.18,0.647-0.231,0.979l-1.664,10.666
	c-0.052,0.332-0.078,0.667-0.078,1.002v0.222c0.003,0.817,0.001,1.644-0.006,2.479l-24.284,32.928
	c-5.568-5.501-11.895-9.965-18.821-13.315l53.203-60.335L286.936,182.906z M316.189,91.476l-11.265,35.208l-76.164,86.375
	c-6.287-1.642-12.917-2.491-19.8-2.491c-3.992,0-7.897,0.287-11.702,0.839L317.627,81.703
	C317.617,85.071,317.146,88.373,316.189,91.476z M279.518,50.307c0.455-0.714,1.001-1.291,1.58-1.689L279.518,50.307z
	 M133.175,206.748c-0.155-3.779-0.229-7.475-0.217-11.051c0.001-0.339-0.024-0.678-0.076-1.014l-1.664-10.786
	c-0.052-0.335-0.13-0.666-0.233-0.989l-1.569-4.905l77.54-88.427c0.667,0.016,1.335,0.032,2.005,0.032
	c17.635,0,34.32-5.471,48.117-15.312L133.175,206.748z M349.57,101.998l-29.298,91.573c-0.208,0.647-0.312,1.399-0.31,2.08
	c0.119,34.01-6.996,86.271-22.898,120.647l-37.575,81.225c-0.108,0.234-0.203,0.475-0.282,0.721
	c-1.163,3.581-4.224,6.071-7.832,6.575c6.673-23.821,28.86-102.92,34.018-119.99c0.106-0.353,0.174-0.707,0.219-1.061
	c2.763-9.446,5.158-19.86,7.118-31.016c0.621-3.536-1.742-6.905-5.277-7.526c-3.538-0.622-6.906,1.741-7.527,5.277
	c-0.466,2.652-0.956,5.26-1.471,7.819c-2.531-6.187-5.59-11.838-9.163-16.924l15.241-20.666c0.896,2.212,2.974,3.849,5.514,4.048
	c3.597,0.283,6.708-2.394,6.988-5.972c0.632-8.068,0.944-15.729,0.929-22.757l1.508-9.664l17.385-54.339
	c0.008-0.023,0.014-0.046,0.022-0.068l11.712-36.606c1.493-4.837,2.182-9.897,2.047-15.039c-0.132-5.063-1.107-9.928-2.766-14.479
	c-0.064-0.204-0.137-0.406-0.221-0.604c-5.146-13.523-16.468-24.117-30.402-28.303c-0.209-0.071-0.421-0.13-0.635-0.179
	c-4.016-1.144-8.236-1.77-12.587-1.77l-1.245,0.005c-5.694,0.025-11.061,3.208-14.354,8.513
	c-12.865,20.72-35.096,33.09-59.466,33.09s-46.601-12.37-59.467-33.09c-3.293-5.305-8.655-8.487-14.347-8.512L133.87,35
	c-25.036,0-45.935,20.337-46.586,45.334c-0.134,5.146,0.555,10.205,2.066,15.098l1.769,5.53c0.003,0.009,0.006,0.018,0.009,0.026
	l27.32,85.395l1.51,9.782c-0.035,27.894,4.927,62.621,12.678,88.639c0,0.002,0.002,0.003,0.002,0.005
	c0.002,0.006,0.003,0.013,0.005,0.019c5.158,17.071,27.346,96.173,34.018,119.992c-3.624-0.526-6.842-3.268-8.059-7.017
	c-0.08-0.247-0.175-0.489-0.284-0.724l-37.401-80.73c-15.941-34.411-23.075-86.728-22.957-120.774
	c0.002-0.68-0.102-1.355-0.31-2.003l-29.283-91.529c-2.238-7.179-3.272-14.676-3.074-22.283C66.252,42.883,96.986,13,133.874,13
	c0.102,0,0.208,0,0.31,0.001l1.054,0.005c13.316,0.058,25.633,7.126,32.947,18.907c8.824,14.211,24.067,22.695,40.776,22.695
	s31.952-8.484,40.776-22.695c7.314-11.781,19.631-18.849,32.945-18.907l1.057-0.005c0.104,0,0.206-0.001,0.31-0.001
	c36.884,0,67.62,29.885,68.581,66.761v0C352.828,87.368,351.793,94.865,349.57,101.998z"/>
<g>
</g>
<g>
</g>
<g>
</g>
<g>
</g>
<g>
</g>
<g>
</g>
<g>
</g>
<g>
</g>
<g>
</g>
<g>
</g>
<g>
</g>
<g>
</g>
<g>
</g>
<g>
</g>
<g>
</g>
</svg>
