<?xml version="1.0" encoding="iso-8859-1"?>
<!-- Generator: Adobe Illustrator 17.1.0, SVG Export Plug-In . SVG Version: 6.00 Build 0)  -->
<!DOCTYPE svg PUBLIC "-//W3C//DTD SVG 1.1//EN" "http://www.w3.org/Graphics/SVG/1.1/DTD/svg11.dtd">
<svg version="1.1" id="Capa_1" xmlns="http://www.w3.org/2000/svg" xmlns:xlink="http://www.w3.org/1999/xlink" x="0px" y="0px"
	 viewBox="0 0 422.598 422.598" style="enable-background:new 0 0 422.598 422.598;" xml:space="preserve">
<path d="M277.976,0H144.622c-3.59,0-6.5,2.91-6.5,6.5v66.684c0,3.59,2.91,6.5,6.5,6.5h50.651v69.048l-18.914,94.582
	c-0.003,0.013-0.005,0.026-0.008,0.039l-0.003,0.014c-0.011,0.056-0.016,0.113-0.025,0.169c-0.026,0.152-0.053,0.303-0.068,0.458
	c-0.021,0.215-0.033,0.431-0.033,0.647v171.457c0,3.59,2.91,6.5,6.5,6.5h57.151c3.59,0,6.5-2.91,6.5-6.5V244.641
	c0-0.428-0.042-0.854-0.126-1.274l-18.924-94.635V79.684h50.651c3.59,0,6.5-2.91,6.5-6.5V6.5C284.476,2.91,281.565,0,277.976,0z
	 M221.056,66.684c-0.078-0.003-0.154-0.012-0.232-0.012h-19.051c-0.078,0-0.154,0.009-0.232,0.012h-21.844V13H242.9v53.684H221.056z
	 M151.122,13h15.576v53.684h-15.576V13z M214.45,150.649l18.924,94.635v164.313h-44.151V251.141h22.076c3.59,0,6.5-2.91,6.5-6.5
	s-2.91-6.5-6.5-6.5h-20.647l17.496-87.491c0.083-0.42,0.126-0.847,0.126-1.274V79.684h6.051v69.691
	C214.324,149.803,214.367,150.229,214.45,150.649z M271.476,66.684H255.9V13h15.576V66.684z"/>
<g>
</g>
<g>
</g>
<g>
</g>
<g>
</g>
<g>
</g>
<g>
</g>
<g>
</g>
<g>
</g>
<g>
</g>
<g>
</g>
<g>
</g>
<g>
</g>
<g>
</g>
<g>
</g>
<g>
</g>
</svg>
