<?xml version="1.0" encoding="iso-8859-1"?>
<!-- Generator: Adobe Illustrator 17.1.0, SVG Export Plug-In . SVG Version: 6.00 Build 0)  -->
<!DOCTYPE svg PUBLIC "-//W3C//DTD SVG 1.1//EN" "http://www.w3.org/Graphics/SVG/1.1/DTD/svg11.dtd">
<svg version="1.1" id="Capa_1" xmlns="http://www.w3.org/2000/svg" xmlns:xlink="http://www.w3.org/1999/xlink" x="0px" y="0px"
	 viewBox="0 0 473.613 473.613" style="enable-background:new 0 0 473.613 473.613;" xml:space="preserve">
<path d="M355.132,347.043c-8.635-12.471-20.352-19.339-32.992-19.339s-24.357,6.868-32.992,19.339
	c-8.13,11.742-12.608,27.237-12.608,43.63c0,16.394,4.478,31.888,12.608,43.631c8.635,12.471,20.352,19.339,32.992,19.339
	s24.356-6.868,32.992-19.34c8.13-11.742,12.608-27.236,12.608-43.63C367.74,374.28,363.262,358.785,355.132,347.043z
	 M322.14,440.643c-17.671,0-32.6-22.884-32.6-49.97s14.929-49.969,32.6-49.969s32.6,22.883,32.6,49.969
	S339.811,440.643,322.14,440.643z M151.473,327.704c-12.64,0-24.356,6.868-32.992,19.339c-8.131,11.742-12.608,27.237-12.608,43.63
	c0,16.394,4.478,31.888,12.608,43.631c8.635,12.471,20.352,19.339,32.992,19.339s24.357-6.868,32.992-19.339
	c8.131-11.743,12.608-27.237,12.608-43.631c0-16.393-4.478-31.888-12.608-43.63C175.83,334.572,164.113,327.704,151.473,327.704z
	 M151.473,440.643c-17.671,0-32.6-22.884-32.6-49.97s14.929-49.969,32.6-49.969s32.6,22.883,32.6,49.969
	S169.144,440.643,151.473,440.643z M322.14,307.001h-35.541c-9.759,0-17.699-7.939-17.699-17.699v-115.81
	c51.684-17.908,82.461-48.472,82.723-82.39c0.511-4.204,3.03-31.841-15.495-54.331c-14.236-17.283-36.862-26.785-67.25-28.241
	c-1.073-0.052-1.914-0.943-1.914-2.03c0-3.59-2.91-6.5-6.5-6.5h-15.391c-3.59,0-6.5,2.91-6.5,6.5v40.609c0,3.59,2.91,6.5,6.5,6.5
	h15.391c3.59,0,6.5-2.948,6.5-6.538c48.674,2.044,48.674,27.241,48.674,42.296c0,21.409-42.069,47.081-78.833,55.352
	c-36.764-8.271-78.833-33.943-78.833-55.352c0-15.055,0-40.252,48.675-42.258c0,3.59,2.91,6.5,6.5,6.5h15.391
	c3.59,0,6.5-2.91,6.5-6.5V6.5c0-3.59-2.91-6.5-6.5-6.5h-15.391c-3.59,0-6.5,2.91-6.5,6.5c0,1.087-0.84,1.979-1.915,2.03
	c-30.387,1.456-53.013,10.958-67.249,28.241c-18.525,22.49-16.006,50.127-15.495,54.331c0.262,33.918,31.04,64.481,82.723,82.39
	v42.199c-11.647-2.159-21.174-10.89-24.092-22.719c-2.013-8.162-9.195-13.862-17.465-13.862h-0.254
	c-5.524,0-10.651,2.489-14.067,6.828c-3.439,4.37-4.66,9.985-3.349,15.405c6.815,28.185,30.736,48.387,59.227,50.757v37.201
	c0,9.76-7.939,17.699-17.699,17.699h-35.541c-36.524,0-66.239,37.371-66.239,83.306c0,45.936,29.715,83.307,66.239,83.307
	c36.525,0,66.24-37.371,66.24-83.306V364.71c0-10.528,8.565-19.094,19.094-19.094s19.094,8.565,19.094,19.094v25.597
	c0,45.936,29.715,83.307,66.24,83.307c36.524,0,66.239-37.371,66.239-83.307C388.379,344.372,358.665,307.001,322.14,307.001z
	 M134.988,90.669c0-0.314-0.023-0.628-0.068-0.938c-0.037-0.25-3.458-25.2,12.599-44.693c11.807-14.335,31.266-22.249,57.835-23.522
	c5.695-0.271,10.514-3.681,12.826-8.515h3.858v27.609h-4.13c-0.613-1.071-1.379-2.058-2.281-2.922
	c-2.58-2.473-5.944-3.754-9.526-3.604c-25.126,1.055-42.07,7.794-51.8,20.603c-8.22,10.82-9.328,23.604-9.328,34.682
	c0,29.773,45.575,56.343,82.466,66.407c-4.858,1.49-9.229,4.104-12.81,7.537c-0.438-0.272-0.902-0.511-1.408-0.676
	C164.965,146.959,134.988,119.383,134.988,90.669z M158.122,198.289c-0.368-1.522-0.029-3.093,0.929-4.311
	c0.549-0.697,1.78-1.868,3.851-1.868h0.254c2.274,0,4.266,1.635,4.843,3.976c4.357,17.664,19.043,30.504,36.714,32.776v10.172
	C182.258,236.707,163.52,220.613,158.122,198.289z M204.713,364.71v25.598c0,38.767-23.883,70.306-53.24,70.306
	s-53.239-31.539-53.239-70.307c0-38.767,23.883-70.306,53.239-70.306h35.541c16.927,0,30.699-13.771,30.699-30.699v-77.021
	c3.677,2.735,7.952,4.707,12.594,5.67v115.328C215.716,336.292,204.713,349.24,204.713,364.71z M322.14,460.613
	c-29.356,0-53.24-31.539-53.24-70.307V364.71c0-15.471-11.002-28.419-25.594-31.433V212.119c0-3.587-2.905-6.495-6.492-6.5
	c-10.533-0.014-19.102-8.594-19.102-19.127c0-10.532,8.569-19.112,19.102-19.126c3.579-0.005,6.481-2.901,6.492-6.48l0.013-4.358
	c37.349-9.438,85.32-36.614,85.32-67.16c0-11.078-1.108-23.861-9.328-34.682c-9.73-12.809-26.674-19.548-51.801-20.603
	c-3.556-0.142-6.946,1.132-9.526,3.604c-0.902,0.864-1.667,1.851-2.281,2.922h-4.13V13h3.858c2.312,4.834,7.13,8.243,12.825,8.515
	c26.5,1.271,45.928,9.146,57.744,23.41c16.04,19.362,12.724,44.571,12.691,44.806c-0.045,0.311-0.068,0.624-0.068,0.938
	c0,28.714-29.977,56.29-78.233,71.967c-2.678,0.87-4.492,3.365-4.492,6.182v120.484c0,16.928,13.771,30.699,30.699,30.699h35.541
	c29.356,0,53.239,31.539,53.239,70.306C375.379,429.074,351.497,460.613,322.14,460.613z M253.115,186.474
	c0,8.992-7.316,16.308-16.308,16.308c-8.993,0-16.309-7.315-16.309-16.308s7.316-16.309,16.309-16.309c3.59,0,6.5,2.91,6.5,6.5
	s-2.91,6.5-6.5,6.5c-1.824,0-3.309,1.484-3.309,3.309s1.484,3.308,3.309,3.308s3.308-1.483,3.308-3.308c0-3.59,2.91-6.5,6.5-6.5
	S253.115,182.884,253.115,186.474z"/>
<g>
</g>
<g>
</g>
<g>
</g>
<g>
</g>
<g>
</g>
<g>
</g>
<g>
</g>
<g>
</g>
<g>
</g>
<g>
</g>
<g>
</g>
<g>
</g>
<g>
</g>
<g>
</g>
<g>
</g>
</svg>
