<?xml version="1.0" encoding="iso-8859-1"?>
<!-- Generator: Adobe Illustrator 17.1.0, SVG Export Plug-In . SVG Version: 6.00 Build 0)  -->
<!DOCTYPE svg PUBLIC "-//W3C//DTD SVG 1.1//EN" "http://www.w3.org/Graphics/SVG/1.1/DTD/svg11.dtd">
<svg version="1.1" id="Capa_1" xmlns="http://www.w3.org/2000/svg" xmlns:xlink="http://www.w3.org/1999/xlink" x="0px" y="0px"
	 viewBox="0 0 415.311 415.311" style="enable-background:new 0 0 415.311 415.311;" xml:space="preserve">
<path d="M297.747,245.173c5.679-2.923,9.207-8.752,9.207-15.211v-51.896c0-0.154-0.006-0.309-0.017-0.462
	c-2.205-30.961-28.071-55.25-59.034-55.609v-25.64c2.843-0.694,4.956-3.251,4.956-6.308V6.5c0-3.59-2.91-6.5-6.5-6.5h-77.408
	c-3.59,0-6.5,2.91-6.5,6.5v83.547c0,3.057,2.113,5.614,4.956,6.308v25.64c-30.963,0.359-56.829,24.648-59.034,55.609
	c-0.011,0.153-0.017,0.308-0.017,0.462v51.896c0,6.461,3.528,12.29,9.208,15.212c8.32,4.28,13.489,12.742,13.489,22.084
	s-5.169,17.805-13.489,22.084c-5.68,2.922-9.208,8.751-9.208,15.212v89.408c0,11.772,9.577,21.35,21.35,21.35h155.898
	c11.772,0,21.35-9.577,21.35-21.35v-89.409c0-6.46-3.528-12.289-9.208-15.211c-8.32-4.279-13.489-12.742-13.489-22.084
	S289.426,249.453,297.747,245.173z M175.451,76.083h64.408v7.464h-64.408V76.083z M239.859,13v50.083h-64.408V13H239.859z
	 M291.799,300.901c1.31,0.673,2.155,2.106,2.155,3.65v89.409c0,4.604-3.746,8.35-8.35,8.35H129.706c-4.604,0-8.35-3.746-8.35-8.35
	v-89.408c0-1.545,0.846-2.979,2.155-3.651c12.671-6.519,20.542-19.41,20.542-33.645s-7.871-27.126-20.542-33.645
	c-1.31-0.673-2.155-2.106-2.155-3.651v-51.656c1.849-24.313,22.338-43.327,46.744-43.327h5.787c0.006,0,0.013,0.001,0.019,0.001
	s0.013-0.001,0.019-0.001h33.729c3.59,0,6.5-2.91,6.5-6.5s-2.91-6.5-6.5-6.5h-27.248V96.547h54.496v31.932c0,3.59,2.91,6.5,6.5,6.5
	c0.007,0,0.013-0.001,0.019-0.001h5.787c24.406,0,44.896,19.014,46.744,43.327v51.657c0,1.545-0.847,2.979-2.154,3.651
	c-12.672,6.517-20.543,19.408-20.543,33.644C271.257,281.491,279.128,294.383,291.799,300.901z M230.332,197.333
	c-0.043,0-0.089,0-0.132,0l-0.347,0.001c-6.948,0.031-13.336,3.657-17.088,9.7c-1.106,1.783-3.018,2.848-5.11,2.848
	s-4.004-1.064-5.11-2.848c-3.752-6.043-10.14-9.669-17.117-9.7l-0.288-0.001c-0.044,0-0.088,0-0.132,0
	c-15.673,0-28.733,12.702-29.143,28.377c-0.083,3.225,0.356,6.407,1.323,9.504l8.53,26.662c0.101,11.501,2.484,27.698,7.705,38.967
	l11.148,24.065c1.656,4.492,5.861,7.508,10.602,7.552c3.05-0.015,5.939-1.142,8.111-3.293c2.173-2.152,3.369-5.022,3.369-8.08
	c0-0.603-0.084-1.203-0.249-1.783c-2.976-10.434-5.485-28.381-1.421-33.767c0.435-0.576,0.999-1.139,2.671-1.139
	c1.587,0,2.108,0.515,2.544,1.088c4.04,5.318,1.616,23.265-1.294,33.715c-0.159,0.569-0.24,1.158-0.24,1.75
	c0,5.851,4.681,10.997,10.437,11.472c0.318,0.025,0.635,0.039,0.95,0.039c4.751-0.001,8.992-2.934,10.652-7.421l11.203-24.219
	c5.21-11.262,7.587-27.456,7.685-38.947l8.545-26.707c0.952-3.051,1.392-6.233,1.309-9.458v-0.002
	C259.036,210.034,245.977,197.333,230.332,197.333z M245.741,231.253l-8.837,27.619c-0.208,0.647-0.312,1.347-0.31,2.026
	c0.035,10.084-2.182,25.16-6.486,34.467l-5.543,11.982c1.351-10.098,1.48-22.484-4.008-29.718
	c-3.094-4.076-7.555-6.231-12.902-6.231c-5.422,0-9.934,2.182-13.048,6.308c-5.412,7.172-5.324,19.313-3.986,29.333l-5.402-11.661
	c-4.315-9.316-6.538-24.409-6.503-34.503c0.002-0.68-0.102-1.355-0.31-2.003l-8.822-27.573c-0.526-1.688-0.77-3.455-0.723-5.251
	c0.227-8.682,7.462-15.715,16.176-15.715c0.023,0,0.049,0,0.073,0l0.288,0.001c2.444,0.011,4.726,1.341,6.102,3.558
	c3.496,5.63,9.535,8.99,16.155,8.99s12.659-3.36,16.155-8.99c1.376-2.217,3.657-3.547,6.072-3.558l0.347-0.001
	c0.024,0,0.049,0,0.073,0c8.685,0,15.92,7.034,16.146,15.715C246.496,227.845,246.253,229.611,245.741,231.253z"/>
<g>
</g>
<g>
</g>
<g>
</g>
<g>
</g>
<g>
</g>
<g>
</g>
<g>
</g>
<g>
</g>
<g>
</g>
<g>
</g>
<g>
</g>
<g>
</g>
<g>
</g>
<g>
</g>
<g>
</g>
</svg>
