<?xml version="1.0" encoding="iso-8859-1"?>
<!-- Generator: Adobe Illustrator 17.1.0, SVG Export Plug-In . SVG Version: 6.00 Build 0)  -->
<!DOCTYPE svg PUBLIC "-//W3C//DTD SVG 1.1//EN" "http://www.w3.org/Graphics/SVG/1.1/DTD/svg11.dtd">
<svg version="1.1" id="Capa_1" xmlns="http://www.w3.org/2000/svg" xmlns:xlink="http://www.w3.org/1999/xlink" x="0px" y="0px"
	 viewBox="0 0 455.418 455.418" style="enable-background:new 0 0 455.418 455.418;" xml:space="preserve">
<path d="M244.083,2.281c-9.401-3.762-19.931-2.85-29.648,2.574c-9.27,5.173-16.731,13.911-21.012,24.603
	c-8.348,20.852-2.102,43.361,13.827,52.622v87.265h-0.561c-2.959,0-5.544,1.998-6.29,4.861l-10.006,38.409
	c-0.01,0.038-0.014,0.077-0.023,0.116c-0.037,0.155-0.068,0.312-0.094,0.47c-0.014,0.083-0.028,0.167-0.038,0.25
	c-0.018,0.145-0.028,0.291-0.036,0.438c-0.005,0.093-0.013,0.186-0.014,0.279c0,0.029-0.004,0.057-0.004,0.085v98.137v119.459
	c0,12.995,10.572,23.567,23.566,23.567c12.995,0,23.567-10.572,23.567-23.567V312.392v-98.137c0-0.029-0.004-0.057-0.004-0.085
	c-0.001-0.093-0.009-0.186-0.014-0.279c-0.008-0.147-0.019-0.294-0.036-0.438c-0.01-0.083-0.024-0.167-0.038-0.25
	c-0.026-0.159-0.057-0.315-0.094-0.47c-0.009-0.038-0.013-0.077-0.023-0.116L227.1,174.207c-0.746-2.863-3.331-4.861-6.29-4.861
	h-0.561v-83.14c0.936,0.082,1.874,0.125,2.813,0.125c2.513,0,5.031-0.293,7.517-0.853c0.36-0.048,0.72-0.118,1.079-0.229
	c0.098-0.03,0.19-0.07,0.286-0.104c12.591-3.353,24.199-13.618,30.05-28.235C271.023,34.356,262.988,9.85,244.083,2.281z
	 M203.183,267.218v-6.834h21.134v6.834H203.183z M224.317,280.218v6.834h-21.134v-6.834H224.317z M203.183,247.384v-6.834h21.134
	v6.834H203.183z M203.183,300.052h21.134v5.84h-21.134V300.052z M224.317,227.55h-21.134v-6.795h21.134V227.55z M224.317,431.851
	c0,5.827-4.74,10.567-10.567,10.567c-5.826,0-10.566-4.74-10.566-10.567V318.892h21.134V431.851z M222.407,207.755h-17.313
	l6.619-25.409h1.834c0.068,0.002,0.134,0.01,0.203,0.01s0.135-0.008,0.203-0.01h1.834L222.407,207.755z M250.892,49.38
	l-10.716-34.623C251.067,19.816,255.589,34.717,250.892,49.38z M233.922,70.583l-8.694-28.086c-1.062-3.43-4.703-5.346-8.131-4.288
	c-3.43,1.062-5.349,4.702-4.287,8.131l8.328,26.904c-1.69-0.181-3.357-0.58-4.973-1.228c-12.251-4.904-17.039-21.829-10.675-37.728
	c3.177-7.935,8.603-14.356,15.278-18.083c1.824-1.018,3.678-1.787,5.53-2.319L241.964,64.5
	C239.512,67.037,236.785,69.093,233.922,70.583z M207.25,387.243v-53.838c0-3.59,2.91-6.5,6.5-6.5s6.5,2.91,6.5,6.5v53.838
	c0,3.59-2.91,6.5-6.5,6.5S207.25,390.833,207.25,387.243z M207.25,428.915V414.18c0-3.59,2.91-6.5,6.5-6.5s6.5,2.91,6.5,6.5v14.735
	c0,3.59-2.91,6.5-6.5,6.5S207.25,432.505,207.25,428.915z"/>
<g>
</g>
<g>
</g>
<g>
</g>
<g>
</g>
<g>
</g>
<g>
</g>
<g>
</g>
<g>
</g>
<g>
</g>
<g>
</g>
<g>
</g>
<g>
</g>
<g>
</g>
<g>
</g>
<g>
</g>
</svg>
