<?xml version="1.0" encoding="iso-8859-1"?>
<!-- Generator: Adobe Illustrator 17.1.0, SVG Export Plug-In . SVG Version: 6.00 Build 0)  -->
<!DOCTYPE svg PUBLIC "-//W3C//DTD SVG 1.1//EN" "http://www.w3.org/Graphics/SVG/1.1/DTD/svg11.dtd">
<svg version="1.1" id="Capa_1" xmlns="http://www.w3.org/2000/svg" xmlns:xlink="http://www.w3.org/1999/xlink" x="0px" y="0px"
	 viewBox="0 0 392.256 392.256" style="enable-background:new 0 0 392.256 392.256;" xml:space="preserve">
<path d="M258.128,148.356v-9.039c0-11.753-7.072-21.881-17.181-26.368v-10.188c0-2.828-0.63-5.505-1.731-7.925
	c0.114-0.104,0.229-0.207,0.335-0.32c1.228-1.297,1.868-3.041,1.771-4.824l-4.57-83.547C236.563,2.698,233.714,0,230.262,0h-68.268
	c-3.452,0-6.302,2.698-6.49,6.145l-4.57,83.547c-0.098,1.783,0.543,3.527,1.771,4.824c0.107,0.113,0.222,0.216,0.335,0.32
	c-1.101,2.42-1.731,5.098-1.731,7.925v10.188c-10.109,4.487-17.181,14.615-17.181,26.368v9.063
	c-7.761,6.043-12.767,15.466-12.767,26.042v196.483c0,11.973,7.653,21.351,17.424,21.351h114.686
	c9.771,0,17.424-9.378,17.424-21.351V174.422C270.895,164.065,266.181,154.579,258.128,148.356z M170.522,96.547h51.211
	c3.427,0,6.214,2.787,6.214,6.214v7.718h-63.639v-7.718C164.309,99.334,167.096,96.547,170.522,96.547z M168.148,13h55.959
	l3.859,70.547h-6.233h-51.211h-6.233L168.148,13z M257.895,370.905c0,5.021-2.663,8.351-4.424,8.351H138.785
	c-1.761,0-4.424-3.33-4.424-8.351V174.422c0-11.028,8.973-20.001,20.001-20.001h67.365c3.59,0,6.5-2.91,6.5-6.5s-2.91-6.5-6.5-6.5
	h-67.365c-2.486,0-4.905,0.285-7.234,0.809v-2.912c0-8.733,7.105-15.839,15.839-15.839h66.322c8.733,0,15.839,7.105,15.839,15.839
	v11.714c-0.26,2.432,0.863,4.909,3.094,6.258c6.057,3.661,9.673,10.066,9.673,17.133V370.905z M242.461,184.094h-92.666
	c-3.59,0-6.5,2.91-6.5,6.5v162.131c0,3.59,2.91,6.5,6.5,6.5h92.666c3.59,0,6.5-2.91,6.5-6.5V190.594
	C248.961,187.004,246.051,184.094,242.461,184.094z M235.961,346.225h-79.666V197.094h79.666V346.225z"/>
<g>
</g>
<g>
</g>
<g>
</g>
<g>
</g>
<g>
</g>
<g>
</g>
<g>
</g>
<g>
</g>
<g>
</g>
<g>
</g>
<g>
</g>
<g>
</g>
<g>
</g>
<g>
</g>
<g>
</g>
</svg>
