<?xml version="1.0" encoding="iso-8859-1"?>
<!-- Generator: Adobe Illustrator 17.1.0, SVG Export Plug-In . SVG Version: 6.00 Build 0)  -->
<!DOCTYPE svg PUBLIC "-//W3C//DTD SVG 1.1//EN" "http://www.w3.org/Graphics/SVG/1.1/DTD/svg11.dtd">
<svg version="1.1" id="Capa_1" xmlns="http://www.w3.org/2000/svg" xmlns:xlink="http://www.w3.org/1999/xlink" x="0px" y="0px"
	 viewBox="0 0 432.789 432.789" style="enable-background:new 0 0 432.789 432.789;" xml:space="preserve">
<path d="M307.616,282.62c-11.301-27.286-27.47-51.795-48.08-72.89v-45.983c0-0.022-0.003-0.043-0.003-0.064
	c0-0.012,0.002-0.023,0.002-0.034l-0.932-61.669l2.389-3.171c8.449-11.21,13.103-25.114,13.103-39.152V49.5l8.454-41.709
	c0.067-0.331,0.108-0.663,0.123-0.993c0.107-2.312-1.029-4.539-3.03-5.799c-2.287-1.439-5.228-1.313-7.381,0.314L226.59,35.82
	c-1.654,1.25-2.613,3.213-2.581,5.286c0.031,2.072,1.05,4.005,2.741,5.204l11.043,7.825c-0.048,0.767-0.113,1.53-0.194,2.291
	c-0.026,0.25-0.065,0.497-0.095,0.746c-0.061,0.509-0.122,1.018-0.198,1.524c-0.044,0.295-0.101,0.587-0.15,0.881
	c-0.077,0.456-0.151,0.913-0.24,1.366c-0.061,0.31-0.133,0.617-0.199,0.925c-0.093,0.433-0.184,0.866-0.288,1.296
	c-0.076,0.316-0.163,0.629-0.246,0.943c-0.109,0.417-0.217,0.834-0.336,1.248c-0.092,0.318-0.193,0.633-0.291,0.95
	c-0.126,0.405-0.25,0.81-0.386,1.212c-0.107,0.316-0.222,0.629-0.334,0.943c-0.142,0.396-0.285,0.792-0.437,1.185
	c-0.121,0.312-0.249,0.622-0.376,0.932c-0.159,0.388-0.319,0.776-0.487,1.16c-0.135,0.308-0.276,0.613-0.417,0.919
	c-0.175,0.38-0.353,0.758-0.537,1.133c-0.149,0.303-0.303,0.603-0.458,0.904c-0.192,0.371-0.386,0.741-0.587,1.107
	c-0.162,0.297-0.329,0.591-0.497,0.885c-0.209,0.364-0.421,0.725-0.639,1.084c-0.175,0.289-0.354,0.576-0.535,0.862
	c-0.225,0.355-0.455,0.708-0.689,1.058c-0.188,0.282-0.379,0.562-0.573,0.84c-0.242,0.347-0.49,0.691-0.741,1.033
	c-0.2,0.273-0.401,0.544-0.607,0.814c-0.259,0.339-0.524,0.673-0.792,1.006c-0.212,0.264-0.425,0.528-0.642,0.789
	c-0.276,0.33-0.559,0.655-0.844,0.979c-0.223,0.254-0.445,0.508-0.674,0.759c-0.096,0.105-0.196,0.206-0.292,0.31l-16.182,4.869
	c-7.222-8.487-11.49-18.943-12.248-30.068l10.95-6.578c1.814-1.091,2.984-2.995,3.136-5.106c0.151-2.111-0.734-4.164-2.374-5.502
	L162.947,7.641c-2.092-1.706-5.021-1.942-7.359-0.594c-2.338,1.35-3.599,4.004-3.167,6.669l6.84,42.222v10.285
	c0,12.603,4.398,30.797,13.992,42.519v101.559c-20.611,21.095-36.779,45.604-48.08,72.89
	c-11.646,28.121-17.552,57.812-17.552,88.248v42.136c0,10.406,8.279,19.024,18.457,19.211c0.119,0.002,0.236,0.003,0.354,0.003
	c4.959,0,9.625-1.905,13.17-5.387c3.631-3.565,5.63-8.331,5.63-13.419v-20.511v-1.289c0-17.555,8.752-33.802,23.412-43.46
	l44.92-29.594l48.974,29.94c15.357,9.389,24.897,26.402,24.897,44.402c0,0.422,0.043,0.833,0.12,1.232v18.707
	c0,10.369,8.437,18.806,18.807,18.806c10.369,0,18.806-8.437,18.806-18.806v-42.543C325.168,340.431,319.263,310.74,307.616,282.62z
	 M172.178,54.376l-4.186-25.838l23.921,19.521l-6.299,3.784c-1.956,1.176-3.153,3.29-3.153,5.572
	c0,13.688,4.225,26.747,12.031,37.686l-12.443,3.744c-6.371-8.93-9.787-22.862-9.787-32.621V55.415
	C172.261,55.066,172.233,54.718,172.178,54.376z M132.233,413.983c0,1.571-0.617,3.042-1.738,4.143s-2.63,1.705-4.179,1.662
	c-3.14-0.058-5.694-2.845-5.694-6.213v-42.136c0-58.122,22.632-112.769,63.729-153.872c1.219-1.219,1.903-2.872,1.903-4.596V111.155
	l20.943-6.301c0.348-0.076,0.693-0.175,1.027-0.309l21.199-6.378c0.001,0,0.001,0,0.002,0c0.243-0.073,0.481-0.164,0.716-0.266
	c0.05-0.021,0.097-0.046,0.146-0.069c0.178-0.083,0.353-0.173,0.524-0.273c0.061-0.035,0.121-0.071,0.18-0.108
	c0.158-0.099,0.312-0.207,0.464-0.321c0.054-0.041,0.11-0.079,0.163-0.122c0.194-0.156,0.383-0.322,0.562-0.504
	c12.068-12.248,18.715-28.462,18.715-45.657c0-2.107-1.022-4.085-2.742-5.304l-6.64-4.705l24.885-18.802l-5.173,25.52
	c-0.087,0.425-0.13,0.857-0.13,1.291v10.809c0,3.51-0.364,7.01-1.07,10.437c-1.554,7.539-4.766,14.725-9.414,20.891l-3.73,4.951
	c-0.87,1.154-1.331,2.565-1.309,4.011l0.893,59.084l-44.086,14.151c-2.689,0.862-4.513,3.364-4.513,6.188v41.45
	c-20.61,21.095-36.779,45.604-48.08,72.89c-11.646,28.12-17.552,57.812-17.552,88.248v10.226v1.289V413.983z M269.319,337.978
	l-52.495-32.093c-2.148-1.313-4.863-1.268-6.967,0.118l-48.366,31.864c-5.31,3.499-9.996,7.693-13.979,12.414
	c6.683-46.103,27.916-88.659,61.448-122.196c1.219-1.219,1.903-2.872,1.903-4.596v-39.38l7.005-2.249l4.054,1.481v39.575
	c0,1.724,0.685,3.377,1.903,4.596c34.14,34.145,55.522,77.641,61.788,124.708C281.062,346.653,275.581,341.806,269.319,337.978z
	 M312.168,413.411c0,3.201-2.604,5.806-5.806,5.806c-3.202,0-5.807-2.604-5.807-5.806v-32.025c0-30.437-5.905-60.128-17.552-88.248
	c-11.301-27.286-27.469-51.795-48.08-72.89v-41.45c0-0.795-0.159-1.558-0.428-2.273l12.04-3.865V212.4
	c0,1.724,0.685,3.377,1.903,4.596c41.096,41.103,63.729,95.749,63.729,153.872V413.411z M193.218,130.93
	c0-11.147,9.069-20.217,20.216-20.217c3.59,0,6.5,2.91,6.5,6.5s-2.91,6.5-6.5,6.5c-3.979,0-7.216,3.237-7.216,7.217
	c0,3.979,3.237,7.216,7.216,7.216s7.216-3.237,7.216-7.216c0-3.59,2.91-6.5,6.5-6.5s6.5,2.91,6.5,6.5
	c0,11.147-9.069,20.216-20.216,20.216C202.286,151.146,193.218,142.078,193.218,130.93z"/>
<g>
</g>
<g>
</g>
<g>
</g>
<g>
</g>
<g>
</g>
<g>
</g>
<g>
</g>
<g>
</g>
<g>
</g>
<g>
</g>
<g>
</g>
<g>
</g>
<g>
</g>
<g>
</g>
<g>
</g>
</svg>
