<?xml version="1.0" encoding="iso-8859-1"?>
<!-- Generator: Adobe Illustrator 17.1.0, SVG Export Plug-In . SVG Version: 6.00 Build 0)  -->
<!DOCTYPE svg PUBLIC "-//W3C//DTD SVG 1.1//EN" "http://www.w3.org/Graphics/SVG/1.1/DTD/svg11.dtd">
<svg version="1.1" id="Capa_1" xmlns="http://www.w3.org/2000/svg" xmlns:xlink="http://www.w3.org/1999/xlink" x="0px" y="0px"
	 viewBox="0 0 437.883 437.883" style="enable-background:new 0 0 437.883 437.883;" xml:space="preserve">
<path d="M310.163,287.714c-11.301-27.286-27.47-51.795-48.08-72.89V112.863l8.025-76.33c1.123-8.427-1.091-16.792-6.236-23.564
	c-5.168-6.801-12.675-11.182-21.138-12.337c-3.067-0.413-6.009,1.388-7.021,4.316l-13.675,39.541
	c-0.711,2.053-0.348,4.326,0.966,6.056l5.392,7.099l-4.761,34.89l-3.717,1.089l-5.669-1.661l-4.761-34.89l5.392-7.099
	c1.313-1.73,1.677-4.002,0.966-6.056L202.17,4.376c-1.013-2.928-3.948-4.735-7.021-4.316c-8.463,1.155-15.97,5.536-21.138,12.337
	c-5.146,6.772-7.359,15.137-6.236,23.564l8.004,76.139c0.005,0.048,0.016,0.093,0.021,0.14v103.156
	c-20.61,21.094-36.779,45.604-48.08,72.89c-11.646,28.121-17.552,57.812-17.552,88.248v42.543c0,10.37,8.437,18.806,18.806,18.806
	c10.37,0,18.807-8.436,18.807-18.806v-20.511v-1.29c0-17.555,8.752-33.801,23.411-43.459l44.92-29.595l48.974,29.941
	c15.357,9.388,24.897,26.402,24.897,44.402c0,0.422,0.043,0.833,0.12,1.232v18.707c0,10.37,8.437,18.806,18.807,18.806
	c10.369,0,18.806-8.437,18.806-18.806v-42.543C327.715,345.526,321.81,315.835,310.163,287.714z M184.363,20.262
	c1.99-2.62,4.565-4.635,7.502-5.914l10.559,30.531l-4.916,6.473c-1.042,1.373-1.496,3.103-1.264,4.81l5.693,41.73
	c0.044,0.321,0.112,0.634,0.2,0.939l-14.242,4.173l-7.201-68.496c-0.008-0.066-0.016-0.133-0.024-0.199
	C179.984,29.287,181.295,24.298,184.363,20.262z M134.781,387.052v10.225v1.29v20.511c0,3.201-2.604,5.806-5.807,5.806
	c-3.201,0-5.806-2.604-5.806-5.806v-42.543c0-58.124,22.633-112.77,63.729-153.872c1.219-1.219,1.903-2.872,1.903-4.596V116.286
	l32.982-9.663c0.051-0.015,0.102-0.028,0.153-0.045l9.4-2.754c2.459-0.721,4.266-2.819,4.612-5.359l5.693-41.73
	c0.232-1.708-0.222-3.438-1.264-4.81l-4.916-6.473l10.559-30.53c2.937,1.279,5.512,3.293,7.502,5.913
	c3.067,4.036,4.379,9.024,3.693,14.047c-0.009,0.066-0.017,0.133-0.023,0.199l-7.742,73.632c-0.233,0.669-0.366,1.385-0.366,2.134
	v1.344l-5.461,51.939l-26.048,9.519c-0.01,0.004-0.02,0.008-0.031,0.011l-12.862,4.7c-2.563,0.937-4.269,3.375-4.269,6.105v41.45
	c-20.611,21.095-36.779,45.604-48.08,72.89C140.686,326.924,134.781,356.615,134.781,387.052z M271.867,343.073l-52.494-32.093
	c-2.148-1.313-4.863-1.268-6.967,0.118l-48.366,31.865c-5.31,3.498-9.995,7.692-13.978,12.413
	c6.683-46.103,27.916-88.659,61.448-122.196c1.219-1.219,1.903-2.872,1.903-4.596v-39.575l6.312-2.307l4.746,1.734v39.576
	c0,1.724,0.685,3.377,1.903,4.596c34.14,34.144,55.522,77.64,61.788,124.708C283.61,351.748,278.128,346.901,271.867,343.073z
	 M314.715,418.506c0,3.202-2.604,5.806-5.806,5.806c-3.202,0-5.807-2.604-5.807-5.806v-32.025c0-30.437-5.905-60.128-17.552-88.248
	c-11.301-27.287-27.469-51.795-48.08-72.89v-41.45c0-1.205-0.348-2.344-0.94-3.331l12.552-4.587v41.521
	c0,1.724,0.685,3.377,1.903,4.596c41.096,41.103,63.729,95.75,63.729,153.872V418.506z M195.765,136.025
	c0-11.147,9.069-20.216,20.217-20.216c3.59,0,6.5,2.91,6.5,6.5s-2.91,6.5-6.5,6.5c-3.979,0-7.217,3.237-7.217,7.216
	s3.237,7.216,7.217,7.216c3.979,0,7.216-3.237,7.216-7.216c0-3.59,2.91-6.5,6.5-6.5s6.5,2.91,6.5,6.5
	c0,11.147-9.068,20.216-20.216,20.216S195.765,147.173,195.765,136.025z"/>
<g>
</g>
<g>
</g>
<g>
</g>
<g>
</g>
<g>
</g>
<g>
</g>
<g>
</g>
<g>
</g>
<g>
</g>
<g>
</g>
<g>
</g>
<g>
</g>
<g>
</g>
<g>
</g>
<g>
</g>
</svg>
