<?xml version="1.0" encoding="iso-8859-1"?>
<!-- Generator: Adobe Illustrator 17.1.0, SVG Export Plug-In . SVG Version: 6.00 Build 0)  -->
<!DOCTYPE svg PUBLIC "-//W3C//DTD SVG 1.1//EN" "http://www.w3.org/Graphics/SVG/1.1/DTD/svg11.dtd">
<svg version="1.1" id="Capa_1" xmlns="http://www.w3.org/2000/svg" xmlns:xlink="http://www.w3.org/1999/xlink" x="0px" y="0px"
	 viewBox="0 0 356.816 356.816" style="enable-background:new 0 0 356.816 356.816;" xml:space="preserve">
<path d="M356.816,118.465c0-23.506-16.549-45.279-46.599-61.306c-28.755-15.336-66.845-23.783-107.251-23.783
	c-63.556,0-120.359,21.387-143.176,53.547H40.882C18.339,86.923,0,101.078,0,118.477s18.339,31.553,40.882,31.553h18.925
	c3.23,4.548,7.161,8.872,11.674,12.959v94.827c0,36.799,57.755,65.625,131.485,65.625c73.73,0,131.486-28.826,131.486-65.625
	v-94.734C349.032,149.887,356.816,134.584,356.816,118.465z M63.268,137.016c-0.139,0-0.278,0.004-0.417,0.013H40.882
	c-15.113,0-27.882-8.496-27.882-18.553c0-10.057,12.769-18.553,27.882-18.553h22.377c2.233,0,4.31-1.146,5.5-3.036
	c8.869-14.082,26.522-26.814,49.706-35.854c24.595-9.589,53.815-14.658,84.502-14.658c38.311,0,74.227,7.903,101.133,22.253
	c25.612,13.66,39.717,31.358,39.717,49.835c0,12.863-6.843,25.347-19.639,36.356c-0.307,0.22-0.596,0.462-0.86,0.731
	c-5.41,4.532-11.832,8.809-19.218,12.748c-26.906,14.351-62.822,22.253-101.133,22.253c-30.687,0-59.908-5.068-84.502-14.658
	c-23.184-9.039-40.836-21.772-49.706-35.854C67.548,138.121,65.456,137.016,63.268,137.016z M321.452,257.815
	c0,12.948-11.987,26.045-32.887,35.932c-22.755,10.765-53.155,16.693-85.599,16.693s-62.843-5.928-85.599-16.693
	c-20.9-9.887-32.887-22.983-32.887-35.932v-11.239c6.656,7.457,15.772,14.257,27.128,20.113
	c24.511,12.641,56.956,19.603,91.357,19.603c34.402,0,66.847-6.961,91.358-19.603c11.356-5.857,20.472-12.656,27.128-20.113V257.815
	z M321.452,215.334c0,31.417-54.26,57.958-118.486,57.958c-64.226,0-118.485-26.542-118.485-57.958v-42.319
	c28.604,18.941,71.706,30.538,118.486,30.538c40.406,0,78.496-8.446,107.251-23.783c3.987-2.127,7.729-4.357,11.234-6.677V215.334z
	 M102.6,146.665c0.213,0.257,0.439,0.504,0.69,0.726c5.345,4.733,12,8.981,19.662,12.673c0.289,0.14,0.576,0.281,0.868,0.42
	c0.226,0.107,0.453,0.212,0.68,0.318c18.627,8.719,43.209,14.28,70.727,15.163c0.003,0,0.005,0,0.008,0
	c1.14,0.037,2.285,0.065,3.435,0.085c0.225,0.004,0.45,0.009,0.676,0.013c1.203,0.018,2.408,0.03,3.621,0.03h0h0h0.001
	c1.212,0,2.417-0.012,3.619-0.03c0.227-0.003,0.453-0.008,0.68-0.013c1.148-0.02,2.29-0.049,3.428-0.085c0.005,0,0.01,0,0.014,0
	c27.516-0.883,52.096-6.443,70.722-15.162c0.229-0.106,0.457-0.213,0.684-0.32c0.29-0.138,0.575-0.278,0.862-0.417
	c7.663-3.693,14.321-7.941,19.666-12.675c0.252-0.223,0.477-0.469,0.69-0.726c9.061-8.288,14.19-17.881,14.19-28.188
	c0-32.309-50.319-57.617-114.557-57.617c-64.237,0-114.557,25.308-114.557,57.617C88.41,128.784,93.538,138.377,102.6,146.665z
	 M112.692,134.779c0-9.435,8.975-19.092,24.624-26.495c17.428-8.244,40.743-12.784,65.651-12.784c24.908,0,48.223,4.54,65.65,12.784
	c15.649,7.403,24.624,17.06,24.624,26.495c0,1.309-0.183,2.654-0.544,4.016c-0.015,0.013-0.031,0.026-0.046,0.039
	c-17.484,14.484-49.885,23.615-85.844,24.224c-0.17,0.003-0.339,0.007-0.509,0.009c-1.107,0.016-2.216,0.026-3.329,0.026
	c0,0-0.001,0-0.002,0c-1.114,0-2.225-0.009-3.332-0.026c-0.169-0.002-0.336-0.006-0.504-0.009
	c-35.96-0.608-68.362-9.739-85.847-24.224c-0.015-0.013-0.031-0.026-0.046-0.039C112.874,137.434,112.692,136.089,112.692,134.779z
	 M202.966,73.86c60.749,0,101.557,23.07,101.557,44.617c0,1.585-0.227,3.178-0.66,4.77c-4.333-10.294-14.501-19.529-29.687-26.714
	C255.047,87.483,229.757,82.5,202.967,82.5c-26.791,0-52.081,4.983-71.209,14.033c-15.187,7.184-25.354,16.42-29.688,26.714
	c-0.433-1.592-0.66-3.185-0.66-4.77C101.41,96.93,142.218,73.86,202.966,73.86z M199.328,109.798c0-3.59,2.91-6.5,6.5-6.5
	c4.457,0,8.912,0.204,13.24,0.607c3.574,0.333,6.202,3.5,5.87,7.075c-0.314,3.369-3.146,5.898-6.464,5.898
	c-0.202,0-0.405-0.009-0.61-0.028c-3.929-0.366-7.978-0.551-12.035-0.551C202.238,116.298,199.328,113.388,199.328,109.798z
	 M234.754,112.777c1.057-3.431,4.697-5.354,8.126-4.297c20.434,6.298,32.153,17.17,32.153,29.83c0,3.59-2.91,6.5-6.5,6.5
	s-6.5-2.91-6.5-6.5c0-6.271-9.021-13.104-22.982-17.406C235.621,119.846,233.697,116.208,234.754,112.777z"/>
<g>
</g>
<g>
</g>
<g>
</g>
<g>
</g>
<g>
</g>
<g>
</g>
<g>
</g>
<g>
</g>
<g>
</g>
<g>
</g>
<g>
</g>
<g>
</g>
<g>
</g>
<g>
</g>
<g>
</g>
</svg>
