<?xml version="1.0" encoding="iso-8859-1"?>
<!-- Generator: Adobe Illustrator 17.1.0, SVG Export Plug-In . SVG Version: 6.00 Build 0)  -->
<!DOCTYPE svg PUBLIC "-//W3C//DTD SVG 1.1//EN" "http://www.w3.org/Graphics/SVG/1.1/DTD/svg11.dtd">
<svg version="1.1" id="Capa_1" xmlns="http://www.w3.org/2000/svg" xmlns:xlink="http://www.w3.org/1999/xlink" x="0px" y="0px"
	 viewBox="0 0 445.084 445.084" style="enable-background:new 0 0 445.084 445.084;" xml:space="preserve">
<path d="M302.786,393.072c-5.677-3.547-11.338-3.651-11.974-3.651c-0.001,0-0.002,0-0.002,0l-52.102-0.006V93.06
	c0-3.795-1.344-7.485-3.784-10.394c-1.622-1.932-3.647-3.416-5.895-4.401c0.003-0.081,0.012-0.16,0.012-0.241v-37.39
	c0-1.724-0.685-3.377-1.904-4.596l-12.471-12.472l12.471-12.472c2.539-2.538,2.539-6.653,0-9.192
	c-2.539-2.537-6.654-2.538-9.192,0.001l-17.067,17.067c-2.539,2.538-2.539,6.653,0,9.191l15.163,15.164v34.697
	c0,0.081,0.009,0.161,0.012,0.241c-2.248,0.985-4.273,2.469-5.894,4.4c-2.44,2.905-3.785,6.597-3.785,10.394v296.355l-51.969,0.006
	c-1.708-0.047-9.404,0.053-15.758,6.034c-5.268,4.959-7.939,12.293-7.939,21.797c0,22.832,17.012,27.832,23.567,27.832h136.533
	c6.555,0,23.567-5,23.567-27.832C314.375,403.251,308.073,396.375,302.786,393.072z M290.808,432.084H154.275
	c-1.082,0-10.567-0.416-10.567-14.832c0-5.698,1.26-9.813,3.747-12.232c2.604-2.533,5.985-2.626,6.475-2.606
	c0.152,0.015,0.162,0.007,0.347,0.008l52.125-0.006c0.26,3.352,3.056,5.992,6.474,5.992c3.59,0,6.5-2.91,6.5-6.5V93.059
	c0-0.743,0.263-1.466,0.741-2.035c0.826-0.983,1.874-1.131,2.425-1.131c0.552,0,1.6,0.147,2.426,1.131
	c0.478,0.57,0.741,1.293,0.741,2.036v308.847c0,3.59,2.91,6.5,6.5,6.5c3.418,0,6.215-2.641,6.474-5.992l52.128,0.006
	c0.024,0,2.602,0.124,5.087,1.677c3.635,2.271,5.478,6.696,5.478,13.154C301.375,430.719,293.218,432.01,290.808,432.084z"/>
<g>
	<path d="M157.167,423.749c-3.59,0-6.5-2.91-6.5-6.5v-21.328c0-3.59,2.91-6.5,6.5-6.5s6.5,2.91,6.5,6.5v21.328
		C163.667,420.839,160.757,423.749,157.167,423.749z"/>
</g>
<g>
	<path d="M287.917,445.084c-3.59,0-6.5-2.91-6.5-6.5v-42.663c0-3.59,2.91-6.5,6.5-6.5s6.5,2.91,6.5,6.5v42.663
		C294.417,442.174,291.507,445.084,287.917,445.084z"/>
</g>
<g>
</g>
<g>
</g>
<g>
</g>
<g>
</g>
<g>
</g>
<g>
</g>
<g>
</g>
<g>
</g>
<g>
</g>
<g>
</g>
<g>
</g>
<g>
</g>
<g>
</g>
<g>
</g>
<g>
</g>
</svg>
