<?xml version="1.0" encoding="iso-8859-1"?>
<!-- Generator: Adobe Illustrator 17.1.0, SVG Export Plug-In . SVG Version: 6.00 Build 0)  -->
<!DOCTYPE svg PUBLIC "-//W3C//DTD SVG 1.1//EN" "http://www.w3.org/Graphics/SVG/1.1/DTD/svg11.dtd">
<svg version="1.1" id="Capa_1" xmlns="http://www.w3.org/2000/svg" xmlns:xlink="http://www.w3.org/1999/xlink" x="0px" y="0px"
	 viewBox="0 0 371.387 371.387" style="enable-background:new 0 0 371.387 371.387;" xml:space="preserve">
<path d="M270.522,14.599c-1.464-1.233-3.393-1.762-5.287-1.438l-30.008,5.13c-2.75-5.523-8.44-9.336-15.017-9.336h-11.553
	C206.195,3.676,200.852,0,194.652,0h-52.621c-5.116,0-9.696,2.33-12.743,5.98h-24.232c-3.59,0-6.5,2.91-6.5,6.5v57.838
	c0,3.59,2.91,6.5,6.5,6.5h24.232c1.407,1.686,3.144,3.082,5.106,4.104v120.719l-16.828,25.243c-0.712,1.067-1.092,2.322-1.092,3.605
	v134.397c0,3.59,2.91,6.5,6.5,6.5h29.329c0,0,0,0,0,0h0.001c3.59,0,6.5-2.91,6.5-6.5v-19.384c0-4.946,4.023-8.97,8.969-8.97
	c4.946,0,8.97,4.023,8.97,8.97v19.384c0,3.59,2.91,6.5,6.5,6.5h0c0,0,0,0,0,0h29.328c3.59,0,6.5-2.91,6.5-6.5V230.489
	c0-1.283-0.38-2.538-1.092-3.605l-16.827-25.243V81.346c3.301-1.538,5.966-4.202,7.505-7.502h11.552
	c6.577,0,12.266-3.813,15.016-9.335l30.009,5.129c0.364,0.063,0.73,0.093,1.095,0.093c1.522,0,3.01-0.535,4.191-1.531
	c1.464-1.235,2.309-3.054,2.309-4.969V19.567C272.831,17.652,271.986,15.834,270.522,14.599z M111.556,18.98h13.879v44.838h-13.879
	V18.98z M206.072,232.457v125.93h-16.329v-12.884c0-12.114-9.855-21.97-21.97-21.97c-12.113,0-21.969,9.855-21.969,21.97v12.884
	h-16.33v-125.93l16.828-25.243c0.712-1.067,1.092-2.322,1.092-3.605V82.799h25.174c3.59,0,6.5-2.91,6.5-6.5s-2.91-6.5-6.5-6.5
	h-30.537c-1.983,0-3.597-1.613-3.597-3.596V16.596c0-1.982,1.613-3.596,3.597-3.596h52.621c1.357,0,2.461,1.104,2.461,2.46v51.879
	c0,1.356-1.104,2.46-2.461,2.46c-3.59,0-6.5,2.91-6.5,6.5c0,0,0.001,0.013,0.001,0.02v127.29c0,1.283,0.38,2.538,1.092,3.605
	L206.072,232.457z M220.211,60.844h-10.098v-38.89h10.098c2.085,0,3.781,1.696,3.781,3.782v31.326
	C223.992,59.147,222.296,60.844,220.211,60.844z M259.831,55.525l-22.839-3.904V31.178l22.839-3.905V55.525z"/>
<g>
</g>
<g>
</g>
<g>
</g>
<g>
</g>
<g>
</g>
<g>
</g>
<g>
</g>
<g>
</g>
<g>
</g>
<g>
</g>
<g>
</g>
<g>
</g>
<g>
</g>
<g>
</g>
<g>
</g>
</svg>
