<?xml version="1.0" encoding="iso-8859-1"?>
<!-- Generator: Adobe Illustrator 17.1.0, SVG Export Plug-In . SVG Version: 6.00 Build 0)  -->
<!DOCTYPE svg PUBLIC "-//W3C//DTD SVG 1.1//EN" "http://www.w3.org/Graphics/SVG/1.1/DTD/svg11.dtd">
<svg version="1.1" id="Capa_1" xmlns="http://www.w3.org/2000/svg" xmlns:xlink="http://www.w3.org/1999/xlink" x="0px" y="0px"
	 viewBox="0 0 446.599 446.599" style="enable-background:new 0 0 446.599 446.599;" xml:space="preserve">
<path d="M248.984,216.228c-0.399-1.235-1.155-2.274-2.118-3.049v-29.084c0-3.59-2.91-6.5-6.5-6.5h-2.033v-19.11
	c0-1.009-0.235-2.004-0.687-2.907l-7.847-15.694V64.951h2.331c3.59,0,6.5-2.91,6.5-6.5V6.5c0-3.59-2.91-6.5-6.5-6.5h-17.662
	c-3.59,0-6.5,2.91-6.5,6.5v51.951c0,3.59,2.91,6.5,6.5,6.5h2.331v74.932l-7.847,15.693c-0.451,0.902-0.687,1.897-0.687,2.907v19.111
	h-2.033c-3.59,0-6.5,2.91-6.5,6.5v29.084c-0.963,0.775-1.719,1.814-2.118,3.049c-0.401,1.239-9.815,30.529-9.815,45.894
	c0,21.393,4.466,36.86,8.212,46.069c2.47,6.069,3.722,12.608,3.722,19.436v95.406c0,12.995,10.572,23.566,23.566,23.566
	s23.566-10.572,23.566-23.566v-95.305c0-6.738,1.287-13.25,3.827-19.354c3.698-8.893,8.106-24.135,8.106-46.252
	C258.799,246.757,249.385,217.467,248.984,216.228z M220.968,13h4.662v38.951h-4.662V13z M222.97,194.906h-10.237v-4.312h2.033
	h17.066h2.033v21.129h-21.133v-3.817h10.237c3.59,0,6.5-2.91,6.5-6.5S226.56,194.906,222.97,194.906z M221.266,160.017l2.033-4.066
	l2.033,4.067v17.576h-4.066V160.017z M238.689,303.381c-3.2,7.695-4.823,15.886-4.823,24.347v95.305
	c0,5.826-4.74,10.566-10.566,10.566s-10.566-4.74-10.566-10.566v-95.406c0-8.516-1.575-16.703-4.681-24.335
	c-3.309-8.134-7.253-21.879-7.253-41.17c0-9.389,4.784-27.352,7.79-37.394h29.42c3.006,10.042,7.79,28.005,7.79,37.394
	C245.799,282.093,241.933,295.582,238.689,303.381z M234.477,237.946c5.689,5.705,5.663,15.061,5.634,25.894l-0.005,2.402
	c0,3.59-2.91,6.5-6.5,6.5s-6.5-2.91-6.5-6.5l0.005-2.438c0.018-6.591,0.04-14.794-1.839-16.678
	c-0.386-0.387-1.401-0.444-1.973-0.444c-1.313,0-1.971,0-2.748,2.846c-1.059,3.875-1.059,10.112-1.059,16.715
	c0,3.59-2.91,6.5-6.5,6.5s-6.5-2.91-6.5-6.5c0-7.5,0-14.583,1.519-20.141c2.952-10.806,10.846-12.42,15.288-12.42
	C227.894,233.681,231.655,235.116,234.477,237.946z"/>
<g>
</g>
<g>
</g>
<g>
</g>
<g>
</g>
<g>
</g>
<g>
</g>
<g>
</g>
<g>
</g>
<g>
</g>
<g>
</g>
<g>
</g>
<g>
</g>
<g>
</g>
<g>
</g>
<g>
</g>
</svg>
