<?xml version="1.0" encoding="iso-8859-1"?>
<!-- Generator: Adobe Illustrator 17.1.0, SVG Export Plug-In . SVG Version: 6.00 Build 0)  -->
<!DOCTYPE svg PUBLIC "-//W3C//DTD SVG 1.1//EN" "http://www.w3.org/Graphics/SVG/1.1/DTD/svg11.dtd">
<svg version="1.1" id="Capa_1" xmlns="http://www.w3.org/2000/svg" xmlns:xlink="http://www.w3.org/1999/xlink" x="0px" y="0px"
	 viewBox="0 0 490.249 490.249" style="enable-background:new 0 0 490.249 490.249;" xml:space="preserve">
<path d="M288.581,159.856c-1.785-1.208-4.055-1.453-6.059-0.652l-4.23,1.693V37.144c0-0.351-0.028-0.701-0.085-1.047l-5.001-30.643
	c-0.421-2.579-2.346-4.655-4.886-5.271c-2.541-0.617-5.201,0.352-6.755,2.451l-51.087,69.057c-1.599,2.162-1.702,5.085-0.26,7.354
	l4.049,6.366v75.171l-8.279,21.864c-0.508,1.345-0.766,2.754-0.766,4.191c0,1.131,0.181,2.236,0.49,3.298l-2.815,1.126
	c-2.467,0.987-4.085,3.378-4.085,6.035v238.874c0,26.926,26.945,54.276,46.313,54.276s46.313-27.351,46.313-54.276V165.238
	C291.437,163.081,290.367,161.064,288.581,159.856z M226.252,80.032l-2.669-4.196l39.272-53.087l2.436,14.922v128.418
	l-46.211,18.493l7.766-20.508c0.278-0.735,0.421-1.516,0.421-2.302V83.521C227.267,82.285,226.915,81.075,226.252,80.032z
	 M245.125,477.249c-10.887,0-30.517-18.532-33.039-37.332h15.972c3.59,0,6.5-2.91,6.5-6.5V303.382h4.066v78.835
	c0,3.59,2.91,6.5,6.5,6.5s6.5-2.91,6.5-6.5v-78.835h4.066v89.555c0,3.59,2.91,6.5,6.5,6.5s6.5-2.91,6.5-6.5v-96.055v-17.067v-68.258
	c0-3.59-2.91-6.5-6.5-6.5h-34.133c-3.59,0-6.5,2.91-6.5,6.5v68.258v17.067v130.035h-9.746V201.499l66.625-26.659v252.077h-9.746
	v-10.565c0-3.59-2.91-6.5-6.5-6.5s-6.5,2.91-6.5,6.5v17.065c0,3.59,2.91,6.5,6.5,6.5h15.987
	C275.727,459.032,256.298,477.249,245.125,477.249z M255.691,279.815v10.567h-21.133v-10.567v-61.758h21.133V279.815z
	 M247.553,162.302c8.523,0,15.458-6.935,15.458-15.458v-36.826c0-3.59-2.91-6.5-6.5-6.5h-2.458V83.875c0-3.59-2.91-6.5-6.5-6.5
	s-6.5,2.91-6.5,6.5v19.643h-2.458c-3.59,0-6.5,2.91-6.5,6.5v36.826C232.095,155.367,239.03,162.302,247.553,162.302z
	 M250.011,146.844c0,1.355-1.103,2.458-2.458,2.458s-2.458-1.103-2.458-2.458v-30.326h4.916V146.844z"/>
<g>
</g>
<g>
</g>
<g>
</g>
<g>
</g>
<g>
</g>
<g>
</g>
<g>
</g>
<g>
</g>
<g>
</g>
<g>
</g>
<g>
</g>
<g>
</g>
<g>
</g>
<g>
</g>
<g>
</g>
</svg>
