<?xml version="1.0" encoding="iso-8859-1"?>
<!-- Generator: Adobe Illustrator 17.1.0, SVG Export Plug-In . SVG Version: 6.00 Build 0)  -->
<!DOCTYPE svg PUBLIC "-//W3C//DTD SVG 1.1//EN" "http://www.w3.org/Graphics/SVG/1.1/DTD/svg11.dtd">
<svg version="1.1" id="Capa_1" xmlns="http://www.w3.org/2000/svg" xmlns:xlink="http://www.w3.org/1999/xlink" x="0px" y="0px"
	 viewBox="0 0 410.555 410.555" style="enable-background:new 0 0 410.555 410.555;" xml:space="preserve">
<path d="M276.068,71.132L265.35,5.453c-0.421-2.579-2.346-4.655-4.886-5.271s-5.201,0.352-6.755,2.452L144.21,150.649
	c-1.599,2.162-1.702,5.085-0.26,7.354l9.839,15.471v164.644l-18.225,48.13c-0.771,2.039-1.163,4.178-1.163,6.356
	c0,5.805,2.825,11.276,7.559,14.638c3.074,2.184,6.724,3.313,10.406,3.313c1.986,0,3.983-0.329,5.904-1l113.524-39.612
	c2.61-0.91,4.358-3.372,4.358-6.137V72.179C276.153,71.828,276.125,71.478,276.068,71.132z M263.153,359.19l-109.166,38.092
	c-1.536,0.533-3.175,0.303-4.5-0.64c-1.326-0.94-2.086-2.413-2.086-4.038c0-0.602,0.108-1.192,0.321-1.755l18.646-49.24
	c0.278-0.735,0.421-1.516,0.421-2.302V173.75l81.712-108.898c2.154-2.872,1.573-6.946-1.298-9.101
	c-2.872-2.154-6.944-1.573-9.101,1.298l-77.372,103.114l-3.415-5.37L255,22.748l8.153,49.958V359.19z M236.902,221.876h-1.233
	v-61.769c0-3.59-2.91-6.5-6.5-6.5h-22.933c-3.59,0-6.5,2.91-6.5,6.5v61.769h-1.233c-3.59,0-6.5,2.91-6.5,6.5v78.933
	c0,14.171,11.529,25.7,25.7,25.7s25.699-11.529,25.699-25.7v-78.933C243.402,224.786,240.491,221.876,236.902,221.876z
	 M230.402,307.309c0,7.003-5.697,12.7-12.699,12.7c-7.003,0-12.7-5.697-12.7-12.7v-72.433h1.233c3.59,0,6.5-2.91,6.5-6.5v-61.769
	h9.933v61.769c0,3.59,2.91,6.5,6.5,6.5h1.233V307.309z"/>
<g>
</g>
<g>
</g>
<g>
</g>
<g>
</g>
<g>
</g>
<g>
</g>
<g>
</g>
<g>
</g>
<g>
</g>
<g>
</g>
<g>
</g>
<g>
</g>
<g>
</g>
<g>
</g>
<g>
</g>
</svg>
