<?xml version="1.0" encoding="iso-8859-1"?>
<!-- Generator: Adobe Illustrator 17.1.0, SVG Export Plug-In . SVG Version: 6.00 Build 0)  -->
<!DOCTYPE svg PUBLIC "-//W3C//DTD SVG 1.1//EN" "http://www.w3.org/Graphics/SVG/1.1/DTD/svg11.dtd">
<svg version="1.1" id="Capa_1" xmlns="http://www.w3.org/2000/svg" xmlns:xlink="http://www.w3.org/1999/xlink" x="0px" y="0px"
	 viewBox="0 0 447.124 447.124" style="enable-background:new 0 0 447.124 447.124;" xml:space="preserve">
<path d="M275.24,439.22l-4.291-19.387c-0.812-3.667-1.223-7.43-1.223-11.185V209.141c0-16.342-4.729-28.837-14.065-37.201V83.863
	c0-8.757-3.607-17.319-9.896-23.491c-4.564-4.478-10.162-7.412-16.199-8.593V6.5c0-3.59-2.91-6.5-6.5-6.5s-6.5,2.91-6.5,6.5v45.463
	c-14.312,3.229-25.105,16.141-25.105,31.323v88.653c-9.336,8.364-14.065,20.859-14.065,37.201v199.516
	c0,3.757-0.412,7.522-1.223,11.188l-4.29,19.374c-0.426,1.924,0.044,3.938,1.277,5.475c1.234,1.537,3.098,2.431,5.069,2.431h90.663
	c1.971,0,3.835-0.894,5.068-2.431C275.196,443.157,275.666,441.144,275.24,439.22z M256.727,217.804v68h-66.33v-68H256.727z
	 M256.727,305.039h-66.33v-6.235h66.33V305.039z M190.397,318.039h66.33v6.234h-66.33V318.039z M223.19,64.19
	c5.011-0.102,9.786,1.845,13.471,5.461c3.814,3.742,6.001,8.922,6.001,14.211v90.863c-0.089,2.103,0.849,4.166,2.591,5.474
	c6.874,5.162,10.595,13.242,11.33,24.604h-66.043c0.676-10.451,3.883-18.122,9.744-23.301h23.862c3.59,0,6.5-2.91,6.5-6.5
	s-2.91-6.5-6.5-6.5h-19.684V83.286C204.462,72.952,212.863,64.385,223.19,64.19z M186.327,434.124l2.539-11.469
	c1.016-4.588,1.531-9.298,1.531-13.999v-71.383h66.33v71.375c0,4.698,0.515,9.406,1.529,13.993v0l2.542,11.482H186.327z"/>
<g>
	<path d="M223.562,159.062c-3.59,0-6.5-2.91-6.5-6.5v-44.336c0-3.59,2.91-6.5,6.5-6.5s6.5,2.91,6.5,6.5v44.336
		C230.062,156.152,227.152,159.062,223.562,159.062z"/>
</g>
<g>
	<path d="M223.562,96.23c-3.59,0-6.5-2.91-6.5-6.5V77.894c0-3.59,2.91-6.5,6.5-6.5s6.5,2.91,6.5,6.5V89.73
		C230.062,93.32,227.152,96.23,223.562,96.23z"/>
</g>
<g>
</g>
<g>
</g>
<g>
</g>
<g>
</g>
<g>
</g>
<g>
</g>
<g>
</g>
<g>
</g>
<g>
</g>
<g>
</g>
<g>
</g>
<g>
</g>
<g>
</g>
<g>
</g>
<g>
</g>
</svg>
