<?xml version="1.0" encoding="iso-8859-1"?>
<!-- Generator: Adobe Illustrator 17.1.0, SVG Export Plug-In . SVG Version: 6.00 Build 0)  -->
<!DOCTYPE svg PUBLIC "-//W3C//DTD SVG 1.1//EN" "http://www.w3.org/Graphics/SVG/1.1/DTD/svg11.dtd">
<svg version="1.1" id="Capa_1" xmlns="http://www.w3.org/2000/svg" xmlns:xlink="http://www.w3.org/1999/xlink" x="0px" y="0px"
	 viewBox="0 0 473.233 473.233" style="enable-background:new 0 0 473.233 473.233;" xml:space="preserve">
<path d="M260.519,104.544l-11.003-11.532v-43.84c0-3.59-2.91-6.5-6.5-6.5c-1.955,0-19.1-0.417-19.1-14.836
	c0-13.433,5.82-14.836,19.1-14.836c3.59,0,6.5-2.91,6.5-6.5s-2.91-6.5-6.5-6.5c-9.605,0-32.1,0-32.1,27.836
	c0,16.453,12.316,25.192,25.6,27.315v37.862l-11.002,11.532c-1.154,1.209-1.797,2.816-1.797,4.487v256.08
	c0,1.671,0.644,3.278,1.797,4.487l11.002,11.531v42.027l-11.862,19.619c-1.352,2.236-1.233,5.064,0.3,7.179l14.933,20.593
	c1.272,1.753,3.255,2.685,5.268,2.685c1.323,0,2.658-0.403,3.811-1.238c2.906-2.107,3.554-6.172,1.446-9.078l-12.402-17.103
	l10.569-17.48c0.613-1.015,0.938-2.178,0.938-3.363v-43.84l11.003-11.531c1.154-1.209,1.797-2.816,1.797-4.487v-256.08
	C262.317,107.361,261.673,105.754,260.519,104.544z M243.016,369.111l-6.3-6.603v-76.269h12.6v76.269L243.016,369.111z
	 M240.807,187.904h-4.09v-76.269l6.3-6.603l6.3,6.603v93.336h-12.6v-4.067h4.09c3.59,0,6.5-2.91,6.5-6.5
	S244.397,187.904,240.807,187.904z M236.717,239.105v-4.067h12.6v4.067H236.717z M249.317,252.105v4.067h-12.6v-4.067H249.317z
	 M236.717,222.038v-4.067h12.6v4.067H236.717z M236.717,273.239v-4.067h12.6v4.067H236.717z"/>
<g>
</g>
<g>
</g>
<g>
</g>
<g>
</g>
<g>
</g>
<g>
</g>
<g>
</g>
<g>
</g>
<g>
</g>
<g>
</g>
<g>
</g>
<g>
</g>
<g>
</g>
<g>
</g>
<g>
</g>
</svg>
