<?xml version="1.0" encoding="iso-8859-1"?>
<!-- Generator: Adobe Illustrator 17.1.0, SVG Export Plug-In . SVG Version: 6.00 Build 0)  -->
<!DOCTYPE svg PUBLIC "-//W3C//DTD SVG 1.1//EN" "http://www.w3.org/Graphics/SVG/1.1/DTD/svg11.dtd">
<svg version="1.1" id="Capa_1" xmlns="http://www.w3.org/2000/svg" xmlns:xlink="http://www.w3.org/1999/xlink" x="0px" y="0px"
	 viewBox="0 0 473.822 473.822" style="enable-background:new 0 0 473.822 473.822;" xml:space="preserve">
<path d="M271.309,460.822h-20.662c-10.201,0-18.5-8.299-18.5-18.5v-54.335l11.003-11.532c1.153-1.209,1.797-2.816,1.797-4.487
	v-256.08c0-1.671-0.644-3.278-1.797-4.487l-11.003-11.532V15.042c0-2.722-1.695-5.155-4.249-6.098l-23.133-8.539
	c-3.369-1.247-7.106,0.48-8.349,3.847c-1.243,3.368,0.479,7.106,3.847,8.349l18.884,6.97v80.298l-11.003,11.532
	c-1.153,1.209-1.797,2.816-1.797,4.487v256.08c0,1.671,0.644,3.278,1.797,4.487l11.003,11.532v54.335
	c0,17.369,14.131,31.5,31.5,31.5h20.662c3.59,0,6.5-2.91,6.5-6.5S274.899,460.822,271.309,460.822z M223.438,194.76h-4.091v-76.269
	l6.3-6.603l6.3,6.603v93.336h-12.6v-4.067h4.091c3.59,0,6.5-2.91,6.5-6.5S227.028,194.76,223.438,194.76z M231.947,241.894v4.067
	h-12.6v-4.067H231.947z M219.348,228.894v-4.067h12.6v4.067H219.348z M231.947,258.962v4.067h-12.6v-4.067H231.947z
	 M231.947,276.028v4.067h-12.6v-4.067H231.947z M219.348,293.095h12.6v76.269l-6.3,6.603l-6.3-6.603V293.095z"/>
<g>
</g>
<g>
</g>
<g>
</g>
<g>
</g>
<g>
</g>
<g>
</g>
<g>
</g>
<g>
</g>
<g>
</g>
<g>
</g>
<g>
</g>
<g>
</g>
<g>
</g>
<g>
</g>
<g>
</g>
</svg>
