<?xml version="1.0" encoding="iso-8859-1"?>
<!-- Generator: Adobe Illustrator 17.1.0, SVG Export Plug-In . SVG Version: 6.00 Build 0)  -->
<!DOCTYPE svg PUBLIC "-//W3C//DTD SVG 1.1//EN" "http://www.w3.org/Graphics/SVG/1.1/DTD/svg11.dtd">
<svg version="1.1" id="Capa_1" xmlns="http://www.w3.org/2000/svg" xmlns:xlink="http://www.w3.org/1999/xlink" x="0px" y="0px"
	 viewBox="0 0 486.939 486.939" style="enable-background:new 0 0 486.939 486.939;" xml:space="preserve">
<path d="M275.299,469.164c-1.512-3.257-5.377-4.671-8.633-3.16l-13.728,6.371l-26.886-34.281l19.741-21.541
	c1.099-1.199,1.708-2.766,1.708-4.392V386.01l11.003-11.532c1.153-1.209,1.797-2.816,1.797-4.487v-256.08
	c0-1.671-0.644-3.278-1.797-4.487l-11.003-11.532V63.881l17.202-16.062c3.528-3.293,5.251-7.935,4.727-12.732
	c-0.523-4.798-3.208-8.957-7.363-11.411l-12.895-7.617c-0.871-0.515-1.039-1.32-1.062-1.753c-0.022-0.434,0.062-1.252,0.876-1.854
	l0.979-0.723c2.887-2.134,3.498-6.204,1.364-9.091c-2.134-2.888-6.205-3.497-9.091-1.364l-0.979,0.724
	c-4.102,3.032-6.395,7.883-6.132,12.977c0.263,5.094,3.041,9.684,7.433,12.278l12.895,7.617c0.813,0.48,1.008,1.227,1.052,1.629
	c0.044,0.403,0.015,1.174-0.675,1.819l-19.267,17.989c-1.316,1.229-2.064,2.95-2.064,4.751v36.835l-11.002,11.531
	c-1.154,1.209-1.797,2.816-1.797,4.487v256.08c0,1.671,0.644,3.278,1.797,4.487l11.002,11.532v23.624l-21.758,23.742
	c-2.149,2.345-2.286,5.9-0.323,8.403l33.467,42.672c1.264,1.612,3.168,2.489,5.117,2.489c0.922,0,1.854-0.196,2.733-0.604
	l18.4-8.539C275.394,476.285,276.809,472.421,275.299,469.164z M238.792,192.783h-4.09v-76.269l6.3-6.603l6.3,6.603v93.336h-12.6
	v-4.067h4.09c3.59,0,6.5-2.91,6.5-6.5S242.382,192.783,238.792,192.783z M247.302,239.918v4.067h-12.6v-4.067H247.302z
	 M234.702,226.918v-4.067h12.6v4.067H234.702z M247.302,256.985v4.067h-12.6v-4.067H247.302z M247.302,274.051v4.067h-12.6v-4.067
	H247.302z M234.702,291.119h12.6v76.269l-6.3,6.603l-6.3-6.603V291.119z"/>
<g>
</g>
<g>
</g>
<g>
</g>
<g>
</g>
<g>
</g>
<g>
</g>
<g>
</g>
<g>
</g>
<g>
</g>
<g>
</g>
<g>
</g>
<g>
</g>
<g>
</g>
<g>
</g>
<g>
</g>
</svg>
