<?xml version="1.0" encoding="iso-8859-1"?>
<!-- Generator: Adobe Illustrator 17.1.0, SVG Export Plug-In . SVG Version: 6.00 Build 0)  -->
<!DOCTYPE svg PUBLIC "-//W3C//DTD SVG 1.1//EN" "http://www.w3.org/Graphics/SVG/1.1/DTD/svg11.dtd">
<svg version="1.1" id="Capa_1" xmlns="http://www.w3.org/2000/svg" xmlns:xlink="http://www.w3.org/1999/xlink" x="0px" y="0px"
	 viewBox="0 0 447.438 447.438" style="enable-background:new 0 0 447.438 447.438;" xml:space="preserve">
<path d="M294.594,37.254V6.5c0-2.196-1.109-4.244-2.948-5.443c-1.839-1.2-4.16-1.392-6.17-0.506
	c-25.708,11.315-60.122,43.978-57.871,75.875l3.299,46.734c0.24,3.403,3.072,6.042,6.484,6.042h10.693l0.409,5.789l-28.555,8.293
	c-28.091,7.631-47.704,33.276-47.704,62.39V375l-18.225,48.129c-0.771,2.04-1.163,4.179-1.163,6.357
	c0,5.805,2.825,11.276,7.558,14.638c3.074,2.184,6.724,3.313,10.406,3.313c1.987,0,3.984-0.329,5.905-1l113.523-39.612
	c0.025-0.009,0.047-0.023,0.073-0.032c0.585-0.212,1.13-0.505,1.623-0.866c0.052-0.038,0.103-0.076,0.154-0.115
	c0.228-0.178,0.445-0.367,0.647-0.573c0.032-0.032,0.06-0.067,0.091-0.1c0.181-0.192,0.349-0.395,0.506-0.608
	c0.03-0.041,0.062-0.081,0.092-0.123c0.167-0.239,0.317-0.49,0.452-0.751c0.023-0.045,0.044-0.092,0.066-0.138
	c0.124-0.256,0.235-0.519,0.325-0.793c0.006-0.019,0.014-0.036,0.02-0.055c0.091-0.283,0.158-0.576,0.209-0.875
	c0.011-0.064,0.02-0.127,0.029-0.191c0.043-0.3,0.072-0.605,0.072-0.917V37.368V37.3C294.594,37.285,294.595,37.269,294.594,37.254z
	 M172.43,434.164c-1.535,0.533-3.176,0.303-4.501-0.639s-2.085-2.413-2.085-4.039c0-0.602,0.108-1.192,0.321-1.755l18.646-49.24
	c0.279-0.735,0.421-1.516,0.421-2.302V205.674c0-23.276,15.692-43.778,38.161-49.857c0.039-0.011,0.077-0.021,0.115-0.032
	l33.649-9.772c2.941-0.854,4.887-3.646,4.671-6.7l-1.205-17.071c-0.003-0.037-0.01-0.072-0.013-0.108
	c-0.009-0.104-0.024-0.207-0.038-0.31c-0.016-0.116-0.031-0.231-0.053-0.345c-0.018-0.096-0.042-0.191-0.065-0.286
	c-0.028-0.117-0.056-0.234-0.09-0.349c-0.026-0.086-0.056-0.169-0.085-0.253c-0.041-0.12-0.082-0.239-0.13-0.355
	c-0.031-0.075-0.065-0.147-0.099-0.22c-0.055-0.121-0.11-0.241-0.172-0.357c-0.035-0.065-0.073-0.128-0.11-0.193
	c-0.068-0.118-0.137-0.236-0.212-0.349c-0.039-0.059-0.082-0.115-0.123-0.173c-0.08-0.113-0.162-0.225-0.249-0.333
	c-0.043-0.053-0.089-0.103-0.134-0.155c-0.092-0.106-0.184-0.211-0.282-0.31c-0.047-0.048-0.097-0.093-0.146-0.139
	c-0.102-0.098-0.206-0.195-0.314-0.286c-0.048-0.041-0.099-0.078-0.149-0.117c-0.115-0.091-0.231-0.18-0.351-0.263
	c-0.047-0.033-0.097-0.062-0.145-0.093c-0.129-0.084-0.259-0.165-0.394-0.239c-0.042-0.023-0.086-0.044-0.128-0.066
	c-0.146-0.076-0.293-0.149-0.445-0.215c-0.034-0.015-0.069-0.027-0.103-0.041c-0.165-0.068-0.331-0.13-0.502-0.184
	c-0.024-0.007-0.048-0.013-0.072-0.021c-0.183-0.056-0.369-0.104-0.558-0.143c-0.016-0.003-0.032-0.006-0.048-0.009
	c-0.196-0.039-0.395-0.07-0.596-0.091c-0.017-0.002-0.034-0.003-0.051-0.004c-0.198-0.019-0.398-0.03-0.6-0.03
	c-0.01,0-0.019-0.001-0.029-0.001h-10.692l-2.873-40.692c-1.412-19.995,19.074-45.048,41.021-58.294V33.29
	c-4.851,2.519-9.37,5.608-13.466,9.236c-14.08,12.47-20.923,32.235-19.269,55.657c0.242,3.425,3.096,6.042,6.477,6.042
	c0.154,0,0.309-0.005,0.465-0.017c3.581-0.252,6.279-3.36,6.026-6.941c-0.789-11.176,0.1-31.884,14.92-45.009
	c1.544-1.367,3.162-2.64,4.847-3.817v347.631L172.43,434.164z M255.343,258.759h-1.233v-61.768c0-3.59-2.91-6.5-6.5-6.5h-22.934
	c-3.59,0-6.5,2.91-6.5,6.5v61.768h-1.233c-3.59,0-6.5,2.91-6.5,6.5v78.933c0,14.171,11.529,25.7,25.7,25.7s25.7-11.529,25.7-25.7
	v-78.933C261.843,261.669,258.933,258.759,255.343,258.759z M248.843,344.192c0,7.003-5.697,12.7-12.7,12.7s-12.7-5.697-12.7-12.7
	v-72.433h1.233c3.59,0,6.5-2.91,6.5-6.5v-61.768h9.934v61.768c0,3.59,2.91,6.5,6.5,6.5h1.233V344.192z"/>
<g>
</g>
<g>
</g>
<g>
</g>
<g>
</g>
<g>
</g>
<g>
</g>
<g>
</g>
<g>
</g>
<g>
</g>
<g>
</g>
<g>
</g>
<g>
</g>
<g>
</g>
<g>
</g>
<g>
</g>
</svg>
