<?xml version="1.0" encoding="iso-8859-1"?>
<!-- Generator: Adobe Illustrator 17.1.0, SVG Export Plug-In . SVG Version: 6.00 Build 0)  -->
<!DOCTYPE svg PUBLIC "-//W3C//DTD SVG 1.1//EN" "http://www.w3.org/Graphics/SVG/1.1/DTD/svg11.dtd">
<svg version="1.1" id="Capa_1" xmlns="http://www.w3.org/2000/svg" xmlns:xlink="http://www.w3.org/1999/xlink" x="0px" y="0px"
	 viewBox="0 0 456.734 456.734" style="enable-background:new 0 0 456.734 456.734;" xml:space="preserve">
<path d="M273.447,411.414l-9.642-260.332v-9.526c0-1.402-0.453-2.767-1.293-3.89c-8.456-11.32-13.108-25.336-13.097-39.467
	c0-0.015,0-0.03,0-0.045l0.072-80.35C249.487,7.987,241.5,0,231.683,0h-6.537c-9.817,0-17.805,7.987-17.805,17.804v80.413
	c0,14.114-4.651,28.114-13.123,39.454c-0.837,1.123-1.289,2.485-1.289,3.886v20.188l-9.642,249.66
	c-0.003,0.083-0.005,0.167-0.005,0.251c0,18.758,34.82,40.101,41.8,44.188c1.015,0.594,2.15,0.891,3.285,0.891
	s2.271-0.297,3.285-0.891c6.979-4.088,41.8-25.43,41.8-44.188C273.452,411.575,273.45,411.494,273.447,411.414z M253.83,232.955
	h-50.642l0.271-7.013h50.111L253.83,232.955z M202.686,245.955h51.625l0.26,7.013h-52.156L202.686,245.955z M251.089,158.948
	l2,53.994h-49.128l0.271-7.013h33.782c3.59,0,6.5-2.91,6.5-6.5s-2.91-6.5-6.5-6.5h-33.28l0.989-25.612l27.722-5.114L251.089,158.948
	z M201.913,265.967h53.139l0.26,7.012h-53.67L201.913,265.967z M225.146,13h6.537c2.649,0,4.805,2.155,4.805,4.798l-0.068,75.084
	l-16.079,3.314V17.804C220.341,15.155,222.496,13,225.146,13z M219.485,109.647l17.34-3.574c1.363,13.455,6.189,26.516,13.98,37.591
	v2.117l-7.941,1.465l-36.936,6.814v-10.395C213.033,133.576,217.679,121.834,219.485,109.647z M228.367,442.642
	c-15.932-9.895-31.936-23.789-32.084-30.888l4.857-125.774h54.653l4.658,125.77C260.31,418.847,244.302,432.745,228.367,442.642z"/>
<g>
</g>
<g>
</g>
<g>
</g>
<g>
</g>
<g>
</g>
<g>
</g>
<g>
</g>
<g>
</g>
<g>
</g>
<g>
</g>
<g>
</g>
<g>
</g>
<g>
</g>
<g>
</g>
<g>
</g>
</svg>
