<?xml version="1.0" encoding="iso-8859-1"?>
<!-- Generator: Adobe Illustrator 17.1.0, SVG Export Plug-In . SVG Version: 6.00 Build 0)  -->
<!DOCTYPE svg PUBLIC "-//W3C//DTD SVG 1.1//EN" "http://www.w3.org/Graphics/SVG/1.1/DTD/svg11.dtd">
<svg version="1.1" id="Capa_1" xmlns="http://www.w3.org/2000/svg" xmlns:xlink="http://www.w3.org/1999/xlink" x="0px" y="0px"
	 viewBox="0 0 399.504 399.504" style="enable-background:new 0 0 399.504 399.504;" xml:space="preserve">
<path d="M99.484,0.002c-0.03-0.001-0.059-0.001-0.088-0.001C99.363,0.001,99.33,0,99.297,0c-0.024,0-0.046,0.005-0.07,0.006
	c-0.308,0.003-0.613,0.026-0.914,0.073c-0.023,0.003-0.046,0.005-0.068,0.008c-0.298,0.049-0.589,0.123-0.876,0.212
	c-0.062,0.019-0.124,0.04-0.185,0.061c-0.277,0.095-0.548,0.205-0.809,0.336c-0.035,0.018-0.067,0.038-0.102,0.057
	c-0.238,0.125-0.468,0.267-0.689,0.421c-0.046,0.032-0.092,0.061-0.137,0.094c-0.236,0.173-0.46,0.363-0.672,0.568
	c-0.037,0.036-0.073,0.074-0.109,0.111c-0.202,0.206-0.394,0.423-0.569,0.657c-0.011,0.015-0.023,0.028-0.034,0.042
	c-0.178,0.243-0.337,0.503-0.483,0.773c-0.03,0.056-0.058,0.111-0.087,0.168c-0.134,0.268-0.257,0.543-0.356,0.834
	c-0.003,0.008-0.004,0.016-0.007,0.024c-0.001,0.002-0.002,0.004-0.003,0.007c-0.003,0.009-0.004,0.018-0.006,0.026
	c-0.096,0.293-0.164,0.588-0.217,0.883c-0.01,0.057-0.021,0.113-0.03,0.17c-0.046,0.304-0.073,0.607-0.075,0.908
	c0,0.035,0.002,0.069,0.003,0.104c0.002,0.288,0.023,0.573,0.063,0.855c0.005,0.037,0.008,0.075,0.014,0.112
	c0.047,0.294,0.115,0.583,0.201,0.867c0.017,0.056,0.036,0.111,0.054,0.166c0.093,0.28,0.199,0.556,0.329,0.821
	c0.003,0.006,0.005,0.011,0.007,0.017c0.132,0.268,0.289,0.522,0.457,0.77c0.035,0.052,0.07,0.103,0.106,0.154
	c0.174,0.241,0.363,0.472,0.57,0.688c0.029,0.03,0.06,0.058,0.089,0.088c0.212,0.213,0.438,0.413,0.68,0.597
	c0.013,0.01,0.024,0.022,0.037,0.032c55.686,41.525,88.931,107.789,88.931,177.255v138.1l-18.225,48.131
	c-0.771,2.039-1.163,4.178-1.163,6.355c0,5.805,2.825,11.277,7.559,14.639c3.073,2.183,6.723,3.313,10.405,3.313
	c1.987,0,3.984-0.329,5.905-1l113.523-39.612c2.61-0.91,4.358-3.372,4.358-6.137V207.409C306.705,93.106,213.763,0.104,99.484,0.002
	z M293.705,348.139L184.54,386.23c-1.535,0.533-3.176,0.302-4.5-0.639c-1.326-0.941-2.086-2.414-2.086-4.04
	c0-0.601,0.108-1.191,0.321-1.754l18.646-49.241c0.278-0.735,0.421-1.516,0.421-2.302V188.966c0-15.405-1.567-30.813-4.597-45.93
	l20.124-16.078c2.231-1.783,3.038-4.814,1.986-7.471c-0.983-2.482-1.61-4.439-2.404-6.917c-0.929-2.899-2.085-6.507-4.188-12.026
	c-1.277-3.355-5.036-5.036-8.388-3.761c-3.354,1.277-5.039,5.033-3.761,8.388c1.978,5.192,3.028,8.473,3.956,11.366
	c0.352,1.098,0.684,2.133,1.035,3.179l-11.615,9.28c-4.114-15.54-9.806-30.66-17.008-45.016
	c-9.804-19.541-22.413-37.686-37.245-53.772c22.686,13.995,39.779,32.534,51.762,56.04c1.148,2.253,3.43,3.549,5.796,3.549
	c0.993,0,2.002-0.229,2.947-0.71c3.198-1.631,4.469-5.545,2.839-8.743c-13.753-26.977-33.569-47.917-60.059-63.355
	c88.457,18.197,155.183,96.658,155.183,190.42V348.139z M226.396,149.057v61.768h-1.233c-3.59,0-6.5,2.91-6.5,6.5v78.933
	c0,14.171,11.529,25.7,25.7,25.7c14.171,0,25.7-11.529,25.7-25.7v-78.933c0-3.59-2.91-6.5-6.5-6.5h-1.233v-61.768
	c0-3.59-2.91-6.5-6.5-6.5h-22.934C229.307,142.557,226.396,145.467,226.396,149.057z M239.396,217.324v-61.768h9.934v61.768
	c0,3.59,2.91,6.5,6.5,6.5h1.233v72.433c0,7.003-5.697,12.7-12.7,12.7s-12.7-5.697-12.7-12.7v-72.433h1.233
	C236.486,223.824,239.396,220.914,239.396,217.324z"/>
<g>
</g>
<g>
</g>
<g>
</g>
<g>
</g>
<g>
</g>
<g>
</g>
<g>
</g>
<g>
</g>
<g>
</g>
<g>
</g>
<g>
</g>
<g>
</g>
<g>
</g>
<g>
</g>
<g>
</g>
</svg>
