<?xml version="1.0" encoding="iso-8859-1"?>
<!-- Generator: Adobe Illustrator 17.1.0, SVG Export Plug-In . SVG Version: 6.00 Build 0)  -->
<!DOCTYPE svg PUBLIC "-//W3C//DTD SVG 1.1//EN" "http://www.w3.org/Graphics/SVG/1.1/DTD/svg11.dtd">
<svg version="1.1" id="Capa_1" xmlns="http://www.w3.org/2000/svg" xmlns:xlink="http://www.w3.org/1999/xlink" x="0px" y="0px"
	 viewBox="0 0 471.406 471.406" style="enable-background:new 0 0 471.406 471.406;" xml:space="preserve">
<path d="M272.531,458.99l-31.141-14.195c-0.955-0.435-1.32-1.222-1.453-1.652c-0.133-0.431-0.275-1.287,0.268-2.185l7.459-12.336
	c0.614-1.015,0.938-2.178,0.938-3.363v-43.84l11.003-11.531c1.154-1.209,1.797-2.816,1.797-4.487V109.32
	c0-1.671-0.644-3.278-1.797-4.487l-11.003-11.532v-43.84c0-1.659-0.634-3.254-1.772-4.46L206.297,2.039
	c-2.463-2.611-6.578-2.73-9.188-0.268c-2.611,2.464-2.731,6.578-0.268,9.188l38.761,41.083v41.258L224.6,104.833
	c-1.154,1.209-1.797,2.816-1.797,4.487V365.4c0,1.671,0.644,3.278,1.797,4.487l11.002,11.531v42.028l-6.521,10.786
	c-2.314,3.828-2.884,8.474-1.564,12.748s4.412,7.789,8.482,9.644l31.141,14.195c0.874,0.398,1.79,0.587,2.692,0.587
	c2.468,0,4.828-1.413,5.918-3.806C277.239,464.334,275.798,460.478,272.531,458.99z M239.892,188.192h-4.09v-76.269l6.3-6.603
	l6.3,6.603v93.336h-12.6v-4.067h4.09c3.59,0,6.5-2.91,6.5-6.5S243.482,188.192,239.892,188.192z M248.402,235.326v4.067h-12.6
	v-4.067H248.402z M235.802,222.326v-4.067h12.6v4.067H235.802z M248.402,252.393v4.067h-12.6v-4.067H248.402z M248.402,269.46v4.067
	h-12.6v-4.067H248.402z M235.802,286.527h12.6v76.269l-6.3,6.603l-6.3-6.603V286.527z"/>
<g>
</g>
<g>
</g>
<g>
</g>
<g>
</g>
<g>
</g>
<g>
</g>
<g>
</g>
<g>
</g>
<g>
</g>
<g>
</g>
<g>
</g>
<g>
</g>
<g>
</g>
<g>
</g>
<g>
</g>
</svg>
