<?xml version="1.0" encoding="iso-8859-1"?>
<!-- Generator: Adobe Illustrator 17.1.0, SVG Export Plug-In . SVG Version: 6.00 Build 0)  -->
<!DOCTYPE svg PUBLIC "-//W3C//DTD SVG 1.1//EN" "http://www.w3.org/Graphics/SVG/1.1/DTD/svg11.dtd">
<svg version="1.1" id="Capa_1" xmlns="http://www.w3.org/2000/svg" xmlns:xlink="http://www.w3.org/1999/xlink" x="0px" y="0px"
	 viewBox="0 0 439.276 439.276" style="enable-background:new 0 0 439.276 439.276;" xml:space="preserve">
<path d="M334.735,326.955c-12.661-13.257-29.727-20.558-48.053-20.558c-0.327,0-0.654,0.002-0.983,0.008L255.813,116.43
	c-0.025-0.162-0.057-0.323-0.095-0.483l-5.902-25.006l-2.871-63.824C246.861,12.15,234.659,0,219.673,0
	c-0.012,0-0.023,0.002-0.035,0.002c-0.012,0-0.023-0.002-0.035-0.002c-14.924,0-27.086,12.048-27.271,26.929l-8.899,89.687
	l-29.856,189.789c-0.329-0.005-0.657-0.008-0.983-0.008c-18.327,0-35.392,7.301-48.053,20.558
	c-12.655,13.25-19.159,30.656-18.314,49.011c1.56,33.9,29.337,61.677,63.237,63.237c1.061,0.049,2.116,0.073,3.169,0.073
	c17.181,0,33.357-6.463,45.841-18.386c13.257-12.661,20.558-29.727,20.558-48.053c0-11.785-3.123-23.25-8.952-33.3h9.206h0.703
	h9.206c-5.829,10.05-8.952,21.515-8.952,33.3c0,18.326,7.301,35.392,20.558,48.053c12.486,11.924,28.658,18.387,45.841,18.387
	c1.052,0,2.111-0.024,3.169-0.073c33.9-1.56,61.678-29.336,63.237-63.237C353.894,357.611,347.39,340.205,334.735,326.955z
	 M233.946,27.273c0,0.097,0.002,0.195,0.006,0.292l2.302,51.17l-10.081-7.246V14.568C230.784,16.937,233.946,21.742,233.946,27.273z
	 M219.287,326.537h-21.89c-2.56,0-4.881,1.502-5.93,3.837s-0.629,5.068,1.072,6.981c8.702,9.789,13.494,22.39,13.494,35.481
	c0,14.741-5.873,28.467-16.537,38.652c-10.657,10.177-24.664,15.402-39.435,14.729c-27.259-1.254-49.595-23.589-50.849-50.848
	c-0.68-14.773,4.551-28.778,14.729-39.435c10.184-10.664,23.911-16.537,38.652-16.537c1.885,0,3.833,0.107,5.791,0.318
	c3.44,0.373,6.578-2.028,7.117-5.453l29.181-185.501l13.751,9.67c-0.918,0.909-1.564,2.062-1.818,3.343l-30.036,151.775
	c-1.313,6.358,0.286,12.893,4.387,17.926c4.101,5.034,10.176,7.921,16.669,7.921h21.65h0.703c1.968,0,3.57,1.602,3.57,3.57
	s-1.602,3.57-3.57,3.57H219.287z M220.413,146.854l29.551,149.324c0.519,2.514-0.113,5.097-1.734,7.087
	c-1.621,1.99-4.023,3.132-6.59,3.132h-21.65h-0.703h-21.65c-2.567,0-4.969-1.142-6.59-3.132c-1.622-1.99-2.253-4.573-1.724-7.14
	l29.56-149.371l0.675-0.502L220.413,146.854z M340.063,375.369c-1.254,27.259-23.589,49.594-50.849,50.848
	c-14.776,0.685-28.777-4.551-39.435-14.729c-10.664-10.185-16.537-23.911-16.537-38.652c0-13.092,4.792-25.692,13.494-35.481
	c1.701-1.913,2.12-4.646,1.072-6.981c-1.049-2.335-3.37-3.837-5.93-3.837h-5.718c0.254-1.151,0.398-2.343,0.398-3.57
	s-0.144-2.419-0.398-3.57h5.478c6.493,0,12.569-2.887,16.669-7.921c4.101-5.034,5.7-11.568,4.397-17.874L232.66,141.774
	c-0.325-1.641-1.27-3.093-2.638-4.055l-5.416-3.808c-0.752-0.895-1.698-1.543-2.733-1.922l-25.148-17.683l8.572-86.392
	c0.021-0.213,0.032-0.427,0.032-0.642c0-5.531,3.162-10.336,7.773-12.705v60.205c0,2.092,1.007,4.057,2.707,5.278L237.583,95.7
	l5.427,22.993l30.765,195.569c0.539,3.424,3.673,5.827,7.117,5.453c1.958-0.211,3.906-0.318,5.791-0.318
	c14.741,0,28.468,5.873,38.652,16.537C335.512,346.591,340.743,360.596,340.063,375.369z M286.682,326.536
	c-25.53,0-46.3,20.77-46.3,46.3c0,25.53,20.77,46.3,46.3,46.3c25.53,0,46.3-20.77,46.3-46.3
	C332.982,347.306,312.212,326.536,286.682,326.536z M286.682,406.136c-18.361,0-33.3-14.938-33.3-33.3
	c0-18.362,14.938-33.3,33.3-33.3c18.362,0,33.3,14.938,33.3,33.3C319.982,391.198,305.044,406.136,286.682,406.136z
	 M235.702,113.599c-2.567,6.282-8.611,10.342-15.399,10.342c-9.17,0-16.631-7.46-16.631-16.631s7.46-16.631,16.631-16.631
	c3.59,0,6.5,2.91,6.5,6.5s-2.91,6.5-6.5,6.5c-2.002,0-3.631,1.629-3.631,3.631s1.629,3.631,3.631,3.631
	c1.483,0,2.804-0.887,3.365-2.259c1.358-3.323,5.152-4.917,8.476-3.559C235.466,106.481,237.06,110.275,235.702,113.599z
	 M152.594,326.536c-25.53,0-46.3,20.77-46.3,46.3c0,25.53,20.77,46.3,46.3,46.3c25.53,0,46.3-20.77,46.3-46.3
	C198.894,347.306,178.124,326.536,152.594,326.536z M152.594,406.136c-18.362,0-33.3-14.938-33.3-33.3
	c0-18.362,14.938-33.3,33.3-33.3c18.361,0,33.3,14.938,33.3,33.3C185.894,391.198,170.956,406.136,152.594,406.136z"/>
<g>
</g>
<g>
</g>
<g>
</g>
<g>
</g>
<g>
</g>
<g>
</g>
<g>
</g>
<g>
</g>
<g>
</g>
<g>
</g>
<g>
</g>
<g>
</g>
<g>
</g>
<g>
</g>
<g>
</g>
</svg>
