<?xml version="1.0" encoding="iso-8859-1"?>
<!-- Generator: Adobe Illustrator 17.1.0, SVG Export Plug-In . SVG Version: 6.00 Build 0)  -->
<!DOCTYPE svg PUBLIC "-//W3C//DTD SVG 1.1//EN" "http://www.w3.org/Graphics/SVG/1.1/DTD/svg11.dtd">
<svg version="1.1" id="Capa_1" xmlns="http://www.w3.org/2000/svg" xmlns:xlink="http://www.w3.org/1999/xlink" x="0px" y="0px"
	 viewBox="0 0 456.739 456.739" style="enable-background:new 0 0 456.739 456.739;" xml:space="preserve">
<path d="M158.645,324.572c-30.847,0-55.942,25.095-55.942,55.942c0,30.839,25.096,55.929,55.942,55.929
	c30.839,0,55.929-25.089,55.929-55.929C214.573,349.667,189.484,324.572,158.645,324.572z M158.645,423.442
	c-23.679,0-42.942-19.258-42.942-42.929c0-23.678,19.264-42.942,42.942-42.942c23.671,0,42.929,19.264,42.929,42.942
	C201.573,404.185,182.315,423.442,158.645,423.442z M297.048,304.288h-31.265c-3.144,0-5.675-2.557-5.675-4.674V89.618
	c0-59.506-26.002-86.57-27.109-87.693c-0.062-0.062-0.132-0.111-0.196-0.171c-0.123-0.115-0.249-0.227-0.381-0.333
	c-0.121-0.097-0.245-0.188-0.372-0.275c-0.131-0.09-0.264-0.176-0.402-0.257c-0.141-0.082-0.284-0.158-0.43-0.229
	c-0.073-0.036-0.139-0.081-0.214-0.114c-0.069-0.03-0.14-0.047-0.21-0.075c-0.15-0.06-0.3-0.114-0.454-0.163
	c-0.152-0.049-0.304-0.092-0.459-0.129c-0.148-0.036-0.296-0.065-0.447-0.09c-0.162-0.027-0.323-0.048-0.486-0.063
	c-0.148-0.013-0.295-0.021-0.444-0.024c-0.166-0.003-0.33-0.001-0.495,0.008c-0.147,0.008-0.293,0.021-0.44,0.039
	c-0.167,0.021-0.332,0.049-0.497,0.083c-0.142,0.029-0.282,0.061-0.422,0.099c-0.17,0.047-0.336,0.103-0.502,0.163
	c-0.081,0.03-0.164,0.047-0.245,0.079c-0.052,0.021-0.099,0.052-0.15,0.075c-0.161,0.071-0.316,0.152-0.472,0.236
	c-0.129,0.07-0.257,0.138-0.38,0.216c-0.138,0.087-0.27,0.185-0.402,0.283c-0.127,0.094-0.253,0.188-0.372,0.291
	c-0.04,0.034-0.084,0.061-0.123,0.096c-1.118,1.013-27.387,25.528-27.387,87.947v73.722v135.273c0,3.129-2.546,5.675-5.675,5.675
	h-31.265c-42.47,0-77.129,34.076-77.261,75.96c-0.071,20.458,7.854,39.69,22.314,54.155c14.406,14.411,33.544,22.337,53.917,22.337
	c0.083,0,0.166,0,0.248,0c30.971-0.107,57.655-19.089,69.472-46.13c11.815,27.041,38.495,46.023,69.462,46.13
	c0.083,0,0.164,0,0.248,0c20.366,0,39.505-7.926,53.912-22.332c14.464-14.464,22.395-33.698,22.331-54.161
	C374.176,338.363,339.512,304.288,297.048,304.288z M234.868,28.873c5.544,11.839,11.253,29.744,12.125,54.245h-12.129
	L234.868,28.873z M158.855,443.739c-0.069,0-0.136,0-0.206,0c-16.897,0-32.774-6.576-44.723-18.528
	c-11.994-11.998-18.567-27.95-18.508-44.921c0.109-34.74,28.937-63.003,64.261-63.003h31.265c10.297,0,18.675-8.377,18.675-18.675
	V181.688l12.251,15.122v182.668C221.87,414.792,193.6,443.618,158.855,443.739z M342.798,425.215
	c-11.951,11.95-27.825,18.524-44.718,18.524c-0.068,0-0.137,0-0.206,0c-34.741-0.12-63.005-28.947-63.005-64.26V194.507v0
	c0-1.49-0.512-2.934-1.45-4.092l-14.336-17.695l-9.465-11.683V89.618c0-29.307,6.249-49.31,12.249-61.762l-0.004,61.761
	c0,1.724,0.685,3.377,1.904,4.597c1.219,1.219,2.872,1.904,4.596,1.904h18.745v203.496c0,9.581,8.552,17.674,18.675,17.674h31.265
	c35.32,0,64.152,28.264,64.273,63.002C361.375,397.263,354.796,413.217,342.798,425.215z M243.768,151.736
	c-2.568,6.282-8.612,10.341-15.398,10.341c-9.17,0-16.631-7.46-16.631-16.631s7.46-16.631,16.631-16.631c3.59,0,6.5,2.91,6.5,6.5
	s-2.91,6.5-6.5,6.5c-2.002,0-3.631,1.629-3.631,3.631c0,2.002,1.629,3.631,3.631,3.631c1.483,0,2.804-0.887,3.365-2.26
	c1.358-3.323,5.154-4.915,8.476-3.557C243.534,144.619,245.126,148.414,243.768,151.736z M297.898,324.572
	c-30.847,0-55.942,25.095-55.942,55.942c0,30.839,25.096,55.929,55.942,55.929c30.839,0,55.929-25.089,55.929-55.929
	C353.827,349.667,328.737,324.572,297.898,324.572z M297.898,423.442c-23.679,0-42.942-19.258-42.942-42.929
	c0-23.678,19.264-42.942,42.942-42.942c23.671,0,42.929,19.264,42.929,42.942C340.827,404.185,321.569,423.442,297.898,423.442z"/>
<g>
</g>
<g>
</g>
<g>
</g>
<g>
</g>
<g>
</g>
<g>
</g>
<g>
</g>
<g>
</g>
<g>
</g>
<g>
</g>
<g>
</g>
<g>
</g>
<g>
</g>
<g>
</g>
<g>
</g>
</svg>
