<?xml version="1.0" encoding="iso-8859-1"?>
<!-- Generator: Adobe Illustrator 17.1.0, SVG Export Plug-In . SVG Version: 6.00 Build 0)  -->
<!DOCTYPE svg PUBLIC "-//W3C//DTD SVG 1.1//EN" "http://www.w3.org/Graphics/SVG/1.1/DTD/svg11.dtd">
<svg version="1.1" id="Capa_1" xmlns="http://www.w3.org/2000/svg" xmlns:xlink="http://www.w3.org/1999/xlink" x="0px" y="0px"
	 viewBox="0 0 454.404 454.404" style="enable-background:new 0 0 454.404 454.404;" xml:space="preserve">
<path d="M402.009,68.462l-50.83-12.706L338.47,4.923C337.748,2.03,335.147,0,332.165,0s-5.583,2.03-6.306,4.924l-10.065,40.265
	c-11.419-5.771-23.993-8.756-36.914-8.705l-1.049,0.005c-17.821,0.078-34.245,9.443-43.936,25.05
	c-6.436,10.364-17.55,16.552-29.731,16.552s-23.296-6.188-29.731-16.552c-9.691-15.607-26.116-24.972-43.935-25.05l-1.054-0.005
	c-0.123,0-0.244-0.001-0.368-0.001c-43.873,0-80.433,35.553-81.577,79.422c-0.236,9.036,0.995,17.949,3.675,26.538l28.987,90.604
	c0.023,35.458,7.548,89.386,24.163,125.252l37.25,80.404c3.207,9.32,11.734,15.611,21.348,15.7
	c6.113,0.062,11.833-2.274,16.16-6.561c4.328-4.288,6.712-10.005,6.712-16.097c0-0.603-0.084-1.203-0.249-1.783
	c-7.377-25.865-22.161-98.769-2.251-125.151c4.956-6.567,11.783-9.76,20.87-9.76c8.862,0,15.544,3.127,20.427,9.561
	c19.852,26.155,5.439,99.052-1.788,124.933c-0.159,0.569-0.24,1.158-0.24,1.75c0,11.757,9.322,22.089,20.78,23.031
	c0.638,0.052,1.271,0.078,1.901,0.078c9.637,0,18.219-6.052,21.396-15.262l37.426-80.902c16.575-35.831,24.081-89.72,24.102-125.194
	l29.002-90.649c2.664-8.543,3.896-17.456,3.66-26.491c-0.21-8.06-1.602-15.935-4.134-23.503l45.313-11.329
	c2.894-0.723,4.924-3.323,4.924-6.306C406.932,71.785,404.902,69.185,402.009,68.462z M344.569,82.033
	c-2.416,0.473-4.432,2.301-5.057,4.804l-7.349,29.397l-2.48-9.922c-0.87-3.482-4.403-5.6-7.882-4.729
	c-3.483,0.871-5.601,4.4-4.729,7.882l8.787,35.146c0.724,2.894,3.323,4.923,6.306,4.923s5.583-2.03,6.306-4.924l8.824-35.301
	c0.294,2.29,0.478,4.602,0.539,6.933c0.198,7.607-0.836,15.104-3.06,22.237l-29.298,91.573c-0.208,0.647-0.312,1.4-0.31,2.08
	c0.118,34.011-6.998,86.273-22.899,120.647l-37.575,81.225c-0.108,0.234-0.203,0.475-0.282,0.721c-1.391,4.28-5.5,7.011-10,6.642
	c-4.473-0.368-8.423-4.627-8.814-9.316c2.985-11.03,25.98-100.204-0.645-135.296c-7.404-9.759-17.763-14.707-30.786-14.707
	c-13.258,0-23.771,5.023-31.247,14.929c-26.667,35.336-3.209,124.479-0.154,135.546c-0.183,2.302-1.171,4.437-2.83,6.081
	c-1.844,1.827-4.28,2.813-6.89,2.797c-4.091-0.038-7.89-2.964-9.238-7.115c-0.08-0.247-0.175-0.489-0.284-0.724l-37.401-80.73
	c-14.568-31.447-21.777-77.834-22.821-111.577c17.797,5.828,60.005,17.588,110.866,17.588c25.257,0,51.559-2.982,78.174-8.864
	c3.506-0.775,5.719-4.244,4.944-7.75c-0.774-3.505-4.246-5.72-7.749-4.944c-3.189,0.705-6.373,1.366-9.55,1.984l14.176-35.972
	c1.316-3.34-0.324-7.115-3.664-8.431s-7.113,0.324-8.43,3.664l-17.08,43.341c-17.275,2.637-34.289,3.971-50.821,3.971
	c-18.656,0-36.227-1.693-51.76-4.088l-17.034-43.224c-1.316-3.34-5.092-4.98-8.43-3.664c-3.34,1.316-4.98,5.091-3.664,8.431
	l14.119,35.826c-22.67-4.453-39.178-9.869-45.513-12.103L63.57,138.526c-2.239-7.178-3.273-14.675-3.074-22.282
	c0.964-36.98,31.91-66.931,68.887-66.76l1.058,0.005c13.316,0.059,25.634,7.127,32.948,18.907
	c8.824,14.211,24.067,22.695,40.776,22.695s31.952-8.484,40.776-22.695c7.313-11.781,19.631-18.849,32.949-18.907l1.053-0.005
	c0.104,0,0.206-0.001,0.311-0.001c10.581,0,20.933,2.459,30.357,7.157l-47.29,11.823c-2.894,0.723-4.924,3.323-4.924,6.306
	c0,2.983,2.03,5.583,4.924,6.306l41.208,10.301c3.485,0.871,7.012-1.248,7.882-4.73c0.871-3.483-1.247-7.012-4.729-7.882
	l-15.981-3.995l29.063-7.266c2.426-0.475,4.434-2.312,5.056-4.803l7.348-29.396l7.266,29.061c0.473,2.416,2.301,4.432,4.804,5.057
	l29.396,7.348L344.569,82.033z"/>
<g>
</g>
<g>
</g>
<g>
</g>
<g>
</g>
<g>
</g>
<g>
</g>
<g>
</g>
<g>
</g>
<g>
</g>
<g>
</g>
<g>
</g>
<g>
</g>
<g>
</g>
<g>
</g>
<g>
</g>
</svg>
