<?xml version="1.0" encoding="iso-8859-1"?>
<!-- Generator: Adobe Illustrator 17.1.0, SVG Export Plug-In . SVG Version: 6.00 Build 0)  -->
<!DOCTYPE svg PUBLIC "-//W3C//DTD SVG 1.1//EN" "http://www.w3.org/Graphics/SVG/1.1/DTD/svg11.dtd">
<svg version="1.1" id="Capa_1" xmlns="http://www.w3.org/2000/svg" xmlns:xlink="http://www.w3.org/1999/xlink" x="0px" y="0px"
	 viewBox="0 0 427.167 427.167" style="enable-background:new 0 0 427.167 427.167;" xml:space="preserve">
<path d="M254.211,207.047c-0.151-3.477-3.014-6.218-6.494-6.218h-2.034v-27.634c0-3.59-2.91-6.5-6.5-6.5h-10.566v-19.11
	c0-1.009-0.235-2.004-0.687-2.907l-7.847-15.694V41.688c5.208-2.452,8.831-7.737,8.831-13.865V15.332
	C228.914,6.878,222.036,0,213.583,0c-8.454,0-15.332,6.878-15.332,15.332v12.492c0,6.128,3.623,11.413,8.832,13.865v87.295
	l-7.847,15.694c-0.451,0.902-0.686,1.897-0.686,2.907v19.111h-10.567c-3.59,0-6.5,2.91-6.5,6.5v27.634h-2.033
	c-3.48,0-6.343,2.741-6.494,6.218l-8.533,196.26c-0.048,1.103,0.186,2.2,0.679,3.188c0.422,0.844,10.763,20.672,48.481,20.672
	c37.719,0,48.06-19.828,48.481-20.672c0.493-0.987,0.728-2.084,0.68-3.188L254.211,207.047z M211.252,15.332
	c0-1.286,1.046-2.332,2.332-2.332c1.285,0,2.331,1.046,2.331,2.332v12.492c0,1.285-1.046,2.331-2.331,2.331
	c-1.286,0-2.332-1.046-2.332-2.331V15.332z M211.55,149.119l2.033-4.066l2.033,4.067v17.576h-4.066V149.119z M194.483,179.696
	h10.567h17.066h10.566v21.129h-38.2V179.696z M213.583,414.167c-24.205,0-33.478-9.039-36.082-12.387l0.183-4.201h43.904
	c3.59,0,6.5-2.91,6.5-6.5s-2.91-6.5-6.5-6.5h-43.339l7.424-170.75h55.82l8.172,187.951
	C247.063,405.128,237.79,414.167,213.583,414.167z M232.963,238.756c2.694,6.465,4.005,15.178,4.005,26.638c0,3.59-2.91,6.5-6.5,6.5
	s-6.5-2.91-6.5-6.5c0-18.336-3.494-27.634-10.385-27.634c-9.636,0-10.385,21.151-10.385,27.634c0,3.59-2.91,6.5-6.5,6.5
	s-6.5-2.91-6.5-6.5c0-35.355,14.651-40.634,23.385-40.634C219.762,224.76,228.14,227.188,232.963,238.756z"/>
<g>
</g>
<g>
</g>
<g>
</g>
<g>
</g>
<g>
</g>
<g>
</g>
<g>
</g>
<g>
</g>
<g>
</g>
<g>
</g>
<g>
</g>
<g>
</g>
<g>
</g>
<g>
</g>
<g>
</g>
</svg>
