<?xml version="1.0" encoding="iso-8859-1"?>
<!-- Generator: Adobe Illustrator 17.1.0, SVG Export Plug-In . SVG Version: 6.00 Build 0)  -->
<!DOCTYPE svg PUBLIC "-//W3C//DTD SVG 1.1//EN" "http://www.w3.org/Graphics/SVG/1.1/DTD/svg11.dtd">
<svg version="1.1" id="Capa_1" xmlns="http://www.w3.org/2000/svg" xmlns:xlink="http://www.w3.org/1999/xlink" x="0px" y="0px"
	 viewBox="0 0 408.137 408.137" style="enable-background:new 0 0 408.137 408.137;" xml:space="preserve">
<path d="M407.428,96.52c-0.278-3.372-3.096-5.966-6.479-5.966s-6.2,2.594-6.478,5.966c-8.103,98.21-91.737,175.142-190.403,175.142
	c-94.514,0-157.331-67.058-163.938-175.005c-0.21-3.429-3.052-6.103-6.488-6.103H7.188c-3.383,0-6.2,2.594-6.478,5.966
	C0.239,102.232,0,107.949,0,113.515c0,112.523,91.545,204.068,204.069,204.068c112.523,0,204.068-91.545,204.068-204.068
	C408.137,107.952,407.899,102.234,407.428,96.52z M204.069,304.583C98.713,304.583,13,218.87,13,113.515
	c0-3.274,0.088-6.606,0.264-9.961H27.59c4.45,54.677,23.236,100.291,54.519,132.212c31.348,31.988,73.521,48.896,121.959,48.896
	c0.679,0,1.355-0.017,2.033-0.024v8.764c0,3.59,2.91,6.5,6.5,6.5s6.5-2.91,6.5-6.5v-9.295c46.016-3.367,89.411-22.132,123.523-53.7
	c17.327-16.035,31.557-34.698,42.274-55.144C359.167,250.409,287.825,304.583,204.069,304.583z M29.781,136.616
	c0.387,3.569-2.193,6.775-5.762,7.163c-0.238,0.025-0.474,0.038-0.708,0.038c-3.276,0-6.093-2.469-6.455-5.8l-1.899-17.526
	c-0.387-3.569,2.193-6.775,5.762-7.163c3.569-0.382,6.775,2.193,7.163,5.762L29.781,136.616z"/>
<g>
</g>
<g>
</g>
<g>
</g>
<g>
</g>
<g>
</g>
<g>
</g>
<g>
</g>
<g>
</g>
<g>
</g>
<g>
</g>
<g>
</g>
<g>
</g>
<g>
</g>
<g>
</g>
<g>
</g>
</svg>
