<?xml version="1.0" encoding="iso-8859-1"?>
<!-- Generator: Adobe Illustrator 17.1.0, SVG Export Plug-In . SVG Version: 6.00 Build 0)  -->
<!DOCTYPE svg PUBLIC "-//W3C//DTD SVG 1.1//EN" "http://www.w3.org/Graphics/SVG/1.1/DTD/svg11.dtd">
<svg version="1.1" id="Capa_1" xmlns="http://www.w3.org/2000/svg" xmlns:xlink="http://www.w3.org/1999/xlink" x="0px" y="0px"
	 viewBox="0 0 465.979 465.979" style="enable-background:new 0 0 465.979 465.979;" xml:space="preserve">
<path d="M292.943,353.238c-25.53,0-46.3,20.771-46.3,46.301s20.77,46.3,46.3,46.3s46.3-20.77,46.3-46.3
	S318.472,353.238,292.943,353.238z M292.943,432.838c-18.362,0-33.3-14.938-33.3-33.3c0-18.362,14.938-33.301,33.3-33.301
	s33.3,14.938,33.3,33.301C326.242,417.9,311.304,432.838,292.943,432.838z M236.319,143.638c-9.17,0-16.631-7.461-16.631-16.631
	s7.46-16.631,16.631-16.631c3.59,0,6.5,2.91,6.5,6.5s-2.91,6.5-6.5,6.5c-2.002,0-3.631,1.629-3.631,3.631s1.629,3.631,3.631,3.631
	c1.483,0,2.804-0.887,3.365-2.26c1.357-3.323,5.153-4.915,8.476-3.558c3.323,1.358,4.916,5.152,3.558,8.476
	C249.15,139.578,243.106,143.638,236.319,143.638z M173.036,353.238c-25.53,0-46.3,20.771-46.3,46.301s20.77,46.3,46.3,46.3
	s46.3-20.77,46.3-46.3S198.566,353.238,173.036,353.238z M173.036,432.838c-18.362,0-33.3-14.938-33.3-33.3
	c0-18.362,14.938-33.301,33.3-33.301s33.3,14.938,33.3,33.301C206.336,417.9,191.398,432.838,173.036,432.838z M340.995,353.656
	c-12.661-13.257-29.727-20.558-48.053-20.558h-24.877V144.171c0-0.021,0-0.041,0-0.062V6.5c0-2.567-1.511-4.894-3.856-5.938
	c-2.346-1.044-5.086-0.609-6.993,1.108c-0.655,0.59-16.218,14.725-31.894,39.318c-14.498,22.746-31.781,59.106-31.781,103.154
	v188.956h-20.504c-18.326,0-35.392,7.301-48.053,20.558c-12.655,13.251-19.159,30.656-18.314,49.012
	c1.56,33.9,29.336,61.677,63.237,63.237c1.06,0.049,2.116,0.073,3.168,0.073c17.182-0.001,33.358-6.464,45.843-18.388
	c5.923-5.656,10.647-12.196,14.072-19.33c3.425,7.134,8.149,13.673,14.071,19.33c12.486,11.925,28.66,18.388,45.843,18.388
	c1.052,0,2.11-0.024,3.169-0.073c33.901-1.561,61.678-29.337,63.237-63.237C360.154,384.313,353.65,366.907,340.995,353.656z
	 M209.939,438.19c-10.657,10.179-24.657,15.404-39.435,14.729c-27.259-1.254-49.595-23.59-50.849-50.849
	c-0.68-14.773,4.551-28.778,14.729-39.435c10.185-10.664,23.911-16.537,38.651-16.537h27.004c3.59,0,6.5-2.91,6.5-6.5V144.143
	c0-57.18,31.391-101.428,48.524-121.317v118.383l-26.82,23.654c-1.402,1.237-2.205,3.018-2.201,4.888l0.458,229.267
	c-0.014,0.172-0.026,0.345-0.026,0.521C226.476,414.279,220.603,428.005,209.939,438.19z M346.323,402.071
	c-1.254,27.259-23.589,49.595-50.849,50.849c-14.768,0.673-28.778-4.551-39.435-14.729c-10.664-10.185-16.537-23.911-16.537-38.664
	l-0.453-226.859l16.015-14.124v181.057c0,3.59,2.91,6.5,6.5,6.5h31.377c14.74,0,28.467,5.873,38.651,16.537
	C341.772,373.292,347.003,387.297,346.323,402.071z M224.187,103.836c-3.59,0-6.5-2.91-6.5-6.5s2.91-6.5,6.5-6.5h21.514
	c3.59,0,6.5,2.91,6.5,6.5s-2.91,6.5-6.5,6.5H224.187z"/>
<g>
</g>
<g>
</g>
<g>
</g>
<g>
</g>
<g>
</g>
<g>
</g>
<g>
</g>
<g>
</g>
<g>
</g>
<g>
</g>
<g>
</g>
<g>
</g>
<g>
</g>
<g>
</g>
<g>
</g>
</svg>
