<?xml version="1.0" encoding="iso-8859-1"?>
<!-- Generator: Adobe Illustrator 17.1.0, SVG Export Plug-In . SVG Version: 6.00 Build 0)  -->
<!DOCTYPE svg PUBLIC "-//W3C//DTD SVG 1.1//EN" "http://www.w3.org/Graphics/SVG/1.1/DTD/svg11.dtd">
<svg version="1.1" id="Capa_1" xmlns="http://www.w3.org/2000/svg" xmlns:xlink="http://www.w3.org/1999/xlink" x="0px" y="0px"
	 viewBox="0 0 432.836 432.836" style="enable-background:new 0 0 432.836 432.836;" xml:space="preserve">
<path d="M393.277,52.929L218.486,0.301c-0.016-0.005-0.031-0.009-0.047-0.014l-0.036-0.011c-0.014-0.004-0.03-0.006-0.044-0.01
	c-0.252-0.074-0.512-0.13-0.776-0.173c-0.067-0.011-0.133-0.022-0.199-0.031c-0.277-0.036-0.557-0.062-0.843-0.062
	c-0.002,0-0.005,0-0.007,0c-0.001,0-0.003,0-0.004,0c-0.287,0-0.567,0.025-0.844,0.061c-0.067,0.009-0.133,0.02-0.199,0.03
	c-0.263,0.043-0.522,0.098-0.774,0.171c-0.015,0.004-0.03,0.006-0.045,0.01l-0.038,0.011c-0.017,0.005-0.034,0.01-0.051,0.015
	L39.693,52.586c-2.75,0.822-4.635,3.351-4.638,6.221l-0.122,129.724c-0.083,87.902,47.372,169.431,123.846,212.772l54.148,30.688
	c0.011,0.006,0.022,0.01,0.033,0.016c0.228,0.128,0.464,0.242,0.707,0.342c0.035,0.014,0.07,0.025,0.105,0.039
	c0.203,0.079,0.411,0.148,0.623,0.207c0.066,0.018,0.132,0.035,0.199,0.051c0.189,0.046,0.381,0.083,0.576,0.112
	c0.065,0.01,0.13,0.022,0.195,0.03c0.25,0.03,0.503,0.049,0.761,0.049c0.002,0,0.004,0,0.006,0c0.258,0,0.512-0.019,0.762-0.048
	c0.067-0.008,0.132-0.021,0.199-0.03c0.193-0.029,0.384-0.065,0.571-0.111c0.067-0.016,0.133-0.033,0.199-0.051
	c0.211-0.058,0.417-0.126,0.618-0.204c0.036-0.014,0.072-0.025,0.108-0.04c0.243-0.099,0.478-0.212,0.704-0.339
	c0.011-0.006,0.022-0.01,0.033-0.016l54.207-30.586c76.556-43.197,124.164-124.637,124.247-212.538l0.122-129.713
	C397.906,56.289,396.025,53.757,393.277,52.929z M47.933,188.543L48.05,63.656l161.97-48.426l-0.017,18.53L70.419,75.493
	c-2.75,0.822-4.635,3.351-4.638,6.221L65.681,188.56c-0.072,76.838,41.41,148.106,108.26,185.992l35.721,20.245l-0.019,20.39
	l-44.454-25.194C92.784,348.958,47.854,271.768,47.933,188.543z M384.781,188.86c-0.079,83.224-45.154,160.331-117.636,201.229
	l-44.502,25.11l0.019-20.39l35.761-20.178c66.92-37.761,108.537-108.95,108.609-185.787l0.031-33.03
	c0.003-3.59-2.904-6.503-6.494-6.506c-0.002,0-0.004,0-0.006,0c-3.587,0-6.497,2.906-6.5,6.494l-0.031,33.03
	c-0.068,72.16-39.151,139.016-101.998,174.478l-35.862,20.235l-35.821-20.302c-62.78-35.58-101.738-102.509-101.67-174.669
	l0.096-102.01l137.714-41.174L354.128,86.83l-0.024,25.647c-0.004,3.59,2.904,6.503,6.494,6.506c0.002,0,0.004,0,0.006,0
	c3.587,0,6.496-2.906,6.5-6.494l0.029-30.483c0.003-2.871-1.878-5.403-4.626-6.23L223.003,33.773l0.017-18.53l161.877,48.74
	L384.781,188.86z M263.14,83.972c-0.063,0-0.127,0-0.19,0l-0.662,0.002c-11.939,0.041-22.942,6.292-29.432,16.72
	c-3.557,5.715-9.688,9.125-16.406,9.125c-0.006,0-0.013,0-0.019,0c-6.726-0.006-12.859-3.429-16.407-9.156
	c-6.47-10.441-17.461-16.712-29.394-16.776l-0.662-0.004c-0.098,0-0.191,0-0.289,0c-28.598,0-52.445,23.163-53.22,51.766
	c-0.158,5.893,0.64,11.707,2.387,17.328l17.87,56.036c0.049,22.333,4.775,56.07,15.189,78.605l23.083,49.947
	c2.359,6.717,8.548,11.247,15.529,11.317c0.059,0.001,0.116,0.001,0.174,0.001c4.388,0,8.516-1.695,11.639-4.784
	c3.165-3.13,4.91-7.305,4.914-11.756c0.001-0.602-0.083-1.202-0.247-1.781c-4.477-15.784-13.513-60.16-1.729-75.736
	c2.624-3.468,6.122-5.083,11.009-5.083c0.007,0,0.015,0,0.021,0c4.759,0.004,8.175,1.589,10.75,4.988
	c11.729,15.48,2.828,59.822-1.592,75.601c-0.159,0.569-0.24,1.158-0.241,1.749c-0.008,8.563,6.797,16.097,15.17,16.794
	c0.471,0.039,0.938,0.059,1.404,0.059c6.991,0,13.224-4.362,15.582-11.016l23.287-50.214c10.433-22.495,15.211-56.2,15.299-78.539
	l17.991-56.048c1.742-5.572,2.551-11.385,2.403-17.278C315.633,107.199,291.778,83.972,263.14,83.972z M301.556,149.188
	l-18.286,56.969c-0.207,0.647-0.313,1.37-0.311,2.05c0.053,20.902-4.335,52.983-14.093,74.025l-23.431,50.524
	c-0.109,0.235-0.204,0.476-0.284,0.721c-0.514,1.576-2.028,2.574-3.688,2.441c-1.446-0.121-2.868-1.608-3.184-3.188
	c2.765-10.202,16.072-63.479-0.865-85.845c-5.019-6.627-12.316-10.135-21.104-10.143c-0.011,0-0.021,0-0.031,0
	c-8.92,0-16.313,3.543-21.383,10.246c-17.009,22.494-3.517,75.804-0.716,86.012c-0.133,0.7-0.474,1.343-0.992,1.855
	c-0.68,0.672-1.6,1.017-2.539,1.027c-1.505-0.016-2.916-1.14-3.433-2.734c-0.079-0.247-0.174-0.489-0.283-0.725l-23.228-50.26
	c-8.419-18.218-12.799-44.67-13.776-65.024c12.652,3.886,37.273,10.044,66.39,10.072c0.063,0,0.125,0,0.189,0
	c15.837,0,32.321-1.859,48.993-5.527c3.506-0.771,5.723-4.239,4.952-7.745c-0.771-3.505-4.231-5.725-7.745-4.952
	c-0.489,0.107-0.976,0.198-1.464,0.303l7.173-18.151c1.319-3.338-0.317-7.114-3.656-8.434c-3.338-1.32-7.113,0.317-8.434,3.656
	L246.2,211.996c-10.088,1.465-20.025,2.217-29.69,2.217c-0.059,0-0.119,0-0.178,0c-10.921-0.01-21.236-0.964-30.442-2.334
	l-10.057-25.592c-1.314-3.341-5.084-4.985-8.428-3.672c-3.341,1.313-4.984,5.086-3.672,8.427l7.104,18.077
	c-10.552-2.299-18.447-4.791-22.403-6.146l-17.189-53.899c-1.309-4.21-1.91-8.609-1.79-13.073
	c0.584-21.615,18.606-39.117,40.213-39.117c0.073,0,0.146,0,0.219,0.001l0.667,0.004c7.436,0.04,14.321,4.011,18.419,10.623
	c5.933,9.575,16.192,15.298,27.446,15.309c0.011,0,0.02,0,0.03,0c11.24,0,21.498-5.702,27.443-15.257
	c4.11-6.604,11.003-10.563,18.498-10.589l0.598-0.002c0.049,0,0.095,0,0.144,0c21.649,0,39.681,17.553,40.225,39.192
	C303.469,140.628,302.858,145.026,301.556,149.188z"/>
<g>
</g>
<g>
</g>
<g>
</g>
<g>
</g>
<g>
</g>
<g>
</g>
<g>
</g>
<g>
</g>
<g>
</g>
<g>
</g>
<g>
</g>
<g>
</g>
<g>
</g>
<g>
</g>
<g>
</g>
</svg>
