<?xml version="1.0" encoding="iso-8859-1"?>
<!-- Generator: Adobe Illustrator 17.1.0, SVG Export Plug-In . SVG Version: 6.00 Build 0)  -->
<!DOCTYPE svg PUBLIC "-//W3C//DTD SVG 1.1//EN" "http://www.w3.org/Graphics/SVG/1.1/DTD/svg11.dtd">
<svg version="1.1" id="Capa_1" xmlns="http://www.w3.org/2000/svg" xmlns:xlink="http://www.w3.org/1999/xlink" x="0px" y="0px"
	 viewBox="0 0 465.275 465.275" style="enable-background:new 0 0 465.275 465.275;" xml:space="preserve">
<path d="M247.671,200.02v-19.615c0-1.229-0.347-2.373-0.939-3.353c0.597-1.618,0.939-3.358,0.939-5.18v-83.33L260.359,35.7
	c2.203-8.614,0.344-17.582-5.104-24.612C249.796,4.041,241.552,0,232.638,0s-17.158,4.041-22.618,11.088
	c-5.447,7.03-7.307,15.998-5.104,24.612l12.688,52.841v83.33c0,1.823,0.342,3.563,0.939,5.18c-0.592,0.98-0.939,2.124-0.939,3.353
	v19.615c-10.143,5.4-17.066,16.08-17.066,28.351v204.806c0,17.7,14.399,32.1,32.1,32.1s32.1-14.399,32.1-32.1V228.37
	C264.737,216.099,257.814,205.42,247.671,200.02z M217.545,32.616c-0.009-0.035-0.018-0.07-0.026-0.105
	c-1.214-4.709-0.202-9.615,2.777-13.461c2.979-3.845,7.478-6.05,12.342-6.05s9.362,2.205,12.342,6.05
	c2.979,3.846,3.991,8.752,2.777,13.461c-0.009,0.035-0.018,0.07-0.026,0.105l-12.88,53.638c-0.119,0.497-0.18,1.007-0.18,1.518v84.1
	c0,1.121-0.912,2.033-2.033,2.033s-2.033-0.912-2.033-2.033v-84.1c0-0.511-0.061-1.021-0.18-1.518L217.545,32.616z M230.604,186.904
	h4.066v9.438c-0.673-0.042-1.35-0.071-2.033-0.071s-1.36,0.029-2.033,0.071V186.904z M251.737,433.176
	c0,10.531-8.568,19.1-19.1,19.1s-19.1-8.568-19.1-19.1V228.37c0-8.065,5.033-14.964,12.118-17.76
	c0.465-0.114,0.909-0.277,1.328-0.485c1.788-0.555,3.686-0.855,5.654-0.855s3.866,0.3,5.654,0.855
	c0.419,0.208,0.863,0.371,1.328,0.485c7.084,2.795,12.118,9.694,12.118,17.76V433.176z M247.671,305.167V316.7
	c0,3.59-2.91,6.5-6.5,6.5s-6.5-2.91-6.5-6.5v-11.533c0-1.121-0.912-2.033-2.033-2.033s-2.033,0.912-2.033,2.033v119.47
	c0,1.121,0.912,2.033,2.033,2.033s2.033-0.912,2.033-2.033v-85.33c0-3.59,2.91-6.5,6.5-6.5s6.5,2.91,6.5,6.5v85.33
	c0,8.289-6.744,15.033-15.033,15.033s-15.033-6.744-15.033-15.033v-119.47c0-8.289,6.744-15.033,15.033-15.033
	S247.671,296.878,247.671,305.167z M249.173,235.205c0,3.59-2.91,6.5-6.5,6.5s-6.5-2.91-6.5-6.5c0-1.949-1.586-3.535-3.535-3.535
	s-3.535,1.586-3.535,3.535c0,3.59-2.91,6.5-6.5,6.5s-6.5-2.91-6.5-6.5c0-9.117,7.418-16.535,16.535-16.535
	S249.173,226.088,249.173,235.205z"/>
<g>
</g>
<g>
</g>
<g>
</g>
<g>
</g>
<g>
</g>
<g>
</g>
<g>
</g>
<g>
</g>
<g>
</g>
<g>
</g>
<g>
</g>
<g>
</g>
<g>
</g>
<g>
</g>
<g>
</g>
</svg>
