<?xml version="1.0" encoding="iso-8859-1"?>
<!-- Generator: Adobe Illustrator 17.1.0, SVG Export Plug-In . SVG Version: 6.00 Build 0)  -->
<!DOCTYPE svg PUBLIC "-//W3C//DTD SVG 1.1//EN" "http://www.w3.org/Graphics/SVG/1.1/DTD/svg11.dtd">
<svg version="1.1" id="Capa_1" xmlns="http://www.w3.org/2000/svg" xmlns:xlink="http://www.w3.org/1999/xlink" x="0px" y="0px"
	 viewBox="0 0 436.365 436.365" style="enable-background:new 0 0 436.365 436.365;" xml:space="preserve">
<path d="M240.318,122.627c-0.191-6.156-0.964-33.407,0.01-42.858c1.112-10.797,2.967-22.163,4.458-31.296
	c1.488-9.121,2.563-15.711,2.563-19.306C247.35,13.084,234.266,0,218.183,0s-29.167,13.084-29.167,29.167
	c0,3.464,0.999,9.68,2.381,18.283c1.411,8.778,3.167,19.704,4.223,30.269c1.064,10.648,0.078,42.794-0.02,45.913l-6.021,13.51
	c-0.371,0.833-0.563,1.734-0.563,2.646v156.799c0,0.912,0.192,1.814,0.563,2.647l6.468,14.504c0.191,6.156,0.964,33.407-0.01,42.858
	c-1.112,10.797-2.967,22.163-4.458,31.296c-1.488,9.121-2.563,15.711-2.563,19.306c0,16.083,13.084,29.167,29.167,29.167
	s29.167-13.084,29.167-29.167c0-3.464-0.999-9.68-2.381-18.283c-1.411-8.778-3.167-19.704-4.223-30.269
	c-1.064-10.648-0.078-42.794,0.02-45.913l6.021-13.51c0.371-0.833,0.563-1.734,0.563-2.646V139.778c0-0.912-0.192-1.814-0.563-2.647
	L240.318,122.627z M218.183,423.365c-8.914,0-16.167-7.253-16.167-16.167c0-2.541,1.163-9.667,2.395-17.212
	c1.518-9.302,3.407-20.878,4.559-32.058c1.167-11.325,0.113-43.45,0.034-45.785c0-0.017-0.001-0.034-0.002-0.05
	s-0.001-0.049-0.002-0.061c-0.001-0.045-0.009-0.089-0.011-0.134c-0.009-0.161-0.02-0.322-0.041-0.483
	c-0.012-0.093-0.031-0.183-0.047-0.274c-0.02-0.113-0.037-0.227-0.063-0.339c-0.035-0.153-0.078-0.302-0.124-0.45
	c-0.015-0.049-0.027-0.098-0.043-0.147c-0.084-0.256-0.183-0.504-0.296-0.744l-6.359-14.258V141.171l4.707-10.561h9.621
	c3.59,0,6.5-2.91,6.5-6.5s-2.91-6.5-6.5-6.5h-7.568c0.279-10.96,0.671-32.271-0.221-41.185c-1.095-10.951-2.885-22.089-4.322-31.038
	c-1.14-7.095-2.217-13.795-2.217-16.221c0-8.914,7.253-16.167,16.167-16.167s16.167,7.253,16.167,16.167
	c0,2.541-1.163,9.667-2.395,17.212c-1.518,9.302-3.407,20.878-4.559,32.058c-1.167,11.324-0.113,43.45-0.034,45.785
	c0,0.017,0.001,0.033,0.002,0.05c0.001,0.017,0.002,0.049,0.002,0.061c0.002,0.047,0.009,0.093,0.012,0.14
	c0.009,0.157,0.019,0.314,0.04,0.472c0.011,0.084,0.028,0.166,0.042,0.249c0.021,0.123,0.04,0.245,0.068,0.367
	c0.03,0.129,0.068,0.255,0.105,0.381c0.022,0.074,0.04,0.149,0.064,0.223c0.063,0.189,0.135,0.373,0.214,0.553
	c0.006,0.013,0.01,0.027,0.016,0.041l0.004,0.008c0.008,0.017,0.015,0.033,0.022,0.05l6.398,14.346v154.032l-6.425,14.414
	c-0.692,1.554-0.719,3.231-0.214,4.725c-0.24,8.115-0.937,35.24,0.099,45.606c1.095,10.951,2.885,22.089,4.322,31.038
	c1.14,7.095,2.217,13.795,2.217,16.221C234.35,416.112,227.097,423.365,218.183,423.365z"/>
<g>
</g>
<g>
</g>
<g>
</g>
<g>
</g>
<g>
</g>
<g>
</g>
<g>
</g>
<g>
</g>
<g>
</g>
<g>
</g>
<g>
</g>
<g>
</g>
<g>
</g>
<g>
</g>
<g>
</g>
</svg>
