<?xml version="1.0" encoding="iso-8859-1"?>
<!-- Generator: Adobe Illustrator 17.1.0, SVG Export Plug-In . SVG Version: 6.00 Build 0)  -->
<!DOCTYPE svg PUBLIC "-//W3C//DTD SVG 1.1//EN" "http://www.w3.org/Graphics/SVG/1.1/DTD/svg11.dtd">
<svg version="1.1" id="Capa_1" xmlns="http://www.w3.org/2000/svg" xmlns:xlink="http://www.w3.org/1999/xlink" x="0px" y="0px"
	 viewBox="0 0 448.015 448.015" style="enable-background:new 0 0 448.015 448.015;" xml:space="preserve">
<path d="M291.051,335.275c-25.529,0-46.3,20.771-46.3,46.301c0,25.529,20.771,46.3,46.3,46.3c25.53,0,46.3-20.771,46.3-46.3
	C337.351,356.045,316.582,335.275,291.051,335.275z M291.051,414.875c-18.361,0-33.3-14.938-33.3-33.3
	c0-18.362,14.938-33.301,33.3-33.301s33.3,14.938,33.3,33.301C324.351,399.937,309.413,414.875,291.051,414.875z M339.104,335.694
	c-11.548-12.092-26.761-19.229-43.252-20.39c-5.272-21.096-25.383-122.253-38.626-190.338l-9.5-50.008l16.721-66.871
	c0.751-3.002-0.719-6.116-3.512-7.446c-2.794-1.33-6.136-0.506-7.994,1.969l-16.238,21.647l-6.522-19.791
	c-0.905-2.749-3.511-4.564-6.412-4.462c-2.893,0.106-5.366,2.112-6.067,4.92l-17.058,68.233c-0.028,0.109-0.047,0.219-0.069,0.328
	c-0.005,0.024-0.015,0.046-0.02,0.07l-9.76,51.374c-0.001,0.003-0.002,0.006-0.002,0.009
	c-13.248,68.111-33.358,169.271-38.631,190.366c-16.491,1.161-31.704,8.298-43.252,20.39c-12.654,13.25-19.159,30.655-18.314,49.011
	c1.561,33.901,29.337,61.679,63.237,63.237c1.06,0.049,2.116,0.073,3.169,0.073c17.182,0,33.357-6.464,45.843-18.388
	c13.257-12.661,20.558-29.726,20.558-48.052c0-11.785-3.123-23.251-8.953-33.301h9.206h0.703h9.206
	c-5.83,10.05-8.953,21.516-8.953,33.301c0,18.326,7.301,35.391,20.558,48.052c12.485,11.925,28.659,18.388,45.843,18.388
	c1.052,0,2.11-0.024,3.169-0.073c33.9-1.559,61.677-29.336,63.237-63.237C358.263,366.349,351.758,348.944,339.104,335.694z
	 M235.999,68.268h-16.057l24.085-32.11L235.999,68.268z M224.865,29.87l2.328,7.065l-6.141,8.187L224.865,29.87z M224.359,335.275
	h-0.703h-21.89c-2.56,0-4.881,1.502-5.93,3.837s-0.629,5.068,1.071,6.981c8.702,9.79,13.495,22.391,13.495,35.482
	c0,14.74-5.873,28.466-16.536,38.65c-10.658,10.179-24.68,15.406-39.436,14.729c-27.259-1.254-49.594-23.589-50.849-50.849
	c-0.68-14.772,4.552-28.777,14.729-39.434c10.185-10.664,23.911-16.537,38.651-16.537c5.138,0,6.495-4.87,7.074-6.95
	c0.419-1.502,0.946-3.617,1.612-6.469c1.195-5.111,2.837-12.606,4.881-22.277c3.431-16.234,8.052-38.863,13.733-67.257
	c7.025-35.101,13.971-70.529,17.284-87.477l11.771,9c-1.199,0.957-2.035,2.298-2.334,3.808l-30.035,151.775
	c-1.313,6.358,0.285,12.893,4.386,17.927s10.177,7.921,16.669,7.921h21.65h0.703c1.968,0,3.569,1.602,3.569,3.569
	S226.327,335.275,224.359,335.275z M224.359,315.136h-0.703h-21.65c-2.566,0-4.969-1.142-6.59-3.132s-2.253-4.573-1.724-7.14
	l29.561-149.371l0.792-0.589l0.709,0.542l29.58,149.471c0.519,2.514-0.113,5.097-1.734,7.087s-4.023,3.132-6.59,3.132H224.359z
	 M344.432,384.107c-1.254,27.26-23.59,49.595-50.849,50.849c-14.753,0.676-28.778-4.551-39.436-14.729
	c-10.663-10.185-16.536-23.91-16.536-38.65c0-13.092,4.793-25.692,13.495-35.482c1.7-1.913,2.12-4.646,1.071-6.981
	c-1.049-2.335-3.37-3.837-5.93-3.837h-5.718c0.254-1.151,0.398-2.343,0.398-3.569s-0.144-2.418-0.398-3.569h5.479
	c6.492,0,12.568-2.887,16.669-7.921s5.699-11.568,4.396-17.874l-30.046-151.828c-0.307-1.553-1.171-2.94-2.428-3.902l-30.292-23.159
	l8.014-42.184h23.369l8.768,46.152c0.096,0.488,9.62,49.44,19.291,97.763c5.682,28.394,10.303,51.022,13.733,67.257
	c2.044,9.671,3.686,17.166,4.881,22.277c0.666,2.852,1.193,4.967,1.612,6.469c0.579,2.08,1.937,6.95,7.074,6.95
	c14.74,0,28.468,5.873,38.651,16.536C339.881,355.329,345.112,369.334,344.432,384.107z M240.071,120.336
	c-2.567,6.282-8.611,10.342-15.398,10.342c-9.17,0-16.631-7.461-16.631-16.631c0-9.171,7.461-16.632,16.631-16.632
	c3.59,0,6.5,2.91,6.5,6.5s-2.91,6.5-6.5,6.5c-2.002,0-3.631,1.629-3.631,3.632c0,2.002,1.629,3.631,3.631,3.631
	c1.483,0,2.804-0.887,3.365-2.26c1.358-3.322,5.155-4.917,8.476-3.558C239.837,113.219,241.429,117.013,240.071,120.336z
	 M156.963,335.275c-25.529,0-46.3,20.771-46.3,46.301s20.771,46.3,46.3,46.3s46.3-20.77,46.3-46.3S182.493,335.275,156.963,335.275z
	 M156.963,414.875c-18.361,0-33.3-14.938-33.3-33.3c0-18.362,14.938-33.301,33.3-33.301s33.3,14.938,33.3,33.301
	C190.263,399.937,175.325,414.875,156.963,414.875z"/>
<g>
</g>
<g>
</g>
<g>
</g>
<g>
</g>
<g>
</g>
<g>
</g>
<g>
</g>
<g>
</g>
<g>
</g>
<g>
</g>
<g>
</g>
<g>
</g>
<g>
</g>
<g>
</g>
<g>
</g>
</svg>
