<?xml version="1.0" encoding="iso-8859-1"?>
<!-- Generator: Adobe Illustrator 17.1.0, SVG Export Plug-In . SVG Version: 6.00 Build 0)  -->
<!DOCTYPE svg PUBLIC "-//W3C//DTD SVG 1.1//EN" "http://www.w3.org/Graphics/SVG/1.1/DTD/svg11.dtd">
<svg version="1.1" id="Capa_1" xmlns="http://www.w3.org/2000/svg" xmlns:xlink="http://www.w3.org/1999/xlink" x="0px" y="0px"
	 viewBox="0 0 390.858 390.858" style="enable-background:new 0 0 390.858 390.858;" xml:space="preserve">
<path d="M304.97,0.001L169.77,0.009C169.711,0.007,169.653,0,169.593,0c-0.06,0-0.118,0.007-0.177,0.009L72.679,0.015
	c-3.59,0-6.5,2.91-6.5,6.5V84.97c0,2.798,1.791,5.281,4.444,6.166c2.656,0.886,5.577-0.027,7.256-2.267l12.971-17.295l12.971,17.295
	c1.679,2.239,4.602,3.152,7.255,2.267c2.654-0.884,4.445-3.368,4.445-6.166V43.676h0.421h165.074V377.53
	c0,2.26,1.174,4.357,3.1,5.539c9.255,5.683,10.262,6.078,10.804,6.291c2.556,1.004,5.239,1.498,7.914,1.498
	c4.324,0,8.624-1.292,12.319-3.811c5.964-4.064,9.524-10.806,9.524-18.032V19.709C324.678,8.842,315.838,0.001,304.97,0.001z
	 M109.022,30.676H96.908c-3.59,0-6.5,2.91-6.5,6.5s2.91,6.5,6.5,6.5h5.614v21.793l-6.471-8.628c-1.228-1.638-3.154-2.601-5.2-2.601
	s-3.973,0.963-5.2,2.6l-6.471,8.629V13.015l83.913-0.005v17.666h-47.15H109.022z M311.678,369.016c0,2.968-1.401,5.624-3.846,7.29
	c-2.403,1.638-5.296,2.008-7.968,1.027c-0.799-0.424-3.232-1.87-5.848-3.453V42.665c0-6.611-5.378-11.989-11.989-11.989H176.093
	V13.009l128.877-0.008c3.699,0,6.708,3.009,6.708,6.708V369.016z"/>
<g>
</g>
<g>
</g>
<g>
</g>
<g>
</g>
<g>
</g>
<g>
</g>
<g>
</g>
<g>
</g>
<g>
</g>
<g>
</g>
<g>
</g>
<g>
</g>
<g>
</g>
<g>
</g>
<g>
</g>
</svg>
