<?xml version="1.0" encoding="iso-8859-1"?>
<!-- Generator: Adobe Illustrator 17.1.0, SVG Export Plug-In . SVG Version: 6.00 Build 0)  -->
<!DOCTYPE svg PUBLIC "-//W3C//DTD SVG 1.1//EN" "http://www.w3.org/Graphics/SVG/1.1/DTD/svg11.dtd">
<svg version="1.1" id="Capa_1" xmlns="http://www.w3.org/2000/svg" xmlns:xlink="http://www.w3.org/1999/xlink" x="0px" y="0px"
	 viewBox="0 0 437.555 437.555" style="enable-background:new 0 0 437.555 437.555;" xml:space="preserve">
<g>
	<path d="M206.506,437.555c-3.59,0-6.5-2.91-6.5-6.5v-26.308c0-3.59,2.91-6.5,6.5-6.5s6.5,2.91,6.5,6.5v26.308
		C213.006,434.645,210.096,437.555,206.506,437.555z"/>
</g>
<path d="M297.315,37.16L276.302,3.088C275.118,1.169,273.024,0,270.769,0h-81.33c-3.59,0-6.5,2.91-6.5,6.5v28.414
	c0,1.449,0.484,2.857,1.377,4l7.748,9.924c-0.824,17.201-5.726,121.271-5.726,162.409c0,40.522,4.672,141.521,5.668,162.596
	l-12.181,13.003c-1.128,1.204-1.756,2.793-1.756,4.443v16.226c0,0.767-0.624,1.391-1.391,1.391h-10.622
	c-5.974,0-13.006-7.915-14.989-10.675c-1.638-2.306-4.575-3.287-7.274-2.426c-2.693,0.86-4.522,3.364-4.522,6.192v9.162
	c0,15.541,9.62,26.396,23.394,26.396h64.043c3.59,0,6.5-2.91,6.5-6.5v-39.766c0-1.505-0.521-2.963-1.477-4.125l-10.738-13.075
	c0.971-20.525,5.68-122.16,5.68-162.842c0-41.138-4.901-145.208-5.726-162.409l7.748-9.924c0.893-1.143,1.377-2.551,1.377-4v-4.263
	h26.032l8.106,13.303c1.18,1.937,3.283,3.118,5.551,3.118h22.021c2.356,0,4.527-1.274,5.676-3.332S298.553,39.165,297.315,37.16z
	 M273.413,34.072l-8.106-13.303c-1.18-1.937-3.283-3.118-5.551-3.118h-36.184c-3.59,0-6.5,2.91-6.5,6.5v8.525l-7.856,10.063
	c-0.959,1.229-1.445,2.761-1.369,4.317c0.059,1.192,5.826,119.819,5.826,164.189c0,42.471-5.191,152.335-5.783,164.723
	c-0.077,1.609,0.446,3.19,1.469,4.436l10.85,13.211v30.938h-57.543c-5.392,0-8.003-3.205-9.258-6.58
	c3.701,2.266,8.003,3.931,12.65,3.931h10.622c7.935,0,14.391-6.456,14.391-14.391v-13.656l12.304-13.135
	c1.201-1.282,1.832-2.998,1.748-4.754c-0.592-12.388-5.783-122.252-5.783-164.723c0-44.37,5.768-162.997,5.826-164.189
	c0.076-1.557-0.41-3.089-1.369-4.317l-7.856-10.063V13h71.202l12.996,21.072H273.413z"/>
<g>
	<path d="M223.572,30.622h-15.379c-3.59,0-6.5-2.91-6.5-6.5s2.91-6.5,6.5-6.5h15.379c3.59,0,6.5,2.91,6.5,6.5
		S227.162,30.622,223.572,30.622z"/>
</g>
<g>
</g>
<g>
</g>
<g>
</g>
<g>
</g>
<g>
</g>
<g>
</g>
<g>
</g>
<g>
</g>
<g>
</g>
<g>
</g>
<g>
</g>
<g>
</g>
<g>
</g>
<g>
</g>
<g>
</g>
</svg>
