<?xml version="1.0" encoding="iso-8859-1"?>
<!-- Generator: Adobe Illustrator 17.1.0, SVG Export Plug-In . SVG Version: 6.00 Build 0)  -->
<!DOCTYPE svg PUBLIC "-//W3C//DTD SVG 1.1//EN" "http://www.w3.org/Graphics/SVG/1.1/DTD/svg11.dtd">
<svg version="1.1" id="Capa_1" xmlns="http://www.w3.org/2000/svg" xmlns:xlink="http://www.w3.org/1999/xlink" x="0px" y="0px"
	 viewBox="0 0 456.74 456.74" style="enable-background:new 0 0 456.74 456.74;" xml:space="preserve">
<path d="M286.07,134.496c0-18.473-11.949-35.213-31.183-43.687c-3.25-1.432-5.351-4.65-5.351-8.198c0-3.277,1.688-6.236,4.405-7.723
	c13.707-7.499,21.89-20.303,21.89-34.251C275.832,18.23,254.541,0,228.37,0s-47.461,18.23-47.461,40.638
	c0,13.948,8.183,26.752,21.891,34.251c2.717,1.486,4.404,4.445,4.404,7.723c0,3.548-2.101,6.767-5.351,8.198
	c-19.234,8.474-31.183,25.214-31.183,43.687c0,20.219,14.786,38.438,36.534,45.753v23.23c-1.361,1.191-2.225,2.937-2.225,4.888
	v35.758l-10.328,39.926c-0.009,0.034-0.012,0.07-0.02,0.104c-0.045,0.187-0.081,0.377-0.109,0.57
	c-0.01,0.064-0.022,0.128-0.029,0.193c-0.029,0.25-0.048,0.503-0.048,0.761V450.24c0,3.59,2.91,6.5,6.5,6.5h54.853
	c3.59,0,6.5-2.91,6.5-6.5V285.68c0-0.549-0.07-1.096-0.207-1.628l-10.328-39.928v-35.757c0-1.951-0.864-3.697-2.225-4.888v-23.23
	C271.285,172.934,286.07,154.715,286.07,134.496z M249.296,443.74h-41.853V292.18h20.926c3.59,0,6.5-2.91,6.5-6.5s-2.91-6.5-6.5-6.5
	h-19.031l7.347-28.402h23.369l9.242,35.729V443.74z M217.979,237.777v-22.91h20.783v22.91H217.979z M241.467,169.073
	c-2.897,0.721-4.931,3.322-4.931,6.308v26.476h-16.333v-19.976h3.917c3.59,0,6.5-2.91,6.5-6.5s-2.91-6.5-6.5-6.5h-9.567
	c-18.22-4.815-30.883-18.861-30.883-34.385c0-13.243,8.976-25.425,23.424-31.79c7.964-3.509,13.11-11.396,13.11-20.095
	c0-8.031-4.278-15.36-11.166-19.127c-9.474-5.184-15.129-13.724-15.129-22.847C193.909,25.398,209.368,13,228.37,13
	s34.461,12.398,34.461,27.638c0,9.123-5.656,17.663-15.129,22.847c-6.888,3.767-11.166,11.096-11.166,19.127
	c0,8.698,5.146,16.586,13.11,20.095c14.448,6.365,23.424,18.547,23.424,31.79C273.07,150.225,260.075,164.443,241.467,169.073z"/>
<g>
</g>
<g>
</g>
<g>
</g>
<g>
</g>
<g>
</g>
<g>
</g>
<g>
</g>
<g>
</g>
<g>
</g>
<g>
</g>
<g>
</g>
<g>
</g>
<g>
</g>
<g>
</g>
<g>
</g>
</svg>
