<?xml version="1.0" encoding="iso-8859-1"?>
<!-- Generator: Adobe Illustrator 17.1.0, SVG Export Plug-In . SVG Version: 6.00 Build 0)  -->
<!DOCTYPE svg PUBLIC "-//W3C//DTD SVG 1.1//EN" "http://www.w3.org/Graphics/SVG/1.1/DTD/svg11.dtd">
<svg version="1.1" id="Capa_1" xmlns="http://www.w3.org/2000/svg" xmlns:xlink="http://www.w3.org/1999/xlink" x="0px" y="0px"
	 viewBox="0 0 405.561 405.561" style="enable-background:new 0 0 405.561 405.561;" xml:space="preserve">
<path d="M309.564,0h-32.712h-15.705c-19.293,0-35.17,14.488-36.93,33.701l-14.077,153.642c-0.154,1.677-0.719,3.213-1.583,4.526
	c-0.163,0.201-0.308,0.411-0.443,0.625c-1.799,2.315-4.606,3.78-7.761,3.78h-78.842c-17.653,0-32.014,14.361-32.014,32.015v98.236
	c0,27.152,9.373,53.758,26.392,74.916l1.362,1.693c1.241,1.543,3.108,2.426,5.063,2.426c0.231,0,0.463-0.013,0.695-0.037
	c2.201-0.236,4.131-1.577,5.12-3.558c7.582-15.174,11.589-32.16,11.589-49.123V247.029c0-1.703,1.386-3.089,3.089-3.089h85.759
	c17.379,0,31.772-13.042,33.478-30.311L282.717,13h26.847c3.59,0,6.5-2.91,6.5-6.5S313.154,0,309.564,0z M249.11,212.325
	c-1.048,10.612-9.879,18.615-20.543,18.615h-85.759c-2.166,0-4.23,0.436-6.118,1.215l-9.796-9.722
	c-2.546-2.528-6.663-2.514-9.192,0.034c-2.529,2.549-2.513,6.664,0.035,9.192l9.964,9.889c-0.624,1.714-0.982,3.554-0.982,5.48
	v105.813c0,11.344-2.033,22.699-5.932,33.361c-11.846-17.544-18.291-38.423-18.291-59.679v-98.236
	c0-10.484,8.53-19.015,19.014-19.015h78.842c4.923,0,9.471-1.55,13.202-4.186l10.095,10.086c1.269,1.268,2.932,1.901,4.594,1.901
	c1.664,0,3.329-0.636,4.598-1.906c2.538-2.539,2.536-6.654-0.004-9.192l-11.213-11.204c0.758-1.957,1.261-4.05,1.462-6.246
	l14.077-153.642C238.306,22.409,248.617,13,261.147,13h8.501L249.11,212.325z"/>
<g>
</g>
<g>
</g>
<g>
</g>
<g>
</g>
<g>
</g>
<g>
</g>
<g>
</g>
<g>
</g>
<g>
</g>
<g>
</g>
<g>
</g>
<g>
</g>
<g>
</g>
<g>
</g>
<g>
</g>
</svg>
