<?xml version="1.0" encoding="iso-8859-1"?>
<!-- Generator: Adobe Illustrator 17.1.0, SVG Export Plug-In . SVG Version: 6.00 Build 0)  -->
<!DOCTYPE svg PUBLIC "-//W3C//DTD SVG 1.1//EN" "http://www.w3.org/Graphics/SVG/1.1/DTD/svg11.dtd">
<svg version="1.1" id="Capa_1" xmlns="http://www.w3.org/2000/svg" xmlns:xlink="http://www.w3.org/1999/xlink" x="0px" y="0px"
	 viewBox="0 0 410.887 410.887" style="enable-background:new 0 0 410.887 410.887;" xml:space="preserve">
<path d="M287.271,403.925l-20.929-293.814c-1.014-14.233-9.951-26.234-22.282-31.794V6.5c0-3.59-2.91-6.5-6.5-6.5h-64.232
	c-3.59,0-6.5,2.91-6.5,6.5v71.817c-12.331,5.56-21.269,17.561-22.282,31.794l-20.929,293.814c-0.128,1.8,0.497,3.572,1.727,4.892
	c1.229,1.32,2.953,2.07,4.757,2.07h150.688c1.804,0,3.527-0.75,4.757-2.07C286.773,407.497,287.398,405.725,287.271,403.925z
	 M179.827,74.996V13h51.232v61.996h-2.423H182.25H179.827z M137.079,397.887l1.791-25.14h98.709c3.59,0,6.5-2.91,6.5-6.5
	s-2.91-6.5-6.5-6.5h-97.783l17.716-248.712c0.921-12.919,11.787-23.039,24.738-23.039h46.387c12.951,0,23.817,10.12,24.738,23.039
	l20.433,286.852H137.079z"/>
<g>
</g>
<g>
</g>
<g>
</g>
<g>
</g>
<g>
</g>
<g>
</g>
<g>
</g>
<g>
</g>
<g>
</g>
<g>
</g>
<g>
</g>
<g>
</g>
<g>
</g>
<g>
</g>
<g>
</g>
</svg>
