<?xml version="1.0" encoding="iso-8859-1"?>
<!-- Generator: Adobe Illustrator 17.1.0, SVG Export Plug-In . SVG Version: 6.00 Build 0)  -->
<!DOCTYPE svg PUBLIC "-//W3C//DTD SVG 1.1//EN" "http://www.w3.org/Graphics/SVG/1.1/DTD/svg11.dtd">
<svg version="1.1" id="Capa_1" xmlns="http://www.w3.org/2000/svg" xmlns:xlink="http://www.w3.org/1999/xlink" x="0px" y="0px"
	 viewBox="0 0 449.964 449.964" style="enable-background:new 0 0 449.964 449.964;" xml:space="preserve">
<path d="M262.215,3.501h-36.157C223.418,1.316,220.032,0,216.345,0h-19.843c-8.411,0-15.254,6.843-15.254,15.254V121.76
	c0,3.877,1.466,7.41,3.858,10.105l8.162,61.523v240.91c0,8.638,7.027,15.666,15.665,15.666h7c8.639,0,15.666-7.027,15.666-15.675
	l-0.338-239.593c0-0.279-0.019-0.559-0.055-0.836l-7.691-58.644c3.871-2.072,6.744-5.764,7.716-10.166h30.983
	c3.59,0,6.5-2.91,6.5-6.5V10.001C268.715,6.412,265.805,3.501,262.215,3.501z M231.599,16.501h24.116v8.146h-12.059
	c-3.59,0-6.5,2.91-6.5,6.5s2.91,6.5,6.5,6.5h12.059v7.989h-12.059c-3.59,0-6.5,2.91-6.5,6.5s2.91,6.5,6.5,6.5h12.059v7.989h-12.059
	c-3.59,0-6.5,2.91-6.5,6.5s2.91,6.5,6.5,6.5h12.059v7.989h-12.059c-3.59,0-6.5,2.91-6.5,6.5s2.91,6.5,6.5,6.5h12.059v11.435h-24.116
	V16.501z M215.933,436.964h-7c-1.47,0-2.665-1.196-2.665-2.666V192.959c0-0.286-0.019-0.571-0.057-0.855l-7.367-55.532
	c2.431-0.941,4.158-3.295,4.158-6.058c0-3.59-2.91-6.5-6.5-6.5c-1.243,0-2.254-1.011-2.254-2.254V15.254
	c0-1.243,1.011-2.254,2.254-2.254h19.843c1.243,0,2.254,1.011,2.254,2.254V121.76c0,1.243-1.011,2.254-2.254,2.254
	c-0.026,0-0.052,0.004-0.078,0.004c-0.117,0.002-0.234,0.01-0.352,0.018c-0.111,0.007-0.222,0.014-0.332,0.027
	c-0.028,0.003-0.056,0.003-0.084,0.007c-0.068,0.009-0.133,0.026-0.2,0.037c-0.125,0.02-0.25,0.041-0.372,0.068
	c-0.092,0.021-0.182,0.046-0.272,0.07c-0.116,0.031-0.233,0.063-0.346,0.1c-0.097,0.032-0.192,0.069-0.287,0.105
	c-0.101,0.039-0.202,0.077-0.3,0.121c-0.103,0.045-0.203,0.095-0.302,0.146c-0.086,0.043-0.172,0.086-0.255,0.133
	c-0.104,0.058-0.204,0.121-0.303,0.184c-0.076,0.048-0.152,0.096-0.225,0.147c-0.099,0.069-0.195,0.143-0.29,0.217
	c-0.069,0.054-0.138,0.108-0.205,0.165c-0.091,0.077-0.177,0.158-0.264,0.24c-0.066,0.063-0.132,0.125-0.195,0.19
	c-0.079,0.082-0.154,0.166-0.229,0.252c-0.063,0.073-0.126,0.145-0.187,0.22c-0.068,0.085-0.131,0.172-0.194,0.26
	c-0.059,0.083-0.118,0.165-0.174,0.25c-0.057,0.088-0.111,0.179-0.164,0.269c-0.052,0.089-0.104,0.179-0.152,0.271
	c-0.049,0.095-0.094,0.192-0.139,0.289c-0.042,0.092-0.085,0.184-0.123,0.278c-0.043,0.105-0.08,0.213-0.117,0.321
	c-0.031,0.089-0.062,0.178-0.089,0.268c-0.036,0.121-0.065,0.244-0.094,0.367c-0.019,0.081-0.039,0.161-0.054,0.243
	c-0.026,0.137-0.046,0.276-0.063,0.416c-0.009,0.073-0.02,0.146-0.027,0.219c-0.013,0.146-0.019,0.293-0.022,0.441
	c-0.001,0.053-0.008,0.105-0.008,0.158c0,0.022,0.003,0.043,0.003,0.064c0.001,0.135,0.011,0.27,0.021,0.406
	c0.007,0.091,0.011,0.183,0.022,0.273c0.004,0.034,0.004,0.068,0.008,0.102l8.363,63.774l0.337,239.165
	C218.599,435.768,217.403,436.964,215.933,436.964z"/>
<g>
</g>
<g>
</g>
<g>
</g>
<g>
</g>
<g>
</g>
<g>
</g>
<g>
</g>
<g>
</g>
<g>
</g>
<g>
</g>
<g>
</g>
<g>
</g>
<g>
</g>
<g>
</g>
<g>
</g>
</svg>
