<?xml version="1.0" encoding="iso-8859-1"?>
<!-- Generator: Adobe Illustrator 17.1.0, SVG Export Plug-In . SVG Version: 6.00 Build 0)  -->
<!DOCTYPE svg PUBLIC "-//W3C//DTD SVG 1.1//EN" "http://www.w3.org/Graphics/SVG/1.1/DTD/svg11.dtd">
<svg version="1.1" id="Capa_1" xmlns="http://www.w3.org/2000/svg" xmlns:xlink="http://www.w3.org/1999/xlink" x="0px" y="0px"
	 viewBox="0 0 417.921 417.921" style="enable-background:new 0 0 417.921 417.921;" xml:space="preserve">
<path d="M375.573,172.595h-43.376c-0.025,0-0.049,0-0.073,0h-51.459v-7.013h57.825c0.01,0,0.021,0.002,0.031,0.002
	c0.01,0,0.02-0.002,0.031-0.002h37.022c3.59,0,6.5-2.91,6.5-6.5s-2.91-6.5-6.5-6.5h-28.151l14.931-46.669
	c2.664-8.543,3.896-17.456,3.66-26.491c-1.148-43.993-37.896-79.615-81.944-79.422l-1.054,0.005
	c-17.821,0.078-34.245,9.443-43.936,25.05c-6.436,10.365-17.55,16.552-29.731,16.552s-23.296-6.188-29.732-16.552
	c-9.69-15.607-26.115-24.971-43.938-25.05l-1.05-0.005C134.505,0,134.384,0,134.26,0C90.387,0,53.827,35.553,52.684,79.422
	c-0.236,9.035,0.995,17.949,3.674,26.537l14.917,46.623H42.348c-3.59,0-6.5,2.91-6.5,6.5s2.91,6.5,6.5,6.5h37.845
	c0.02,0,0.04,0,0.061,0h56.886v7.013H86.561c-0.018,0-0.035,0-0.053,0h-44.16c-3.59,0-6.5,2.91-6.5,6.5s2.91,6.5,6.5,6.5h39.488
	l3.509,10.968c0.023,35.458,7.548,89.387,24.163,125.251l37.25,80.404c3.207,9.32,11.734,15.611,21.348,15.7
	c0.072,0.001,0.144,0.001,0.215,0.001c6.014,0,11.669-2.326,15.945-6.563c4.328-4.288,6.711-10.005,6.711-16.097
	c0-0.602-0.084-1.203-0.249-1.782c-7.371-25.876-22.143-98.804-2.249-125.156c4.956-6.564,11.782-9.756,20.867-9.756
	c8.862,0,15.544,3.127,20.427,9.561c19.852,26.156,5.439,99.052-1.788,124.934c-0.159,0.569-0.24,1.159-0.24,1.75
	c0,11.756,9.322,22.088,20.781,23.032c0.638,0.053,1.271,0.079,1.9,0.078c9.638,0,18.22-6.052,21.396-15.262l37.426-80.902
	c16.576-35.833,24.081-89.722,24.101-125.194l3.508-10.967h38.713c3.59,0,6.5-2.91,6.5-6.5S379.163,172.595,375.573,172.595z
	 M84.923,152.583l-16.17-50.539c-2.239-7.179-3.273-14.676-3.075-22.283c0.964-36.98,31.906-66.95,68.892-66.76l1.053,0.005
	c13.317,0.058,25.634,7.127,32.949,18.907c8.824,14.211,24.067,22.695,40.776,22.695s31.952-8.484,40.776-22.695
	c7.313-11.781,19.631-18.849,32.945-18.907l1.057-0.005c0.104,0,0.206-0.001,0.31-0.001c36.884,0,67.62,29.885,68.581,66.761
	c0.198,7.607-0.836,15.104-3.06,22.237l-16.184,50.584h-53.11v-47.498c0-3.59-2.91-6.5-6.5-6.5h-45.695c-3.59,0-6.5,2.91-6.5,6.5
	v3.506H195.41l-0.021-3.546c-0.022-3.574-2.925-6.46-6.5-6.46h-45.248c-3.59,0-6.5,2.91-6.5,6.5v47.498H84.923z M228.468,216.586
	h-33.019v-94.995h26.508v72.477c0,3.59,2.91,6.5,6.5,6.5s6.5-2.91,6.5-6.5v-78.764c0.002-0.071,0.011-0.141,0.011-0.213v-3.506
	h32.695v115.008h-32.695v-3.506C234.968,219.497,232.058,216.586,228.468,216.586z M150.141,111.585h32.287l0.021,3.546v107.956
	v3.506h-32.309V111.585z M137.141,185.595v15.97c-19.808-4.197-34.242-8.959-40.072-11.021l-1.583-4.948H137.141z M320.66,193.572
	c-0.208,0.647-0.312,1.399-0.31,2.08c0.119,34.01-6.996,86.271-22.898,120.647l-37.575,81.225c-0.108,0.234-0.203,0.475-0.282,0.721
	c-1.391,4.281-5.498,7.015-10,6.643c-4.473-0.368-8.424-4.627-8.815-9.316c2.985-11.029,25.981-100.204-0.645-135.296
	c-7.404-9.759-17.762-14.708-30.786-14.708c-13.258,0-23.771,5.023-31.247,14.929c-26.667,35.336-3.209,124.48-0.154,135.546
	c-0.183,2.302-1.172,4.438-2.831,6.081c-1.823,1.806-4.234,2.797-6.798,2.797c-0.031,0-0.062,0-0.092,0
	c-4.091-0.038-7.889-2.964-9.238-7.116c-0.08-0.247-0.175-0.489-0.284-0.724l-37.401-80.73
	c-14.57-31.45-21.779-77.846-22.822-111.591c8.185,2.669,21.571,6.598,38.658,10.085v18.249c0,3.59,2.91,6.5,6.5,6.5h45.309
	c3.59,0,6.5-2.91,6.5-6.5v-3.506h26.519v3.506c0,3.59,2.91,6.5,6.5,6.5h45.695c3.59,0,6.5-2.91,6.5-6.5v-18.149
	c2.292-0.464,4.584-0.943,6.859-1.446c3.505-0.774,5.719-4.244,4.944-7.749c-0.774-3.505-4.238-5.722-7.749-4.944
	c-1.345,0.297-2.701,0.579-4.055,0.863v-16.072h42.547L320.66,193.572z"/>
<g>
</g>
<g>
</g>
<g>
</g>
<g>
</g>
<g>
</g>
<g>
</g>
<g>
</g>
<g>
</g>
<g>
</g>
<g>
</g>
<g>
</g>
<g>
</g>
<g>
</g>
<g>
</g>
<g>
</g>
</svg>
