<?xml version="1.0" encoding="iso-8859-1"?>
<!-- Generator: Adobe Illustrator 17.1.0, SVG Export Plug-In . SVG Version: 6.00 Build 0)  -->
<!DOCTYPE svg PUBLIC "-//W3C//DTD SVG 1.1//EN" "http://www.w3.org/Graphics/SVG/1.1/DTD/svg11.dtd">
<svg version="1.1" id="Capa_1" xmlns="http://www.w3.org/2000/svg" xmlns:xlink="http://www.w3.org/1999/xlink" x="0px" y="0px"
	 viewBox="0 0 417.921 417.921" style="enable-background:new 0 0 417.921 417.921;" xml:space="preserve">
<path d="M365.625,79.422C364.481,35.55,327.925,0,284.049,0c-0.121,0-0.247,0-0.368,0.001l-1.053,0.004
	c-17.821,0.078-34.245,9.443-43.936,25.05c-6.436,10.364-17.55,16.552-29.732,16.552s-23.296-6.188-29.732-16.552
	c-9.69-15.607-26.115-24.972-43.938-25.05l-1.05-0.004C90.248-0.215,53.443,35.43,52.295,79.422
	c-0.235,9.035,0.996,17.948,3.674,26.537l28.988,90.604c0.023,35.458,7.548,89.387,24.163,125.251l37.25,80.404
	c3.207,9.32,11.734,15.611,21.348,15.7c0.072,0.001,0.144,0.001,0.215,0.001c6.014,0,11.669-2.326,15.945-6.563
	c4.328-4.288,6.711-10.005,6.711-16.097c0-0.603-0.084-1.203-0.249-1.783c-7.377-25.865-22.161-98.769-2.251-125.151
	c4.956-6.567,11.783-9.76,20.87-9.76c8.862,0,15.544,3.127,20.427,9.561c19.852,26.156,5.44,99.052-1.788,124.934
	c-0.159,0.569-0.24,1.159-0.24,1.75c0,11.756,9.322,22.088,20.78,23.032c0.638,0.053,1.271,0.078,1.901,0.078
	c9.636,0,18.219-6.053,21.396-15.262l37.426-80.902c16.576-35.832,24.081-89.721,24.102-125.194l29.001-90.648
	C364.63,97.371,365.861,88.458,365.625,79.422z M349.569,101.999l-29.298,91.573c-0.207,0.647-0.312,1.399-0.309,2.079
	c0.119,34.01-6.997,86.272-22.899,120.647l-37.575,81.225c-0.108,0.234-0.203,0.475-0.283,0.721
	c-1.39,4.281-5.509,7.016-9.999,6.643c-4.473-0.368-8.424-4.627-8.815-9.316c2.985-11.03,25.981-100.204-0.645-135.297
	c-7.404-9.759-17.762-14.707-30.786-14.707c-13.258,0-23.771,5.023-31.247,14.929c-26.667,35.336-3.209,124.48-0.154,135.546
	c-0.183,2.302-1.172,4.438-2.831,6.081c-1.823,1.806-4.234,2.797-6.798,2.797c-0.031,0-0.062,0-0.092,0
	c-4.091-0.038-7.889-2.964-9.238-7.116c-0.08-0.247-0.175-0.489-0.284-0.724l-37.401-80.73
	c-14.568-31.445-21.777-77.833-22.822-111.577c17.797,5.829,60.006,17.588,110.866,17.588c25.26,0,51.562-2.982,78.175-8.864
	c3.505-0.774,5.719-4.244,4.944-7.75c-0.774-3.505-4.245-5.719-7.75-4.944c-3.189,0.705-6.373,1.366-9.55,1.984l14.176-35.973
	c1.316-3.34-0.324-7.114-3.664-8.431c-3.344-1.316-7.115,0.324-8.431,3.664l-17.08,43.341c-17.273,2.636-34.288,3.971-50.821,3.971
	c-18.656,0-36.226-1.693-51.76-4.088l-17.034-43.224c-1.316-3.34-5.089-4.979-8.431-3.664c-3.34,1.316-4.98,5.091-3.664,8.431
	l14.119,35.826c-22.668-4.453-39.176-9.869-45.511-12.103l-28.314-88.496c-2.239-7.179-3.273-14.676-3.075-22.283
	C66.253,42.883,96.985,13,133.874,13c0.102,0,0.208,0,0.31,0.001l1.053,0.004c13.316,0.059,25.633,7.126,32.948,18.907
	c8.824,14.211,24.067,22.695,40.776,22.695s31.952-8.484,40.776-22.695c7.315-11.781,19.632-18.849,32.946-18.907l1.057-0.004
	c0.104,0,0.206-0.001,0.31-0.001c36.884,0,67.62,29.885,68.582,66.761C352.828,87.368,351.794,94.865,349.569,101.999z
	 M279.457,134.06c0.09-0.222,0.165-0.451,0.231-0.684c0.018-0.064,0.033-0.128,0.049-0.192c0.048-0.193,0.086-0.389,0.116-0.588
	c0.01-0.066,0.022-0.131,0.03-0.198c0.03-0.254,0.05-0.511,0.05-0.774s-0.02-0.52-0.05-0.774c-0.008-0.066-0.02-0.132-0.03-0.198
	c-0.03-0.199-0.068-0.395-0.116-0.588c-0.016-0.064-0.031-0.128-0.049-0.192c-0.065-0.233-0.141-0.462-0.231-0.684
	c-0.007-0.017-0.011-0.034-0.018-0.05c-0.102-0.246-0.22-0.482-0.35-0.712c-0.01-0.017-0.016-0.036-0.026-0.053L246.826,72.54
	c-0.01-0.017-0.022-0.031-0.032-0.048c-0.134-0.228-0.28-0.449-0.442-0.661c-0.011-0.014-0.023-0.027-0.034-0.041
	c-0.147-0.188-0.307-0.368-0.476-0.541c-0.047-0.048-0.095-0.094-0.143-0.14c-0.143-0.137-0.293-0.268-0.45-0.394
	c-0.052-0.042-0.103-0.085-0.156-0.125c-0.205-0.153-0.418-0.299-0.645-0.43c-0.226-0.131-0.458-0.242-0.693-0.342
	c-0.064-0.027-0.129-0.05-0.193-0.075c-0.184-0.072-0.37-0.136-0.558-0.19c-0.066-0.019-0.132-0.039-0.2-0.056
	c-0.229-0.059-0.459-0.106-0.69-0.139c-0.023-0.003-0.046-0.009-0.069-0.012c-0.262-0.034-0.524-0.05-0.786-0.052
	c-0.021,0-0.041-0.004-0.062-0.004h-64.473c-0.02,0-0.04,0.004-0.06,0.004c-0.263,0.002-0.526,0.018-0.789,0.052
	c-0.021,0.003-0.042,0.008-0.063,0.011c-0.233,0.033-0.465,0.081-0.696,0.14c-0.066,0.017-0.132,0.036-0.197,0.055
	c-0.188,0.055-0.375,0.119-0.56,0.191c-0.064,0.025-0.129,0.048-0.192,0.075c-0.235,0.101-0.467,0.211-0.693,0.342
	c-0.227,0.131-0.44,0.277-0.645,0.43c-0.053,0.04-0.104,0.083-0.156,0.125c-0.157,0.125-0.308,0.257-0.451,0.394
	c-0.048,0.046-0.095,0.092-0.142,0.139c-0.17,0.174-0.33,0.354-0.478,0.543c-0.011,0.013-0.022,0.026-0.033,0.039
	c-0.162,0.212-0.308,0.433-0.442,0.661c-0.01,0.017-0.022,0.031-0.032,0.048l-32.236,55.835c-0.01,0.017-0.016,0.036-0.026,0.053
	c-0.13,0.229-0.248,0.466-0.35,0.712c-0.007,0.016-0.012,0.033-0.018,0.05c-0.09,0.222-0.166,0.451-0.231,0.685
	c-0.018,0.063-0.033,0.127-0.049,0.19c-0.048,0.193-0.086,0.39-0.116,0.589c-0.01,0.066-0.022,0.131-0.03,0.197
	c-0.03,0.254-0.05,0.511-0.05,0.774s0.02,0.52,0.05,0.774c0.008,0.066,0.02,0.131,0.03,0.197c0.03,0.199,0.068,0.396,0.116,0.589
	c0.016,0.064,0.031,0.127,0.049,0.19c0.065,0.234,0.141,0.462,0.231,0.685c0.007,0.016,0.011,0.033,0.018,0.05
	c0.102,0.246,0.22,0.482,0.35,0.712c0.01,0.017,0.016,0.036,0.026,0.053l32.236,55.835c0.01,0.017,0.022,0.031,0.032,0.048
	c0.134,0.228,0.28,0.449,0.442,0.661c0.01,0.014,0.022,0.026,0.033,0.039c0.148,0.189,0.308,0.369,0.478,0.543
	c0.046,0.047,0.094,0.093,0.142,0.139c0.143,0.137,0.294,0.269,0.451,0.394c0.052,0.042,0.103,0.085,0.156,0.125
	c0.205,0.153,0.418,0.299,0.645,0.43c0.018,0.01,0.036,0.017,0.054,0.027c0.23,0.13,0.466,0.248,0.711,0.35
	c0.184,0.076,0.372,0.133,0.56,0.191c0.08,0.025,0.157,0.058,0.238,0.08c0.257,0.069,0.517,0.12,0.777,0.156
	c0.017,0.002,0.034,0.008,0.051,0.01c0.284,0.038,0.569,0.058,0.853,0.058c0.005,0,0.01-0.001,0.015-0.001h64.454
	c0.005,0,0.01,0.001,0.015,0.001c0.284,0,0.569-0.02,0.853-0.058c0.016-0.002,0.032-0.007,0.048-0.009
	c0.261-0.037,0.522-0.087,0.78-0.157c0.078-0.021,0.152-0.053,0.228-0.077c0.191-0.059,0.382-0.117,0.57-0.195
	c0.243-0.101,0.479-0.219,0.708-0.348c0.019-0.01,0.038-0.017,0.057-0.028c0.227-0.131,0.44-0.277,0.645-0.43
	c0.053-0.04,0.104-0.083,0.156-0.125c0.157-0.125,0.307-0.256,0.45-0.394c0.048-0.046,0.096-0.092,0.143-0.14
	c0.169-0.173,0.329-0.353,0.476-0.541c0.011-0.014,0.023-0.027,0.034-0.041c0.162-0.211,0.308-0.433,0.442-0.661
	c0.01-0.017,0.022-0.031,0.032-0.048l32.236-55.835c0.01-0.017,0.016-0.036,0.026-0.053c0.13-0.229,0.248-0.466,0.35-0.712
	C279.446,134.094,279.45,134.077,279.457,134.06z M241.197,174.46l-9.54-16.524c-0.031-0.054-0.068-0.103-0.101-0.156
	c-0.066-0.107-0.133-0.214-0.205-0.317c-0.06-0.086-0.124-0.169-0.188-0.251c-0.063-0.081-0.125-0.161-0.191-0.239
	c-0.078-0.092-0.159-0.179-0.242-0.266c-0.06-0.063-0.121-0.126-0.183-0.187c-0.09-0.087-0.183-0.171-0.278-0.252
	c-0.065-0.056-0.13-0.111-0.197-0.165c-0.094-0.074-0.19-0.146-0.287-0.214c-0.078-0.055-0.156-0.109-0.236-0.161
	c-0.09-0.058-0.181-0.113-0.273-0.166c-0.095-0.055-0.191-0.108-0.289-0.158c-0.081-0.042-0.164-0.081-0.247-0.119
	c-0.112-0.052-0.225-0.101-0.341-0.146c-0.076-0.03-0.152-0.057-0.228-0.084c-0.122-0.043-0.245-0.083-0.37-0.118
	c-0.079-0.022-0.159-0.042-0.239-0.062c-0.121-0.029-0.242-0.057-0.365-0.079c-0.095-0.018-0.191-0.031-0.287-0.044
	c-0.109-0.015-0.217-0.03-0.328-0.039c-0.119-0.01-0.238-0.014-0.358-0.018c-0.067-0.002-0.132-0.01-0.199-0.01h-30.381
	l-13.314-23.061l13.314-23.061h26.628l13.314,23.061l-2.778,4.812c-1.795,3.109-0.729,7.084,2.379,8.879
	c3.109,1.794,7.084,0.729,8.879-2.379l2.778-4.812h15.328L241.197,174.46z M155.746,138.125h15.328l13.314,23.061l-7.664,13.274
	L155.746,138.125z M176.724,88.79l7.664,13.274l-13.314,23.061h-15.328L176.724,88.79z M222.274,95.564h-26.628l-7.664-13.274
	h41.956L222.274,95.564z M195.647,167.686h26.628l7.664,13.274h-41.956L195.647,167.686z M246.847,125.125l-13.314-23.061
	l7.664-13.274l20.978,36.335H246.847z"/>
<g>
</g>
<g>
</g>
<g>
</g>
<g>
</g>
<g>
</g>
<g>
</g>
<g>
</g>
<g>
</g>
<g>
</g>
<g>
</g>
<g>
</g>
<g>
</g>
<g>
</g>
<g>
</g>
<g>
</g>
</svg>
