<?xml version="1.0" encoding="iso-8859-1"?>
<!-- Generator: Adobe Illustrator 17.1.0, SVG Export Plug-In . SVG Version: 6.00 Build 0)  -->
<!DOCTYPE svg PUBLIC "-//W3C//DTD SVG 1.1//EN" "http://www.w3.org/Graphics/SVG/1.1/DTD/svg11.dtd">
<svg version="1.1" id="Capa_1" xmlns="http://www.w3.org/2000/svg" xmlns:xlink="http://www.w3.org/1999/xlink" x="0px" y="0px"
	 viewBox="0 0 410.262 410.262" style="enable-background:new 0 0 410.262 410.262;" xml:space="preserve">
<path d="M340.118,304.786c-10.419-6.664-22.81-8.874-34.887-6.217c-24.935,5.482-40.761,30.227-35.28,55.161
	c2.655,12.079,9.855,22.401,20.273,29.064c7.541,4.823,16.113,7.312,24.854,7.312c3.335,0,6.697-0.362,10.033-1.096
	c12.079-2.655,22.4-9.854,29.064-20.273c6.664-10.418,8.871-22.808,6.216-34.887C357.736,321.771,350.537,311.45,340.118,304.786z
	 M343.224,361.733c-4.792,7.492-12.216,12.671-20.904,14.58c-8.687,1.908-17.599,0.323-25.092-4.47s-12.671-12.217-14.581-20.904
	c-3.942-17.934,7.44-35.73,25.374-39.673c2.398-0.527,4.794-0.78,7.154-0.78c15.292,0,29.104,10.62,32.518,26.155
	C349.604,345.329,348.017,354.24,343.224,361.733z M380.663,332.598c-3.116-18.108-13.206-33.712-28.41-43.936
	c-15.212-10.23-33.448-13.696-51.345-9.762c-0.494,0.108-0.989,0.224-1.486,0.346l-59.342-117.775l49.572-119.336
	c0.023-0.055,0.045-0.11,0.066-0.166c2.537-6.617,2.063-13.989-1.297-20.229c-3.361-6.238-9.258-10.688-16.258-12.228l-41.677-9.161
	c-8.093-1.771-16.125,3.359-17.904,11.452s3.358,16.125,11.452,17.905h0l30.448,6.692l-39.935,89.469l-9.415,1.936l-9.414-1.936
	l-39.935-89.469l30.448-6.692c8.093-1.78,13.23-9.813,11.452-17.905c-1.779-8.093-9.812-13.229-17.905-11.452L138.021,9.53
	c-6.921,1.521-12.818,5.972-16.179,12.21c-3.361,6.238-3.834,13.611-1.297,20.229c0.021,0.056,0.043,0.111,0.066,0.166
	l49.572,119.336L110.84,279.246c-0.497-0.122-0.993-0.237-1.486-0.346c-17.898-3.935-36.133-0.467-51.345,9.762
	c-15.204,10.224-25.293,25.827-28.41,43.936c-5.756,33.445,15.41,66.538,48.185,75.34c5.792,1.556,11.65,2.325,17.462,2.324
	c11.997,0,23.79-3.278,34.338-9.688c15.667-9.52,26.462-24.62,30.396-42.52c2.53-11.511,1.941-23.378-1.595-34.445l7.834,1.723
	c8.928,1.962,17.779-3.705,19.74-12.627c0.951-4.322,0.161-8.757-2.224-12.485s-6.079-6.305-10.401-7.255l-19.988-4.394
	c-2.507-0.551-4.608-2.182-5.765-4.474c-1.114-2.209-1.213-4.758-0.282-7.038l43.138-75.449l14.693-7.099l14.693,7.099
	l43.138,75.449c0.931,2.28,0.833,4.829-0.282,7.038c-1.156,2.292-3.257,3.923-5.764,4.474l-19.988,4.394
	c-4.323,0.95-8.017,3.526-10.402,7.255s-3.175,8.163-2.225,12.485c1.961,8.923,10.817,14.58,19.741,12.627l7.833-1.723
	c-3.536,11.067-4.125,22.935-1.595,34.446c3.935,17.899,14.729,32.999,30.396,42.519c10.549,6.41,22.339,9.689,34.338,9.688
	c5.811,0,11.672-0.769,17.462-2.324C365.253,399.136,386.418,366.043,380.663,332.598z M268.147,37.676
	c1.158-2.595,1.088-5.538-0.192-8.074c-1.28-2.537-3.606-4.342-6.38-4.951l-34.752-7.639c-1.093-0.24-1.786-1.324-1.546-2.417
	c0.24-1.092,1.325-1.784,2.417-1.546l41.756,9.179c3.219,0.707,5.962,2.777,7.525,5.679c1.551,2.879,1.78,6.276,0.632,9.334
	l-45.11,108.597l-5.222-10.861c-0.105-0.218-0.223-0.427-0.349-0.63c-0.039-0.062-0.083-0.119-0.123-0.179
	c-0.093-0.137-0.187-0.274-0.289-0.403c-0.054-0.068-0.113-0.133-0.17-0.199c-0.097-0.113-0.196-0.225-0.301-0.331
	c-0.066-0.067-0.134-0.13-0.203-0.194c-0.061-0.057-0.118-0.118-0.181-0.172L268.147,37.676z M190.191,187.291l-7.224,3.49
	c-1.182,0.571-2.163,1.486-2.815,2.626l-44.32,77.519c-0.107,0.188-0.205,0.38-0.292,0.576c-2.647,5.929-2.488,12.653,0.436,18.449
	c2.924,5.797,8.238,9.922,14.58,11.316l19.989,4.394c0.931,0.204,1.727,0.76,2.241,1.563c0.513,0.803,0.684,1.758,0.479,2.689
	c-0.422,1.924-2.332,3.146-4.252,2.721l-20.222-4.445c-2.499-0.545-5.09,0.42-6.615,2.476c-1.525,2.055-1.703,4.814-0.452,7.048
	c6.397,11.429,8.373,24.764,5.563,37.551c-3.165,14.397-11.848,26.544-24.45,34.201c-12.594,7.651-27.395,9.754-41.677,5.919
	c-26.354-7.078-43.374-33.688-38.746-60.58c2.508-14.575,10.624-27.13,22.853-35.354c8.946-6.016,19.19-9.123,29.68-9.123
	c3.857,0,7.75,0.421,11.62,1.271c1.84,0.404,3.72,0.927,5.588,1.554c3.063,1.024,6.417-0.353,7.871-3.238l56.738-112.606
	l0.868,2.089c0.458,1.103,1.208,2.051,2.16,2.749c0.317,0.233,0.657,0.437,1.015,0.611L190.191,187.291z M329.105,395.383
	c-14.282,3.834-29.084,1.733-41.678-5.919c-12.602-7.657-21.285-19.804-24.45-34.2c-2.811-12.787-0.835-26.123,5.563-37.552
	c1.25-2.233,1.073-4.993-0.452-7.048c-1.242-1.674-3.189-2.627-5.219-2.627c-0.463,0-0.931,0.05-1.396,0.151l-20.222,4.445
	c-1.922,0.426-3.831-0.797-4.253-2.721c-0.205-0.932-0.034-1.887,0.479-2.689c0.513-0.803,1.309-1.358,2.241-1.563l19.989-4.394
	c6.341-1.395,11.655-5.52,14.58-11.316c2.924-5.796,3.083-12.521,0.436-18.449c-0.088-0.196-0.186-0.389-0.292-0.576l-44.321-77.519
	c-0.651-1.14-1.633-2.055-2.814-2.626l-19.334-9.342c-0.001,0-0.001-0.001-0.002-0.001l-19.273-9.313l-2.572-6.189l-53.46-128.696
	c-1.147-3.058-0.918-6.455,0.632-9.333c1.563-2.901,4.306-4.972,7.604-5.696l41.676-9.161c1.091-0.243,2.177,0.454,2.417,1.546
	c0.24,1.093-0.454,2.177-1.546,2.417l-34.751,7.639c-2.775,0.609-5.102,2.414-6.381,4.951c-1.28,2.536-1.35,5.479-0.192,8.074
	l43.09,96.539c0.854,1.912,2.575,3.296,4.626,3.718l13.989,2.876c0,0,0.001,0,0.001,0l13.133,2.7l10.002,20.805
	c0.017,0.036,0.035,0.072,0.053,0.108l0,0.001l0,0l0.006,0.012l63.223,125.477c1.454,2.886,4.808,4.263,7.871,3.238
	c1.869-0.627,3.749-1.149,5.588-1.554c14.399-3.166,29.064-0.375,41.299,7.853c12.229,8.223,20.345,20.778,22.853,35.353
	C372.479,361.695,355.46,388.305,329.105,395.383z M105.031,298.569c-24.935-5.478-49.68,10.346-55.161,35.281
	c-2.655,12.079-0.447,24.469,6.216,34.887c6.664,10.419,16.985,17.618,29.064,20.273c3.337,0.733,6.695,1.096,10.032,1.096
	c8.74,0,17.315-2.489,24.855-7.312c10.418-6.664,17.618-16.985,20.273-29.064C145.792,328.796,129.965,304.052,105.031,298.569z
	 M127.614,350.939c-1.909,8.688-7.087,16.111-14.581,20.903c-7.494,4.792-16.404,6.38-25.092,4.471
	c-8.688-1.909-16.111-7.088-20.904-14.58c-4.792-7.493-6.38-16.404-4.47-25.092c1.909-8.688,7.087-16.111,14.581-20.904
	c5.424-3.469,11.59-5.259,17.877-5.259c2.398,0,4.815,0.261,7.214,0.788C120.173,315.209,131.556,333.006,127.614,350.939z
	 M220.875,165.846c-2.567,6.282-8.612,10.342-15.398,10.342c-9.17,0-16.631-7.461-16.631-16.632c0-9.17,7.461-16.631,16.631-16.631
	c3.59,0,6.5,2.91,6.5,6.5s-2.91,6.5-6.5,6.5c-2.002,0-3.631,1.629-3.631,3.631c0,2.003,1.629,3.632,3.631,3.632
	c1.483,0,2.804-0.887,3.365-2.26c1.358-3.323,5.154-4.916,8.476-3.558C220.64,158.729,222.233,162.522,220.875,165.846z"/>
<g>
</g>
<g>
</g>
<g>
</g>
<g>
</g>
<g>
</g>
<g>
</g>
<g>
</g>
<g>
</g>
<g>
</g>
<g>
</g>
<g>
</g>
<g>
</g>
<g>
</g>
<g>
</g>
<g>
</g>
</svg>
