<?xml version="1.0" encoding="UTF-8"?>
<!DOCTYPE svg PUBLIC "-//W3C//DTD SVG 1.1//EN" "http://www.w3.org/Graphics/SVG/1.1/DTD/svg11.dtd">
<!-- Creator: CorelDRAW 2018 (64-Bit OEM Version) -->
<svg xmlns="http://www.w3.org/2000/svg" xml:space="preserve" width="210mm" height="297mm" version="1.1" style="shape-rendering:geometricPrecision; text-rendering:geometricPrecision; image-rendering:optimizeQuality; fill-rule:evenodd; clip-rule:evenodd"
viewBox="0 0 21000 29700"
 xmlns:xlink="http://www.w3.org/1999/xlink">
 <defs>
  <style type="text/css">
   <![CDATA[
    .fil1 {fill:#939494;fill-rule:nonzero}
    .fil0 {fill:#ECA6C5;fill-rule:nonzero}
    .fil2 {fill:#B0D393;fill-rule:nonzero}
   ]]>
  </style>
 </defs>
 <g id="Layer_x0020_1">
  <metadata id="CorelCorpID_0Corel-Layer"/>
  <g id="_3164376544">
   <path class="fil0" d="M2533.04 9578.21c130.68,188.15 252.99,378.84 368.09,571.9l10823.75 0c892.52,-699.84 1895.43,-1217.09 2962.07,-1494.65 293.24,-309.98 561.54,-632.35 789.96,-974.26l-15682.27 0c90.51,479.98 323.25,940.3 520.72,1410.15 68.71,163.86 141.13,326.17 217.68,486.86zm613.73 1007.1c60.6,113.46 119.1,227.68 175.69,342.62 113.81,231.2 220.18,464.89 325.4,696.64 218.07,497.83 436.09,1006.83 654.08,1523.46l6884.04 0c544.37,-973.36 1231.74,-1843.05 2023.82,-2562.72l-10063.03 0zm1338.04 2997.92c410.47,980.45 820.82,1984.46 1231.17,2988.44 393.83,936.88 984.52,1873.66 1897.56,2638.29 324.66,158.82 675.98,259.01 1049.9,295.49 284.85,27.88 582.14,19.57 892.38,-29.8 67.75,0.13 229.02,-44.29 322.73,-102.51 -33.26,-343.5 -50.87,-692.29 -50.87,-1045.78 0,-1688.99 413.17,-3314.92 1128.07,-4744.13l-6470.94 0zm13254.25 -6337.23c349.49,-651.31 547.47,-1376.6 504.61,-2218.51 -66.9,-385.48 -220.33,-754.63 -455.85,-1074.49 -235.38,-319.94 -552.62,-590.58 -946.29,-777.98 -590.81,-281.04 -1280.05,-374.69 -1969.22,-281.04 -1476.83,187.39 -2461.32,1217.91 -3938.2,1498.95 -344.61,46.85 -689.21,23.44 -1020.49,-42.43 -1736.29,-613.32 -3213.12,-1924.9 -5280.66,-1362.81 -1722.93,409.85 -2676.73,1844.39 -2859.08,3413.28 -32.47,279.11 -40.47,562.46 -24.08,845.03l15989.26 0z"/>
   <path class="fil1" d="M2153.12 25310.43l569.68 0c610.21,0 915.31,249.27 915.31,748.4 0,509.92 -305.1,764.58 -915.31,764.58l-569.68 0 0 -1512.98zm238.25 1333.22l327.16 0c260.3,0 438.11,-50.93 532.69,-153.4 94.59,-101.86 142.24,-245.67 142.24,-431.42 0,-180.96 -46.93,-321.17 -141.53,-420.64 -94.59,-98.87 -272.39,-148.6 -533.4,-148.6l-327.16 0 0 1154.06zm2095.93 205.52c-191.32,0 -344.22,-50.33 -460.15,-151.59 -115.93,-100.67 -174.24,-240.88 -174.24,-421.24 0,-179.16 56.18,-319.37 168.55,-420.64 112.36,-101.26 258.89,-152.2 440.23,-152.2 185.63,0 333.56,49.74 444.52,149.8 110.24,100.07 165.7,240.88 165.7,423.04l0 46.74 -978.62 0c9.25,126.43 51.21,220.5 124.46,281.62 73.26,61.12 162.87,91.68 269.55,91.68 81.09,0 154.33,-17.38 219.06,-52.13 64.71,-34.76 98.85,-83.89 102.41,-148l238.96 0c-17.78,112.64 -78.94,199.53 -182.07,260.65 -103.12,61.71 -229.72,92.27 -378.36,92.27zm340.66 -678.89c-18.49,-105.46 -60.45,-184.55 -125.88,-236.68 -65.42,-52.13 -145.78,-78.5 -240.39,-78.5 -92.45,0 -171.39,25.77 -237.55,77.9 -66.14,52.13 -108.1,131.22 -125.86,237.28l729.68 0zm733.97 -302.6c115.22,-109.65 244.67,-164.18 388.33,-164.18 293.01,0 439.52,134.82 439.52,403.86l0 716.05 -231.14 0 0 -708.26c0,-89.28 -19.21,-153.99 -56.9,-192.94 -37.68,-38.95 -100.28,-58.72 -187.04,-58.72 -117.36,0 -235.42,58.72 -352.77,175.57l0 784.35 -231.84 0 0 -1095.34 231.84 0 0 139.61zm1668.51 957.53c-50.5,8.38 -105.97,12.58 -165.01,12.58 -94.59,0 -164.29,-14.38 -208.38,-43.14 -44.1,-28.17 -71.11,-64.72 -81.79,-109.66 -10.67,-44.94 -16.36,-105.46 -16.36,-182.75l0 -621.37 -160.73 0 0 -152.8 160.73 0 0 -272.04 230.43 0 0 272.04 210.53 0 0 152.8 -210.53 0 0 632.15c0,74.9 11.38,122.24 34.13,142.61 22.05,20.38 52.65,30.56 91.75,30.56 40.55,0 78.96,-2.99 115.23,-8.39l0 147.41zm1015.6 -290.02l0 -242.07 -157.89 0c-334.98,0 -502.11,76.69 -502.11,230.09 0,55.72 24.18,98.27 73.25,128.23 49.08,29.96 115.22,44.94 198.44,44.94 76.1,0 149.34,-14.38 220.47,-43.74 71.11,-28.77 127.31,-67.71 167.84,-117.45zm0 175.57c-117.35,92.28 -268.84,138.41 -454.45,138.41 -128.74,0 -235.42,-29.36 -318.64,-88.08 -83.2,-58.72 -125.16,-134.82 -125.16,-227.69 0,-255.86 261.71,-384.09 785.89,-384.09l112.36 0c0,-78.5 -4.98,-135.42 -14.22,-170.77 -9.96,-35.36 -37.7,-65.32 -82.51,-88.68 -44.8,-23.37 -116.63,-34.76 -214.78,-34.76 -205.54,0 -311.51,61.72 -317.91,185.75l-230.43 0c17.06,-224.7 204.12,-337.35 561.13,-337.35 166.44,0 296.59,27.57 389.75,83.29 93.17,55.73 139.4,165.38 139.4,328.36l0 708.26 -230.43 0 0 -112.65zm803.67 112.65l-231.85 0 0 -1512.98 231.85 0 0 1512.98zm169.98 0l0 0zm1619.43 25.76c-253.91,0 -456.61,-70.1 -608.1,-210.91 -151.48,-140.82 -227.58,-331.36 -227.58,-571.64 0,-240.28 76.1,-430.23 227.58,-571.04 151.49,-140.81 354.19,-210.92 608.1,-210.92 195.56,0 362,44.34 499.25,133.03 137.27,88.68 214.07,205.52 231.15,351.13l-245.37 0c-9.23,-95.88 -58.32,-171.97 -147.21,-228.3 -88.91,-56.32 -200.57,-84.49 -334.99,-84.49 -182.77,0 -326.44,52.73 -432.41,158.19 -105.97,105.46 -159.31,256.46 -159.31,452.4 0,195.94 52.62,346.34 157.88,452.39 105.27,106.06 248.21,158.79 428.86,158.79 140.12,0 253.9,-28.76 340.68,-86.88 86.05,-57.52 135.12,-140.21 146.5,-247.47l245.37 0c-17.08,161.18 -92.45,285.22 -225.46,373.3 -132.98,88.08 -301.55,132.42 -504.94,132.42zm1581.72 0c-191.32,0 -344.24,-50.33 -460.16,-151.59 -115.93,-100.67 -174.25,-240.88 -174.25,-421.24 0,-179.16 56.19,-319.37 168.57,-420.64 112.37,-101.26 258.87,-152.2 440.24,-152.2 185.63,0 333.56,49.74 444.5,149.8 110.23,100.07 165.71,240.88 165.71,423.04l0 46.74 -978.62 0c9.24,126.43 51.2,220.5 124.46,281.62 73.25,61.12 162.86,91.68 269.55,91.68 81.07,0 154.33,-17.38 219.05,-52.13 64.71,-34.76 98.86,-83.89 102.41,-148l238.97 0c-17.78,112.64 -78.95,199.53 -182.07,260.65 -103.13,61.71 -229.72,92.27 -378.36,92.27zm340.67 -678.89c-18.49,-105.46 -60.45,-184.55 -125.89,-236.68 -65.43,-52.13 -145.8,-78.5 -240.38,-78.5 -92.46,0 -171.41,25.77 -237.55,77.9 -66.14,52.13 -108.1,131.22 -125.89,237.28l729.71 0zm733.96 -302.6c115.23,-109.65 244.65,-164.18 388.32,-164.18 293.03,0 439.53,134.82 439.53,403.86l0 716.05 -231.15 0 0 -708.26c0,-89.28 -19.19,-153.99 -56.89,-192.94 -37.7,-38.95 -100.28,-58.72 -187.05,-58.72 -117.34,0 -235.4,58.72 -352.76,175.57l0 784.35 -231.85 0 0 -1095.34 231.85 0 0 139.61zm1668.49 957.53c-50.49,8.38 -105.97,12.58 -164.99,12.58 -94.58,0 -164.29,-14.38 -208.38,-43.14 -44.09,-28.17 -71.13,-64.72 -81.79,-109.66 -10.68,-44.94 -16.35,-105.46 -16.35,-182.75l0 -621.37 -160.75 0 0 -152.8 160.75 0 0 -272.04 230.42 0 0 272.04 210.52 0 0 152.8 -210.52 0 0 632.15c0,74.9 11.39,122.24 34.14,142.61 22.05,20.38 52.62,30.56 91.75,30.56 40.53,0 78.93,-2.99 115.2,-8.39l0 147.41zm867.68 -919.18c-32.71,-8.39 -79.66,-12.58 -141.52,-12.58 -117.35,0 -218.35,52.13 -302.28,155.79l0 774.17 -231.85 0 0 -1095.34 231.85 0 0 152.8c97.44,-118.05 209.81,-177.37 337.83,-177.37 32.73,0 68.27,3 105.97,8.39l0 194.14zm983.6 777.76c-115.2,110.26 -244.65,165.38 -388.31,165.38 -293.03,0 -439.53,-134.82 -439.53,-404.46l0 -716.64 231.15 0 0 708.26c0,89.28 19.19,153.99 56.88,192.94 37.7,38.95 99.58,58.72 185.63,58.72 128.72,0 246.78,-58.12 354.18,-174.97l0 -784.95 230.43 0 0 1095.34 -230.43 0 0 -139.62zm2329.21 139.62l-231.85 0 0 -708.26c0,-90.47 -15.65,-155.19 -46.23,-194.14 -31.3,-38.35 -83.21,-57.52 -155.75,-57.52 -111.67,0 -221.9,58.72 -330,175.57l0 784.35 -229.73 0 0 -708.26c0,-90.47 -15.65,-155.19 -46.22,-194.14 -31.3,-38.35 -83.93,-57.52 -157.19,-57.52 -111.64,0 -221.17,58.72 -328.57,175.57l0 784.35 -231.85 0 0 -1095.34 231.85 0 0 139.61c109.53,-109.65 231.15,-164.18 364.14,-164.18 189.89,0 311.51,65.92 363.43,198.34 86.76,-86.29 160.73,-140.81 221.19,-164.18 60.45,-22.77 119.47,-34.16 177.08,-34.16 266.72,0 399.7,134.82 399.7,403.86l0 716.05z"/>
   <path class="fil1" d="M4862.19 21566.28l-1107.66 3108.79 -1045.27 0 -1053.71 -3108.79 981.23 0 517.56 1915.67c57.33,216.77 91.05,400.06 101.16,553.38l11.81 0c13.48,-144.51 48.89,-322.51 107.89,-535.75l527.7 -1933.3 959.29 0zm197.26 3025.96l0 -775.44c150.04,93.41 301.78,163.9 451.83,211.48 150.05,47.59 291.67,70.5 424.85,70.5 163.53,0 291.67,-22.91 386.08,-70.5 92.71,-47.58 139.93,-118.07 139.93,-211.48 0,-61.68 -21.93,-112.79 -64.06,-153.32 -42.16,-40.54 -97.8,-75.79 -163.55,-105.75 -67.43,-29.96 -139.93,-58.15 -219.17,-82.83 -79.23,-22.91 -156.79,-51.1 -230.97,-81.06 -118.01,-47.59 -222.53,-96.93 -311.88,-151.57 -89.37,-52.87 -165.22,-114.55 -225.92,-185.04 -60.69,-70.5 -106.22,-153.33 -138.26,-246.73 -32.02,-93.41 -48.88,-202.67 -48.88,-329.56 0,-174.48 37.09,-326.04 109.58,-451.16 72.5,-125.13 168.59,-227.35 289.98,-306.65 119.7,-79.31 257.95,-139.23 414.73,-176.24 156.8,-37.01 318.65,-56.39 485.56,-56.39 133.19,0 266.37,10.57 402.93,31.72 134.87,21.15 268.07,52.87 399.56,93.4l0 740.19c-116.31,-70.49 -241.09,-123.36 -374.27,-160.37 -133.18,-35.25 -262.99,-52.87 -389.44,-52.87 -60.7,0 -118.03,5.28 -170.28,15.86 -52.27,12.33 -99.47,28.2 -139.93,49.34 -42.16,22.91 -74.18,49.35 -96.1,82.83 -23.6,33.49 -35.41,70.5 -35.41,114.56 0,56.39 16.87,103.98 52.27,144.51 35.39,40.53 80.91,75.78 136.55,105.74 55.64,29.96 118.02,54.63 187.14,77.54 69.12,22.91 136.57,47.59 204,72.26 123.08,44.06 232.66,93.41 332.13,144.51 99.47,52.87 183.76,114.56 254.57,185.05 69.12,72.26 123.08,155.09 161.85,250.25 38.78,95.17 57.32,207.96 57.32,340.14 0,185.05 -38.78,341.89 -114.64,472.31 -75.87,130.41 -178.71,236.15 -305.16,317.22 -126.44,82.83 -273.11,142.75 -438.33,179.76 -166.91,37.01 -338.88,56.4 -515.89,56.4 -327.08,0 -630.55,-52.87 -908.72,-158.61zm5443.85 82.83l-475.43 0 0 -528.71 -11.79 0c-220.86,400.05 -561.42,600.96 -1021.67,600.96 -374.29,0 -672.69,-139.22 -896.92,-417.67 -224.24,-276.69 -335.49,-655.6 -335.49,-1136.72 0,-512.85 124.75,-925.24 372.57,-1235.41 247.84,-308.41 576.59,-463.5 989.65,-463.5 409.68,0 706.41,167.42 891.86,504.03l11.79 0 0 -1924.48 475.43 0 0 4601.5zm-475.43 -1406.36l0 -458.21c0,-250.26 -79.24,-463.5 -237.71,-637.97 -160.16,-174.48 -360.79,-260.83 -605.24,-260.83 -290,0 -517.59,111.03 -684.5,333.08 -166.89,223.82 -249.51,532.23 -249.51,925.24 0,357.75 79.23,641.49 239.4,847.69 160.16,207.96 374.28,311.94 642.34,311.94 264.69,0 480.49,-100.46 647.4,-301.37 165.22,-199.14 247.82,-452.92 247.82,-759.57zm3830.44 -22.91l-2100.67 0c8.42,345.42 97.79,611.53 268.07,800.11 170.28,188.57 404.62,283.74 703.02,283.74 335.5,0 642.34,-116.32 922.2,-347.19l0 468.79c-261.32,197.38 -606.94,296.07 -1036.84,296.07 -419.8,0 -748.55,-140.99 -989.64,-422.96 -241.09,-281.98 -360.78,-678.51 -360.78,-1191.35 0,-484.65 131.49,-877.65 394.5,-1182.54 261.32,-304.89 586.7,-456.45 976.15,-456.45 389.44,0 691.23,132.18 905.34,394.77 212.43,262.59 318.65,629.16 318.65,1096.18l0 260.83zm-488.93 -422.97c-1.68,-287.26 -69.12,-511.08 -198.94,-671.45 -129.81,-160.38 -311.9,-239.68 -544.55,-239.68 -224.22,0 -414.73,84.59 -571.53,252.01 -156.79,167.43 -254.57,387.72 -289.97,659.12l1604.99 0zm3677 1852.24l-475.43 0 0 -1772.93c0,-660.88 -230.97,-990.44 -691.23,-990.44 -237.7,0 -434.96,93.4 -591.76,280.21 -156.78,188.57 -234.34,424.73 -234.34,710.23l0 1772.93 -475.43 0 0 -3108.79 475.43 0 0 516.37 11.81 0c224.22,-393.01 549.61,-588.63 976.15,-588.63 325.38,0 573.22,109.27 746.87,329.56 171.97,220.29 257.93,537.52 257.93,951.67l0 1899.82zm2276.01 -29.96c-112.95,65.2 -259.63,96.93 -443.39,96.93 -520.95,0 -782.27,-303.13 -782.27,-911.14l0 -1839.9 -510.84 0 0 -424.72 510.84 0 0 -759.58 477.12 -160.37 0 919.95 748.54 0 0 424.72 -748.54 0 0 1751.78c0,209.72 33.71,357.76 101.14,445.88 67.45,89.88 180.39,133.94 337.19,133.94 119.7,0 224.23,-33.49 310.21,-102.22l0 424.73z"/>
   <path class="fil2" d="M17033.99 9493.62l0.62 3.44 -3751.31 6670.59c-580.32,-818.07 -1218.03,-1367.69 -1704.3,-1462.63l-3.87 -5.64c1080,-2394.69 3073.13,-4323.97 5458.86,-5205.76zm66.41 393.07c190.3,1205.89 265.46,2463.42 186.49,3710.85 -91.75,1449.27 -391.79,2886.04 -960.55,4216.25l-24.66 52.82c-94.62,186.91 -199,359.09 -315.62,511.1 -137.28,178.95 -293.82,333.87 -473.61,458.44 -195.5,135.5 -412.5,229.76 -654.01,274.54 -91.32,16.92 -184.09,26.4 -278.31,27.96 -95.99,-590.84 -340.91,-1304.22 -722.26,-2030.56 -132.09,-251.66 -272.71,-489.86 -418.33,-711.6l3660.86 -6509.8z"/>
  </g>
 </g>
</svg>
